<svg xmlns="http://www.w3.org/2000/svg" xmlns:xlink="http://www.w3.org/1999/xlink" width="702.0299682617188" height="54.19021987915039" style="width:702.0299682617188px;height:54.19021987915039px;font-family:Asana-Math, Asana;background:#FFF;"><g><g><g><g transform="matrix(1,0,0,1,20.478271484375,19.86956787109375)"><path transform="matrix(0.017,0,0,-0.017,0,0)" d="M543 227C543 337 459 353 377 365C434 385 459 397 490 425C536 464 559 511 559 562C559 644 501 692 401 692C399 692 389 692 374 691L311 690C299 689 263 689 251 689C232 689 201 690 152 691L100 692L97 664L150 662C174 661 185 653 185 635C185 621 181 589 176 559L89 55C85 37 73 30 31 23L26 -3L63 -2C90 0 105 0 117 0C128 0 154 -1 180 -2L217 -3L237 -4C256 -5 269 -6 277 -6C392 -6 543 87 543 227ZM166 41L217 340L302 340C405 340 455 298 455 211C455 108 382 34 282 34C228 34 207 38 166 41ZM352 655C433 655 473 619 473 544C473 439 399 376 275 376L223 376L272 650C288 650 329 655 352 655ZM1547 664L1560 695C1532 699 1385 701 1383 692L1298 536L1052 114L902 692C879 686 756 690 735 692L732 664L758 662C810 658 828 648 828 622C828 616 682 100 680 93C664 41 649 28 594 23L591 -3L630 -2C664 -1 689 0 703 0C717 0 743 -1 778 -2L813 -3L816 25L778 28C746 30 729 40 729 55C729 65 731 78 736 96L860 560L1009 -18L1032 -18L1089 86L1328 500L1380 587L1343 67C1339 39 1327 32 1276 28L1245 25L1242 -3L1289 -2C1331 -1 1361 0 1376 0C1392 0 1422 -1 1463 -2L1509 -3L1512 25L1475 28C1439 31 1421 42 1421 63L1422 100L1463 631C1465 650 1480 660 1509 662ZM1668 664L1724 662C1748 661 1759 653 1759 635C1759 621 1755 589 1750 559L1675 125C1659 34 1657 32 1617 28L1576 25L1572 -3L1614 -2C1661 0 1680 0 1704 0L1801 -3L1827 -3L1830 25L1781 28C1754 30 1745 38 1745 58C1745 67 1746 76 1749 93L1850 648C1879 654 1899 656 1926 656C2013 656 2059 617 2059 543C2059 448 1981 378 1877 378L1833 378L1830 367C1964 172 1995 124 2070 -3C2070 -3 2155 0 2155 0C2156 0 2170 -1 2189 -3L2202 -3L2202 24C2162 29 2151 37 2122 79L1938 354C1993 364 2022 376 2058 402C2116 444 2147 499 2147 560C2147 646 2083 693 1972 691L1671 691Z" stroke="rgb(0,0,0)" stroke-opacity="1" stroke-width="8" fill="rgb(0,0,0)" fill-opacity="1"></path></g></g></g></g><g><g><g><g transform="matrix(1,0,0,1,64.3233642578125,19.86956787109375)"><path transform="matrix(0.017,0,0,-0.017,0,0)" d="M604 347L604 406L65 406L65 347ZM604 134L604 193L65 193L65 134Z" stroke="rgb(0,0,0)" stroke-opacity="1" stroke-width="8" fill="rgb(0,0,0)" fill-opacity="1"></path></g></g><g><g transform="matrix(1,0,0,1,80.77716064453125,19.86956787109375)"><path transform="matrix(0.017,0,0,-0.017,0,0)" d="" stroke="rgb(0,0,0)" stroke-opacity="1" stroke-width="8" fill="rgb(0,0,0)" fill-opacity="1"></path></g></g><g><g transform="matrix(1,0,0,1,85.01629638671875,20.7391357421875)"><path transform="matrix(0.017,0,0,-0.017,0,0)" d="M146 266C146 526 243 632 301 700L282 726C225 675 60 542 60 266C60 159 85 58 133 -32C168 -99 200 -138 282 -215L301 -194C255 -137 146 -15 146 266Z" stroke="rgb(0,0,0)" stroke-opacity="1" stroke-width="8" fill="rgb(0,0,0)" fill-opacity="1"></path></g></g><g><g transform="matrix(1,0,0,1,90.66851806640625,19.86956787109375)"><path transform="matrix(0.017,0,0,-0.017,0,0)" d="M667 -3L667 27L615 30C560 33 550 44 550 96L550 700L309 598L316 548L466 614L466 96C466 44 455 33 401 30L345 27L345 -3C499 0 499 0 510 0C541 0 651 -3 667 -3ZM1011 689C856 689 777 566 777 324C777 207 798 106 833 57C868 8 924 -20 986 -20C1137 -20 1213 110 1213 366C1213 585 1148 689 1011 689ZM993 654C1090 654 1129 556 1129 316C1129 103 1091 15 999 15C902 15 861 116 861 360C861 571 898 654 993 654ZM1664 267L1533 213L1528 204L1564 153L1574 153L1680 241L1698 99L1708 95L1776 121L1776 131L1708 253L1846 233L1855 241L1855 303L1849 307L1710 283L1779 408L1776 423L1714 442L1705 438L1679 295L1584 393L1574 393L1530 341L1533 331ZM2551 -3L2551 27L2499 30C2444 33 2434 44 2434 96L2434 700L2193 598L2200 548L2350 614L2350 96C2350 44 2339 33 2285 30L2229 27L2229 -3C2383 0 2383 0 2394 0C2425 0 2535 -3 2551 -3ZM3041 603L2679 -1L2789 -1L3129 659L3129 689L2676 689L2676 477L2706 477L2713 533C2721 595 2728 603 2774 603ZM3411 181L3411 106C3411 46 3400 32 3351 30L3289 27L3289 -3C3422 0 3422 0 3446 0C3470 0 3470 0 3603 -3L3603 27L3555 30C3506 33 3495 46 3495 106L3495 181C3554 181 3575 180 3603 177L3603 248L3495 245L3496 697L3416 667L3133 204L3133 181ZM3411 245L3196 245L3411 597Z" stroke="rgb(0,0,0)" stroke-opacity="1" stroke-width="8" fill="rgb(0,0,0)" fill-opacity="1"></path></g></g><g><g transform="matrix(1,0,0,1,156.57879638671875,20.7391357421875)"><path transform="matrix(0.017,0,0,-0.017,0,0)" d="M51 726L32 700C87 636 187 526 187 266C187 -10 83 -131 32 -194L51 -215C104 -165 273 -23 273 265C273 542 108 675 51 726Z" stroke="rgb(0,0,0)" stroke-opacity="1" stroke-width="8" fill="rgb(0,0,0)" fill-opacity="1"></path></g></g><g><g transform="matrix(1,0,0,1,162.23101806640625,19.86956787109375)"><path transform="matrix(0.017,0,0,-0.017,0,0)" d="" stroke="rgb(0,0,0)" stroke-opacity="1" stroke-width="8" fill="rgb(0,0,0)" fill-opacity="1"></path></g></g><g><g transform="matrix(1,0,0,1,169.86688232421875,19.86956787109375)"><path transform="matrix(0.017,0,0,-0.017,0,0)" d="M604 241L604 300L364 300L364 538L305 538L305 300L65 300L65 241L305 241L305 0L364 0L364 241Z" stroke="rgb(0,0,0)" stroke-opacity="1" stroke-width="8" fill="rgb(0,0,0)" fill-opacity="1"></path></g></g><g><g transform="matrix(1,0,0,1,184.622314453125,19.86956787109375)"><path transform="matrix(0.017,0,0,-0.017,0,0)" d="" stroke="rgb(0,0,0)" stroke-opacity="1" stroke-width="8" fill="rgb(0,0,0)" fill-opacity="1"></path></g></g><g><g transform="matrix(1,0,0,1,188.8614501953125,20.7391357421875)"><path transform="matrix(0.017,0,0,-0.017,0,0)" d="M146 266C146 526 243 632 301 700L282 726C225 675 60 542 60 266C60 159 85 58 133 -32C168 -99 200 -138 282 -215L301 -194C255 -137 146 -15 146 266Z" stroke="rgb(0,0,0)" stroke-opacity="1" stroke-width="8" fill="rgb(0,0,0)" fill-opacity="1"></path></g></g><g><g transform="matrix(1,0,0,1,194.51361083984375,19.86956787109375)"><path transform="matrix(0.017,0,0,-0.017,0,0)" d="M380 331C401 512 490 611 670 665L628 689C532 657 491 637 440 593C337 506 281 384 281 247C281 82 361 -20 490 -20C620 -20 717 83 717 219C717 334 648 409 542 409C465 409 433 370 380 331ZM504 349C580 349 631 283 631 184C631 80 580 13 503 13C418 13 372 86 372 220C372 255 376 274 387 291C409 325 456 349 504 349ZM872 111C842 111 815 83 815 53C815 23 842 -5 871 -5C903 -5 931 22 931 53C931 83 903 111 872 111ZM1013 23L1013 -3C1200 -3 1200 0 1236 0C1272 0 1272 -3 1465 -3L1465 82C1350 77 1304 81 1119 77L1301 270C1398 373 1428 428 1428 503C1428 618 1350 689 1223 689C1151 689 1102 669 1053 619L1036 483L1065 483L1078 529C1094 587 1130 612 1197 612C1283 612 1338 558 1338 473C1338 398 1296 324 1183 204ZM1955 253C1955 366 1874 446 1760 446C1712 446 1676 443 1623 396L1623 605L1928 604L1928 689L1571 690L1571 322L1591 316C1638 363 1665 377 1714 377C1810 377 1870 309 1870 201C1870 90 1806 25 1697 25C1643 25 1593 43 1579 69L1533 151L1509 137C1532 80 1544 48 1558 4C1586 -11 1626 -20 1669 -20C1797 -20 1955 89 1955 253ZM2412 267L2281 213L2276 204L2312 153L2322 153L2428 241L2446 99L2456 95L2524 121L2524 131L2456 253L2594 233L2603 241L2603 303L2597 307L2458 283L2527 408L2524 423L2462 442L2453 438L2427 295L2332 393L2322 393L2278 341L2281 331ZM3012 331C3033 512 3122 611 3302 665L3260 689C3164 657 3123 637 3072 593C2969 506 2913 384 2913 247C2913 82 2993 -20 3122 -20C3252 -20 3349 83 3349 219C3349 334 3280 409 3174 409C3097 409 3065 370 3012 331ZM3136 349C3212 349 3263 283 3263 184C3263 80 3212 13 3135 13C3050 13 3004 86 3004 220C3004 255 3008 274 3019 291C3041 325 3088 349 3136 349ZM3839 253C3839 366 3758 446 3644 446C3596 446 3560 443 3507 396L3507 605L3812 604L3812 689L3455 690L3455 322L3475 316C3522 363 3549 377 3598 377C3694 377 3754 309 3754 201C3754 90 3690 25 3581 25C3527 25 3477 43 3463 69L3417 151L3393 137C3416 80 3428 48 3442 4C3470 -11 3510 -20 3553 -20C3681 -20 3839 89 3839 253Z" stroke="rgb(0,0,0)" stroke-opacity="1" stroke-width="8" fill="rgb(0,0,0)" fill-opacity="1"></path></g></g><g><g transform="matrix(1,0,0,1,264.6630859375,20.7391357421875)"><path transform="matrix(0.017,0,0,-0.017,0,0)" d="M51 726L32 700C87 636 187 526 187 266C187 -10 83 -131 32 -194L51 -215C104 -165 273 -23 273 265C273 542 108 675 51 726Z" stroke="rgb(0,0,0)" stroke-opacity="1" stroke-width="8" fill="rgb(0,0,0)" fill-opacity="1"></path></g></g><g><g transform="matrix(1,0,0,1,270.31524658203125,19.86956787109375)"><path transform="matrix(0.017,0,0,-0.017,0,0)" d="" stroke="rgb(0,0,0)" stroke-opacity="1" stroke-width="8" fill="rgb(0,0,0)" fill-opacity="1"></path></g></g><g><g transform="matrix(1,0,0,1,277.95111083984375,19.86956787109375)"><path transform="matrix(0.017,0,0,-0.017,0,0)" d="M555 243L555 299L51 299L51 243Z" stroke="rgb(0,0,0)" stroke-opacity="1" stroke-width="8" fill="rgb(0,0,0)" fill-opacity="1"></path></g></g><g><g transform="matrix(1,0,0,1,291.6331787109375,19.86956787109375)"><path transform="matrix(0.017,0,0,-0.017,0,0)" d="" stroke="rgb(0,0,0)" stroke-opacity="1" stroke-width="8" fill="rgb(0,0,0)" fill-opacity="1"></path></g></g><g><g transform="matrix(1,0,0,1,295.872314453125,20.7391357421875)"><path transform="matrix(0.017,0,0,-0.017,0,0)" d="M146 266C146 526 243 632 301 700L282 726C225 675 60 542 60 266C60 159 85 58 133 -32C168 -99 200 -138 282 -215L301 -194C255 -137 146 -15 146 266Z" stroke="rgb(0,0,0)" stroke-opacity="1" stroke-width="8" fill="rgb(0,0,0)" fill-opacity="1"></path></g></g><g><g transform="matrix(1,0,0,1,301.52447509765625,19.86956787109375)"><path transform="matrix(0.017,0,0,-0.017,0,0)" d="M708 253C708 366 627 446 513 446C465 446 429 443 376 396L376 605L681 604L681 689L324 690L324 322L344 316C391 363 418 377 467 377C563 377 623 309 623 201C623 90 559 25 450 25C396 25 346 43 332 69L286 151L262 137C285 80 297 48 311 4C339 -11 379 -20 422 -20C550 -20 708 89 708 253ZM1165 267L1034 213L1029 204L1065 153L1075 153L1181 241L1199 99L1209 95L1277 121L1277 131L1209 253L1347 233L1356 241L1356 303L1350 307L1211 283L1280 408L1277 423L1215 442L1206 438L1180 295L1085 393L1075 393L1031 341L1034 331ZM1650 23L1650 -3C1837 -3 1837 0 1873 0C1909 0 1909 -3 2102 -3L2102 82C1987 77 1941 81 1756 77L1938 270C2035 373 2065 428 2065 503C2065 618 1987 689 1860 689C1788 689 1739 669 1690 619L1673 483L1702 483L1715 529C1731 587 1767 612 1834 612C1920 612 1975 558 1975 473C1975 398 1933 324 1820 204ZM2264 331C2285 512 2374 611 2554 665L2512 689C2416 657 2375 637 2324 593C2221 506 2165 384 2165 247C2165 82 2245 -20 2374 -20C2504 -20 2601 83 2601 219C2601 334 2532 409 2426 409C2349 409 2317 370 2264 331ZM2388 349C2464 349 2515 283 2515 184C2515 80 2464 13 2387 13C2302 13 2256 86 2256 220C2256 255 2260 274 2271 291C2293 325 2340 349 2388 349Z" stroke="rgb(0,0,0)" stroke-opacity="1" stroke-width="8" fill="rgb(0,0,0)" fill-opacity="1"></path></g></g><g><g transform="matrix(1,0,0,1,350.478271484375,20.7391357421875)"><path transform="matrix(0.017,0,0,-0.017,0,0)" d="M51 726L32 700C87 636 187 526 187 266C187 -10 83 -131 32 -194L51 -215C104 -165 273 -23 273 265C273 542 108 675 51 726Z" stroke="rgb(0,0,0)" stroke-opacity="1" stroke-width="8" fill="rgb(0,0,0)" fill-opacity="1"></path></g></g><g><g transform="matrix(1,0,0,1,356.13043212890625,19.86956787109375)"><path transform="matrix(0.017,0,0,-0.017,0,0)" d="" stroke="rgb(0,0,0)" stroke-opacity="1" stroke-width="8" fill="rgb(0,0,0)" fill-opacity="1"></path></g></g><g><g transform="matrix(1,0,0,1,363.76629638671875,19.86956787109375)"><path transform="matrix(0.017,0,0,-0.017,0,0)" d="M604 241L604 300L364 300L364 538L305 538L305 300L65 300L65 241L305 241L305 0L364 0L364 241Z" stroke="rgb(0,0,0)" stroke-opacity="1" stroke-width="8" fill="rgb(0,0,0)" fill-opacity="1"></path></g></g><g><g transform="matrix(1,0,0,1,378.52178955078125,19.86956787109375)"><path transform="matrix(0.017,0,0,-0.017,0,0)" d="M708 253C708 366 627 446 513 446C465 446 429 443 376 396L376 605L681 604L681 689L324 690L324 322L344 316C391 363 418 377 467 377C563 377 623 309 623 201C623 90 559 25 450 25C396 25 346 43 332 69L286 151L262 137C285 80 297 48 311 4C339 -11 379 -20 422 -20C550 -20 708 89 708 253Z" stroke="rgb(0,0,0)" stroke-opacity="1" stroke-width="8" fill="rgb(0,0,0)" fill-opacity="1"></path></g></g><g><g transform="matrix(1,0,0,1,400.559814453125,19.86956787109375)"><path transform="matrix(0.017,0,0,-0.017,0,0)" d="M604 347L604 406L65 406L65 347ZM604 134L604 193L65 193L65 134Z" stroke="rgb(0,0,0)" stroke-opacity="1" stroke-width="8" fill="rgb(0,0,0)" fill-opacity="1"></path></g></g><g><g transform="matrix(1,0,0,1,417.01361083984375,19.86956787109375)"><path transform="matrix(0.017,0,0,-0.017,0,0)" d="M667 -3L667 27L615 30C560 33 550 44 550 96L550 700L309 598L316 548L466 614L466 96C466 44 455 33 401 30L345 27L345 -3C499 0 499 0 510 0C541 0 651 -3 667 -3ZM1157 603L795 -1L905 -1L1245 659L1245 689L792 689L792 477L822 477L829 533C837 595 844 603 890 603ZM1527 181L1527 106C1527 46 1516 32 1467 30L1405 27L1405 -3C1538 0 1538 0 1562 0C1586 0 1586 0 1719 -3L1719 27L1671 30C1622 33 1611 46 1611 106L1611 181C1670 181 1691 180 1719 177L1719 248L1611 245L1612 697L1532 667L1249 204L1249 181ZM1527 245L1312 245L1527 597ZM2009 689C1854 689 1775 566 1775 324C1775 207 1796 106 1831 57C1866 8 1922 -20 1984 -20C2135 -20 2211 110 2211 366C2211 585 2146 689 2009 689ZM1991 654C2088 654 2127 556 2127 316C2127 103 2089 15 1997 15C1900 15 1859 116 1859 360C1859 571 1896 654 1991 654Z" stroke="rgb(0,0,0)" stroke-opacity="1" stroke-width="8" fill="rgb(0,0,0)" fill-opacity="1"></path></g></g><g><g transform="matrix(1,0,0,1,462.78802490234375,19.86956787109375)"><path transform="matrix(0.017,0,0,-0.017,0,0)" d="M604 241L604 300L364 300L364 538L305 538L305 300L65 300L65 241L305 241L305 0L364 0L364 241Z" stroke="rgb(0,0,0)" stroke-opacity="1" stroke-width="8" fill="rgb(0,0,0)" fill-opacity="1"></path></g></g><g><g transform="matrix(1,0,0,1,477.54351806640625,19.86956787109375)"><path transform="matrix(0.017,0,0,-0.017,0,0)" d="M529 181L529 106C529 46 518 32 469 30L407 27L407 -3C540 0 540 0 564 0C588 0 588 0 721 -3L721 27L673 30C624 33 613 46 613 106L613 181C672 181 693 180 721 177L721 248L613 245L614 697L534 667L251 204L251 181ZM529 245L314 245L529 597ZM1011 689C856 689 777 566 777 324C777 207 798 106 833 57C868 8 924 -20 986 -20C1137 -20 1213 110 1213 366C1213 585 1148 689 1011 689ZM993 654C1090 654 1129 556 1129 316C1129 103 1091 15 999 15C902 15 861 116 861 360C861 571 898 654 993 654ZM1378 331C1399 512 1488 611 1668 665L1626 689C1530 657 1489 637 1438 593C1335 506 1279 384 1279 247C1279 82 1359 -20 1488 -20C1618 -20 1715 83 1715 219C1715 334 1646 409 1540 409C1463 409 1431 370 1378 331ZM1502 349C1578 349 1629 283 1629 184C1629 80 1578 13 1501 13C1416 13 1370 86 1370 220C1370 255 1374 274 1385 291C1407 325 1454 349 1502 349ZM1870 111C1840 111 1813 83 1813 53C1813 23 1840 -5 1869 -5C1901 -5 1929 22 1929 53C1929 83 1901 111 1870 111ZM2011 23L2011 -3C2198 -3 2198 0 2234 0C2270 0 2270 -3 2463 -3L2463 82C2348 77 2302 81 2117 77L2299 270C2396 373 2426 428 2426 503C2426 618 2348 689 2221 689C2149 689 2100 669 2051 619L2034 483L2063 483L2076 529C2092 587 2128 612 2195 612C2281 612 2336 558 2336 473C2336 398 2294 324 2181 204ZM2953 253C2953 366 2872 446 2758 446C2710 446 2674 443 2621 396L2621 605L2926 604L2926 689L2569 690L2569 322L2589 316C2636 363 2663 377 2712 377C2808 377 2868 309 2868 201C2868 90 2804 25 2695 25C2641 25 2591 43 2577 69L2531 151L2507 137C2530 80 2542 48 2556 4C2584 -11 2624 -20 2667 -20C2795 -20 2953 89 2953 253Z" stroke="rgb(0,0,0)" stroke-opacity="1" stroke-width="8" fill="rgb(0,0,0)" fill-opacity="1"></path></g></g><g><g transform="matrix(1,0,0,1,536.0353393554688,19.86956787109375)"><path transform="matrix(0.017,0,0,-0.017,0,0)" d="M555 243L555 299L51 299L51 243Z" stroke="rgb(0,0,0)" stroke-opacity="1" stroke-width="8" fill="rgb(0,0,0)" fill-opacity="1"></path></g></g><g><g transform="matrix(1,0,0,1,549.7174682617188,19.86956787109375)"><path transform="matrix(0.017,0,0,-0.017,0,0)" d="M667 -3L667 27L615 30C560 33 550 44 550 96L550 700L309 598L316 548L466 614L466 96C466 44 455 33 401 30L345 27L345 -3C499 0 499 0 510 0C541 0 651 -3 667 -3ZM1210 224C1210 345 1103 366 1056 374C1136 436 1166 482 1166 541C1166 630 1092 689 981 689C913 689 868 670 820 622L791 498L822 498L840 554C851 588 914 622 966 622C1031 622 1084 569 1084 506C1084 431 1025 368 954 368C946 368 935 369 922 370L907 371L895 318L902 312C940 329 959 334 986 334C1069 334 1117 281 1117 190C1117 88 1056 21 963 21C917 21 876 36 846 64C822 86 809 109 790 163L763 153C784 92 792 56 798 6C851 -12 895 -20 932 -20C1055 -20 1210 87 1210 224ZM1510 689C1355 689 1276 566 1276 324C1276 207 1297 106 1332 57C1367 8 1423 -20 1485 -20C1636 -20 1712 110 1712 366C1712 585 1647 689 1510 689ZM1492 654C1589 654 1628 556 1628 316C1628 103 1590 15 1498 15C1401 15 1360 116 1360 360C1360 571 1397 654 1492 654Z" stroke="rgb(0,0,0)" stroke-opacity="1" stroke-width="8" fill="rgb(0,0,0)" fill-opacity="1"></path></g></g><g><g transform="matrix(1,0,0,1,587.0136108398438,19.86956787109375)"><path transform="matrix(0.017,0,0,-0.017,0,0)" d="M604 241L604 300L364 300L364 538L305 538L305 300L65 300L65 241L305 241L305 0L364 0L364 241Z" stroke="rgb(0,0,0)" stroke-opacity="1" stroke-width="8" fill="rgb(0,0,0)" fill-opacity="1"></path></g></g><g><g transform="matrix(1,0,0,1,601.7691040039062,19.86956787109375)"><path transform="matrix(0.017,0,0,-0.017,0,0)" d="M708 253C708 366 627 446 513 446C465 446 429 443 376 396L376 605L681 604L681 689L324 690L324 322L344 316C391 363 418 377 467 377C563 377 623 309 623 201C623 90 559 25 450 25C396 25 346 43 332 69L286 151L262 137C285 80 297 48 311 4C339 -11 379 -20 422 -20C550 -20 708 89 708 253Z" stroke="rgb(0,0,0)" stroke-opacity="1" stroke-width="8" fill="rgb(0,0,0)" fill-opacity="1"></path></g></g><g><g transform="matrix(1,0,0,1,623.8070678710938,19.86956787109375)"><path transform="matrix(0.017,0,0,-0.017,0,0)" d="M604 347L604 406L65 406L65 347ZM604 134L604 193L65 193L65 134Z" stroke="rgb(0,0,0)" stroke-opacity="1" stroke-width="8" fill="rgb(0,0,0)" fill-opacity="1"></path></g></g><g><g transform="matrix(1,0,0,1,640.2609252929688,19.86956787109375)"><path transform="matrix(0.017,0,0,-0.017,0,0)" d="M265 23L265 -3C452 -3 452 0 488 0C524 0 524 -3 717 -3L717 82C602 77 556 81 371 77L553 270C650 373 680 428 680 503C680 618 602 689 475 689C403 689 354 669 305 619L288 483L317 483L330 529C346 587 382 612 449 612C535 612 590 558 590 473C590 398 548 324 435 204ZM1011 689C856 689 777 566 777 324C777 207 798 106 833 57C868 8 924 -20 986 -20C1137 -20 1213 110 1213 366C1213 585 1148 689 1011 689ZM993 654C1090 654 1129 556 1129 316C1129 103 1091 15 999 15C902 15 861 116 861 360C861 571 898 654 993 654ZM1263 23L1263 -3C1450 -3 1450 0 1486 0C1522 0 1522 -3 1715 -3L1715 82C1600 77 1554 81 1369 77L1551 270C1648 373 1678 428 1678 503C1678 618 1600 689 1473 689C1401 689 1352 669 1303 619L1286 483L1315 483L1328 529C1344 587 1380 612 1447 612C1533 612 1588 558 1588 473C1588 398 1546 324 1433 204ZM2164 -3L2164 27L2112 30C2057 33 2047 44 2047 96L2047 700L1806 598L1813 548L1963 614L1963 96C1963 44 1952 33 1898 30L1842 27L1842 -3C1996 0 1996 0 2007 0C2038 0 2148 -3 2164 -3ZM2369 111C2339 111 2312 83 2312 53C2312 23 2339 -5 2368 -5C2400 -5 2428 22 2428 53C2428 83 2400 111 2369 111ZM2510 23L2510 -3C2697 -3 2697 0 2733 0C2769 0 2769 -3 2962 -3L2962 82C2847 77 2801 81 2616 77L2798 270C2895 373 2925 428 2925 503C2925 618 2847 689 2720 689C2648 689 2599 669 2550 619L2533 483L2562 483L2575 529C2591 587 2627 612 2694 612C2780 612 2835 558 2835 473C2835 398 2793 324 2680 204ZM3452 253C3452 366 3371 446 3257 446C3209 446 3173 443 3120 396L3120 605L3425 604L3425 689L3068 690L3068 322L3088 316C3135 363 3162 377 3211 377C3307 377 3367 309 3367 201C3367 90 3303 25 3194 25C3140 25 3090 43 3076 69L3030 151L3006 137C3029 80 3041 48 3055 4C3083 -11 3123 -20 3166 -20C3294 -20 3452 89 3452 253Z" stroke="rgb(0,0,0)" stroke-opacity="1" stroke-width="8" fill="rgb(0,0,0)" fill-opacity="1"></path></g></g></g></g><g><g><g><g transform="matrix(1,0,0,1,2.434814453125,44.5299072265625)"><path transform="matrix(0.017,0,0,-0.017,0,0)" d="M45 284C45 90 152 -18 343 -18C439 -18 510 5 600 67C600 67 610 103 610 103C610 103 600 110 600 110C506 53 454 35 376 35C219 35 133 131 133 309C133 447 190 653 418 653C489 653 541 639 597 603L597 519L624 519C629 576 637 619 651 665C575 694 518 706 456 706C276 706 45 578 45 284ZM958 204L929 77C925 60 923 42 923 26C923 4 932 -9 947 -9C970 -9 1011 17 1093 85L1086 106C1062 86 1033 59 1011 59C1002 59 996 68 996 82C996 87 996 90 997 93L1089 472L1079 481L1046 463C1005 478 988 482 961 482C933 482 913 477 886 464C824 433 791 403 766 354C722 265 691 145 691 67C691 23 706 -11 725 -11C762 -11 842 41 958 204ZM1006 414C984 305 965 253 931 201C874 117 813 59 781 59C769 59 763 72 763 99C763 163 791 280 826 360C850 415 873 433 921 433C944 433 962 429 1006 414ZM1381 722L1369 733C1317 707 1281 698 1209 691L1205 670L1253 670C1277 670 1287 663 1287 648C1287 645 1287 640 1284 622C1273 567 1200 182 1185 132C1172 82 1166 52 1166 31C1166 6 1177 -9 1196 -9C1222 -9 1258 12 1356 85L1346 103L1320 86C1291 67 1269 56 1259 56C1252 56 1246 66 1246 76C1246 82 1247 89 1250 104ZM1424 152C1424 46 1469 -11 1552 -11C1607 -11 1667 15 1712 57C1774 116 1818 230 1818 331C1818 425 1768 482 1685 482C1581 482 1424 382 1424 152ZM1648 444C1709 444 1742 399 1742 315C1742 219 1711 113 1667 60C1649 39 1623 27 1592 27C1534 27 1500 72 1500 151C1500 264 1539 387 1588 427C1601 438 1624 444 1648 444ZM2218 365C2221 403 2226 435 2234 476C2223 481 2219 482 2214 482C2183 482 2152 458 2116 407C2077 351 2038 291 2022 256L2054 408C2058 425 2060 438 2060 450C2060 470 2052 482 2037 482C2016 482 1978 461 1904 408L1876 388L1883 368L1915 389C1943 407 1954 412 1963 412C1973 412 1980 403 1980 390C1980 332 1937 126 1897 -2L1907 -9C1922 -4 1938 -1 1961 4L1974 6L2000 126C2018 209 2041 262 2085 319C2119 363 2146 384 2168 384C2183 384 2193 379 2204 365ZM2272 388L2279 368L2311 389C2348 412 2351 414 2358 414C2368 414 2376 404 2376 391C2376 384 2372 361 2368 347L2302 107C2294 76 2289 49 2289 30C2289 6 2300 -9 2319 -9C2345 -9 2381 12 2479 85L2469 103L2443 86C2414 67 2391 56 2382 56C2375 56 2369 66 2369 76C2369 86 2371 95 2376 116L2453 420C2457 437 2459 448 2459 456C2459 473 2450 482 2434 482C2412 482 2375 461 2300 408ZM2466 712C2437 712 2408 679 2408 645C2408 620 2423 604 2447 604C2478 604 2502 633 2502 671C2502 695 2487 712 2466 712ZM2843 111L2819 94C2766 56 2718 36 2682 36C2635 36 2606 73 2606 133C2606 158 2609 185 2614 214C2631 218 2740 248 2765 259C2850 296 2889 342 2889 404C2889 451 2855 482 2805 482C2737 496 2627 423 2590 349C2560 299 2530 180 2530 113C2530 35 2574 -11 2646 -11C2703 -11 2759 17 2851 92ZM2628 274C2645 343 2665 386 2694 412C2712 428 2743 440 2767 440C2796 440 2815 420 2815 388C2815 344 2780 297 2728 272C2700 258 2664 247 2619 237ZM2934 148C2929 97 2923 62 2912 16C2950 -2 2984 -11 3019 -11C3068 -11 3114 7 3165 47C3216 87 3237 124 3237 174C3237 228 3205 257 3131 271L3088 279C3028 290 3009 307 3009 348C3009 401 3054 442 3111 442C3152 442 3190 424 3206 397L3206 342L3229 342C3233 377 3237 404 3248 455C3209 474 3181 482 3148 482C3096 482 3035 452 2987 404C2961 377 2950 352 2950 316C2950 260 2981 228 3047 215L3110 203C3154 195 3170 177 3170 138C3170 73 3124 29 3053 29C3018 29 2987 40 2959 64L2959 148Z" stroke="rgb(0,0,0)" stroke-opacity="1" stroke-width="8" fill="rgb(0,0,0)" fill-opacity="1"></path></g></g></g></g><g><g><g><g transform="matrix(1,0,0,1,64.3233642578125,44.5299072265625)"><path transform="matrix(0.017,0,0,-0.017,0,0)" d="M604 347L604 406L65 406L65 347ZM604 134L604 193L65 193L65 134Z" stroke="rgb(0,0,0)" stroke-opacity="1" stroke-width="8" fill="rgb(0,0,0)" fill-opacity="1"></path></g></g><g><g transform="matrix(1,0,0,1,80.77716064453125,44.5299072265625)"><path transform="matrix(0.017,0,0,-0.017,0,0)" d="M792 227C792 337 708 353 626 365C683 385 708 397 739 425C785 464 808 511 808 562C808 644 750 692 650 692C648 692 638 692 623 691L560 690C548 689 512 689 500 689C481 689 450 690 401 691L349 692L346 664L399 662C423 661 434 653 434 635C434 621 430 589 425 559L338 55C334 37 322 30 280 23L275 -3L312 -2C339 0 354 0 366 0C377 0 403 -1 429 -2L466 -3L486 -4C505 -5 518 -6 526 -6C641 -6 792 87 792 227ZM415 41L466 340L551 340C654 340 704 298 704 211C704 108 631 34 531 34C477 34 456 38 415 41ZM601 655C682 655 722 619 722 544C722 439 648 376 524 376L472 376L521 650C537 650 578 655 601 655ZM1796 664L1809 695C1781 699 1634 701 1632 692L1547 536L1301 114L1151 692C1128 686 1005 690 984 692L981 664L1007 662C1059 658 1077 648 1077 622C1077 616 931 100 929 93C913 41 898 28 843 23L840 -3L879 -2C913 -1 938 0 952 0C966 0 992 -1 1027 -2L1062 -3L1065 25L1027 28C995 30 978 40 978 55C978 65 980 78 985 96L1109 560L1258 -18L1281 -18L1338 86L1577 500L1629 587L1592 67C1588 39 1576 32 1525 28L1494 25L1491 -3L1538 -2C1580 -1 1610 0 1625 0C1641 0 1671 -1 1712 -2L1758 -3L1761 25L1724 28C1688 31 1670 42 1670 63L1671 100L1712 631C1714 650 1729 660 1758 662ZM1917 664L1973 662C1997 661 2008 653 2008 635C2008 621 2004 589 1999 559L1924 125C1908 34 1906 32 1866 28L1825 25L1821 -3L1863 -2C1910 0 1929 0 1953 0L2050 -3L2076 -3L2079 25L2030 28C2003 30 1994 38 1994 58C1994 67 1995 76 1998 93L2099 648C2128 654 2148 656 2175 656C2262 656 2308 617 2308 543C2308 448 2230 378 2126 378L2082 378L2079 367C2213 172 2244 124 2319 -3C2319 -3 2404 0 2404 0C2405 0 2419 -1 2438 -3L2451 -3L2451 24C2411 29 2400 37 2371 79L2187 354C2242 364 2271 376 2307 402C2365 444 2396 499 2396 560C2396 646 2332 693 2221 691L1920 691ZM2895 267L2764 213L2759 204L2795 153L2805 153L2911 241L2929 99L2939 95L3007 121L3007 131L2939 253L3077 233L3086 241L3086 303L3080 307L2941 283L3010 408L3007 423L2945 442L2936 438L2910 295L2815 393L2805 393L2761 341L2764 331ZM3782 -3L3782 27L3730 30C3675 33 3665 44 3665 96L3665 700L3424 598L3431 548L3581 614L3581 96C3581 44 3570 33 3516 30L3460 27L3460 -3C3614 0 3614 0 3625 0C3656 0 3766 -3 3782 -3ZM3987 111C3957 111 3930 83 3930 53C3930 23 3957 -5 3986 -5C4018 -5 4046 22 4046 53C4046 83 4018 111 3987 111ZM4128 23L4128 -3C4315 -3 4315 0 4351 0C4387 0 4387 -3 4580 -3L4580 82C4465 77 4419 81 4234 77L4416 270C4513 373 4543 428 4543 503C4543 618 4465 689 4338 689C4266 689 4217 669 4168 619L4151 483L4180 483L4193 529C4209 587 4245 612 4312 612C4398 612 4453 558 4453 473C4453 398 4411 324 4298 204Z" stroke="rgb(0,0,0)" stroke-opacity="1" stroke-width="8" fill="rgb(0,0,0)" fill-opacity="1"></path></g></g><g><g transform="matrix(1,0,0,1,168.45379638671875,44.5299072265625)"><path transform="matrix(0.017,0,0,-0.017,0,0)" d="M604 347L604 406L65 406L65 347ZM604 134L604 193L65 193L65 134Z" stroke="rgb(0,0,0)" stroke-opacity="1" stroke-width="8" fill="rgb(0,0,0)" fill-opacity="1"></path></g></g><g><g transform="matrix(1,0,0,1,184.9075927734375,44.5299072265625)"><path transform="matrix(0.017,0,0,-0.017,0,0)" d="M265 23L265 -3C452 -3 452 0 488 0C524 0 524 -3 717 -3L717 82C602 77 556 81 371 77L553 270C650 373 680 428 680 503C680 618 602 689 475 689C403 689 354 669 305 619L288 483L317 483L330 529C346 587 382 612 449 612C535 612 590 558 590 473C590 398 548 324 435 204ZM1011 689C856 689 777 566 777 324C777 207 798 106 833 57C868 8 924 -20 986 -20C1137 -20 1213 110 1213 366C1213 585 1148 689 1011 689ZM993 654C1090 654 1129 556 1129 316C1129 103 1091 15 999 15C902 15 861 116 861 360C861 571 898 654 993 654ZM1263 23L1263 -3C1450 -3 1450 0 1486 0C1522 0 1522 -3 1715 -3L1715 82C1600 77 1554 81 1369 77L1551 270C1648 373 1678 428 1678 503C1678 618 1600 689 1473 689C1401 689 1352 669 1303 619L1286 483L1315 483L1328 529C1344 587 1380 612 1447 612C1533 612 1588 558 1588 473C1588 398 1546 324 1433 204ZM2164 -3L2164 27L2112 30C2057 33 2047 44 2047 96L2047 700L1806 598L1813 548L1963 614L1963 96C1963 44 1952 33 1898 30L1842 27L1842 -3C1996 0 1996 0 2007 0C2038 0 2148 -3 2164 -3ZM2369 111C2339 111 2312 83 2312 53C2312 23 2339 -5 2368 -5C2400 -5 2428 22 2428 53C2428 83 2400 111 2369 111ZM2510 23L2510 -3C2697 -3 2697 0 2733 0C2769 0 2769 -3 2962 -3L2962 82C2847 77 2801 81 2616 77L2798 270C2895 373 2925 428 2925 503C2925 618 2847 689 2720 689C2648 689 2599 669 2550 619L2533 483L2562 483L2575 529C2591 587 2627 612 2694 612C2780 612 2835 558 2835 473C2835 398 2793 324 2680 204ZM3452 253C3452 366 3371 446 3257 446C3209 446 3173 443 3120 396L3120 605L3425 604L3425 689L3068 690L3068 322L3088 316C3135 363 3162 377 3211 377C3307 377 3367 309 3367 201C3367 90 3303 25 3194 25C3140 25 3090 43 3076 69L3030 151L3006 137C3029 80 3041 48 3055 4C3083 -11 3123 -20 3166 -20C3294 -20 3452 89 3452 253ZM3750 1C3765 -7 3781 -11 3793 -11C3826 -11 3865 18 3896 65L3972 182L3983 113C3996 28 4019 -11 4055 -11C4077 -11 4109 6 4141 35L4190 79L4181 98C4145 68 4120 53 4104 53C4089 53 4076 63 4066 83C4057 102 4046 139 4041 168L4023 269L4058 318C4105 383 4132 406 4163 406C4179 406 4191 398 4196 383L4210 387L4225 472C4213 479 4204 482 4195 482C4155 482 4115 446 4053 354L4016 299L4010 347C3998 446 3971 482 3912 482C3886 482 3864 474 3855 461L3797 378L3814 368C3844 402 3864 416 3883 416C3916 416 3938 375 3955 277L3966 215L3926 153C3883 86 3849 54 3821 54C3806 54 3795 58 3793 63L3782 91L3762 88C3762 53 3754 27 3750 1ZM4907 -3L4907 27L4855 30C4800 33 4790 44 4790 96L4790 700L4549 598L4556 548L4706 614L4706 96C4706 44 4695 33 4641 30L4585 27L4585 -3C4739 0 4739 0 4750 0C4781 0 4891 -3 4907 -3ZM5112 111C5082 111 5055 83 5055 53C5055 23 5082 -5 5111 -5C5143 -5 5171 22 5171 53C5171 83 5143 111 5112 111ZM5253 23L5253 -3C5440 -3 5440 0 5476 0C5512 0 5512 -3 5705 -3L5705 82C5590 77 5544 81 5359 77L5541 270C5638 373 5668 428 5668 503C5668 618 5590 689 5463 689C5391 689 5342 669 5293 619L5276 483L5305 483L5318 529C5334 587 5370 612 5437 612C5523 612 5578 558 5578 473C5578 398 5536 324 5423 204Z" stroke="rgb(0,0,0)" stroke-opacity="1" stroke-width="8" fill="rgb(0,0,0)" fill-opacity="1"></path></g></g><g><g transform="matrix(1,0,0,1,291.70111083984375,44.5299072265625)"><path transform="matrix(0.017,0,0,-0.017,0,0)" d="M604 347L604 406L65 406L65 347ZM604 134L604 193L65 193L65 134Z" stroke="rgb(0,0,0)" stroke-opacity="1" stroke-width="8" fill="rgb(0,0,0)" fill-opacity="1"></path></g></g><g><g transform="matrix(1,0,0,1,308.1549072265625,44.5299072265625)"><path transform="matrix(0.017,0,0,-0.017,0,0)" d="M265 23L265 -3C452 -3 452 0 488 0C524 0 524 -3 717 -3L717 82C602 77 556 81 371 77L553 270C650 373 680 428 680 503C680 618 602 689 475 689C403 689 354 669 305 619L288 483L317 483L330 529C346 587 382 612 449 612C535 612 590 558 590 473C590 398 548 324 435 204ZM1028 181L1028 106C1028 46 1017 32 968 30L906 27L906 -3C1039 0 1039 0 1063 0C1087 0 1087 0 1220 -3L1220 27L1172 30C1123 33 1112 46 1112 106L1112 181C1171 181 1192 180 1220 177L1220 248L1112 245L1113 697L1033 667L750 204L750 181ZM1028 245L813 245L1028 597ZM1263 23L1263 -3C1450 -3 1450 0 1486 0C1522 0 1522 -3 1715 -3L1715 82C1600 77 1554 81 1369 77L1551 270C1648 373 1678 428 1678 503C1678 618 1600 689 1473 689C1401 689 1352 669 1303 619L1286 483L1315 483L1328 529C1344 587 1380 612 1447 612C1533 612 1588 558 1588 473C1588 398 1546 324 1433 204ZM2205 253C2205 366 2124 446 2010 446C1962 446 1926 443 1873 396L1873 605L2178 604L2178 689L1821 690L1821 322L1841 316C1888 363 1915 377 1964 377C2060 377 2120 309 2120 201C2120 90 2056 25 1947 25C1893 25 1843 43 1829 69L1783 151L1759 137C1782 80 1794 48 1808 4C1836 -11 1876 -20 1919 -20C2047 -20 2205 89 2205 253ZM2369 111C2339 111 2312 83 2312 53C2312 23 2339 -5 2368 -5C2400 -5 2428 22 2428 53C2428 83 2400 111 2369 111ZM2953 253C2953 366 2872 446 2758 446C2710 446 2674 443 2621 396L2621 605L2926 604L2926 689L2569 690L2569 322L2589 316C2636 363 2663 377 2712 377C2808 377 2868 309 2868 201C2868 90 2804 25 2695 25C2641 25 2591 43 2577 69L2531 151L2507 137C2530 80 2542 48 2556 4C2584 -11 2624 -20 2667 -20C2795 -20 2953 89 2953 253Z" stroke="rgb(0,0,0)" stroke-opacity="1" stroke-width="8" fill="rgb(0,0,0)" fill-opacity="1"></path></g></g></g></g></svg>