<svg xmlns="http://www.w3.org/2000/svg" xmlns:xlink="http://www.w3.org/1999/xlink" width="772.6956176757812" height="54.19021987915039" style="width:772.6956176757812px;height:54.19021987915039px;font-family:Asana-Math, Asana;background:#FFF;"><g><g><g><g transform="matrix(1,0,0,1,6.0625,19.86956787109375)"><path transform="matrix(0.017,0,0,-0.017,0,0)" d="M937 664L950 695C922 699 775 701 773 692L688 536L442 114L292 692C269 686 146 690 125 692L122 664L148 662C200 658 218 648 218 622C218 616 72 100 70 93C54 41 39 28 -16 23L-19 -3L20 -2C54 -1 79 0 93 0C107 0 133 -1 168 -2L203 -3L206 25L168 28C136 30 119 40 119 55C119 65 121 78 126 96L250 560L399 -18L422 -18L479 86L718 500L770 587L733 67C729 39 717 32 666 28L635 25L632 -3L679 -2C721 -1 751 0 766 0C782 0 812 -1 853 -2L899 -3L902 25L865 28C829 31 811 42 811 63L812 100L853 631C855 650 870 660 899 662ZM1281 111L1257 94C1204 56 1156 36 1120 36C1073 36 1044 73 1044 133C1044 158 1047 185 1052 214C1069 218 1178 248 1203 259C1288 296 1327 342 1327 404C1327 451 1293 482 1243 482C1175 496 1065 423 1028 349C998 299 968 180 968 113C968 35 1012 -11 1084 -11C1141 -11 1197 17 1289 92ZM1066 274C1083 343 1103 386 1132 412C1150 428 1181 440 1205 440C1234 440 1253 420 1253 388C1253 344 1218 297 1166 272C1138 258 1102 247 1057 237ZM1365 388L1372 368L1404 389C1441 412 1444 414 1451 414C1462 414 1469 404 1469 389C1469 338 1428 145 1387 2L1394 -9C1419 -2 1442 4 1464 8C1483 134 1504 199 1550 268C1604 352 1679 414 1724 414C1735 414 1741 405 1741 390C1741 372 1738 351 1730 319L1678 107C1669 70 1665 47 1665 31C1665 6 1676 -9 1695 -9C1721 -9 1757 12 1855 85L1845 103L1819 86C1790 67 1768 56 1758 56C1751 56 1745 65 1745 76C1745 81 1746 92 1747 96L1813 372C1820 401 1824 429 1824 446C1824 469 1813 482 1793 482C1751 482 1682 444 1623 389C1585 354 1557 320 1505 247L1543 408C1547 426 1549 438 1549 449C1549 470 1541 482 1526 482C1505 482 1466 460 1393 408Z" stroke="rgb(0,0,0)" stroke-opacity="1" stroke-width="8" fill="rgb(0,0,0)" fill-opacity="1"></path></g></g></g></g><g><g><g><g transform="matrix(1,0,0,1,73.00543212890625,19.86956787109375)"><path transform="matrix(0.017,0,0,-0.017,0,0)" d="M543 227C543 337 459 353 377 365C434 385 459 397 490 425C536 464 559 511 559 562C559 644 501 692 401 692C399 692 389 692 374 691L311 690C299 689 263 689 251 689C232 689 201 690 152 691L100 692L97 664L150 662C174 661 185 653 185 635C185 621 181 589 176 559L89 55C85 37 73 30 31 23L26 -3L63 -2C90 0 105 0 117 0C128 0 154 -1 180 -2L217 -3L237 -4C256 -5 269 -6 277 -6C392 -6 543 87 543 227ZM166 41L217 340L302 340C405 340 455 298 455 211C455 108 382 34 282 34C228 34 207 38 166 41ZM352 655C433 655 473 619 473 544C473 439 399 376 275 376L223 376L272 650C288 650 329 655 352 655ZM1547 664L1560 695C1532 699 1385 701 1383 692L1298 536L1052 114L902 692C879 686 756 690 735 692L732 664L758 662C810 658 828 648 828 622C828 616 682 100 680 93C664 41 649 28 594 23L591 -3L630 -2C664 -1 689 0 703 0C717 0 743 -1 778 -2L813 -3L816 25L778 28C746 30 729 40 729 55C729 65 731 78 736 96L860 560L1009 -18L1032 -18L1089 86L1328 500L1380 587L1343 67C1339 39 1327 32 1276 28L1245 25L1242 -3L1289 -2C1331 -1 1361 0 1376 0C1392 0 1422 -1 1463 -2L1509 -3L1512 25L1475 28C1439 31 1421 42 1421 63L1422 100L1463 631C1465 650 1480 660 1509 662ZM1668 664L1724 662C1748 661 1759 653 1759 635C1759 621 1755 589 1750 559L1675 125C1659 34 1657 32 1617 28L1576 25L1572 -3L1614 -2C1661 0 1680 0 1704 0L1801 -3L1827 -3L1830 25L1781 28C1754 30 1745 38 1745 58C1745 67 1746 76 1749 93L1850 648C1879 654 1899 656 1926 656C2013 656 2059 617 2059 543C2059 448 1981 378 1877 378L1833 378L1830 367C1964 172 1995 124 2070 -3C2070 -3 2155 0 2155 0C2156 0 2170 -1 2189 -3L2202 -3L2202 24C2162 29 2151 37 2122 79L1938 354C1993 364 2022 376 2058 402C2116 444 2147 499 2147 560C2147 646 2083 693 1972 691L1671 691Z" stroke="rgb(0,0,0)" stroke-opacity="1" stroke-width="8" fill="rgb(0,0,0)" fill-opacity="1"></path></g></g><g><g transform="matrix(1,0,0,1,120.20648193359375,19.86956787109375)"><path transform="matrix(0.017,0,0,-0.017,0,0)" d="M604 347L604 406L65 406L65 347ZM604 134L604 193L65 193L65 134Z" stroke="rgb(0,0,0)" stroke-opacity="1" stroke-width="8" fill="rgb(0,0,0)" fill-opacity="1"></path></g></g><g><g transform="matrix(1,0,0,1,136.6602783203125,19.86956787109375)"><path transform="matrix(0.017,0,0,-0.017,0,0)" d="M380 331C401 512 490 611 670 665L628 689C532 657 491 637 440 593C337 506 281 384 281 247C281 82 361 -20 490 -20C620 -20 717 83 717 219C717 334 648 409 542 409C465 409 433 370 380 331ZM504 349C580 349 631 283 631 184C631 80 580 13 503 13C418 13 372 86 372 220C372 255 376 274 387 291C409 325 456 349 504 349ZM879 331C900 512 989 611 1169 665L1127 689C1031 657 990 637 939 593C836 506 780 384 780 247C780 82 860 -20 989 -20C1119 -20 1216 83 1216 219C1216 334 1147 409 1041 409C964 409 932 370 879 331ZM1003 349C1079 349 1130 283 1130 184C1130 80 1079 13 1002 13C917 13 871 86 871 220C871 255 875 274 886 291C908 325 955 349 1003 349ZM1371 111C1341 111 1314 83 1314 53C1314 23 1341 -5 1370 -5C1402 -5 1430 22 1430 53C1430 83 1402 111 1371 111ZM1776 181L1776 106C1776 46 1765 32 1716 30L1654 27L1654 -3C1787 0 1787 0 1811 0C1835 0 1835 0 1968 -3L1968 27L1920 30C1871 33 1860 46 1860 106L1860 181C1919 181 1940 180 1968 177L1968 248L1860 245L1861 697L1781 667L1498 204L1498 181ZM1776 245L1561 245L1776 597ZM2404 603L2042 -1L2152 -1L2492 659L2492 689L2039 689L2039 477L2069 477L2076 533C2084 595 2091 603 2137 603ZM2956 224C2956 345 2849 366 2802 374C2882 436 2912 482 2912 541C2912 630 2838 689 2727 689C2659 689 2614 670 2566 622L2537 498L2568 498L2586 554C2597 588 2660 622 2712 622C2777 622 2830 569 2830 506C2830 431 2771 368 2700 368C2692 368 2681 369 2668 370L2653 371L2641 318L2648 312C2686 329 2705 334 2732 334C2815 334 2863 281 2863 190C2863 88 2802 21 2709 21C2663 21 2622 36 2592 64C2568 86 2555 109 2536 163L2509 153C2530 92 2538 56 2544 6C2597 -12 2641 -20 2678 -20C2801 -20 2956 87 2956 224Z" stroke="rgb(0,0,0)" stroke-opacity="1" stroke-width="8" fill="rgb(0,0,0)" fill-opacity="1"></path></g></g><g><g transform="matrix(1,0,0,1,195.15216064453125,19.86956787109375)"><path transform="matrix(0.017,0,0,-0.017,0,0)" d="M604 241L604 300L364 300L364 538L305 538L305 300L65 300L65 241L305 241L305 0L364 0L364 241Z" stroke="rgb(0,0,0)" stroke-opacity="1" stroke-width="8" fill="rgb(0,0,0)" fill-opacity="1"></path></g></g><g><g transform="matrix(1,0,0,1,209.9075927734375,19.86956787109375)"><path transform="matrix(0.017,0,0,-0.017,0,0)" d="" stroke="rgb(0,0,0)" stroke-opacity="1" stroke-width="8" fill="rgb(0,0,0)" fill-opacity="1"></path></g></g><g><g transform="matrix(1,0,0,1,214.146728515625,20.7391357421875)"><path transform="matrix(0.017,0,0,-0.017,0,0)" d="M146 266C146 526 243 632 301 700L282 726C225 675 60 542 60 266C60 159 85 58 133 -32C168 -99 200 -138 282 -215L301 -194C255 -137 146 -15 146 266Z" stroke="rgb(0,0,0)" stroke-opacity="1" stroke-width="8" fill="rgb(0,0,0)" fill-opacity="1"></path></g></g><g><g transform="matrix(1,0,0,1,219.79888916015625,19.86956787109375)"><path transform="matrix(0.017,0,0,-0.017,0,0)" d="M667 -3L667 27L615 30C560 33 550 44 550 96L550 700L309 598L316 548L466 614L466 96C466 44 455 33 401 30L345 27L345 -3C499 0 499 0 510 0C541 0 651 -3 667 -3ZM1210 224C1210 345 1103 366 1056 374C1136 436 1166 482 1166 541C1166 630 1092 689 981 689C913 689 868 670 820 622L791 498L822 498L840 554C851 588 914 622 966 622C1031 622 1084 569 1084 506C1084 431 1025 368 954 368C946 368 935 369 922 370L907 371L895 318L902 312C940 329 959 334 986 334C1069 334 1117 281 1117 190C1117 88 1056 21 963 21C917 21 876 36 846 64C822 86 809 109 790 163L763 153C784 92 792 56 798 6C851 -12 895 -20 932 -20C1055 -20 1210 87 1210 224ZM1371 111C1341 111 1314 83 1314 53C1314 23 1341 -5 1370 -5C1402 -5 1430 22 1430 53C1430 83 1402 111 1371 111ZM1905 603L1543 -1L1653 -1L1993 659L1993 689L1540 689L1540 477L1570 477L1577 533C1585 595 1592 603 1638 603ZM2454 253C2454 366 2373 446 2259 446C2211 446 2175 443 2122 396L2122 605L2427 604L2427 689L2070 690L2070 322L2090 316C2137 363 2164 377 2213 377C2309 377 2369 309 2369 201C2369 90 2305 25 2196 25C2142 25 2092 43 2078 69L2032 151L2008 137C2031 80 2043 48 2057 4C2085 -11 2125 -20 2168 -20C2296 -20 2454 89 2454 253ZM2912 -3L2912 27L2860 30C2805 33 2795 44 2795 96L2795 700L2554 598L2561 548L2711 614L2711 96C2711 44 2700 33 2646 30L2590 27L2590 -3C2744 0 2744 0 2755 0C2786 0 2896 -3 2912 -3ZM3124 331C3145 512 3234 611 3414 665L3372 689C3276 657 3235 637 3184 593C3081 506 3025 384 3025 247C3025 82 3105 -20 3234 -20C3364 -20 3461 83 3461 219C3461 334 3392 409 3286 409C3209 409 3177 370 3124 331ZM3248 349C3324 349 3375 283 3375 184C3375 80 3324 13 3247 13C3162 13 3116 86 3116 220C3116 255 3120 274 3131 291C3153 325 3200 349 3248 349ZM3909 267L3778 213L3773 204L3809 153L3819 153L3925 241L3943 99L3953 95L4021 121L4021 131L3953 253L4091 233L4100 241L4100 303L4094 307L3955 283L4024 408L4021 423L3959 442L3950 438L3924 295L3829 393L3819 393L3775 341L3778 331ZM4545 420C4566 420 4579 421 4604 424C4549 350 4450 266 4450 126C4450 44 4485 -11 4538 -11C4602 -11 4654 44 4728 187C4719 143 4716 118 4716 95C4716 32 4745 -11 4790 -11C4924 -11 5077 238 5077 384C5077 441 5051 482 5015 482C5002 482 4990 478 4982 470L4932 423L4943 404C4952 410 4961 413 4970 413C4997 413 5013 390 5013 350C5013 205 4916 39 4831 39C4802 39 4781 79 4781 134C4781 181 4790 247 4802 290L4854 474L4847 482L4773 460L4744 311C4732 249 4718 209 4689 155C4649 80 4611 39 4581 39C4546 39 4523 78 4523 136C4523 255 4564 352 4663 464L4653 482C4633 473 4620 470 4592 470C4564 470 4522 472 4493 475L4481 476C4475 477 4470 477 4469 477C4457 477 4448 475 4437 470C4423 443 4412 407 4399 352L4421 352L4438 394C4445 411 4465 422 4489 422C4523 422 4506 420 4545 420ZM5427 111L5403 94C5350 56 5302 36 5266 36C5219 36 5190 73 5190 133C5190 158 5193 185 5198 214C5215 218 5324 248 5349 259C5434 296 5473 342 5473 404C5473 451 5439 482 5389 482C5321 496 5211 423 5174 349C5144 299 5114 180 5114 113C5114 35 5158 -11 5230 -11C5287 -11 5343 17 5435 92ZM5212 274C5229 343 5249 386 5278 412C5296 428 5327 440 5351 440C5380 440 5399 420 5399 388C5399 344 5364 297 5312 272C5284 258 5248 247 5203 237ZM5521 388L5528 368L5560 389C5597 412 5600 414 5607 414C5617 414 5625 404 5625 391C5625 384 5621 361 5617 347L5551 107C5543 76 5538 49 5538 30C5538 6 5549 -9 5568 -9C5594 -9 5630 12 5728 85L5718 103L5692 86C5663 67 5640 56 5631 56C5624 56 5618 66 5618 76C5618 86 5620 95 5625 116L5702 420C5706 437 5708 448 5708 456C5708 473 5699 482 5683 482C5661 482 5624 461 5549 408ZM5715 712C5686 712 5657 679 5657 645C5657 620 5672 604 5696 604C5727 604 5751 633 5751 671C5751 695 5736 712 5715 712ZM6039 482C5972 482 5819 419 5819 259C5819 182 5864 136 5941 136C5949 136 5960 136 5971 137L5930 99C5914 84 5903 66 5903 52C5903 42 5910 31 5924 19C5855 -4 5727 -48 5727 -159C5727 -230 5797 -276 5906 -276C6035 -276 6148 -204 6148 -121C6148 -85 6127 -49 6084 -14L6024 35C5990 62 5977 81 5977 100C5977 114 5992 128 6004 146C6102 170 6173 253 6173 342C6173 357 6170 376 6169 380C6186 378 6194 378 6203 378C6220 378 6230 379 6253 382L6262 427L6259 433C6231 426 6211 424 6157 424C6157 425 6133 482 6039 482ZM5940 1L6017 -58C6063 -94 6082 -121 6082 -154C6082 -206 6013 -248 5930 -248C5848 -248 5791 -206 5791 -145C5791 -43 5901 -11 5940 1ZM6014 448C6072 448 6101 412 6101 341C6101 238 6053 168 5983 168C5922 168 5890 209 5890 288C5890 383 5941 448 6014 448ZM6499 722L6487 733C6442 711 6401 697 6327 691L6323 670L6371 670C6389 670 6405 667 6405 647C6405 641 6405 632 6403 622L6361 388C6341 272 6299 80 6273 2L6280 -9L6349 7C6357 64 6371 164 6411 236C6456 317 6559 414 6601 414C6612 414 6623 407 6623 393C6623 375 6618 342 6608 303L6557 107C6551 85 6544 55 6544 31C6544 6 6554 -9 6575 -9C6607 -9 6675 41 6734 85L6724 103L6698 86C6675 71 6649 56 6637 56C6630 56 6624 65 6624 76C6624 88 6627 101 6631 116L6695 372C6701 398 6706 423 6706 447C6706 464 6700 482 6674 482C6639 482 6562 437 6494 374C6461 343 6435 308 6407 273L6403 275ZM6887 390L6831 107C6830 99 6818 61 6818 31C6818 6 6829 -9 6848 -9C6883 -9 6918 11 6996 74L7027 99L7017 117L6972 86C6943 66 6923 56 6912 56C6903 56 6898 64 6898 76C6898 102 6912 183 6941 328L6954 390L7061 390L7072 440C7034 436 7000 434 6962 434C6978 528 6989 577 7007 631L6996 646C6976 634 6949 622 6918 610L6893 440C6849 419 6823 408 6805 403L6803 390ZM7377 388L7384 368L7416 389C7453 412 7456 414 7463 414C7473 414 7481 404 7481 391C7481 384 7477 361 7473 347L7407 107C7399 76 7394 49 7394 30C7394 6 7405 -9 7424 -9C7450 -9 7486 12 7584 85L7574 103L7548 86C7519 67 7496 56 7487 56C7480 56 7474 66 7474 76C7474 86 7476 95 7481 116L7558 420C7562 437 7564 448 7564 456C7564 473 7555 482 7539 482C7517 482 7480 461 7405 408ZM7571 712C7542 712 7513 679 7513 645C7513 620 7528 604 7552 604C7583 604 7607 633 7607 671C7607 695 7592 712 7571 712ZM7644 388L7651 368L7683 389C7720 412 7723 414 7730 414C7741 414 7748 404 7748 389C7748 338 7707 145 7666 2L7673 -9C7698 -2 7721 4 7743 8C7762 134 7783 199 7829 268C7883 352 7958 414 8003 414C8014 414 8020 405 8020 390C8020 372 8017 351 8009 319L7957 107C7948 70 7944 47 7944 31C7944 6 7955 -9 7974 -9C8000 -9 8036 12 8134 85L8124 103L8098 86C8069 67 8047 56 8037 56C8030 56 8024 65 8024 76C8024 81 8025 92 8026 96L8092 372C8099 401 8103 429 8103 446C8103 469 8092 482 8072 482C8030 482 7961 444 7902 389C7864 354 7836 320 7784 247L7822 408C7826 426 7828 438 7828 449C7828 470 7820 482 7805 482C7784 482 7745 460 7672 408ZM8664 722L8652 733C8600 707 8564 698 8492 691L8488 670L8536 670C8560 670 8570 663 8570 646C8570 638 8569 629 8568 622L8520 354C8506 279 8490 210 8438 1L8447 -9L8514 8L8537 132C8546 180 8570 225 8604 259C8673 59 8705 -9 8730 -9C8743 -9 8767 4 8811 35L8857 67L8849 86L8806 62C8792 54 8785 52 8777 52C8767 52 8760 58 8751 75C8716 139 8694 193 8655 316L8669 330C8730 391 8776 416 8826 416C8834 416 8845 414 8862 410L8879 473C8861 479 8843 482 8831 482C8765 482 8682 405 8557 230ZM9167 482C9100 482 8947 419 8947 259C8947 182 8992 136 9069 136C9077 136 9088 136 9099 137L9058 99C9042 84 9031 66 9031 52C9031 42 9038 31 9052 19C8983 -4 8855 -48 8855 -159C8855 -230 8925 -276 9034 -276C9163 -276 9276 -204 9276 -121C9276 -85 9255 -49 9212 -14L9152 35C9118 62 9105 81 9105 100C9105 114 9120 128 9132 146C9230 170 9301 253 9301 342C9301 357 9298 376 9297 380C9314 378 9322 378 9331 378C9348 378 9358 379 9381 382L9390 427L9387 433C9359 426 9339 424 9285 424C9285 425 9261 482 9167 482ZM9068 1L9145 -58C9191 -94 9210 -121 9210 -154C9210 -206 9141 -248 9058 -248C8976 -248 8919 -206 8919 -145C8919 -43 9029 -11 9068 1ZM9142 448C9200 448 9229 412 9229 341C9229 238 9181 168 9111 168C9050 168 9018 209 9018 288C9018 383 9069 448 9142 448Z" stroke="rgb(0,0,0)" stroke-opacity="1" stroke-width="8" fill="rgb(0,0,0)" fill-opacity="1"></path></g></g><g><g transform="matrix(1,0,0,1,383.603271484375,20.7391357421875)"><path transform="matrix(0.017,0,0,-0.017,0,0)" d="M51 726L32 700C87 636 187 526 187 266C187 -10 83 -131 32 -194L51 -215C104 -165 273 -23 273 265C273 542 108 675 51 726Z" stroke="rgb(0,0,0)" stroke-opacity="1" stroke-width="8" fill="rgb(0,0,0)" fill-opacity="1"></path></g></g><g><g transform="matrix(1,0,0,1,389.25543212890625,19.86956787109375)"><path transform="matrix(0.017,0,0,-0.017,0,0)" d="" stroke="rgb(0,0,0)" stroke-opacity="1" stroke-width="8" fill="rgb(0,0,0)" fill-opacity="1"></path></g></g><g><g transform="matrix(1,0,0,1,396.89129638671875,19.86956787109375)"><path transform="matrix(0.017,0,0,-0.017,0,0)" d="M604 241L604 300L364 300L364 538L305 538L305 300L65 300L65 241L305 241L305 0L364 0L364 241Z" stroke="rgb(0,0,0)" stroke-opacity="1" stroke-width="8" fill="rgb(0,0,0)" fill-opacity="1"></path></g></g><g><g transform="matrix(1,0,0,1,411.646728515625,19.86956787109375)"><path transform="matrix(0.017,0,0,-0.017,0,0)" d="" stroke="rgb(0,0,0)" stroke-opacity="1" stroke-width="8" fill="rgb(0,0,0)" fill-opacity="1"></path></g></g><g><g transform="matrix(1,0,0,1,415.8858642578125,20.7391357421875)"><path transform="matrix(0.017,0,0,-0.017,0,0)" d="M146 266C146 526 243 632 301 700L282 726C225 675 60 542 60 266C60 159 85 58 133 -32C168 -99 200 -138 282 -215L301 -194C255 -137 146 -15 146 266Z" stroke="rgb(0,0,0)" stroke-opacity="1" stroke-width="8" fill="rgb(0,0,0)" fill-opacity="1"></path></g></g><g><g transform="matrix(1,0,0,1,421.53802490234375,19.86956787109375)"><path transform="matrix(0.017,0,0,-0.017,0,0)" d="M708 253C708 366 627 446 513 446C465 446 429 443 376 396L376 605L681 604L681 689L324 690L324 322L344 316C391 363 418 377 467 377C563 377 623 309 623 201C623 90 559 25 450 25C396 25 346 43 332 69L286 151L262 137C285 80 297 48 311 4C339 -11 379 -20 422 -20C550 -20 708 89 708 253ZM872 111C842 111 815 83 815 53C815 23 842 -5 871 -5C903 -5 931 22 931 53C931 83 903 111 872 111ZM1260 689C1105 689 1026 566 1026 324C1026 207 1047 106 1082 57C1117 8 1173 -20 1235 -20C1386 -20 1462 110 1462 366C1462 585 1397 689 1260 689ZM1242 654C1339 654 1378 556 1378 316C1378 103 1340 15 1248 15C1151 15 1110 116 1110 360C1110 571 1147 654 1242 654ZM1759 689C1604 689 1525 566 1525 324C1525 207 1546 106 1581 57C1616 8 1672 -20 1734 -20C1885 -20 1961 110 1961 366C1961 585 1896 689 1759 689ZM1741 654C1838 654 1877 556 1877 316C1877 103 1839 15 1747 15C1650 15 1609 116 1609 360C1609 571 1646 654 1741 654ZM2457 224C2457 345 2350 366 2303 374C2383 436 2413 482 2413 541C2413 630 2339 689 2228 689C2160 689 2115 670 2067 622L2038 498L2069 498L2087 554C2098 588 2161 622 2213 622C2278 622 2331 569 2331 506C2331 431 2272 368 2201 368C2193 368 2182 369 2169 370L2154 371L2142 318L2149 312C2187 329 2206 334 2233 334C2316 334 2364 281 2364 190C2364 88 2303 21 2210 21C2164 21 2123 36 2093 64C2069 86 2056 109 2037 163L2010 153C2031 92 2039 56 2045 6C2098 -12 2142 -20 2179 -20C2302 -20 2457 87 2457 224ZM2956 224C2956 345 2849 366 2802 374C2882 436 2912 482 2912 541C2912 630 2838 689 2727 689C2659 689 2614 670 2566 622L2537 498L2568 498L2586 554C2597 588 2660 622 2712 622C2777 622 2830 569 2830 506C2830 431 2771 368 2700 368C2692 368 2681 369 2668 370L2653 371L2641 318L2648 312C2686 329 2705 334 2732 334C2815 334 2863 281 2863 190C2863 88 2802 21 2709 21C2663 21 2622 36 2592 64C2568 86 2555 109 2536 163L2509 153C2530 92 2538 56 2544 6C2597 -12 2641 -20 2678 -20C2801 -20 2956 87 2956 224ZM3410 267L3279 213L3274 204L3310 153L3320 153L3426 241L3444 99L3454 95L3522 121L3522 131L3454 253L3592 233L3601 241L3601 303L3595 307L3456 283L3525 408L3522 423L3460 442L3451 438L3425 295L3330 393L3320 393L3276 341L3279 331ZM4115 722L4103 733C4058 711 4017 697 3943 691L3939 670L3987 670C4005 670 4021 667 4021 647C4021 641 4021 632 4019 622L3977 388C3957 272 3915 80 3889 2L3896 -9L3965 7C3973 64 3987 164 4027 236C4072 317 4175 414 4217 414C4228 414 4239 407 4239 393C4239 375 4234 342 4224 303L4173 107C4167 85 4160 55 4160 31C4160 6 4170 -9 4191 -9C4223 -9 4291 41 4350 85L4340 103L4314 86C4291 71 4265 56 4253 56C4246 56 4240 65 4240 76C4240 88 4243 101 4247 116L4311 372C4317 398 4322 423 4322 447C4322 464 4316 482 4290 482C4255 482 4178 437 4110 374C4077 343 4051 308 4023 273L4019 275ZM4706 111L4682 94C4629 56 4581 36 4545 36C4498 36 4469 73 4469 133C4469 158 4472 185 4477 214C4494 218 4603 248 4628 259C4713 296 4752 342 4752 404C4752 451 4718 482 4668 482C4600 496 4490 423 4453 349C4423 299 4393 180 4393 113C4393 35 4437 -11 4509 -11C4566 -11 4622 17 4714 92ZM4491 274C4508 343 4528 386 4557 412C4575 428 4606 440 4630 440C4659 440 4678 420 4678 388C4678 344 4643 297 4591 272C4563 258 4527 247 4482 237ZM4800 388L4807 368L4839 389C4876 412 4879 414 4886 414C4896 414 4904 404 4904 391C4904 384 4900 361 4896 347L4830 107C4822 76 4817 49 4817 30C4817 6 4828 -9 4847 -9C4873 -9 4909 12 5007 85L4997 103L4971 86C4942 67 4919 56 4910 56C4903 56 4897 66 4897 76C4897 86 4899 95 4904 116L4981 420C4985 437 4987 448 4987 456C4987 473 4978 482 4962 482C4940 482 4903 461 4828 408ZM4994 712C4965 712 4936 679 4936 645C4936 620 4951 604 4975 604C5006 604 5030 633 5030 671C5030 695 5015 712 4994 712ZM5318 482C5251 482 5098 419 5098 259C5098 182 5143 136 5220 136C5228 136 5239 136 5250 137L5209 99C5193 84 5182 66 5182 52C5182 42 5189 31 5203 19C5134 -4 5006 -48 5006 -159C5006 -230 5076 -276 5185 -276C5314 -276 5427 -204 5427 -121C5427 -85 5406 -49 5363 -14L5303 35C5269 62 5256 81 5256 100C5256 114 5271 128 5283 146C5381 170 5452 253 5452 342C5452 357 5449 376 5448 380C5465 378 5473 378 5482 378C5499 378 5509 379 5532 382L5541 427L5538 433C5510 426 5490 424 5436 424C5436 425 5412 482 5318 482ZM5219 1L5296 -58C5342 -94 5361 -121 5361 -154C5361 -206 5292 -248 5209 -248C5127 -248 5070 -206 5070 -145C5070 -43 5180 -11 5219 1ZM5293 448C5351 448 5380 412 5380 341C5380 238 5332 168 5262 168C5201 168 5169 209 5169 288C5169 383 5220 448 5293 448ZM5778 722L5766 733C5721 711 5680 697 5606 691L5602 670L5650 670C5668 670 5684 667 5684 647C5684 641 5684 632 5682 622L5640 388C5620 272 5578 80 5552 2L5559 -9L5628 7C5636 64 5650 164 5690 236C5735 317 5838 414 5880 414C5891 414 5902 407 5902 393C5902 375 5897 342 5887 303L5836 107C5830 85 5823 55 5823 31C5823 6 5833 -9 5854 -9C5886 -9 5954 41 6013 85L6003 103L5977 86C5954 71 5928 56 5916 56C5909 56 5903 65 5903 76C5903 88 5906 101 5910 116L5974 372C5980 398 5985 423 5985 447C5985 464 5979 482 5953 482C5918 482 5841 437 5773 374C5740 343 5714 308 5686 273L5682 275ZM6166 390L6110 107C6109 99 6097 61 6097 31C6097 6 6108 -9 6127 -9C6162 -9 6197 11 6275 74L6306 99L6296 117L6251 86C6222 66 6202 56 6191 56C6182 56 6177 64 6177 76C6177 102 6191 183 6220 328L6233 390L6340 390L6351 440C6313 436 6279 434 6241 434C6257 528 6268 577 6286 631L6275 646C6255 634 6228 622 6197 610L6172 440C6128 419 6102 408 6084 403L6082 390ZM6656 388L6663 368L6695 389C6732 412 6735 414 6742 414C6752 414 6760 404 6760 391C6760 384 6756 361 6752 347L6686 107C6678 76 6673 49 6673 30C6673 6 6684 -9 6703 -9C6729 -9 6765 12 6863 85L6853 103L6827 86C6798 67 6775 56 6766 56C6759 56 6753 66 6753 76C6753 86 6755 95 6760 116L6837 420C6841 437 6843 448 6843 456C6843 473 6834 482 6818 482C6796 482 6759 461 6684 408ZM6850 712C6821 712 6792 679 6792 645C6792 620 6807 604 6831 604C6862 604 6886 633 6886 671C6886 695 6871 712 6850 712ZM6923 388L6930 368L6962 389C6999 412 7002 414 7009 414C7020 414 7027 404 7027 389C7027 338 6986 145 6945 2L6952 -9C6977 -2 7000 4 7022 8C7041 134 7062 199 7108 268C7162 352 7237 414 7282 414C7293 414 7299 405 7299 390C7299 372 7296 351 7288 319L7236 107C7227 70 7223 47 7223 31C7223 6 7234 -9 7253 -9C7279 -9 7315 12 7413 85L7403 103L7377 86C7348 67 7326 56 7316 56C7309 56 7303 65 7303 76C7303 81 7304 92 7305 96L7371 372C7378 401 7382 429 7382 446C7382 469 7371 482 7351 482C7309 482 7240 444 7181 389C7143 354 7115 320 7063 247L7101 408C7105 426 7107 438 7107 449C7107 470 7099 482 7084 482C7063 482 7024 460 6951 408ZM8045 330L8068 330C8076 395 8083 432 8092 458C8068 473 8033 482 7996 482C7951 483 7878 463 7821 400C7767 352 7728 241 7728 136C7728 40 7770 -11 7850 -11C7904 -11 7952 9 8007 54L8057 95L8049 115L8034 105C7962 57 7924 40 7889 40C7833 40 7804 80 7804 159C7804 267 7839 371 7888 409C7909 425 7933 433 7964 433C8009 433 8045 414 8045 390ZM8839 103L8813 86C8784 67 8762 56 8752 56C8745 56 8739 65 8739 76C8739 86 8741 95 8746 116L8821 413C8825 430 8828 446 8828 454C8828 471 8818 482 8802 482C8773 482 8735 464 8674 421C8611 376 8576 341 8527 272L8557 409C8561 429 8564 444 8564 451C8564 470 8554 482 8538 482C8508 482 8462 460 8407 418C8363 384 8343 363 8278 275L8311 408C8315 424 8317 439 8317 451C8317 470 8308 482 8294 482C8273 482 8235 461 8161 408L8133 388L8140 368C8177 391 8212 414 8219 414C8230 414 8237 404 8237 389C8237 338 8196 145 8155 2L8158 -9L8226 6L8248 108C8272 219 8299 278 8354 338C8396 384 8441 414 8469 414C8476 414 8480 406 8480 393C8480 358 8458 244 8417 69L8401 2L8406 -9L8475 6L8496 113C8512 194 8546 269 8590 318C8645 379 8695 414 8727 414C8735 414 8740 405 8740 389C8740 365 8737 351 8715 264C8675 105 8659 84 8659 31C8659 6 8670 -9 8689 -9C8715 -9 8751 12 8849 85Z" stroke="rgb(0,0,0)" stroke-opacity="1" stroke-width="8" fill="rgb(0,0,0)" fill-opacity="1"></path></g></g><g><g transform="matrix(1,0,0,1,576.7554321289062,20.7391357421875)"><path transform="matrix(0.017,0,0,-0.017,0,0)" d="M51 726L32 700C87 636 187 526 187 266C187 -10 83 -131 32 -194L51 -215C104 -165 273 -23 273 265C273 542 108 675 51 726Z" stroke="rgb(0,0,0)" stroke-opacity="1" stroke-width="8" fill="rgb(0,0,0)" fill-opacity="1"></path></g></g><g><g transform="matrix(1,0,0,1,582.4076538085938,19.86956787109375)"><path transform="matrix(0.017,0,0,-0.017,0,0)" d="M749 219L749 277L249 277L249 219Z" stroke="rgb(0,0,0)" stroke-opacity="1" stroke-width="8" fill="rgb(0,0,0)" fill-opacity="1"></path></g></g><g><g transform="matrix(1,0,0,1,599.3505249023438,20.7391357421875)"><path transform="matrix(0.017,0,0,-0.017,0,0)" d="M146 266C146 526 243 632 301 700L282 726C225 675 60 542 60 266C60 159 85 58 133 -32C168 -99 200 -138 282 -215L301 -194C255 -137 146 -15 146 266Z" stroke="rgb(0,0,0)" stroke-opacity="1" stroke-width="8" fill="rgb(0,0,0)" fill-opacity="1"></path></g></g><g><g transform="matrix(1,0,0,1,605.0027465820312,19.86956787109375)"><path transform="matrix(0.017,0,0,-0.017,0,0)" d="M380 331C401 512 490 611 670 665L628 689C532 657 491 637 440 593C337 506 281 384 281 247C281 82 361 -20 490 -20C620 -20 717 83 717 219C717 334 648 409 542 409C465 409 433 370 380 331ZM504 349C580 349 631 283 631 184C631 80 580 13 503 13C418 13 372 86 372 220C372 255 376 274 387 291C409 325 456 349 504 349ZM872 111C842 111 815 83 815 53C815 23 842 -5 871 -5C903 -5 931 22 931 53C931 83 903 111 872 111ZM1406 603L1044 -1L1154 -1L1494 659L1494 689L1041 689L1041 477L1071 477L1078 533C1086 595 1093 603 1139 603ZM1955 253C1955 366 1874 446 1760 446C1712 446 1676 443 1623 396L1623 605L1928 604L1928 689L1571 690L1571 322L1591 316C1638 363 1665 377 1714 377C1810 377 1870 309 1870 201C1870 90 1806 25 1697 25C1643 25 1593 43 1579 69L1533 151L1509 137C1532 80 1544 48 1558 4C1586 -11 1626 -20 1669 -20C1797 -20 1955 89 1955 253ZM2454 253C2454 366 2373 446 2259 446C2211 446 2175 443 2122 396L2122 605L2427 604L2427 689L2070 690L2070 322L2090 316C2137 363 2164 377 2213 377C2309 377 2369 309 2369 201C2369 90 2305 25 2196 25C2142 25 2092 43 2078 69L2032 151L2008 137C2031 80 2043 48 2057 4C2085 -11 2125 -20 2168 -20C2296 -20 2454 89 2454 253ZM2911 267L2780 213L2775 204L2811 153L2821 153L2927 241L2945 99L2955 95L3023 121L3023 131L2955 253L3093 233L3102 241L3102 303L3096 307L2957 283L3026 408L3023 423L2961 442L2952 438L2926 295L2831 393L2821 393L2777 341L2780 331ZM3651 204L3622 77C3618 60 3616 42 3616 26C3616 4 3625 -9 3640 -9C3663 -9 3704 17 3786 85L3779 106C3755 86 3726 59 3704 59C3695 59 3689 68 3689 82C3689 87 3689 90 3690 93L3782 472L3772 481L3739 463C3698 478 3681 482 3654 482C3626 482 3606 477 3579 464C3517 433 3484 403 3459 354C3415 265 3384 145 3384 67C3384 23 3399 -11 3418 -11C3455 -11 3535 41 3651 204ZM3699 414C3677 305 3658 253 3624 201C3567 117 3506 59 3474 59C3462 59 3456 72 3456 99C3456 163 3484 280 3519 360C3543 415 3566 433 3614 433C3637 433 3655 429 3699 414ZM4098 482C4031 482 3878 419 3878 259C3878 182 3923 136 4000 136C4008 136 4019 136 4030 137L3989 99C3973 84 3962 66 3962 52C3962 42 3969 31 3983 19C3914 -4 3786 -48 3786 -159C3786 -230 3856 -276 3965 -276C4094 -276 4207 -204 4207 -121C4207 -85 4186 -49 4143 -14L4083 35C4049 62 4036 81 4036 100C4036 114 4051 128 4063 146C4161 170 4232 253 4232 342C4232 357 4229 376 4228 380C4245 378 4253 378 4262 378C4279 378 4289 379 4312 382L4321 427L4318 433C4290 426 4270 424 4216 424C4216 425 4192 482 4098 482ZM3999 1L4076 -58C4122 -94 4141 -121 4141 -154C4141 -206 4072 -248 3989 -248C3907 -248 3850 -206 3850 -145C3850 -43 3960 -11 3999 1ZM4073 448C4131 448 4160 412 4160 341C4160 238 4112 168 4042 168C3981 168 3949 209 3949 288C3949 383 4000 448 4073 448ZM4650 111L4626 94C4573 56 4525 36 4489 36C4442 36 4413 73 4413 133C4413 158 4416 185 4421 214C4438 218 4547 248 4572 259C4657 296 4696 342 4696 404C4696 451 4662 482 4612 482C4544 496 4434 423 4397 349C4367 299 4337 180 4337 113C4337 35 4381 -11 4453 -11C4510 -11 4566 17 4658 92ZM4435 274C4452 343 4472 386 4501 412C4519 428 4550 440 4574 440C4603 440 4622 420 4622 388C4622 344 4587 297 4535 272C4507 258 4471 247 4426 237ZM4993 388L5000 368L5032 389C5069 412 5072 414 5079 414C5089 414 5097 404 5097 391C5097 384 5093 361 5089 347L5023 107C5015 76 5010 49 5010 30C5010 6 5021 -9 5040 -9C5066 -9 5102 12 5200 85L5190 103L5164 86C5135 67 5112 56 5103 56C5096 56 5090 66 5090 76C5090 86 5092 95 5097 116L5174 420C5178 437 5180 448 5180 456C5180 473 5171 482 5155 482C5133 482 5096 461 5021 408ZM5187 712C5158 712 5129 679 5129 645C5129 620 5144 604 5168 604C5199 604 5223 633 5223 671C5223 695 5208 712 5187 712ZM5260 388L5267 368L5299 389C5336 412 5339 414 5346 414C5357 414 5364 404 5364 389C5364 338 5323 145 5282 2L5289 -9C5314 -2 5337 4 5359 8C5378 134 5399 199 5445 268C5499 352 5574 414 5619 414C5630 414 5636 405 5636 390C5636 372 5633 351 5625 319L5573 107C5564 70 5560 47 5560 31C5560 6 5571 -9 5590 -9C5616 -9 5652 12 5750 85L5740 103L5714 86C5685 67 5663 56 5653 56C5646 56 5640 65 5640 76C5640 81 5641 92 5642 96L5708 372C5715 401 5719 429 5719 446C5719 469 5708 482 5688 482C5646 482 5577 444 5518 389C5480 354 5452 320 5400 247L5438 408C5442 426 5444 438 5444 449C5444 470 5436 482 5421 482C5400 482 5361 460 5288 408ZM6033 -180C6032 -187 6032 -193 6032 -198C6032 -241 6069 -276 6114 -276C6220 -276 6330 -152 6389 33L6530 473L6519 482C6490 471 6467 465 6445 463L6410 331C6398 284 6363 211 6330 162C6295 111 6246 67 6224 67C6212 67 6203 90 6204 115L6220 322C6222 353 6224 391 6224 419C6224 464 6217 482 6200 482C6187 482 6173 475 6125 442L6043 386L6054 368L6104 398C6109 401 6120 410 6129 410C6143 410 6151 391 6151 358C6151 357 6151 351 6150 343L6133 100L6132 60C6132 18 6150 -11 6175 -11C6212 -11 6296 74 6371 187L6322 16C6271 -161 6221 -234 6151 -234C6116 -234 6089 -207 6089 -172C6089 -167 6090 -159 6091 -150L6081 -146ZM6867 111L6843 94C6790 56 6742 36 6706 36C6659 36 6630 73 6630 133C6630 158 6633 185 6638 214C6655 218 6764 248 6789 259C6874 296 6913 342 6913 404C6913 451 6879 482 6829 482C6761 496 6651 423 6614 349C6584 299 6554 180 6554 113C6554 35 6598 -11 6670 -11C6727 -11 6783 17 6875 92ZM6652 274C6669 343 6689 386 6718 412C6736 428 6767 440 6791 440C6820 440 6839 420 6839 388C6839 344 6804 297 6752 272C6724 258 6688 247 6643 237ZM7198 204L7169 77C7165 60 7163 42 7163 26C7163 4 7172 -9 7187 -9C7210 -9 7251 17 7333 85L7326 106C7302 86 7273 59 7251 59C7242 59 7236 68 7236 82C7236 87 7236 90 7237 93L7329 472L7319 481L7286 463C7245 478 7228 482 7201 482C7173 482 7153 477 7126 464C7064 433 7031 403 7006 354C6962 265 6931 145 6931 67C6931 23 6946 -11 6965 -11C7002 -11 7082 41 7198 204ZM7246 414C7224 305 7205 253 7171 201C7114 117 7053 59 7021 59C7009 59 7003 72 7003 99C7003 163 7031 280 7066 360C7090 415 7113 433 7161 433C7184 433 7202 429 7246 414ZM7738 365C7741 403 7746 435 7754 476C7743 481 7739 482 7734 482C7703 482 7672 458 7636 407C7597 351 7558 291 7542 256L7574 408C7578 425 7580 438 7580 450C7580 470 7572 482 7557 482C7536 482 7498 461 7424 408L7396 388L7403 368L7435 389C7463 407 7474 412 7483 412C7493 412 7500 403 7500 390C7500 332 7457 126 7417 -2L7427 -9C7442 -4 7458 -1 7481 4L7494 6L7520 126C7538 209 7561 262 7605 319C7639 363 7666 384 7688 384C7703 384 7713 379 7724 365ZM7789 148C7784 97 7778 62 7767 16C7805 -2 7839 -11 7874 -11C7923 -11 7969 7 8020 47C8071 87 8092 124 8092 174C8092 228 8060 257 7986 271L7943 279C7883 290 7864 307 7864 348C7864 401 7909 442 7966 442C8007 442 8045 424 8061 397L8061 342L8084 342C8088 377 8092 404 8103 455C8064 474 8036 482 8003 482C7951 482 7890 452 7842 404C7816 377 7805 352 7805 316C7805 260 7836 228 7902 215L7965 203C8009 195 8025 177 8025 138C8025 73 7979 29 7908 29C7873 29 7842 40 7814 64L7814 148Z" stroke="rgb(0,0,0)" stroke-opacity="1" stroke-width="8" fill="rgb(0,0,0)" fill-opacity="1"></path></g></g><g><g transform="matrix(1,0,0,1,747.6521606445312,20.7391357421875)"><path transform="matrix(0.017,0,0,-0.017,0,0)" d="M51 726L32 700C87 636 187 526 187 266C187 -10 83 -131 32 -194L51 -215C104 -165 273 -23 273 265C273 542 108 675 51 726Z" stroke="rgb(0,0,0)" stroke-opacity="1" stroke-width="8" fill="rgb(0,0,0)" fill-opacity="1"></path></g></g><g><g transform="matrix(1,0,0,1,753.3043823242188,19.86956787109375)"><path transform="matrix(0.017,0,0,-0.017,0,0)" d="" stroke="rgb(0,0,0)" stroke-opacity="1" stroke-width="8" fill="rgb(0,0,0)" fill-opacity="1"></path></g></g></g></g><g><g><g><g transform="matrix(1,0,0,1,2.43475341796875,44.5299072265625)"><path transform="matrix(0.017,0,0,-0.017,0,0)" d="M303 692L264 691C226 689 202 689 182 689C170 689 148 690 110 691L71 692L71 664L89 662C130 656 138 645 142 588L174 158C179 92 181 44 182 -8L232 -8C246 27 264 66 282 102L506 546L618 154C633 102 644 53 657 -8L708 -8L715 18C725 58 733 85 746 124L917 631C923 648 938 660 960 662L980 664L980 692L948 691C919 690 897 689 883 689C870 689 848 690 818 691L785 692L780 664L819 662C848 661 860 653 860 639C860 626 857 608 851 590L704 128L546 700L528 700C516 673 494 624 476 588L252 132L221 616C221 646 234 660 266 662L303 664ZM960 152C960 46 1005 -11 1088 -11C1143 -11 1203 15 1248 57C1310 116 1354 230 1354 331C1354 425 1304 482 1221 482C1117 482 960 382 960 152ZM1184 444C1245 444 1278 399 1278 315C1278 219 1247 113 1203 60C1185 39 1159 27 1128 27C1070 27 1036 72 1036 151C1036 264 1075 387 1124 427C1137 438 1160 444 1184 444ZM2116 103L2090 86C2061 67 2039 56 2029 56C2022 56 2016 65 2016 76C2016 86 2018 95 2023 116L2098 413C2102 430 2105 446 2105 454C2105 471 2095 482 2079 482C2050 482 2012 464 1951 421C1888 376 1853 341 1804 272L1834 409C1838 429 1841 444 1841 451C1841 470 1831 482 1815 482C1785 482 1739 460 1684 418C1640 384 1620 363 1555 275L1588 408C1592 424 1594 439 1594 451C1594 470 1585 482 1571 482C1550 482 1512 461 1438 408L1410 388L1417 368C1454 391 1489 414 1496 414C1507 414 1514 404 1514 389C1514 338 1473 145 1432 2L1435 -9L1503 6L1525 108C1549 219 1576 278 1631 338C1673 384 1718 414 1746 414C1753 414 1757 406 1757 393C1757 358 1735 244 1694 69L1678 2L1683 -9L1752 6L1773 113C1789 194 1823 269 1867 318C1922 379 1972 414 2004 414C2012 414 2017 405 2017 389C2017 365 2014 351 1992 264C1952 105 1936 84 1936 31C1936 6 1947 -9 1966 -9C1992 -9 2028 12 2126 85ZM2491 111L2467 94C2414 56 2366 36 2330 36C2283 36 2254 73 2254 133C2254 158 2257 185 2262 214C2279 218 2388 248 2413 259C2498 296 2537 342 2537 404C2537 451 2503 482 2453 482C2385 496 2275 423 2238 349C2208 299 2178 180 2178 113C2178 35 2222 -11 2294 -11C2351 -11 2407 17 2499 92ZM2276 274C2293 343 2313 386 2342 412C2360 428 2391 440 2415 440C2444 440 2463 420 2463 388C2463 344 2428 297 2376 272C2348 258 2312 247 2267 237ZM2575 388L2582 368L2614 389C2651 412 2654 414 2661 414C2672 414 2679 404 2679 389C2679 338 2638 145 2597 2L2604 -9C2629 -2 2652 4 2674 8C2693 134 2714 199 2760 268C2814 352 2889 414 2934 414C2945 414 2951 405 2951 390C2951 372 2948 351 2940 319L2888 107C2879 70 2875 47 2875 31C2875 6 2886 -9 2905 -9C2931 -9 2967 12 3065 85L3055 103L3029 86C3000 67 2978 56 2968 56C2961 56 2955 65 2955 76C2955 81 2956 92 2957 96L3023 372C3030 401 3034 429 3034 446C3034 469 3023 482 3003 482C2961 482 2892 444 2833 389C2795 354 2767 320 2715 247L2753 408C2757 426 2759 438 2759 449C2759 470 2751 482 2736 482C2715 482 2676 460 2603 408Z" stroke="rgb(0,0,0)" stroke-opacity="1" stroke-width="8" fill="rgb(0,0,0)" fill-opacity="1"></path></g></g></g></g><g><g><g><g transform="matrix(1,0,0,1,73.00543212890625,44.5299072265625)"><path transform="matrix(0.017,0,0,-0.017,0,0)" d="M543 227C543 337 459 353 377 365C434 385 459 397 490 425C536 464 559 511 559 562C559 644 501 692 401 692C399 692 389 692 374 691L311 690C299 689 263 689 251 689C232 689 201 690 152 691L100 692L97 664L150 662C174 661 185 653 185 635C185 621 181 589 176 559L89 55C85 37 73 30 31 23L26 -3L63 -2C90 0 105 0 117 0C128 0 154 -1 180 -2L217 -3L237 -4C256 -5 269 -6 277 -6C392 -6 543 87 543 227ZM166 41L217 340L302 340C405 340 455 298 455 211C455 108 382 34 282 34C228 34 207 38 166 41ZM352 655C433 655 473 619 473 544C473 439 399 376 275 376L223 376L272 650C288 650 329 655 352 655ZM1547 664L1560 695C1532 699 1385 701 1383 692L1298 536L1052 114L902 692C879 686 756 690 735 692L732 664L758 662C810 658 828 648 828 622C828 616 682 100 680 93C664 41 649 28 594 23L591 -3L630 -2C664 -1 689 0 703 0C717 0 743 -1 778 -2L813 -3L816 25L778 28C746 30 729 40 729 55C729 65 731 78 736 96L860 560L1009 -18L1032 -18L1089 86L1328 500L1380 587L1343 67C1339 39 1327 32 1276 28L1245 25L1242 -3L1289 -2C1331 -1 1361 0 1376 0C1392 0 1422 -1 1463 -2L1509 -3L1512 25L1475 28C1439 31 1421 42 1421 63L1422 100L1463 631C1465 650 1480 660 1509 662ZM1668 664L1724 662C1748 661 1759 653 1759 635C1759 621 1755 589 1750 559L1675 125C1659 34 1657 32 1617 28L1576 25L1572 -3L1614 -2C1661 0 1680 0 1704 0L1801 -3L1827 -3L1830 25L1781 28C1754 30 1745 38 1745 58C1745 67 1746 76 1749 93L1850 648C1879 654 1899 656 1926 656C2013 656 2059 617 2059 543C2059 448 1981 378 1877 378L1833 378L1830 367C1964 172 1995 124 2070 -3C2070 -3 2155 0 2155 0C2156 0 2170 -1 2189 -3L2202 -3L2202 24C2162 29 2151 37 2122 79L1938 354C1993 364 2022 376 2058 402C2116 444 2147 499 2147 560C2147 646 2083 693 1972 691L1671 691Z" stroke="rgb(0,0,0)" stroke-opacity="1" stroke-width="8" fill="rgb(0,0,0)" fill-opacity="1"></path></g></g><g><g transform="matrix(1,0,0,1,120.20648193359375,44.5299072265625)"><path transform="matrix(0.017,0,0,-0.017,0,0)" d="M604 347L604 406L65 406L65 347ZM604 134L604 193L65 193L65 134Z" stroke="rgb(0,0,0)" stroke-opacity="1" stroke-width="8" fill="rgb(0,0,0)" fill-opacity="1"></path></g></g><g><g transform="matrix(1,0,0,1,136.6602783203125,44.5299072265625)"><path transform="matrix(0.017,0,0,-0.017,0,0)" d="M380 331C401 512 490 611 670 665L628 689C532 657 491 637 440 593C337 506 281 384 281 247C281 82 361 -20 490 -20C620 -20 717 83 717 219C717 334 648 409 542 409C465 409 433 370 380 331ZM504 349C580 349 631 283 631 184C631 80 580 13 503 13C418 13 372 86 372 220C372 255 376 274 387 291C409 325 456 349 504 349ZM1207 253C1207 366 1126 446 1012 446C964 446 928 443 875 396L875 605L1180 604L1180 689L823 690L823 322L843 316C890 363 917 377 966 377C1062 377 1122 309 1122 201C1122 90 1058 25 949 25C895 25 845 43 831 69L785 151L761 137C784 80 796 48 810 4C838 -11 878 -20 921 -20C1049 -20 1207 89 1207 253ZM1706 253C1706 366 1625 446 1511 446C1463 446 1427 443 1374 396L1374 605L1679 604L1679 689L1322 690L1322 322L1342 316C1389 363 1416 377 1465 377C1561 377 1621 309 1621 201C1621 90 1557 25 1448 25C1394 25 1344 43 1330 69L1284 151L1260 137C1283 80 1295 48 1309 4C1337 -11 1377 -20 1420 -20C1548 -20 1706 89 1706 253ZM1870 111C1840 111 1813 83 1813 53C1813 23 1840 -5 1869 -5C1901 -5 1929 22 1929 53C1929 83 1901 111 1870 111ZM2258 689C2103 689 2024 566 2024 324C2024 207 2045 106 2080 57C2115 8 2171 -20 2233 -20C2384 -20 2460 110 2460 366C2460 585 2395 689 2258 689ZM2240 654C2337 654 2376 556 2376 316C2376 103 2338 15 2246 15C2149 15 2108 116 2108 360C2108 571 2145 654 2240 654ZM2590 -20C2701 16 2749 39 2803 85C2900 168 2951 283 2951 417C2951 586 2870 689 2738 689C2610 689 2514 589 2514 455C2514 340 2589 256 2693 256C2727 256 2766 267 2784 282L2854 340C2846 172 2737 49 2556 5L2556 -3ZM2734 656C2779 656 2812 637 2834 597C2852 565 2864 516 2864 471C2864 379 2811 317 2734 317C2654 317 2600 388 2600 492C2600 593 2652 656 2734 656ZM3452 253C3452 366 3371 446 3257 446C3209 446 3173 443 3120 396L3120 605L3425 604L3425 689L3068 690L3068 322L3088 316C3135 363 3162 377 3211 377C3307 377 3367 309 3367 201C3367 90 3303 25 3194 25C3140 25 3090 43 3076 69L3030 151L3006 137C3029 80 3041 48 3055 4C3083 -11 3123 -20 3166 -20C3294 -20 3452 89 3452 253ZM3951 253C3951 366 3870 446 3756 446C3708 446 3672 443 3619 396L3619 605L3924 604L3924 689L3567 690L3567 322L3587 316C3634 363 3661 377 3710 377C3806 377 3866 309 3866 201C3866 90 3802 25 3693 25C3639 25 3589 43 3575 69L3529 151L3505 137C3528 80 3540 48 3554 4C3582 -11 3622 -20 3665 -20C3793 -20 3951 89 3951 253Z" stroke="rgb(0,0,0)" stroke-opacity="1" stroke-width="8" fill="rgb(0,0,0)" fill-opacity="1"></path></g></g><g><g transform="matrix(1,0,0,1,212.108642578125,44.5299072265625)"><path transform="matrix(0.017,0,0,-0.017,0,0)" d="M604 241L604 300L364 300L364 538L305 538L305 300L65 300L65 241L305 241L305 0L364 0L364 241Z" stroke="rgb(0,0,0)" stroke-opacity="1" stroke-width="8" fill="rgb(0,0,0)" fill-opacity="1"></path></g></g><g><g transform="matrix(1,0,0,1,226.8641357421875,44.5299072265625)"><path transform="matrix(0.017,0,0,-0.017,0,0)" d="" stroke="rgb(0,0,0)" stroke-opacity="1" stroke-width="8" fill="rgb(0,0,0)" fill-opacity="1"></path></g></g><g><g transform="matrix(1,0,0,1,231.10321044921875,45.399444580078125)"><path transform="matrix(0.017,0,0,-0.017,0,0)" d="M146 266C146 526 243 632 301 700L282 726C225 675 60 542 60 266C60 159 85 58 133 -32C168 -99 200 -138 282 -215L301 -194C255 -137 146 -15 146 266Z" stroke="rgb(0,0,0)" stroke-opacity="1" stroke-width="8" fill="rgb(0,0,0)" fill-opacity="1"></path></g></g><g><g transform="matrix(1,0,0,1,236.75543212890625,44.5299072265625)"><path transform="matrix(0.017,0,0,-0.017,0,0)" d="M345 -20C456 16 504 39 558 85C655 168 706 283 706 417C706 586 625 689 493 689C365 689 269 589 269 455C269 340 344 256 448 256C482 256 521 267 539 282L609 340C601 172 492 49 311 5L311 -3ZM489 656C534 656 567 637 589 597C607 565 619 516 619 471C619 379 566 317 489 317C409 317 355 388 355 492C355 593 407 656 489 656ZM872 111C842 111 815 83 815 53C815 23 842 -5 871 -5C903 -5 931 22 931 53C931 83 903 111 872 111ZM1456 253C1456 366 1375 446 1261 446C1213 446 1177 443 1124 396L1124 605L1429 604L1429 689L1072 690L1072 322L1092 316C1139 363 1166 377 1215 377C1311 377 1371 309 1371 201C1371 90 1307 25 1198 25C1144 25 1094 43 1080 69L1034 151L1010 137C1033 80 1045 48 1059 4C1087 -11 1127 -20 1170 -20C1298 -20 1456 89 1456 253ZM1627 331C1648 512 1737 611 1917 665L1875 689C1779 657 1738 637 1687 593C1584 506 1528 384 1528 247C1528 82 1608 -20 1737 -20C1867 -20 1964 83 1964 219C1964 334 1895 409 1789 409C1712 409 1680 370 1627 331ZM1751 349C1827 349 1878 283 1878 184C1878 80 1827 13 1750 13C1665 13 1619 86 1619 220C1619 255 1623 274 1634 291C1656 325 1703 349 1751 349ZM2457 224C2457 345 2350 366 2303 374C2383 436 2413 482 2413 541C2413 630 2339 689 2228 689C2160 689 2115 670 2067 622L2038 498L2069 498L2087 554C2098 588 2161 622 2213 622C2278 622 2331 569 2331 506C2331 431 2272 368 2201 368C2193 368 2182 369 2169 370L2154 371L2142 318L2149 312C2187 329 2206 334 2233 334C2316 334 2364 281 2364 190C2364 88 2303 21 2210 21C2164 21 2123 36 2093 64C2069 86 2056 109 2037 163L2010 153C2031 92 2039 56 2045 6C2098 -12 2142 -20 2179 -20C2302 -20 2457 87 2457 224ZM2774 181L2774 106C2774 46 2763 32 2714 30L2652 27L2652 -3C2785 0 2785 0 2809 0C2833 0 2833 0 2966 -3L2966 27L2918 30C2869 33 2858 46 2858 106L2858 181C2917 181 2938 180 2966 177L2966 248L2858 245L2859 697L2779 667L2496 204L2496 181ZM2774 245L2559 245L2774 597ZM3410 267L3279 213L3274 204L3310 153L3320 153L3426 241L3444 99L3454 95L3522 121L3522 131L3454 253L3592 233L3601 241L3601 303L3595 307L3456 283L3525 408L3522 423L3460 442L3451 438L3425 295L3330 393L3320 393L3276 341L3279 331ZM4046 420C4067 420 4080 421 4105 424C4050 350 3951 266 3951 126C3951 44 3986 -11 4039 -11C4103 -11 4155 44 4229 187C4220 143 4217 118 4217 95C4217 32 4246 -11 4291 -11C4425 -11 4578 238 4578 384C4578 441 4552 482 4516 482C4503 482 4491 478 4483 470L4433 423L4444 404C4453 410 4462 413 4471 413C4498 413 4514 390 4514 350C4514 205 4417 39 4332 39C4303 39 4282 79 4282 134C4282 181 4291 247 4303 290L4355 474L4348 482L4274 460L4245 311C4233 249 4219 209 4190 155C4150 80 4112 39 4082 39C4047 39 4024 78 4024 136C4024 255 4065 352 4164 464L4154 482C4134 473 4121 470 4093 470C4065 470 4023 472 3994 475L3982 476C3976 477 3971 477 3970 477C3958 477 3949 475 3938 470C3924 443 3913 407 3900 352L3922 352L3939 394C3946 411 3966 422 3990 422C4024 422 4007 420 4046 420ZM4928 111L4904 94C4851 56 4803 36 4767 36C4720 36 4691 73 4691 133C4691 158 4694 185 4699 214C4716 218 4825 248 4850 259C4935 296 4974 342 4974 404C4974 451 4940 482 4890 482C4822 496 4712 423 4675 349C4645 299 4615 180 4615 113C4615 35 4659 -11 4731 -11C4788 -11 4844 17 4936 92ZM4713 274C4730 343 4750 386 4779 412C4797 428 4828 440 4852 440C4881 440 4900 420 4900 388C4900 344 4865 297 4813 272C4785 258 4749 247 4704 237ZM5022 388L5029 368L5061 389C5098 412 5101 414 5108 414C5118 414 5126 404 5126 391C5126 384 5122 361 5118 347L5052 107C5044 76 5039 49 5039 30C5039 6 5050 -9 5069 -9C5095 -9 5131 12 5229 85L5219 103L5193 86C5164 67 5141 56 5132 56C5125 56 5119 66 5119 76C5119 86 5121 95 5126 116L5203 420C5207 437 5209 448 5209 456C5209 473 5200 482 5184 482C5162 482 5125 461 5050 408ZM5216 712C5187 712 5158 679 5158 645C5158 620 5173 604 5197 604C5228 604 5252 633 5252 671C5252 695 5237 712 5216 712ZM5540 482C5473 482 5320 419 5320 259C5320 182 5365 136 5442 136C5450 136 5461 136 5472 137L5431 99C5415 84 5404 66 5404 52C5404 42 5411 31 5425 19C5356 -4 5228 -48 5228 -159C5228 -230 5298 -276 5407 -276C5536 -276 5649 -204 5649 -121C5649 -85 5628 -49 5585 -14L5525 35C5491 62 5478 81 5478 100C5478 114 5493 128 5505 146C5603 170 5674 253 5674 342C5674 357 5671 376 5670 380C5687 378 5695 378 5704 378C5721 378 5731 379 5754 382L5763 427L5760 433C5732 426 5712 424 5658 424C5658 425 5634 482 5540 482ZM5441 1L5518 -58C5564 -94 5583 -121 5583 -154C5583 -206 5514 -248 5431 -248C5349 -248 5292 -206 5292 -145C5292 -43 5402 -11 5441 1ZM5515 448C5573 448 5602 412 5602 341C5602 238 5554 168 5484 168C5423 168 5391 209 5391 288C5391 383 5442 448 5515 448ZM6000 722L5988 733C5943 711 5902 697 5828 691L5824 670L5872 670C5890 670 5906 667 5906 647C5906 641 5906 632 5904 622L5862 388C5842 272 5800 80 5774 2L5781 -9L5850 7C5858 64 5872 164 5912 236C5957 317 6060 414 6102 414C6113 414 6124 407 6124 393C6124 375 6119 342 6109 303L6058 107C6052 85 6045 55 6045 31C6045 6 6055 -9 6076 -9C6108 -9 6176 41 6235 85L6225 103L6199 86C6176 71 6150 56 6138 56C6131 56 6125 65 6125 76C6125 88 6128 101 6132 116L6196 372C6202 398 6207 423 6207 447C6207 464 6201 482 6175 482C6140 482 6063 437 5995 374C5962 343 5936 308 5908 273L5904 275ZM6388 390L6332 107C6331 99 6319 61 6319 31C6319 6 6330 -9 6349 -9C6384 -9 6419 11 6497 74L6528 99L6518 117L6473 86C6444 66 6424 56 6413 56C6404 56 6399 64 6399 76C6399 102 6413 183 6442 328L6455 390L6562 390L6573 440C6535 436 6501 434 6463 434C6479 528 6490 577 6508 631L6497 646C6477 634 6450 622 6419 610L6394 440C6350 419 6324 408 6306 403L6304 390ZM6878 388L6885 368L6917 389C6954 412 6957 414 6964 414C6974 414 6982 404 6982 391C6982 384 6978 361 6974 347L6908 107C6900 76 6895 49 6895 30C6895 6 6906 -9 6925 -9C6951 -9 6987 12 7085 85L7075 103L7049 86C7020 67 6997 56 6988 56C6981 56 6975 66 6975 76C6975 86 6977 95 6982 116L7059 420C7063 437 7065 448 7065 456C7065 473 7056 482 7040 482C7018 482 6981 461 6906 408ZM7072 712C7043 712 7014 679 7014 645C7014 620 7029 604 7053 604C7084 604 7108 633 7108 671C7108 695 7093 712 7072 712ZM7145 388L7152 368L7184 389C7221 412 7224 414 7231 414C7242 414 7249 404 7249 389C7249 338 7208 145 7167 2L7174 -9C7199 -2 7222 4 7244 8C7263 134 7284 199 7330 268C7384 352 7459 414 7504 414C7515 414 7521 405 7521 390C7521 372 7518 351 7510 319L7458 107C7449 70 7445 47 7445 31C7445 6 7456 -9 7475 -9C7501 -9 7537 12 7635 85L7625 103L7599 86C7570 67 7548 56 7538 56C7531 56 7525 65 7525 76C7525 81 7526 92 7527 96L7593 372C7600 401 7604 429 7604 446C7604 469 7593 482 7573 482C7531 482 7462 444 7403 389C7365 354 7337 320 7285 247L7323 408C7327 426 7329 438 7329 449C7329 470 7321 482 7306 482C7285 482 7246 460 7173 408ZM8165 722L8153 733C8101 707 8065 698 7993 691L7989 670L8037 670C8061 670 8071 663 8071 646C8071 638 8070 629 8069 622L8021 354C8007 279 7991 210 7939 1L7948 -9L8015 8L8038 132C8047 180 8071 225 8105 259C8174 59 8206 -9 8231 -9C8244 -9 8268 4 8312 35L8358 67L8350 86L8307 62C8293 54 8286 52 8278 52C8268 52 8261 58 8252 75C8217 139 8195 193 8156 316L8170 330C8231 391 8277 416 8327 416C8335 416 8346 414 8363 410L8380 473C8362 479 8344 482 8332 482C8266 482 8183 405 8058 230ZM8668 482C8601 482 8448 419 8448 259C8448 182 8493 136 8570 136C8578 136 8589 136 8600 137L8559 99C8543 84 8532 66 8532 52C8532 42 8539 31 8553 19C8484 -4 8356 -48 8356 -159C8356 -230 8426 -276 8535 -276C8664 -276 8777 -204 8777 -121C8777 -85 8756 -49 8713 -14L8653 35C8619 62 8606 81 8606 100C8606 114 8621 128 8633 146C8731 170 8802 253 8802 342C8802 357 8799 376 8798 380C8815 378 8823 378 8832 378C8849 378 8859 379 8882 382L8891 427L8888 433C8860 426 8840 424 8786 424C8786 425 8762 482 8668 482ZM8569 1L8646 -58C8692 -94 8711 -121 8711 -154C8711 -206 8642 -248 8559 -248C8477 -248 8420 -206 8420 -145C8420 -43 8530 -11 8569 1ZM8643 448C8701 448 8730 412 8730 341C8730 238 8682 168 8612 168C8551 168 8519 209 8519 288C8519 383 8570 448 8643 448Z" stroke="rgb(0,0,0)" stroke-opacity="1" stroke-width="8" fill="rgb(0,0,0)" fill-opacity="1"></path></g></g><g><g transform="matrix(1,0,0,1,392.08148193359375,45.399444580078125)"><path transform="matrix(0.017,0,0,-0.017,0,0)" d="M51 726L32 700C87 636 187 526 187 266C187 -10 83 -131 32 -194L51 -215C104 -165 273 -23 273 265C273 542 108 675 51 726Z" stroke="rgb(0,0,0)" stroke-opacity="1" stroke-width="8" fill="rgb(0,0,0)" fill-opacity="1"></path></g></g><g><g transform="matrix(1,0,0,1,397.73370361328125,44.5299072265625)"><path transform="matrix(0.017,0,0,-0.017,0,0)" d="" stroke="rgb(0,0,0)" stroke-opacity="1" stroke-width="8" fill="rgb(0,0,0)" fill-opacity="1"></path></g></g><g><g transform="matrix(1,0,0,1,405.36956787109375,44.5299072265625)"><path transform="matrix(0.017,0,0,-0.017,0,0)" d="M604 241L604 300L364 300L364 538L305 538L305 300L65 300L65 241L305 241L305 0L364 0L364 241Z" stroke="rgb(0,0,0)" stroke-opacity="1" stroke-width="8" fill="rgb(0,0,0)" fill-opacity="1"></path></g></g><g><g transform="matrix(1,0,0,1,420.125,44.5299072265625)"><path transform="matrix(0.017,0,0,-0.017,0,0)" d="" stroke="rgb(0,0,0)" stroke-opacity="1" stroke-width="8" fill="rgb(0,0,0)" fill-opacity="1"></path></g></g><g><g transform="matrix(1,0,0,1,424.3641357421875,45.399444580078125)"><path transform="matrix(0.017,0,0,-0.017,0,0)" d="M146 266C146 526 243 632 301 700L282 726C225 675 60 542 60 266C60 159 85 58 133 -32C168 -99 200 -138 282 -215L301 -194C255 -137 146 -15 146 266Z" stroke="rgb(0,0,0)" stroke-opacity="1" stroke-width="8" fill="rgb(0,0,0)" fill-opacity="1"></path></g></g><g><g transform="matrix(1,0,0,1,430.01629638671875,44.5299072265625)"><path transform="matrix(0.017,0,0,-0.017,0,0)" d="M667 -3L667 27L615 30C560 33 550 44 550 96L550 700L309 598L316 548L466 614L466 96C466 44 455 33 401 30L345 27L345 -3C499 0 499 0 510 0C541 0 651 -3 667 -3ZM872 111C842 111 815 83 815 53C815 23 842 -5 871 -5C903 -5 931 22 931 53C931 83 903 111 872 111ZM1165 345C1124 326 1107 315 1085 294C1047 256 1027 211 1027 159C1027 56 1110 -20 1223 -20C1353 -20 1461 82 1461 206C1461 286 1424 329 1310 381C1401 443 1433 485 1433 545C1433 631 1362 689 1256 689C1137 689 1050 613 1050 508C1050 440 1077 402 1165 345ZM1281 295C1344 267 1382 218 1382 164C1382 80 1319 14 1238 14C1153 14 1098 74 1098 167C1098 240 1127 286 1201 331ZM1220 423C1157 454 1125 494 1125 544C1125 610 1173 655 1244 655C1317 655 1365 607 1365 534C1365 477 1340 438 1275 396ZM1776 181L1776 106C1776 46 1765 32 1716 30L1654 27L1654 -3C1787 0 1787 0 1811 0C1835 0 1835 0 1968 -3L1968 27L1920 30C1871 33 1860 46 1860 106L1860 181C1919 181 1940 180 1968 177L1968 248L1860 245L1861 697L1781 667L1498 204L1498 181ZM1776 245L1561 245L1776 597ZM2091 -20C2202 16 2250 39 2304 85C2401 168 2452 283 2452 417C2452 586 2371 689 2239 689C2111 689 2015 589 2015 455C2015 340 2090 256 2194 256C2228 256 2267 267 2285 282L2355 340C2347 172 2238 49 2057 5L2057 -3ZM2235 656C2280 656 2313 637 2335 597C2353 565 2365 516 2365 471C2365 379 2312 317 2235 317C2155 317 2101 388 2101 492C2101 593 2153 656 2235 656ZM2625 331C2646 512 2735 611 2915 665L2873 689C2777 657 2736 637 2685 593C2582 506 2526 384 2526 247C2526 82 2606 -20 2735 -20C2865 -20 2962 83 2962 219C2962 334 2893 409 2787 409C2710 409 2678 370 2625 331ZM2749 349C2825 349 2876 283 2876 184C2876 80 2825 13 2748 13C2663 13 2617 86 2617 220C2617 255 2621 274 2632 291C2654 325 2701 349 2749 349ZM3410 267L3279 213L3274 204L3310 153L3320 153L3426 241L3444 99L3454 95L3522 121L3522 131L3454 253L3592 233L3601 241L3601 303L3595 307L3456 283L3525 408L3522 423L3460 442L3451 438L3425 295L3330 393L3320 393L3276 341L3279 331ZM4115 722L4103 733C4058 711 4017 697 3943 691L3939 670L3987 670C4005 670 4021 667 4021 647C4021 641 4021 632 4019 622L3977 388C3957 272 3915 80 3889 2L3896 -9L3965 7C3973 64 3987 164 4027 236C4072 317 4175 414 4217 414C4228 414 4239 407 4239 393C4239 375 4234 342 4224 303L4173 107C4167 85 4160 55 4160 31C4160 6 4170 -9 4191 -9C4223 -9 4291 41 4350 85L4340 103L4314 86C4291 71 4265 56 4253 56C4246 56 4240 65 4240 76C4240 88 4243 101 4247 116L4311 372C4317 398 4322 423 4322 447C4322 464 4316 482 4290 482C4255 482 4178 437 4110 374C4077 343 4051 308 4023 273L4019 275ZM4706 111L4682 94C4629 56 4581 36 4545 36C4498 36 4469 73 4469 133C4469 158 4472 185 4477 214C4494 218 4603 248 4628 259C4713 296 4752 342 4752 404C4752 451 4718 482 4668 482C4600 496 4490 423 4453 349C4423 299 4393 180 4393 113C4393 35 4437 -11 4509 -11C4566 -11 4622 17 4714 92ZM4491 274C4508 343 4528 386 4557 412C4575 428 4606 440 4630 440C4659 440 4678 420 4678 388C4678 344 4643 297 4591 272C4563 258 4527 247 4482 237ZM4800 388L4807 368L4839 389C4876 412 4879 414 4886 414C4896 414 4904 404 4904 391C4904 384 4900 361 4896 347L4830 107C4822 76 4817 49 4817 30C4817 6 4828 -9 4847 -9C4873 -9 4909 12 5007 85L4997 103L4971 86C4942 67 4919 56 4910 56C4903 56 4897 66 4897 76C4897 86 4899 95 4904 116L4981 420C4985 437 4987 448 4987 456C4987 473 4978 482 4962 482C4940 482 4903 461 4828 408ZM4994 712C4965 712 4936 679 4936 645C4936 620 4951 604 4975 604C5006 604 5030 633 5030 671C5030 695 5015 712 4994 712ZM5318 482C5251 482 5098 419 5098 259C5098 182 5143 136 5220 136C5228 136 5239 136 5250 137L5209 99C5193 84 5182 66 5182 52C5182 42 5189 31 5203 19C5134 -4 5006 -48 5006 -159C5006 -230 5076 -276 5185 -276C5314 -276 5427 -204 5427 -121C5427 -85 5406 -49 5363 -14L5303 35C5269 62 5256 81 5256 100C5256 114 5271 128 5283 146C5381 170 5452 253 5452 342C5452 357 5449 376 5448 380C5465 378 5473 378 5482 378C5499 378 5509 379 5532 382L5541 427L5538 433C5510 426 5490 424 5436 424C5436 425 5412 482 5318 482ZM5219 1L5296 -58C5342 -94 5361 -121 5361 -154C5361 -206 5292 -248 5209 -248C5127 -248 5070 -206 5070 -145C5070 -43 5180 -11 5219 1ZM5293 448C5351 448 5380 412 5380 341C5380 238 5332 168 5262 168C5201 168 5169 209 5169 288C5169 383 5220 448 5293 448ZM5778 722L5766 733C5721 711 5680 697 5606 691L5602 670L5650 670C5668 670 5684 667 5684 647C5684 641 5684 632 5682 622L5640 388C5620 272 5578 80 5552 2L5559 -9L5628 7C5636 64 5650 164 5690 236C5735 317 5838 414 5880 414C5891 414 5902 407 5902 393C5902 375 5897 342 5887 303L5836 107C5830 85 5823 55 5823 31C5823 6 5833 -9 5854 -9C5886 -9 5954 41 6013 85L6003 103L5977 86C5954 71 5928 56 5916 56C5909 56 5903 65 5903 76C5903 88 5906 101 5910 116L5974 372C5980 398 5985 423 5985 447C5985 464 5979 482 5953 482C5918 482 5841 437 5773 374C5740 343 5714 308 5686 273L5682 275ZM6166 390L6110 107C6109 99 6097 61 6097 31C6097 6 6108 -9 6127 -9C6162 -9 6197 11 6275 74L6306 99L6296 117L6251 86C6222 66 6202 56 6191 56C6182 56 6177 64 6177 76C6177 102 6191 183 6220 328L6233 390L6340 390L6351 440C6313 436 6279 434 6241 434C6257 528 6268 577 6286 631L6275 646C6255 634 6228 622 6197 610L6172 440C6128 419 6102 408 6084 403L6082 390ZM6656 388L6663 368L6695 389C6732 412 6735 414 6742 414C6752 414 6760 404 6760 391C6760 384 6756 361 6752 347L6686 107C6678 76 6673 49 6673 30C6673 6 6684 -9 6703 -9C6729 -9 6765 12 6863 85L6853 103L6827 86C6798 67 6775 56 6766 56C6759 56 6753 66 6753 76C6753 86 6755 95 6760 116L6837 420C6841 437 6843 448 6843 456C6843 473 6834 482 6818 482C6796 482 6759 461 6684 408ZM6850 712C6821 712 6792 679 6792 645C6792 620 6807 604 6831 604C6862 604 6886 633 6886 671C6886 695 6871 712 6850 712ZM6923 388L6930 368L6962 389C6999 412 7002 414 7009 414C7020 414 7027 404 7027 389C7027 338 6986 145 6945 2L6952 -9C6977 -2 7000 4 7022 8C7041 134 7062 199 7108 268C7162 352 7237 414 7282 414C7293 414 7299 405 7299 390C7299 372 7296 351 7288 319L7236 107C7227 70 7223 47 7223 31C7223 6 7234 -9 7253 -9C7279 -9 7315 12 7413 85L7403 103L7377 86C7348 67 7326 56 7316 56C7309 56 7303 65 7303 76C7303 81 7304 92 7305 96L7371 372C7378 401 7382 429 7382 446C7382 469 7371 482 7351 482C7309 482 7240 444 7181 389C7143 354 7115 320 7063 247L7101 408C7105 426 7107 438 7107 449C7107 470 7099 482 7084 482C7063 482 7024 460 6951 408ZM8045 330L8068 330C8076 395 8083 432 8092 458C8068 473 8033 482 7996 482C7951 483 7878 463 7821 400C7767 352 7728 241 7728 136C7728 40 7770 -11 7850 -11C7904 -11 7952 9 8007 54L8057 95L8049 115L8034 105C7962 57 7924 40 7889 40C7833 40 7804 80 7804 159C7804 267 7839 371 7888 409C7909 425 7933 433 7964 433C8009 433 8045 414 8045 390ZM8839 103L8813 86C8784 67 8762 56 8752 56C8745 56 8739 65 8739 76C8739 86 8741 95 8746 116L8821 413C8825 430 8828 446 8828 454C8828 471 8818 482 8802 482C8773 482 8735 464 8674 421C8611 376 8576 341 8527 272L8557 409C8561 429 8564 444 8564 451C8564 470 8554 482 8538 482C8508 482 8462 460 8407 418C8363 384 8343 363 8278 275L8311 408C8315 424 8317 439 8317 451C8317 470 8308 482 8294 482C8273 482 8235 461 8161 408L8133 388L8140 368C8177 391 8212 414 8219 414C8230 414 8237 404 8237 389C8237 338 8196 145 8155 2L8158 -9L8226 6L8248 108C8272 219 8299 278 8354 338C8396 384 8441 414 8469 414C8476 414 8480 406 8480 393C8480 358 8458 244 8417 69L8401 2L8406 -9L8475 6L8496 113C8512 194 8546 269 8590 318C8645 379 8695 414 8727 414C8735 414 8740 405 8740 389C8740 365 8737 351 8715 264C8675 105 8659 84 8659 31C8659 6 8670 -9 8689 -9C8715 -9 8751 12 8849 85Z" stroke="rgb(0,0,0)" stroke-opacity="1" stroke-width="8" fill="rgb(0,0,0)" fill-opacity="1"></path></g></g><g><g transform="matrix(1,0,0,1,585.2337036132812,45.399444580078125)"><path transform="matrix(0.017,0,0,-0.017,0,0)" d="M51 726L32 700C87 636 187 526 187 266C187 -10 83 -131 32 -194L51 -215C104 -165 273 -23 273 265C273 542 108 675 51 726Z" stroke="rgb(0,0,0)" stroke-opacity="1" stroke-width="8" fill="rgb(0,0,0)" fill-opacity="1"></path></g></g><g><g transform="matrix(1,0,0,1,590.8858032226562,44.5299072265625)"><path transform="matrix(0.017,0,0,-0.017,0,0)" d="M749 219L749 277L249 277L249 219Z" stroke="rgb(0,0,0)" stroke-opacity="1" stroke-width="8" fill="rgb(0,0,0)" fill-opacity="1"></path></g></g><g><g transform="matrix(1,0,0,1,607.8287963867188,45.399444580078125)"><path transform="matrix(0.017,0,0,-0.017,0,0)" d="M146 266C146 526 243 632 301 700L282 726C225 675 60 542 60 266C60 159 85 58 133 -32C168 -99 200 -138 282 -215L301 -194C255 -137 146 -15 146 266Z" stroke="rgb(0,0,0)" stroke-opacity="1" stroke-width="8" fill="rgb(0,0,0)" fill-opacity="1"></path></g></g><g><g transform="matrix(1,0,0,1,613.4810180664062,44.5299072265625)"><path transform="matrix(0.017,0,0,-0.017,0,0)" d="M529 181L529 106C529 46 518 32 469 30L407 27L407 -3C540 0 540 0 564 0C588 0 588 0 721 -3L721 27L673 30C624 33 613 46 613 106L613 181C672 181 693 180 721 177L721 248L613 245L614 697L534 667L251 204L251 181ZM529 245L314 245L529 597ZM872 111C842 111 815 83 815 53C815 23 842 -5 871 -5C903 -5 931 22 931 53C931 83 903 111 872 111ZM1128 331C1149 512 1238 611 1418 665L1376 689C1280 657 1239 637 1188 593C1085 506 1029 384 1029 247C1029 82 1109 -20 1238 -20C1368 -20 1465 83 1465 219C1465 334 1396 409 1290 409C1213 409 1181 370 1128 331ZM1252 349C1328 349 1379 283 1379 184C1379 80 1328 13 1251 13C1166 13 1120 86 1120 220C1120 255 1124 274 1135 291C1157 325 1204 349 1252 349ZM1905 603L1543 -1L1653 -1L1993 659L1993 689L1540 689L1540 477L1570 477L1577 533C1585 595 1592 603 1638 603ZM2454 253C2454 366 2373 446 2259 446C2211 446 2175 443 2122 396L2122 605L2427 604L2427 689L2070 690L2070 322L2090 316C2137 363 2164 377 2213 377C2309 377 2369 309 2369 201C2369 90 2305 25 2196 25C2142 25 2092 43 2078 69L2032 151L2008 137C2031 80 2043 48 2057 4C2085 -11 2125 -20 2168 -20C2296 -20 2454 89 2454 253ZM2625 331C2646 512 2735 611 2915 665L2873 689C2777 657 2736 637 2685 593C2582 506 2526 384 2526 247C2526 82 2606 -20 2735 -20C2865 -20 2962 83 2962 219C2962 334 2893 409 2787 409C2710 409 2678 370 2625 331ZM2749 349C2825 349 2876 283 2876 184C2876 80 2825 13 2748 13C2663 13 2617 86 2617 220C2617 255 2621 274 2632 291C2654 325 2701 349 2749 349ZM3410 267L3279 213L3274 204L3310 153L3320 153L3426 241L3444 99L3454 95L3522 121L3522 131L3454 253L3592 233L3601 241L3601 303L3595 307L3456 283L3525 408L3522 423L3460 442L3451 438L3425 295L3330 393L3320 393L3276 341L3279 331ZM4150 204L4121 77C4117 60 4115 42 4115 26C4115 4 4124 -9 4139 -9C4162 -9 4203 17 4285 85L4278 106C4254 86 4225 59 4203 59C4194 59 4188 68 4188 82C4188 87 4188 90 4189 93L4281 472L4271 481L4238 463C4197 478 4180 482 4153 482C4125 482 4105 477 4078 464C4016 433 3983 403 3958 354C3914 265 3883 145 3883 67C3883 23 3898 -11 3917 -11C3954 -11 4034 41 4150 204ZM4198 414C4176 305 4157 253 4123 201C4066 117 4005 59 3973 59C3961 59 3955 72 3955 99C3955 163 3983 280 4018 360C4042 415 4065 433 4113 433C4136 433 4154 429 4198 414ZM4597 482C4530 482 4377 419 4377 259C4377 182 4422 136 4499 136C4507 136 4518 136 4529 137L4488 99C4472 84 4461 66 4461 52C4461 42 4468 31 4482 19C4413 -4 4285 -48 4285 -159C4285 -230 4355 -276 4464 -276C4593 -276 4706 -204 4706 -121C4706 -85 4685 -49 4642 -14L4582 35C4548 62 4535 81 4535 100C4535 114 4550 128 4562 146C4660 170 4731 253 4731 342C4731 357 4728 376 4727 380C4744 378 4752 378 4761 378C4778 378 4788 379 4811 382L4820 427L4817 433C4789 426 4769 424 4715 424C4715 425 4691 482 4597 482ZM4498 1L4575 -58C4621 -94 4640 -121 4640 -154C4640 -206 4571 -248 4488 -248C4406 -248 4349 -206 4349 -145C4349 -43 4459 -11 4498 1ZM4572 448C4630 448 4659 412 4659 341C4659 238 4611 168 4541 168C4480 168 4448 209 4448 288C4448 383 4499 448 4572 448ZM5149 111L5125 94C5072 56 5024 36 4988 36C4941 36 4912 73 4912 133C4912 158 4915 185 4920 214C4937 218 5046 248 5071 259C5156 296 5195 342 5195 404C5195 451 5161 482 5111 482C5043 496 4933 423 4896 349C4866 299 4836 180 4836 113C4836 35 4880 -11 4952 -11C5009 -11 5065 17 5157 92ZM4934 274C4951 343 4971 386 5000 412C5018 428 5049 440 5073 440C5102 440 5121 420 5121 388C5121 344 5086 297 5034 272C5006 258 4970 247 4925 237ZM5492 388L5499 368L5531 389C5568 412 5571 414 5578 414C5588 414 5596 404 5596 391C5596 384 5592 361 5588 347L5522 107C5514 76 5509 49 5509 30C5509 6 5520 -9 5539 -9C5565 -9 5601 12 5699 85L5689 103L5663 86C5634 67 5611 56 5602 56C5595 56 5589 66 5589 76C5589 86 5591 95 5596 116L5673 420C5677 437 5679 448 5679 456C5679 473 5670 482 5654 482C5632 482 5595 461 5520 408ZM5686 712C5657 712 5628 679 5628 645C5628 620 5643 604 5667 604C5698 604 5722 633 5722 671C5722 695 5707 712 5686 712ZM5759 388L5766 368L5798 389C5835 412 5838 414 5845 414C5856 414 5863 404 5863 389C5863 338 5822 145 5781 2L5788 -9C5813 -2 5836 4 5858 8C5877 134 5898 199 5944 268C5998 352 6073 414 6118 414C6129 414 6135 405 6135 390C6135 372 6132 351 6124 319L6072 107C6063 70 6059 47 6059 31C6059 6 6070 -9 6089 -9C6115 -9 6151 12 6249 85L6239 103L6213 86C6184 67 6162 56 6152 56C6145 56 6139 65 6139 76C6139 81 6140 92 6141 96L6207 372C6214 401 6218 429 6218 446C6218 469 6207 482 6187 482C6145 482 6076 444 6017 389C5979 354 5951 320 5899 247L5937 408C5941 426 5943 438 5943 449C5943 470 5935 482 5920 482C5899 482 5860 460 5787 408ZM6532 -180C6531 -187 6531 -193 6531 -198C6531 -241 6568 -276 6613 -276C6719 -276 6829 -152 6888 33L7029 473L7018 482C6989 471 6966 465 6944 463L6909 331C6897 284 6862 211 6829 162C6794 111 6745 67 6723 67C6711 67 6702 90 6703 115L6719 322C6721 353 6723 391 6723 419C6723 464 6716 482 6699 482C6686 482 6672 475 6624 442L6542 386L6553 368L6603 398C6608 401 6619 410 6628 410C6642 410 6650 391 6650 358C6650 357 6650 351 6649 343L6632 100L6631 60C6631 18 6649 -11 6674 -11C6711 -11 6795 74 6870 187L6821 16C6770 -161 6720 -234 6650 -234C6615 -234 6588 -207 6588 -172C6588 -167 6589 -159 6590 -150L6580 -146ZM7366 111L7342 94C7289 56 7241 36 7205 36C7158 36 7129 73 7129 133C7129 158 7132 185 7137 214C7154 218 7263 248 7288 259C7373 296 7412 342 7412 404C7412 451 7378 482 7328 482C7260 496 7150 423 7113 349C7083 299 7053 180 7053 113C7053 35 7097 -11 7169 -11C7226 -11 7282 17 7374 92ZM7151 274C7168 343 7188 386 7217 412C7235 428 7266 440 7290 440C7319 440 7338 420 7338 388C7338 344 7303 297 7251 272C7223 258 7187 247 7142 237ZM7697 204L7668 77C7664 60 7662 42 7662 26C7662 4 7671 -9 7686 -9C7709 -9 7750 17 7832 85L7825 106C7801 86 7772 59 7750 59C7741 59 7735 68 7735 82C7735 87 7735 90 7736 93L7828 472L7818 481L7785 463C7744 478 7727 482 7700 482C7672 482 7652 477 7625 464C7563 433 7530 403 7505 354C7461 265 7430 145 7430 67C7430 23 7445 -11 7464 -11C7501 -11 7581 41 7697 204ZM7745 414C7723 305 7704 253 7670 201C7613 117 7552 59 7520 59C7508 59 7502 72 7502 99C7502 163 7530 280 7565 360C7589 415 7612 433 7660 433C7683 433 7701 429 7745 414ZM8237 365C8240 403 8245 435 8253 476C8242 481 8238 482 8233 482C8202 482 8171 458 8135 407C8096 351 8057 291 8041 256L8073 408C8077 425 8079 438 8079 450C8079 470 8071 482 8056 482C8035 482 7997 461 7923 408L7895 388L7902 368L7934 389C7962 407 7973 412 7982 412C7992 412 7999 403 7999 390C7999 332 7956 126 7916 -2L7926 -9C7941 -4 7957 -1 7980 4L7993 6L8019 126C8037 209 8060 262 8104 319C8138 363 8165 384 8187 384C8202 384 8212 379 8223 365ZM8288 148C8283 97 8277 62 8266 16C8304 -2 8338 -11 8373 -11C8422 -11 8468 7 8519 47C8570 87 8591 124 8591 174C8591 228 8559 257 8485 271L8442 279C8382 290 8363 307 8363 348C8363 401 8408 442 8465 442C8506 442 8544 424 8560 397L8560 342L8583 342C8587 377 8591 404 8602 455C8563 474 8535 482 8502 482C8450 482 8389 452 8341 404C8315 377 8304 352 8304 316C8304 260 8335 228 8401 215L8464 203C8508 195 8524 177 8524 138C8524 73 8478 29 8407 29C8372 29 8341 40 8313 64L8313 148Z" stroke="rgb(0,0,0)" stroke-opacity="1" stroke-width="8" fill="rgb(0,0,0)" fill-opacity="1"></path></g></g><g><g transform="matrix(1,0,0,1,764.6087036132812,45.399444580078125)"><path transform="matrix(0.017,0,0,-0.017,0,0)" d="M51 726L32 700C87 636 187 526 187 266C187 -10 83 -131 32 -194L51 -215C104 -165 273 -23 273 265C273 542 108 675 51 726Z" stroke="rgb(0,0,0)" stroke-opacity="1" stroke-width="8" fill="rgb(0,0,0)" fill-opacity="1"></path></g></g></g></g></svg>