<svg xmlns="http://www.w3.org/2000/svg" xmlns:xlink="http://www.w3.org/1999/xlink" width="539.502685546875" height="78.85054779052734" style="width:539.502685546875px;height:78.85054779052734px;font-family:Asana-Math, Asana;background:#FFF;"><g><g><g><g transform="matrix(1,0,0,1,6.0625,19.86956787109375)"><path transform="matrix(0.017,0,0,-0.017,0,0)" d="M937 664L950 695C922 699 775 701 773 692L688 536L442 114L292 692C269 686 146 690 125 692L122 664L148 662C200 658 218 648 218 622C218 616 72 100 70 93C54 41 39 28 -16 23L-19 -3L20 -2C54 -1 79 0 93 0C107 0 133 -1 168 -2L203 -3L206 25L168 28C136 30 119 40 119 55C119 65 121 78 126 96L250 560L399 -18L422 -18L479 86L718 500L770 587L733 67C729 39 717 32 666 28L635 25L632 -3L679 -2C721 -1 751 0 766 0C782 0 812 -1 853 -2L899 -3L902 25L865 28C829 31 811 42 811 63L812 100L853 631C855 650 870 660 899 662ZM1281 111L1257 94C1204 56 1156 36 1120 36C1073 36 1044 73 1044 133C1044 158 1047 185 1052 214C1069 218 1178 248 1203 259C1288 296 1327 342 1327 404C1327 451 1293 482 1243 482C1175 496 1065 423 1028 349C998 299 968 180 968 113C968 35 1012 -11 1084 -11C1141 -11 1197 17 1289 92ZM1066 274C1083 343 1103 386 1132 412C1150 428 1181 440 1205 440C1234 440 1253 420 1253 388C1253 344 1218 297 1166 272C1138 258 1102 247 1057 237ZM1365 388L1372 368L1404 389C1441 412 1444 414 1451 414C1462 414 1469 404 1469 389C1469 338 1428 145 1387 2L1394 -9C1419 -2 1442 4 1464 8C1483 134 1504 199 1550 268C1604 352 1679 414 1724 414C1735 414 1741 405 1741 390C1741 372 1738 351 1730 319L1678 107C1669 70 1665 47 1665 31C1665 6 1676 -9 1695 -9C1721 -9 1757 12 1855 85L1845 103L1819 86C1790 67 1768 56 1758 56C1751 56 1745 65 1745 76C1745 81 1746 92 1747 96L1813 372C1820 401 1824 429 1824 446C1824 469 1813 482 1793 482C1751 482 1682 444 1623 389C1585 354 1557 320 1505 247L1543 408C1547 426 1549 438 1549 449C1549 470 1541 482 1526 482C1505 482 1466 460 1393 408Z" stroke="rgb(0,0,0)" stroke-opacity="1" stroke-width="8" fill="rgb(0,0,0)" fill-opacity="1"></path></g></g></g></g><g><g><g><g transform="matrix(1,0,0,1,73.00543212890625,19.86956787109375)"><path transform="matrix(0.017,0,0,-0.017,0,0)" d="M349 664L352 692L238 689C222 689 204 689 161 690L97 692L94 664L141 662C165 661 176 653 176 635L81 55C77 37 65 30 21 23L16 -3L57 -2C88 -1 150 0 170 0C170 0 467 -1 467 -1C467 -1 500 0 500 0C499 25 510 103 523 165L492 165L475 103C466 71 457 54 448 49C435 44 371 39 304 39C255 39 228 40 162 46C165 64 256 605 256 613C263 651 270 658 307 661ZM1098 227C1098 337 1014 353 932 365C989 385 1014 397 1045 425C1091 464 1114 511 1114 562C1114 644 1056 692 956 692C954 692 944 692 929 691L866 690C854 689 818 689 806 689C787 689 756 690 707 691L655 692L652 664L705 662C729 661 740 653 740 635C740 621 736 589 731 559L644 55C640 37 628 30 586 23L581 -3L618 -2C645 0 660 0 672 0C683 0 709 -1 735 -2L772 -3L792 -4C811 -5 824 -6 832 -6C947 -6 1098 87 1098 227ZM721 41L772 340L857 340C960 340 1010 298 1010 211C1010 108 937 34 837 34C783 34 762 38 721 41ZM907 655C988 655 1028 619 1028 544C1028 439 954 376 830 376L778 376L827 650C843 650 884 655 907 655ZM2102 664L2115 695C2087 699 1940 701 1938 692L1853 536L1607 114L1457 692C1434 686 1311 690 1290 692L1287 664L1313 662C1365 658 1383 648 1383 622C1383 616 1237 100 1235 93C1219 41 1204 28 1149 23L1146 -3L1185 -2C1219 -1 1244 0 1258 0C1272 0 1298 -1 1333 -2L1368 -3L1371 25L1333 28C1301 30 1284 40 1284 55C1284 65 1286 78 1291 96L1415 560L1564 -18L1587 -18L1644 86L1883 500L1935 587L1898 67C1894 39 1882 32 1831 28L1800 25L1797 -3L1844 -2C1886 -1 1916 0 1931 0C1947 0 1977 -1 2018 -2L2064 -3L2067 25L2030 28C1994 31 1976 42 1976 63L1977 100L2018 631C2020 650 2035 660 2064 662Z" stroke="rgb(0,0,0)" stroke-opacity="1" stroke-width="8" fill="rgb(0,0,0)" fill-opacity="1"></path></g></g><g><g transform="matrix(1,0,0,1,118.33154296875,19.86956787109375)"><path transform="matrix(0.017,0,0,-0.017,0,0)" d="M604 347L604 406L65 406L65 347ZM604 134L604 193L65 193L65 134Z" stroke="rgb(0,0,0)" stroke-opacity="1" stroke-width="8" fill="rgb(0,0,0)" fill-opacity="1"></path></g></g><g><g transform="matrix(1,0,0,1,134.78533935546875,19.86956787109375)"><path transform="matrix(0.017,0,0,-0.017,0,0)" d="" stroke="rgb(0,0,0)" stroke-opacity="1" stroke-width="8" fill="rgb(0,0,0)" fill-opacity="1"></path></g></g><g><g transform="matrix(1,0,0,1,139.02447509765625,20.7391357421875)"><path transform="matrix(0.017,0,0,-0.017,0,0)" d="M146 266C146 526 243 632 301 700L282 726C225 675 60 542 60 266C60 159 85 58 133 -32C168 -99 200 -138 282 -215L301 -194C255 -137 146 -15 146 266Z" stroke="rgb(0,0,0)" stroke-opacity="1" stroke-width="8" fill="rgb(0,0,0)" fill-opacity="1"></path></g></g><g><g transform="matrix(1,0,0,1,144.6766357421875,19.86956787109375)"><path transform="matrix(0.017,0,0,-0.017,0,0)" d="M512 689C357 689 278 566 278 324C278 207 299 106 334 57C369 8 425 -20 487 -20C638 -20 714 110 714 366C714 585 649 689 512 689ZM494 654C591 654 630 556 630 316C630 103 592 15 500 15C403 15 362 116 362 360C362 571 399 654 494 654ZM872 111C842 111 815 83 815 53C815 23 842 -5 871 -5C903 -5 931 22 931 53C931 83 903 111 872 111ZM1277 181L1277 106C1277 46 1266 32 1217 30L1155 27L1155 -3C1288 0 1288 0 1312 0C1336 0 1336 0 1469 -3L1469 27L1421 30C1372 33 1361 46 1361 106L1361 181C1420 181 1441 180 1469 177L1469 248L1361 245L1362 697L1282 667L999 204L999 181ZM1277 245L1062 245L1277 597ZM1759 689C1604 689 1525 566 1525 324C1525 207 1546 106 1581 57C1616 8 1672 -20 1734 -20C1885 -20 1961 110 1961 366C1961 585 1896 689 1759 689ZM1741 654C1838 654 1877 556 1877 316C1877 103 1839 15 1747 15C1650 15 1609 116 1609 360C1609 571 1646 654 1741 654ZM2404 603L2042 -1L2152 -1L2492 659L2492 689L2039 689L2039 477L2069 477L2076 533C2084 595 2091 603 2137 603ZM2911 267L2780 213L2775 204L2811 153L2821 153L2927 241L2945 99L2955 95L3023 121L3023 131L2955 253L3093 233L3102 241L3102 303L3096 307L2957 283L3026 408L3023 423L2961 442L2952 438L2926 295L2831 393L2821 393L2777 341L2780 331ZM3547 420C3568 420 3581 421 3606 424C3551 350 3452 266 3452 126C3452 44 3487 -11 3540 -11C3604 -11 3656 44 3730 187C3721 143 3718 118 3718 95C3718 32 3747 -11 3792 -11C3926 -11 4079 238 4079 384C4079 441 4053 482 4017 482C4004 482 3992 478 3984 470L3934 423L3945 404C3954 410 3963 413 3972 413C3999 413 4015 390 4015 350C4015 205 3918 39 3833 39C3804 39 3783 79 3783 134C3783 181 3792 247 3804 290L3856 474L3849 482L3775 460L3746 311C3734 249 3720 209 3691 155C3651 80 3613 39 3583 39C3548 39 3525 78 3525 136C3525 255 3566 352 3665 464L3655 482C3635 473 3622 470 3594 470C3566 470 3524 472 3495 475L3483 476C3477 477 3472 477 3471 477C3459 477 3450 475 3439 470C3425 443 3414 407 3401 352L3423 352L3440 394C3447 411 3467 422 3491 422C3525 422 3508 420 3547 420ZM4429 111L4405 94C4352 56 4304 36 4268 36C4221 36 4192 73 4192 133C4192 158 4195 185 4200 214C4217 218 4326 248 4351 259C4436 296 4475 342 4475 404C4475 451 4441 482 4391 482C4323 496 4213 423 4176 349C4146 299 4116 180 4116 113C4116 35 4160 -11 4232 -11C4289 -11 4345 17 4437 92ZM4214 274C4231 343 4251 386 4280 412C4298 428 4329 440 4353 440C4382 440 4401 420 4401 388C4401 344 4366 297 4314 272C4286 258 4250 247 4205 237ZM4523 388L4530 368L4562 389C4599 412 4602 414 4609 414C4619 414 4627 404 4627 391C4627 384 4623 361 4619 347L4553 107C4545 76 4540 49 4540 30C4540 6 4551 -9 4570 -9C4596 -9 4632 12 4730 85L4720 103L4694 86C4665 67 4642 56 4633 56C4626 56 4620 66 4620 76C4620 86 4622 95 4627 116L4704 420C4708 437 4710 448 4710 456C4710 473 4701 482 4685 482C4663 482 4626 461 4551 408ZM4717 712C4688 712 4659 679 4659 645C4659 620 4674 604 4698 604C4729 604 4753 633 4753 671C4753 695 4738 712 4717 712ZM5041 482C4974 482 4821 419 4821 259C4821 182 4866 136 4943 136C4951 136 4962 136 4973 137L4932 99C4916 84 4905 66 4905 52C4905 42 4912 31 4926 19C4857 -4 4729 -48 4729 -159C4729 -230 4799 -276 4908 -276C5037 -276 5150 -204 5150 -121C5150 -85 5129 -49 5086 -14L5026 35C4992 62 4979 81 4979 100C4979 114 4994 128 5006 146C5104 170 5175 253 5175 342C5175 357 5172 376 5171 380C5188 378 5196 378 5205 378C5222 378 5232 379 5255 382L5264 427L5261 433C5233 426 5213 424 5159 424C5159 425 5135 482 5041 482ZM4942 1L5019 -58C5065 -94 5084 -121 5084 -154C5084 -206 5015 -248 4932 -248C4850 -248 4793 -206 4793 -145C4793 -43 4903 -11 4942 1ZM5016 448C5074 448 5103 412 5103 341C5103 238 5055 168 4985 168C4924 168 4892 209 4892 288C4892 383 4943 448 5016 448ZM5501 722L5489 733C5444 711 5403 697 5329 691L5325 670L5373 670C5391 670 5407 667 5407 647C5407 641 5407 632 5405 622L5363 388C5343 272 5301 80 5275 2L5282 -9L5351 7C5359 64 5373 164 5413 236C5458 317 5561 414 5603 414C5614 414 5625 407 5625 393C5625 375 5620 342 5610 303L5559 107C5553 85 5546 55 5546 31C5546 6 5556 -9 5577 -9C5609 -9 5677 41 5736 85L5726 103L5700 86C5677 71 5651 56 5639 56C5632 56 5626 65 5626 76C5626 88 5629 101 5633 116L5697 372C5703 398 5708 423 5708 447C5708 464 5702 482 5676 482C5641 482 5564 437 5496 374C5463 343 5437 308 5409 273L5405 275ZM5889 390L5833 107C5832 99 5820 61 5820 31C5820 6 5831 -9 5850 -9C5885 -9 5920 11 5998 74L6029 99L6019 117L5974 86C5945 66 5925 56 5914 56C5905 56 5900 64 5900 76C5900 102 5914 183 5943 328L5956 390L6063 390L6074 440C6036 436 6002 434 5964 434C5980 528 5991 577 6009 631L5998 646C5978 634 5951 622 5920 610L5895 440C5851 419 5825 408 5807 403L5805 390ZM6379 388L6386 368L6418 389C6455 412 6458 414 6465 414C6475 414 6483 404 6483 391C6483 384 6479 361 6475 347L6409 107C6401 76 6396 49 6396 30C6396 6 6407 -9 6426 -9C6452 -9 6488 12 6586 85L6576 103L6550 86C6521 67 6498 56 6489 56C6482 56 6476 66 6476 76C6476 86 6478 95 6483 116L6560 420C6564 437 6566 448 6566 456C6566 473 6557 482 6541 482C6519 482 6482 461 6407 408ZM6573 712C6544 712 6515 679 6515 645C6515 620 6530 604 6554 604C6585 604 6609 633 6609 671C6609 695 6594 712 6573 712ZM6646 388L6653 368L6685 389C6722 412 6725 414 6732 414C6743 414 6750 404 6750 389C6750 338 6709 145 6668 2L6675 -9C6700 -2 6723 4 6745 8C6764 134 6785 199 6831 268C6885 352 6960 414 7005 414C7016 414 7022 405 7022 390C7022 372 7019 351 7011 319L6959 107C6950 70 6946 47 6946 31C6946 6 6957 -9 6976 -9C7002 -9 7038 12 7136 85L7126 103L7100 86C7071 67 7049 56 7039 56C7032 56 7026 65 7026 76C7026 81 7027 92 7028 96L7094 372C7101 401 7105 429 7105 446C7105 469 7094 482 7074 482C7032 482 6963 444 6904 389C6866 354 6838 320 6786 247L6824 408C6828 426 6830 438 6830 449C6830 470 6822 482 6807 482C6786 482 6747 460 6674 408ZM7666 722L7654 733C7602 707 7566 698 7494 691L7490 670L7538 670C7562 670 7572 663 7572 646C7572 638 7571 629 7570 622L7522 354C7508 279 7492 210 7440 1L7449 -9L7516 8L7539 132C7548 180 7572 225 7606 259C7675 59 7707 -9 7732 -9C7745 -9 7769 4 7813 35L7859 67L7851 86L7808 62C7794 54 7787 52 7779 52C7769 52 7762 58 7753 75C7718 139 7696 193 7657 316L7671 330C7732 391 7778 416 7828 416C7836 416 7847 414 7864 410L7881 473C7863 479 7845 482 7833 482C7767 482 7684 405 7559 230ZM8169 482C8102 482 7949 419 7949 259C7949 182 7994 136 8071 136C8079 136 8090 136 8101 137L8060 99C8044 84 8033 66 8033 52C8033 42 8040 31 8054 19C7985 -4 7857 -48 7857 -159C7857 -230 7927 -276 8036 -276C8165 -276 8278 -204 8278 -121C8278 -85 8257 -49 8214 -14L8154 35C8120 62 8107 81 8107 100C8107 114 8122 128 8134 146C8232 170 8303 253 8303 342C8303 357 8300 376 8299 380C8316 378 8324 378 8333 378C8350 378 8360 379 8383 382L8392 427L8389 433C8361 426 8341 424 8287 424C8287 425 8263 482 8169 482ZM8070 1L8147 -58C8193 -94 8212 -121 8212 -154C8212 -206 8143 -248 8060 -248C7978 -248 7921 -206 7921 -145C7921 -43 8031 -11 8070 1ZM8144 448C8202 448 8231 412 8231 341C8231 238 8183 168 8113 168C8052 168 8020 209 8020 288C8020 383 8071 448 8144 448Z" stroke="rgb(0,0,0)" stroke-opacity="1" stroke-width="8" fill="rgb(0,0,0)" fill-opacity="1"></path></g></g><g><g transform="matrix(1,0,0,1,291.52447509765625,20.7391357421875)"><path transform="matrix(0.017,0,0,-0.017,0,0)" d="M51 726L32 700C87 636 187 526 187 266C187 -10 83 -131 32 -194L51 -215C104 -165 273 -23 273 265C273 542 108 675 51 726Z" stroke="rgb(0,0,0)" stroke-opacity="1" stroke-width="8" fill="rgb(0,0,0)" fill-opacity="1"></path></g></g><g><g transform="matrix(1,0,0,1,297.1766357421875,19.86956787109375)"><path transform="matrix(0.017,0,0,-0.017,0,0)" d="" stroke="rgb(0,0,0)" stroke-opacity="1" stroke-width="8" fill="rgb(0,0,0)" fill-opacity="1"></path></g></g><g><g transform="matrix(1,0,0,1,304.8125,19.86956787109375)"><path transform="matrix(0.017,0,0,-0.017,0,0)" d="M604 241L604 300L364 300L364 538L305 538L305 300L65 300L65 241L305 241L305 0L364 0L364 241Z" stroke="rgb(0,0,0)" stroke-opacity="1" stroke-width="8" fill="rgb(0,0,0)" fill-opacity="1"></path></g></g><g><g transform="matrix(1,0,0,1,319.56793212890625,19.86956787109375)"><path transform="matrix(0.017,0,0,-0.017,0,0)" d="" stroke="rgb(0,0,0)" stroke-opacity="1" stroke-width="8" fill="rgb(0,0,0)" fill-opacity="1"></path></g></g><g><g transform="matrix(1,0,0,1,323.80706787109375,20.7391357421875)"><path transform="matrix(0.017,0,0,-0.017,0,0)" d="M146 266C146 526 243 632 301 700L282 726C225 675 60 542 60 266C60 159 85 58 133 -32C168 -99 200 -138 282 -215L301 -194C255 -137 146 -15 146 266Z" stroke="rgb(0,0,0)" stroke-opacity="1" stroke-width="8" fill="rgb(0,0,0)" fill-opacity="1"></path></g></g><g><g transform="matrix(1,0,0,1,329.459228515625,19.86956787109375)"><path transform="matrix(0.017,0,0,-0.017,0,0)" d="M512 689C357 689 278 566 278 324C278 207 299 106 334 57C369 8 425 -20 487 -20C638 -20 714 110 714 366C714 585 649 689 512 689ZM494 654C591 654 630 556 630 316C630 103 592 15 500 15C403 15 362 116 362 360C362 571 399 654 494 654ZM872 111C842 111 815 83 815 53C815 23 842 -5 871 -5C903 -5 931 22 931 53C931 83 903 111 872 111ZM1013 23L1013 -3C1200 -3 1200 0 1236 0C1272 0 1272 -3 1465 -3L1465 82C1350 77 1304 81 1119 77L1301 270C1398 373 1428 428 1428 503C1428 618 1350 689 1223 689C1151 689 1102 669 1053 619L1036 483L1065 483L1078 529C1094 587 1130 612 1197 612C1283 612 1338 558 1338 473C1338 398 1296 324 1183 204ZM1627 331C1648 512 1737 611 1917 665L1875 689C1779 657 1738 637 1687 593C1584 506 1528 384 1528 247C1528 82 1608 -20 1737 -20C1867 -20 1964 83 1964 219C1964 334 1895 409 1789 409C1712 409 1680 370 1627 331ZM1751 349C1827 349 1878 283 1878 184C1878 80 1827 13 1750 13C1665 13 1619 86 1619 220C1619 255 1623 274 1634 291C1656 325 1703 349 1751 349ZM2404 603L2042 -1L2152 -1L2492 659L2492 689L2039 689L2039 477L2069 477L2076 533C2084 595 2091 603 2137 603ZM2911 267L2780 213L2775 204L2811 153L2821 153L2927 241L2945 99L2955 95L3023 121L3023 131L2955 253L3093 233L3102 241L3102 303L3096 307L2957 283L3026 408L3023 423L2961 442L2952 438L2926 295L2831 393L2821 393L2777 341L2780 331ZM3616 722L3604 733C3559 711 3518 697 3444 691L3440 670L3488 670C3506 670 3522 667 3522 647C3522 641 3522 632 3520 622L3478 388C3458 272 3416 80 3390 2L3397 -9L3466 7C3474 64 3488 164 3528 236C3573 317 3676 414 3718 414C3729 414 3740 407 3740 393C3740 375 3735 342 3725 303L3674 107C3668 85 3661 55 3661 31C3661 6 3671 -9 3692 -9C3724 -9 3792 41 3851 85L3841 103L3815 86C3792 71 3766 56 3754 56C3747 56 3741 65 3741 76C3741 88 3744 101 3748 116L3812 372C3818 398 3823 423 3823 447C3823 464 3817 482 3791 482C3756 482 3679 437 3611 374C3578 343 3552 308 3524 273L3520 275ZM4207 111L4183 94C4130 56 4082 36 4046 36C3999 36 3970 73 3970 133C3970 158 3973 185 3978 214C3995 218 4104 248 4129 259C4214 296 4253 342 4253 404C4253 451 4219 482 4169 482C4101 496 3991 423 3954 349C3924 299 3894 180 3894 113C3894 35 3938 -11 4010 -11C4067 -11 4123 17 4215 92ZM3992 274C4009 343 4029 386 4058 412C4076 428 4107 440 4131 440C4160 440 4179 420 4179 388C4179 344 4144 297 4092 272C4064 258 4028 247 3983 237ZM4301 388L4308 368L4340 389C4377 412 4380 414 4387 414C4397 414 4405 404 4405 391C4405 384 4401 361 4397 347L4331 107C4323 76 4318 49 4318 30C4318 6 4329 -9 4348 -9C4374 -9 4410 12 4508 85L4498 103L4472 86C4443 67 4420 56 4411 56C4404 56 4398 66 4398 76C4398 86 4400 95 4405 116L4482 420C4486 437 4488 448 4488 456C4488 473 4479 482 4463 482C4441 482 4404 461 4329 408ZM4495 712C4466 712 4437 679 4437 645C4437 620 4452 604 4476 604C4507 604 4531 633 4531 671C4531 695 4516 712 4495 712ZM4819 482C4752 482 4599 419 4599 259C4599 182 4644 136 4721 136C4729 136 4740 136 4751 137L4710 99C4694 84 4683 66 4683 52C4683 42 4690 31 4704 19C4635 -4 4507 -48 4507 -159C4507 -230 4577 -276 4686 -276C4815 -276 4928 -204 4928 -121C4928 -85 4907 -49 4864 -14L4804 35C4770 62 4757 81 4757 100C4757 114 4772 128 4784 146C4882 170 4953 253 4953 342C4953 357 4950 376 4949 380C4966 378 4974 378 4983 378C5000 378 5010 379 5033 382L5042 427L5039 433C5011 426 4991 424 4937 424C4937 425 4913 482 4819 482ZM4720 1L4797 -58C4843 -94 4862 -121 4862 -154C4862 -206 4793 -248 4710 -248C4628 -248 4571 -206 4571 -145C4571 -43 4681 -11 4720 1ZM4794 448C4852 448 4881 412 4881 341C4881 238 4833 168 4763 168C4702 168 4670 209 4670 288C4670 383 4721 448 4794 448ZM5279 722L5267 733C5222 711 5181 697 5107 691L5103 670L5151 670C5169 670 5185 667 5185 647C5185 641 5185 632 5183 622L5141 388C5121 272 5079 80 5053 2L5060 -9L5129 7C5137 64 5151 164 5191 236C5236 317 5339 414 5381 414C5392 414 5403 407 5403 393C5403 375 5398 342 5388 303L5337 107C5331 85 5324 55 5324 31C5324 6 5334 -9 5355 -9C5387 -9 5455 41 5514 85L5504 103L5478 86C5455 71 5429 56 5417 56C5410 56 5404 65 5404 76C5404 88 5407 101 5411 116L5475 372C5481 398 5486 423 5486 447C5486 464 5480 482 5454 482C5419 482 5342 437 5274 374C5241 343 5215 308 5187 273L5183 275ZM5667 390L5611 107C5610 99 5598 61 5598 31C5598 6 5609 -9 5628 -9C5663 -9 5698 11 5776 74L5807 99L5797 117L5752 86C5723 66 5703 56 5692 56C5683 56 5678 64 5678 76C5678 102 5692 183 5721 328L5734 390L5841 390L5852 440C5814 436 5780 434 5742 434C5758 528 5769 577 5787 631L5776 646C5756 634 5729 622 5698 610L5673 440C5629 419 5603 408 5585 403L5583 390ZM6157 388L6164 368L6196 389C6233 412 6236 414 6243 414C6253 414 6261 404 6261 391C6261 384 6257 361 6253 347L6187 107C6179 76 6174 49 6174 30C6174 6 6185 -9 6204 -9C6230 -9 6266 12 6364 85L6354 103L6328 86C6299 67 6276 56 6267 56C6260 56 6254 66 6254 76C6254 86 6256 95 6261 116L6338 420C6342 437 6344 448 6344 456C6344 473 6335 482 6319 482C6297 482 6260 461 6185 408ZM6351 712C6322 712 6293 679 6293 645C6293 620 6308 604 6332 604C6363 604 6387 633 6387 671C6387 695 6372 712 6351 712ZM6424 388L6431 368L6463 389C6500 412 6503 414 6510 414C6521 414 6528 404 6528 389C6528 338 6487 145 6446 2L6453 -9C6478 -2 6501 4 6523 8C6542 134 6563 199 6609 268C6663 352 6738 414 6783 414C6794 414 6800 405 6800 390C6800 372 6797 351 6789 319L6737 107C6728 70 6724 47 6724 31C6724 6 6735 -9 6754 -9C6780 -9 6816 12 6914 85L6904 103L6878 86C6849 67 6827 56 6817 56C6810 56 6804 65 6804 76C6804 81 6805 92 6806 96L6872 372C6879 401 6883 429 6883 446C6883 469 6872 482 6852 482C6810 482 6741 444 6682 389C6644 354 6616 320 6564 247L6602 408C6606 426 6608 438 6608 449C6608 470 6600 482 6585 482C6564 482 6525 460 6452 408ZM7546 330L7569 330C7577 395 7584 432 7593 458C7569 473 7534 482 7497 482C7452 483 7379 463 7322 400C7268 352 7229 241 7229 136C7229 40 7271 -11 7351 -11C7405 -11 7453 9 7508 54L7558 95L7550 115L7535 105C7463 57 7425 40 7390 40C7334 40 7305 80 7305 159C7305 267 7340 371 7389 409C7410 425 7434 433 7465 433C7510 433 7546 414 7546 390ZM8340 103L8314 86C8285 67 8263 56 8253 56C8246 56 8240 65 8240 76C8240 86 8242 95 8247 116L8322 413C8326 430 8329 446 8329 454C8329 471 8319 482 8303 482C8274 482 8236 464 8175 421C8112 376 8077 341 8028 272L8058 409C8062 429 8065 444 8065 451C8065 470 8055 482 8039 482C8009 482 7963 460 7908 418C7864 384 7844 363 7779 275L7812 408C7816 424 7818 439 7818 451C7818 470 7809 482 7795 482C7774 482 7736 461 7662 408L7634 388L7641 368C7678 391 7713 414 7720 414C7731 414 7738 404 7738 389C7738 338 7697 145 7656 2L7659 -9L7727 6L7749 108C7773 219 7800 278 7855 338C7897 384 7942 414 7970 414C7977 414 7981 406 7981 393C7981 358 7959 244 7918 69L7902 2L7907 -9L7976 6L7997 113C8013 194 8047 269 8091 318C8146 379 8196 414 8228 414C8236 414 8241 405 8241 389C8241 365 8238 351 8216 264C8176 105 8160 84 8160 31C8160 6 8171 -9 8190 -9C8216 -9 8252 12 8350 85Z" stroke="rgb(0,0,0)" stroke-opacity="1" stroke-width="8" fill="rgb(0,0,0)" fill-opacity="1"></path></g></g><g><g transform="matrix(1,0,0,1,476.1983642578125,20.7391357421875)"><path transform="matrix(0.017,0,0,-0.017,0,0)" d="M51 726L32 700C87 636 187 526 187 266C187 -10 83 -131 32 -194L51 -215C104 -165 273 -23 273 265C273 542 108 675 51 726Z" stroke="rgb(0,0,0)" stroke-opacity="1" stroke-width="8" fill="rgb(0,0,0)" fill-opacity="1"></path></g></g><g><g transform="matrix(1,0,0,1,481.8505859375,19.86956787109375)"><path transform="matrix(0.017,0,0,-0.017,0,0)" d="" stroke="rgb(0,0,0)" stroke-opacity="1" stroke-width="8" fill="rgb(0,0,0)" fill-opacity="1"></path></g></g><g><g transform="matrix(1,0,0,1,489.4864501953125,19.86956787109375)"><path transform="matrix(0.017,0,0,-0.017,0,0)" d="M555 243L555 299L51 299L51 243Z" stroke="rgb(0,0,0)" stroke-opacity="1" stroke-width="8" fill="rgb(0,0,0)" fill-opacity="1"></path></g></g><g><g transform="matrix(1,0,0,1,503.16845703125,19.86956787109375)"><path transform="matrix(0.017,0,0,-0.017,0,0)" d="M667 -3L667 27L615 30C560 33 550 44 550 96L550 700L309 598L316 548L466 614L466 96C466 44 455 33 401 30L345 27L345 -3C499 0 499 0 510 0C541 0 651 -3 667 -3ZM844 -20C955 16 1003 39 1057 85C1154 168 1205 283 1205 417C1205 586 1124 689 992 689C864 689 768 589 768 455C768 340 843 256 947 256C981 256 1020 267 1038 282L1108 340C1100 172 991 49 810 5L810 -3ZM988 656C1033 656 1066 637 1088 597C1106 565 1118 516 1118 471C1118 379 1065 317 988 317C908 317 854 388 854 492C854 593 906 656 988 656ZM1371 111C1341 111 1314 83 1314 53C1314 23 1341 -5 1370 -5C1402 -5 1430 22 1430 53C1430 83 1402 111 1371 111ZM1512 23L1512 -3C1699 -3 1699 0 1735 0C1771 0 1771 -3 1964 -3L1964 82C1849 77 1803 81 1618 77L1800 270C1897 373 1927 428 1927 503C1927 618 1849 689 1722 689C1650 689 1601 669 1552 619L1535 483L1564 483L1577 529C1593 587 1629 612 1696 612C1782 612 1837 558 1837 473C1837 398 1795 324 1682 204Z" stroke="rgb(0,0,0)" stroke-opacity="1" stroke-width="8" fill="rgb(0,0,0)" fill-opacity="1"></path></g></g></g></g><g><g><g><g transform="matrix(1,0,0,1,2.43475341796875,44.529876708984375)"><path transform="matrix(0.017,0,0,-0.017,0,0)" d="M303 692L264 691C226 689 202 689 182 689C170 689 148 690 110 691L71 692L71 664L89 662C130 656 138 645 142 588L174 158C179 92 181 44 182 -8L232 -8C246 27 264 66 282 102L506 546L618 154C633 102 644 53 657 -8L708 -8L715 18C725 58 733 85 746 124L917 631C923 648 938 660 960 662L980 664L980 692L948 691C919 690 897 689 883 689C870 689 848 690 818 691L785 692L780 664L819 662C848 661 860 653 860 639C860 626 857 608 851 590L704 128L546 700L528 700C516 673 494 624 476 588L252 132L221 616C221 646 234 660 266 662L303 664ZM960 152C960 46 1005 -11 1088 -11C1143 -11 1203 15 1248 57C1310 116 1354 230 1354 331C1354 425 1304 482 1221 482C1117 482 960 382 960 152ZM1184 444C1245 444 1278 399 1278 315C1278 219 1247 113 1203 60C1185 39 1159 27 1128 27C1070 27 1036 72 1036 151C1036 264 1075 387 1124 427C1137 438 1160 444 1184 444ZM2116 103L2090 86C2061 67 2039 56 2029 56C2022 56 2016 65 2016 76C2016 86 2018 95 2023 116L2098 413C2102 430 2105 446 2105 454C2105 471 2095 482 2079 482C2050 482 2012 464 1951 421C1888 376 1853 341 1804 272L1834 409C1838 429 1841 444 1841 451C1841 470 1831 482 1815 482C1785 482 1739 460 1684 418C1640 384 1620 363 1555 275L1588 408C1592 424 1594 439 1594 451C1594 470 1585 482 1571 482C1550 482 1512 461 1438 408L1410 388L1417 368C1454 391 1489 414 1496 414C1507 414 1514 404 1514 389C1514 338 1473 145 1432 2L1435 -9L1503 6L1525 108C1549 219 1576 278 1631 338C1673 384 1718 414 1746 414C1753 414 1757 406 1757 393C1757 358 1735 244 1694 69L1678 2L1683 -9L1752 6L1773 113C1789 194 1823 269 1867 318C1922 379 1972 414 2004 414C2012 414 2017 405 2017 389C2017 365 2014 351 1992 264C1952 105 1936 84 1936 31C1936 6 1947 -9 1966 -9C1992 -9 2028 12 2126 85ZM2491 111L2467 94C2414 56 2366 36 2330 36C2283 36 2254 73 2254 133C2254 158 2257 185 2262 214C2279 218 2388 248 2413 259C2498 296 2537 342 2537 404C2537 451 2503 482 2453 482C2385 496 2275 423 2238 349C2208 299 2178 180 2178 113C2178 35 2222 -11 2294 -11C2351 -11 2407 17 2499 92ZM2276 274C2293 343 2313 386 2342 412C2360 428 2391 440 2415 440C2444 440 2463 420 2463 388C2463 344 2428 297 2376 272C2348 258 2312 247 2267 237ZM2575 388L2582 368L2614 389C2651 412 2654 414 2661 414C2672 414 2679 404 2679 389C2679 338 2638 145 2597 2L2604 -9C2629 -2 2652 4 2674 8C2693 134 2714 199 2760 268C2814 352 2889 414 2934 414C2945 414 2951 405 2951 390C2951 372 2948 351 2940 319L2888 107C2879 70 2875 47 2875 31C2875 6 2886 -9 2905 -9C2931 -9 2967 12 3065 85L3055 103L3029 86C3000 67 2978 56 2968 56C2961 56 2955 65 2955 76C2955 81 2956 92 2957 96L3023 372C3030 401 3034 429 3034 446C3034 469 3023 482 3003 482C2961 482 2892 444 2833 389C2795 354 2767 320 2715 247L2753 408C2757 426 2759 438 2759 449C2759 470 2751 482 2736 482C2715 482 2676 460 2603 408Z" stroke="rgb(0,0,0)" stroke-opacity="1" stroke-width="8" fill="rgb(0,0,0)" fill-opacity="1"></path></g></g></g></g><g><g><g><g transform="matrix(1,0,0,1,73.00543212890625,44.529876708984375)"><path transform="matrix(0.017,0,0,-0.017,0,0)" d="M349 664L352 692L238 689C222 689 204 689 161 690L97 692L94 664L141 662C165 661 176 653 176 635L81 55C77 37 65 30 21 23L16 -3L57 -2C88 -1 150 0 170 0C170 0 467 -1 467 -1C467 -1 500 0 500 0C499 25 510 103 523 165L492 165L475 103C466 71 457 54 448 49C435 44 371 39 304 39C255 39 228 40 162 46C165 64 256 605 256 613C263 651 270 658 307 661ZM1098 227C1098 337 1014 353 932 365C989 385 1014 397 1045 425C1091 464 1114 511 1114 562C1114 644 1056 692 956 692C954 692 944 692 929 691L866 690C854 689 818 689 806 689C787 689 756 690 707 691L655 692L652 664L705 662C729 661 740 653 740 635C740 621 736 589 731 559L644 55C640 37 628 30 586 23L581 -3L618 -2C645 0 660 0 672 0C683 0 709 -1 735 -2L772 -3L792 -4C811 -5 824 -6 832 -6C947 -6 1098 87 1098 227ZM721 41L772 340L857 340C960 340 1010 298 1010 211C1010 108 937 34 837 34C783 34 762 38 721 41ZM907 655C988 655 1028 619 1028 544C1028 439 954 376 830 376L778 376L827 650C843 650 884 655 907 655ZM2102 664L2115 695C2087 699 1940 701 1938 692L1853 536L1607 114L1457 692C1434 686 1311 690 1290 692L1287 664L1313 662C1365 658 1383 648 1383 622C1383 616 1237 100 1235 93C1219 41 1204 28 1149 23L1146 -3L1185 -2C1219 -1 1244 0 1258 0C1272 0 1298 -1 1333 -2L1368 -3L1371 25L1333 28C1301 30 1284 40 1284 55C1284 65 1286 78 1291 96L1415 560L1564 -18L1587 -18L1644 86L1883 500L1935 587L1898 67C1894 39 1882 32 1831 28L1800 25L1797 -3L1844 -2C1886 -1 1916 0 1931 0C1947 0 1977 -1 2018 -2L2064 -3L2067 25L2030 28C1994 31 1976 42 1976 63L1977 100L2018 631C2020 650 2035 660 2064 662Z" stroke="rgb(0,0,0)" stroke-opacity="1" stroke-width="8" fill="rgb(0,0,0)" fill-opacity="1"></path></g></g><g><g transform="matrix(1,0,0,1,118.33154296875,44.529876708984375)"><path transform="matrix(0.017,0,0,-0.017,0,0)" d="M604 347L604 406L65 406L65 347ZM604 134L604 193L65 193L65 134Z" stroke="rgb(0,0,0)" stroke-opacity="1" stroke-width="8" fill="rgb(0,0,0)" fill-opacity="1"></path></g></g><g><g transform="matrix(1,0,0,1,134.78533935546875,44.529876708984375)"><path transform="matrix(0.017,0,0,-0.017,0,0)" d="" stroke="rgb(0,0,0)" stroke-opacity="1" stroke-width="8" fill="rgb(0,0,0)" fill-opacity="1"></path></g></g><g><g transform="matrix(1,0,0,1,139.02447509765625,45.399444580078125)"><path transform="matrix(0.017,0,0,-0.017,0,0)" d="M146 266C146 526 243 632 301 700L282 726C225 675 60 542 60 266C60 159 85 58 133 -32C168 -99 200 -138 282 -215L301 -194C255 -137 146 -15 146 266Z" stroke="rgb(0,0,0)" stroke-opacity="1" stroke-width="8" fill="rgb(0,0,0)" fill-opacity="1"></path></g></g><g><g transform="matrix(1,0,0,1,144.6766357421875,44.529876708984375)"><path transform="matrix(0.017,0,0,-0.017,0,0)" d="M512 689C357 689 278 566 278 324C278 207 299 106 334 57C369 8 425 -20 487 -20C638 -20 714 110 714 366C714 585 649 689 512 689ZM494 654C591 654 630 556 630 316C630 103 592 15 500 15C403 15 362 116 362 360C362 571 399 654 494 654ZM872 111C842 111 815 83 815 53C815 23 842 -5 871 -5C903 -5 931 22 931 53C931 83 903 111 872 111ZM1013 23L1013 -3C1200 -3 1200 0 1236 0C1272 0 1272 -3 1465 -3L1465 82C1350 77 1304 81 1119 77L1301 270C1398 373 1428 428 1428 503C1428 618 1350 689 1223 689C1151 689 1102 669 1053 619L1036 483L1065 483L1078 529C1094 587 1130 612 1197 612C1283 612 1338 558 1338 473C1338 398 1296 324 1183 204ZM1955 253C1955 366 1874 446 1760 446C1712 446 1676 443 1623 396L1623 605L1928 604L1928 689L1571 690L1571 322L1591 316C1638 363 1665 377 1714 377C1810 377 1870 309 1870 201C1870 90 1806 25 1697 25C1643 25 1593 43 1579 69L1533 151L1509 137C1532 80 1544 48 1558 4C1586 -11 1626 -20 1669 -20C1797 -20 1955 89 1955 253ZM2011 23L2011 -3C2198 -3 2198 0 2234 0C2270 0 2270 -3 2463 -3L2463 82C2348 77 2302 81 2117 77L2299 270C2396 373 2426 428 2426 503C2426 618 2348 689 2221 689C2149 689 2100 669 2051 619L2034 483L2063 483L2076 529C2092 587 2128 612 2195 612C2281 612 2336 558 2336 473C2336 398 2294 324 2181 204ZM2911 267L2780 213L2775 204L2811 153L2821 153L2927 241L2945 99L2955 95L3023 121L3023 131L2955 253L3093 233L3102 241L3102 303L3096 307L2957 283L3026 408L3023 423L2961 442L2952 438L2926 295L2831 393L2821 393L2777 341L2780 331ZM3547 420C3568 420 3581 421 3606 424C3551 350 3452 266 3452 126C3452 44 3487 -11 3540 -11C3604 -11 3656 44 3730 187C3721 143 3718 118 3718 95C3718 32 3747 -11 3792 -11C3926 -11 4079 238 4079 384C4079 441 4053 482 4017 482C4004 482 3992 478 3984 470L3934 423L3945 404C3954 410 3963 413 3972 413C3999 413 4015 390 4015 350C4015 205 3918 39 3833 39C3804 39 3783 79 3783 134C3783 181 3792 247 3804 290L3856 474L3849 482L3775 460L3746 311C3734 249 3720 209 3691 155C3651 80 3613 39 3583 39C3548 39 3525 78 3525 136C3525 255 3566 352 3665 464L3655 482C3635 473 3622 470 3594 470C3566 470 3524 472 3495 475L3483 476C3477 477 3472 477 3471 477C3459 477 3450 475 3439 470C3425 443 3414 407 3401 352L3423 352L3440 394C3447 411 3467 422 3491 422C3525 422 3508 420 3547 420ZM4429 111L4405 94C4352 56 4304 36 4268 36C4221 36 4192 73 4192 133C4192 158 4195 185 4200 214C4217 218 4326 248 4351 259C4436 296 4475 342 4475 404C4475 451 4441 482 4391 482C4323 496 4213 423 4176 349C4146 299 4116 180 4116 113C4116 35 4160 -11 4232 -11C4289 -11 4345 17 4437 92ZM4214 274C4231 343 4251 386 4280 412C4298 428 4329 440 4353 440C4382 440 4401 420 4401 388C4401 344 4366 297 4314 272C4286 258 4250 247 4205 237ZM4523 388L4530 368L4562 389C4599 412 4602 414 4609 414C4619 414 4627 404 4627 391C4627 384 4623 361 4619 347L4553 107C4545 76 4540 49 4540 30C4540 6 4551 -9 4570 -9C4596 -9 4632 12 4730 85L4720 103L4694 86C4665 67 4642 56 4633 56C4626 56 4620 66 4620 76C4620 86 4622 95 4627 116L4704 420C4708 437 4710 448 4710 456C4710 473 4701 482 4685 482C4663 482 4626 461 4551 408ZM4717 712C4688 712 4659 679 4659 645C4659 620 4674 604 4698 604C4729 604 4753 633 4753 671C4753 695 4738 712 4717 712ZM5041 482C4974 482 4821 419 4821 259C4821 182 4866 136 4943 136C4951 136 4962 136 4973 137L4932 99C4916 84 4905 66 4905 52C4905 42 4912 31 4926 19C4857 -4 4729 -48 4729 -159C4729 -230 4799 -276 4908 -276C5037 -276 5150 -204 5150 -121C5150 -85 5129 -49 5086 -14L5026 35C4992 62 4979 81 4979 100C4979 114 4994 128 5006 146C5104 170 5175 253 5175 342C5175 357 5172 376 5171 380C5188 378 5196 378 5205 378C5222 378 5232 379 5255 382L5264 427L5261 433C5233 426 5213 424 5159 424C5159 425 5135 482 5041 482ZM4942 1L5019 -58C5065 -94 5084 -121 5084 -154C5084 -206 5015 -248 4932 -248C4850 -248 4793 -206 4793 -145C4793 -43 4903 -11 4942 1ZM5016 448C5074 448 5103 412 5103 341C5103 238 5055 168 4985 168C4924 168 4892 209 4892 288C4892 383 4943 448 5016 448ZM5501 722L5489 733C5444 711 5403 697 5329 691L5325 670L5373 670C5391 670 5407 667 5407 647C5407 641 5407 632 5405 622L5363 388C5343 272 5301 80 5275 2L5282 -9L5351 7C5359 64 5373 164 5413 236C5458 317 5561 414 5603 414C5614 414 5625 407 5625 393C5625 375 5620 342 5610 303L5559 107C5553 85 5546 55 5546 31C5546 6 5556 -9 5577 -9C5609 -9 5677 41 5736 85L5726 103L5700 86C5677 71 5651 56 5639 56C5632 56 5626 65 5626 76C5626 88 5629 101 5633 116L5697 372C5703 398 5708 423 5708 447C5708 464 5702 482 5676 482C5641 482 5564 437 5496 374C5463 343 5437 308 5409 273L5405 275ZM5889 390L5833 107C5832 99 5820 61 5820 31C5820 6 5831 -9 5850 -9C5885 -9 5920 11 5998 74L6029 99L6019 117L5974 86C5945 66 5925 56 5914 56C5905 56 5900 64 5900 76C5900 102 5914 183 5943 328L5956 390L6063 390L6074 440C6036 436 6002 434 5964 434C5980 528 5991 577 6009 631L5998 646C5978 634 5951 622 5920 610L5895 440C5851 419 5825 408 5807 403L5805 390ZM6379 388L6386 368L6418 389C6455 412 6458 414 6465 414C6475 414 6483 404 6483 391C6483 384 6479 361 6475 347L6409 107C6401 76 6396 49 6396 30C6396 6 6407 -9 6426 -9C6452 -9 6488 12 6586 85L6576 103L6550 86C6521 67 6498 56 6489 56C6482 56 6476 66 6476 76C6476 86 6478 95 6483 116L6560 420C6564 437 6566 448 6566 456C6566 473 6557 482 6541 482C6519 482 6482 461 6407 408ZM6573 712C6544 712 6515 679 6515 645C6515 620 6530 604 6554 604C6585 604 6609 633 6609 671C6609 695 6594 712 6573 712ZM6646 388L6653 368L6685 389C6722 412 6725 414 6732 414C6743 414 6750 404 6750 389C6750 338 6709 145 6668 2L6675 -9C6700 -2 6723 4 6745 8C6764 134 6785 199 6831 268C6885 352 6960 414 7005 414C7016 414 7022 405 7022 390C7022 372 7019 351 7011 319L6959 107C6950 70 6946 47 6946 31C6946 6 6957 -9 6976 -9C7002 -9 7038 12 7136 85L7126 103L7100 86C7071 67 7049 56 7039 56C7032 56 7026 65 7026 76C7026 81 7027 92 7028 96L7094 372C7101 401 7105 429 7105 446C7105 469 7094 482 7074 482C7032 482 6963 444 6904 389C6866 354 6838 320 6786 247L6824 408C6828 426 6830 438 6830 449C6830 470 6822 482 6807 482C6786 482 6747 460 6674 408ZM7666 722L7654 733C7602 707 7566 698 7494 691L7490 670L7538 670C7562 670 7572 663 7572 646C7572 638 7571 629 7570 622L7522 354C7508 279 7492 210 7440 1L7449 -9L7516 8L7539 132C7548 180 7572 225 7606 259C7675 59 7707 -9 7732 -9C7745 -9 7769 4 7813 35L7859 67L7851 86L7808 62C7794 54 7787 52 7779 52C7769 52 7762 58 7753 75C7718 139 7696 193 7657 316L7671 330C7732 391 7778 416 7828 416C7836 416 7847 414 7864 410L7881 473C7863 479 7845 482 7833 482C7767 482 7684 405 7559 230ZM8169 482C8102 482 7949 419 7949 259C7949 182 7994 136 8071 136C8079 136 8090 136 8101 137L8060 99C8044 84 8033 66 8033 52C8033 42 8040 31 8054 19C7985 -4 7857 -48 7857 -159C7857 -230 7927 -276 8036 -276C8165 -276 8278 -204 8278 -121C8278 -85 8257 -49 8214 -14L8154 35C8120 62 8107 81 8107 100C8107 114 8122 128 8134 146C8232 170 8303 253 8303 342C8303 357 8300 376 8299 380C8316 378 8324 378 8333 378C8350 378 8360 379 8383 382L8392 427L8389 433C8361 426 8341 424 8287 424C8287 425 8263 482 8169 482ZM8070 1L8147 -58C8193 -94 8212 -121 8212 -154C8212 -206 8143 -248 8060 -248C7978 -248 7921 -206 7921 -145C7921 -43 8031 -11 8070 1ZM8144 448C8202 448 8231 412 8231 341C8231 238 8183 168 8113 168C8052 168 8020 209 8020 288C8020 383 8071 448 8144 448Z" stroke="rgb(0,0,0)" stroke-opacity="1" stroke-width="8" fill="rgb(0,0,0)" fill-opacity="1"></path></g></g><g><g transform="matrix(1,0,0,1,291.52447509765625,45.399444580078125)"><path transform="matrix(0.017,0,0,-0.017,0,0)" d="M51 726L32 700C87 636 187 526 187 266C187 -10 83 -131 32 -194L51 -215C104 -165 273 -23 273 265C273 542 108 675 51 726Z" stroke="rgb(0,0,0)" stroke-opacity="1" stroke-width="8" fill="rgb(0,0,0)" fill-opacity="1"></path></g></g><g><g transform="matrix(1,0,0,1,297.1766357421875,44.529876708984375)"><path transform="matrix(0.017,0,0,-0.017,0,0)" d="" stroke="rgb(0,0,0)" stroke-opacity="1" stroke-width="8" fill="rgb(0,0,0)" fill-opacity="1"></path></g></g><g><g transform="matrix(1,0,0,1,304.8125,44.529876708984375)"><path transform="matrix(0.017,0,0,-0.017,0,0)" d="M604 241L604 300L364 300L364 538L305 538L305 300L65 300L65 241L305 241L305 0L364 0L364 241Z" stroke="rgb(0,0,0)" stroke-opacity="1" stroke-width="8" fill="rgb(0,0,0)" fill-opacity="1"></path></g></g><g><g transform="matrix(1,0,0,1,319.56793212890625,44.529876708984375)"><path transform="matrix(0.017,0,0,-0.017,0,0)" d="" stroke="rgb(0,0,0)" stroke-opacity="1" stroke-width="8" fill="rgb(0,0,0)" fill-opacity="1"></path></g></g><g><g transform="matrix(1,0,0,1,323.80706787109375,45.399444580078125)"><path transform="matrix(0.017,0,0,-0.017,0,0)" d="M146 266C146 526 243 632 301 700L282 726C225 675 60 542 60 266C60 159 85 58 133 -32C168 -99 200 -138 282 -215L301 -194C255 -137 146 -15 146 266Z" stroke="rgb(0,0,0)" stroke-opacity="1" stroke-width="8" fill="rgb(0,0,0)" fill-opacity="1"></path></g></g><g><g transform="matrix(1,0,0,1,329.459228515625,44.529876708984375)"><path transform="matrix(0.017,0,0,-0.017,0,0)" d="M512 689C357 689 278 566 278 324C278 207 299 106 334 57C369 8 425 -20 487 -20C638 -20 714 110 714 366C714 585 649 689 512 689ZM494 654C591 654 630 556 630 316C630 103 592 15 500 15C403 15 362 116 362 360C362 571 399 654 494 654ZM872 111C842 111 815 83 815 53C815 23 842 -5 871 -5C903 -5 931 22 931 53C931 83 903 111 872 111ZM1277 181L1277 106C1277 46 1266 32 1217 30L1155 27L1155 -3C1288 0 1288 0 1312 0C1336 0 1336 0 1469 -3L1469 27L1421 30C1372 33 1361 46 1361 106L1361 181C1420 181 1441 180 1469 177L1469 248L1361 245L1362 697L1282 667L999 204L999 181ZM1277 245L1062 245L1277 597ZM1905 603L1543 -1L1653 -1L1993 659L1993 689L1540 689L1540 477L1570 477L1577 533C1585 595 1592 603 1638 603ZM2457 224C2457 345 2350 366 2303 374C2383 436 2413 482 2413 541C2413 630 2339 689 2228 689C2160 689 2115 670 2067 622L2038 498L2069 498L2087 554C2098 588 2161 622 2213 622C2278 622 2331 569 2331 506C2331 431 2272 368 2201 368C2193 368 2182 369 2169 370L2154 371L2142 318L2149 312C2187 329 2206 334 2233 334C2316 334 2364 281 2364 190C2364 88 2303 21 2210 21C2164 21 2123 36 2093 64C2069 86 2056 109 2037 163L2010 153C2031 92 2039 56 2045 6C2098 -12 2142 -20 2179 -20C2302 -20 2457 87 2457 224ZM2911 267L2780 213L2775 204L2811 153L2821 153L2927 241L2945 99L2955 95L3023 121L3023 131L2955 253L3093 233L3102 241L3102 303L3096 307L2957 283L3026 408L3023 423L2961 442L2952 438L2926 295L2831 393L2821 393L2777 341L2780 331ZM3616 722L3604 733C3559 711 3518 697 3444 691L3440 670L3488 670C3506 670 3522 667 3522 647C3522 641 3522 632 3520 622L3478 388C3458 272 3416 80 3390 2L3397 -9L3466 7C3474 64 3488 164 3528 236C3573 317 3676 414 3718 414C3729 414 3740 407 3740 393C3740 375 3735 342 3725 303L3674 107C3668 85 3661 55 3661 31C3661 6 3671 -9 3692 -9C3724 -9 3792 41 3851 85L3841 103L3815 86C3792 71 3766 56 3754 56C3747 56 3741 65 3741 76C3741 88 3744 101 3748 116L3812 372C3818 398 3823 423 3823 447C3823 464 3817 482 3791 482C3756 482 3679 437 3611 374C3578 343 3552 308 3524 273L3520 275ZM4207 111L4183 94C4130 56 4082 36 4046 36C3999 36 3970 73 3970 133C3970 158 3973 185 3978 214C3995 218 4104 248 4129 259C4214 296 4253 342 4253 404C4253 451 4219 482 4169 482C4101 496 3991 423 3954 349C3924 299 3894 180 3894 113C3894 35 3938 -11 4010 -11C4067 -11 4123 17 4215 92ZM3992 274C4009 343 4029 386 4058 412C4076 428 4107 440 4131 440C4160 440 4179 420 4179 388C4179 344 4144 297 4092 272C4064 258 4028 247 3983 237ZM4301 388L4308 368L4340 389C4377 412 4380 414 4387 414C4397 414 4405 404 4405 391C4405 384 4401 361 4397 347L4331 107C4323 76 4318 49 4318 30C4318 6 4329 -9 4348 -9C4374 -9 4410 12 4508 85L4498 103L4472 86C4443 67 4420 56 4411 56C4404 56 4398 66 4398 76C4398 86 4400 95 4405 116L4482 420C4486 437 4488 448 4488 456C4488 473 4479 482 4463 482C4441 482 4404 461 4329 408ZM4495 712C4466 712 4437 679 4437 645C4437 620 4452 604 4476 604C4507 604 4531 633 4531 671C4531 695 4516 712 4495 712ZM4819 482C4752 482 4599 419 4599 259C4599 182 4644 136 4721 136C4729 136 4740 136 4751 137L4710 99C4694 84 4683 66 4683 52C4683 42 4690 31 4704 19C4635 -4 4507 -48 4507 -159C4507 -230 4577 -276 4686 -276C4815 -276 4928 -204 4928 -121C4928 -85 4907 -49 4864 -14L4804 35C4770 62 4757 81 4757 100C4757 114 4772 128 4784 146C4882 170 4953 253 4953 342C4953 357 4950 376 4949 380C4966 378 4974 378 4983 378C5000 378 5010 379 5033 382L5042 427L5039 433C5011 426 4991 424 4937 424C4937 425 4913 482 4819 482ZM4720 1L4797 -58C4843 -94 4862 -121 4862 -154C4862 -206 4793 -248 4710 -248C4628 -248 4571 -206 4571 -145C4571 -43 4681 -11 4720 1ZM4794 448C4852 448 4881 412 4881 341C4881 238 4833 168 4763 168C4702 168 4670 209 4670 288C4670 383 4721 448 4794 448ZM5279 722L5267 733C5222 711 5181 697 5107 691L5103 670L5151 670C5169 670 5185 667 5185 647C5185 641 5185 632 5183 622L5141 388C5121 272 5079 80 5053 2L5060 -9L5129 7C5137 64 5151 164 5191 236C5236 317 5339 414 5381 414C5392 414 5403 407 5403 393C5403 375 5398 342 5388 303L5337 107C5331 85 5324 55 5324 31C5324 6 5334 -9 5355 -9C5387 -9 5455 41 5514 85L5504 103L5478 86C5455 71 5429 56 5417 56C5410 56 5404 65 5404 76C5404 88 5407 101 5411 116L5475 372C5481 398 5486 423 5486 447C5486 464 5480 482 5454 482C5419 482 5342 437 5274 374C5241 343 5215 308 5187 273L5183 275ZM5667 390L5611 107C5610 99 5598 61 5598 31C5598 6 5609 -9 5628 -9C5663 -9 5698 11 5776 74L5807 99L5797 117L5752 86C5723 66 5703 56 5692 56C5683 56 5678 64 5678 76C5678 102 5692 183 5721 328L5734 390L5841 390L5852 440C5814 436 5780 434 5742 434C5758 528 5769 577 5787 631L5776 646C5756 634 5729 622 5698 610L5673 440C5629 419 5603 408 5585 403L5583 390ZM6157 388L6164 368L6196 389C6233 412 6236 414 6243 414C6253 414 6261 404 6261 391C6261 384 6257 361 6253 347L6187 107C6179 76 6174 49 6174 30C6174 6 6185 -9 6204 -9C6230 -9 6266 12 6364 85L6354 103L6328 86C6299 67 6276 56 6267 56C6260 56 6254 66 6254 76C6254 86 6256 95 6261 116L6338 420C6342 437 6344 448 6344 456C6344 473 6335 482 6319 482C6297 482 6260 461 6185 408ZM6351 712C6322 712 6293 679 6293 645C6293 620 6308 604 6332 604C6363 604 6387 633 6387 671C6387 695 6372 712 6351 712ZM6424 388L6431 368L6463 389C6500 412 6503 414 6510 414C6521 414 6528 404 6528 389C6528 338 6487 145 6446 2L6453 -9C6478 -2 6501 4 6523 8C6542 134 6563 199 6609 268C6663 352 6738 414 6783 414C6794 414 6800 405 6800 390C6800 372 6797 351 6789 319L6737 107C6728 70 6724 47 6724 31C6724 6 6735 -9 6754 -9C6780 -9 6816 12 6914 85L6904 103L6878 86C6849 67 6827 56 6817 56C6810 56 6804 65 6804 76C6804 81 6805 92 6806 96L6872 372C6879 401 6883 429 6883 446C6883 469 6872 482 6852 482C6810 482 6741 444 6682 389C6644 354 6616 320 6564 247L6602 408C6606 426 6608 438 6608 449C6608 470 6600 482 6585 482C6564 482 6525 460 6452 408ZM7546 330L7569 330C7577 395 7584 432 7593 458C7569 473 7534 482 7497 482C7452 483 7379 463 7322 400C7268 352 7229 241 7229 136C7229 40 7271 -11 7351 -11C7405 -11 7453 9 7508 54L7558 95L7550 115L7535 105C7463 57 7425 40 7390 40C7334 40 7305 80 7305 159C7305 267 7340 371 7389 409C7410 425 7434 433 7465 433C7510 433 7546 414 7546 390ZM8340 103L8314 86C8285 67 8263 56 8253 56C8246 56 8240 65 8240 76C8240 86 8242 95 8247 116L8322 413C8326 430 8329 446 8329 454C8329 471 8319 482 8303 482C8274 482 8236 464 8175 421C8112 376 8077 341 8028 272L8058 409C8062 429 8065 444 8065 451C8065 470 8055 482 8039 482C8009 482 7963 460 7908 418C7864 384 7844 363 7779 275L7812 408C7816 424 7818 439 7818 451C7818 470 7809 482 7795 482C7774 482 7736 461 7662 408L7634 388L7641 368C7678 391 7713 414 7720 414C7731 414 7738 404 7738 389C7738 338 7697 145 7656 2L7659 -9L7727 6L7749 108C7773 219 7800 278 7855 338C7897 384 7942 414 7970 414C7977 414 7981 406 7981 393C7981 358 7959 244 7918 69L7902 2L7907 -9L7976 6L7997 113C8013 194 8047 269 8091 318C8146 379 8196 414 8228 414C8236 414 8241 405 8241 389C8241 365 8238 351 8216 264C8176 105 8160 84 8160 31C8160 6 8171 -9 8190 -9C8216 -9 8252 12 8350 85Z" stroke="rgb(0,0,0)" stroke-opacity="1" stroke-width="8" fill="rgb(0,0,0)" fill-opacity="1"></path></g></g><g><g transform="matrix(1,0,0,1,476.1983642578125,45.399444580078125)"><path transform="matrix(0.017,0,0,-0.017,0,0)" d="M51 726L32 700C87 636 187 526 187 266C187 -10 83 -131 32 -194L51 -215C104 -165 273 -23 273 265C273 542 108 675 51 726Z" stroke="rgb(0,0,0)" stroke-opacity="1" stroke-width="8" fill="rgb(0,0,0)" fill-opacity="1"></path></g></g><g><g transform="matrix(1,0,0,1,481.8505859375,44.529876708984375)"><path transform="matrix(0.017,0,0,-0.017,0,0)" d="" stroke="rgb(0,0,0)" stroke-opacity="1" stroke-width="8" fill="rgb(0,0,0)" fill-opacity="1"></path></g></g><g><g transform="matrix(1,0,0,1,489.4864501953125,44.529876708984375)"><path transform="matrix(0.017,0,0,-0.017,0,0)" d="M555 243L555 299L51 299L51 243Z" stroke="rgb(0,0,0)" stroke-opacity="1" stroke-width="8" fill="rgb(0,0,0)" fill-opacity="1"></path></g></g><g><g transform="matrix(1,0,0,1,503.16845703125,44.529876708984375)"><path transform="matrix(0.017,0,0,-0.017,0,0)" d="M529 181L529 106C529 46 518 32 469 30L407 27L407 -3C540 0 540 0 564 0C588 0 588 0 721 -3L721 27L673 30C624 33 613 46 613 106L613 181C672 181 693 180 721 177L721 248L613 245L614 697L534 667L251 204L251 181ZM529 245L314 245L529 597ZM916 345C875 326 858 315 836 294C798 256 778 211 778 159C778 56 861 -20 974 -20C1104 -20 1212 82 1212 206C1212 286 1175 329 1061 381C1152 443 1184 485 1184 545C1184 631 1113 689 1007 689C888 689 801 613 801 508C801 440 828 402 916 345ZM1032 295C1095 267 1133 218 1133 164C1133 80 1070 14 989 14C904 14 849 74 849 167C849 240 878 286 952 331ZM971 423C908 454 876 494 876 544C876 610 924 655 995 655C1068 655 1116 607 1116 534C1116 477 1091 438 1026 396ZM1371 111C1341 111 1314 83 1314 53C1314 23 1341 -5 1370 -5C1402 -5 1430 22 1430 53C1430 83 1402 111 1371 111ZM1958 224C1958 345 1851 366 1804 374C1884 436 1914 482 1914 541C1914 630 1840 689 1729 689C1661 689 1616 670 1568 622L1539 498L1570 498L1588 554C1599 588 1662 622 1714 622C1779 622 1832 569 1832 506C1832 431 1773 368 1702 368C1694 368 1683 369 1670 370L1655 371L1643 318L1650 312C1688 329 1707 334 1734 334C1817 334 1865 281 1865 190C1865 88 1804 21 1711 21C1665 21 1624 36 1594 64C1570 86 1557 109 1538 163L1511 153C1532 92 1540 56 1546 6C1599 -12 1643 -20 1680 -20C1803 -20 1958 87 1958 224Z" stroke="rgb(0,0,0)" stroke-opacity="1" stroke-width="8" fill="rgb(0,0,0)" fill-opacity="1"></path></g></g></g></g><g><g></g></g><g><g><g><g transform="matrix(1,0,0,1,73.00543212890625,69.19021606445312)"><path transform="matrix(0.017,0,0,-0.017,0,0)" d="M543 227C543 337 459 353 377 365C434 385 459 397 490 425C536 464 559 511 559 562C559 644 501 692 401 692C399 692 389 692 374 691L311 690C299 689 263 689 251 689C232 689 201 690 152 691L100 692L97 664L150 662C174 661 185 653 185 635C185 621 181 589 176 559L89 55C85 37 73 30 31 23L26 -3L63 -2C90 0 105 0 117 0C128 0 154 -1 180 -2L217 -3L237 -4C256 -5 269 -6 277 -6C392 -6 543 87 543 227ZM166 41L217 340L302 340C405 340 455 298 455 211C455 108 382 34 282 34C228 34 207 38 166 41ZM352 655C433 655 473 619 473 544C473 439 399 376 275 376L223 376L272 650C288 650 329 655 352 655ZM1547 664L1560 695C1532 699 1385 701 1383 692L1298 536L1052 114L902 692C879 686 756 690 735 692L732 664L758 662C810 658 828 648 828 622C828 616 682 100 680 93C664 41 649 28 594 23L591 -3L630 -2C664 -1 689 0 703 0C717 0 743 -1 778 -2L813 -3L816 25L778 28C746 30 729 40 729 55C729 65 731 78 736 96L860 560L1009 -18L1032 -18L1089 86L1328 500L1380 587L1343 67C1339 39 1327 32 1276 28L1245 25L1242 -3L1289 -2C1331 -1 1361 0 1376 0C1392 0 1422 -1 1463 -2L1509 -3L1512 25L1475 28C1439 31 1421 42 1421 63L1422 100L1463 631C1465 650 1480 660 1509 662ZM1668 664L1724 662C1748 661 1759 653 1759 635C1759 621 1755 589 1750 559L1675 125C1659 34 1657 32 1617 28L1576 25L1572 -3L1614 -2C1661 0 1680 0 1704 0L1801 -3L1827 -3L1830 25L1781 28C1754 30 1745 38 1745 58C1745 67 1746 76 1749 93L1850 648C1879 654 1899 656 1926 656C2013 656 2059 617 2059 543C2059 448 1981 378 1877 378L1833 378L1830 367C1964 172 1995 124 2070 -3C2070 -3 2155 0 2155 0C2156 0 2170 -1 2189 -3L2202 -3L2202 24C2162 29 2151 37 2122 79L1938 354C1993 364 2022 376 2058 402C2116 444 2147 499 2147 560C2147 646 2083 693 1972 691L1671 691Z" stroke="rgb(0,0,0)" stroke-opacity="1" stroke-width="8" fill="rgb(0,0,0)" fill-opacity="1"></path></g></g><g><g transform="matrix(1,0,0,1,120.20654296875,69.19021606445312)"><path transform="matrix(0.017,0,0,-0.017,0,0)" d="M604 347L604 406L65 406L65 347ZM604 134L604 193L65 193L65 134Z" stroke="rgb(0,0,0)" stroke-opacity="1" stroke-width="8" fill="rgb(0,0,0)" fill-opacity="1"></path></g></g><g><g transform="matrix(1,0,0,1,136.66033935546875,69.19021606445312)"><path transform="matrix(0.017,0,0,-0.017,0,0)" d="M711 224C711 345 604 366 557 374C637 436 667 482 667 541C667 630 593 689 482 689C414 689 369 670 321 622L292 498L323 498L341 554C352 588 415 622 467 622C532 622 585 569 585 506C585 431 526 368 455 368C447 368 436 369 423 370L408 371L396 318L403 312C441 329 460 334 487 334C570 334 618 281 618 190C618 88 557 21 464 21C418 21 377 36 347 64C323 86 310 109 291 163L264 153C285 92 293 56 299 6C352 -12 396 -20 433 -20C556 -20 711 87 711 224ZM1157 603L795 -1L905 -1L1245 659L1245 689L792 689L792 477L822 477L829 533C837 595 844 603 890 603ZM1510 689C1355 689 1276 566 1276 324C1276 207 1297 106 1332 57C1367 8 1423 -20 1485 -20C1636 -20 1712 110 1712 366C1712 585 1647 689 1510 689ZM1492 654C1589 654 1628 556 1628 316C1628 103 1590 15 1498 15C1401 15 1360 116 1360 360C1360 571 1397 654 1492 654Z" stroke="rgb(0,0,0)" stroke-opacity="1" stroke-width="8" fill="rgb(0,0,0)" fill-opacity="1"></path></g></g><g><g transform="matrix(1,0,0,1,173.95654296875,69.19021606445312)"><path transform="matrix(0.017,0,0,-0.017,0,0)" d="M604 241L604 300L364 300L364 538L305 538L305 300L65 300L65 241L305 241L305 0L364 0L364 241Z" stroke="rgb(0,0,0)" stroke-opacity="1" stroke-width="8" fill="rgb(0,0,0)" fill-opacity="1"></path></g></g><g><g transform="matrix(1,0,0,1,188.71197509765625,69.19021606445312)"><path transform="matrix(0.017,0,0,-0.017,0,0)" d="" stroke="rgb(0,0,0)" stroke-opacity="1" stroke-width="8" fill="rgb(0,0,0)" fill-opacity="1"></path></g></g><g><g transform="matrix(1,0,0,1,192.95111083984375,70.05978393554688)"><path transform="matrix(0.017,0,0,-0.017,0,0)" d="M146 266C146 526 243 632 301 700L282 726C225 675 60 542 60 266C60 159 85 58 133 -32C168 -99 200 -138 282 -215L301 -194C255 -137 146 -15 146 266Z" stroke="rgb(0,0,0)" stroke-opacity="1" stroke-width="8" fill="rgb(0,0,0)" fill-opacity="1"></path></g></g><g><g transform="matrix(1,0,0,1,198.603271484375,69.19021606445312)"><path transform="matrix(0.017,0,0,-0.017,0,0)" d="M265 23L265 -3C452 -3 452 0 488 0C524 0 524 -3 717 -3L717 82C602 77 556 81 371 77L553 270C650 373 680 428 680 503C680 618 602 689 475 689C403 689 354 669 305 619L288 483L317 483L330 529C346 587 382 612 449 612C535 612 590 558 590 473C590 398 548 324 435 204ZM1166 -3L1166 27L1114 30C1059 33 1049 44 1049 96L1049 700L808 598L815 548L965 614L965 96C965 44 954 33 900 30L844 27L844 -3C998 0 998 0 1009 0C1040 0 1150 -3 1166 -3ZM1371 111C1341 111 1314 83 1314 53C1314 23 1341 -5 1370 -5C1402 -5 1430 22 1430 53C1430 83 1402 111 1371 111ZM1627 331C1648 512 1737 611 1917 665L1875 689C1779 657 1738 637 1687 593C1584 506 1528 384 1528 247C1528 82 1608 -20 1737 -20C1867 -20 1964 83 1964 219C1964 334 1895 409 1789 409C1712 409 1680 370 1627 331ZM1751 349C1827 349 1878 283 1878 184C1878 80 1827 13 1750 13C1665 13 1619 86 1619 220C1619 255 1623 274 1634 291C1656 325 1703 349 1751 349ZM2412 267L2281 213L2276 204L2312 153L2322 153L2428 241L2446 99L2456 95L2524 121L2524 131L2456 253L2594 233L2603 241L2603 303L2597 307L2458 283L2527 408L2524 423L2462 442L2453 438L2427 295L2332 393L2322 393L2278 341L2281 331ZM3230 664L3233 692L3119 689C3103 689 3085 689 3042 690L2978 692L2975 664L3022 662C3046 661 3057 653 3057 635L2962 55C2958 37 2946 30 2902 23L2897 -3L2938 -2C2969 -1 3031 0 3051 0C3051 0 3348 -1 3348 -1C3348 -1 3381 0 3381 0C3380 25 3391 103 3404 165L3373 165L3356 103C3347 71 3338 54 3329 49C3316 44 3252 39 3185 39C3136 39 3109 40 3043 46C3046 64 3137 605 3137 613C3144 651 3151 658 3188 661ZM3764 111L3740 94C3687 56 3639 36 3603 36C3556 36 3527 73 3527 133C3527 158 3530 185 3535 214C3552 218 3661 248 3686 259C3771 296 3810 342 3810 404C3810 451 3776 482 3726 482C3658 496 3548 423 3511 349C3481 299 3451 180 3451 113C3451 35 3495 -11 3567 -11C3624 -11 3680 17 3772 92ZM3549 274C3566 343 3586 386 3615 412C3633 428 3664 440 3688 440C3717 440 3736 420 3736 388C3736 344 3701 297 3649 272C3621 258 3585 247 3540 237ZM4095 204L4066 77C4062 60 4060 42 4060 26C4060 4 4069 -9 4084 -9C4107 -9 4148 17 4230 85L4223 106C4199 86 4170 59 4148 59C4139 59 4133 68 4133 82C4133 87 4133 90 4134 93L4226 472L4216 481L4183 463C4142 478 4125 482 4098 482C4070 482 4050 477 4023 464C3961 433 3928 403 3903 354C3859 265 3828 145 3828 67C3828 23 3843 -11 3862 -11C3899 -11 3979 41 4095 204ZM4143 414C4121 305 4102 253 4068 201C4011 117 3950 59 3918 59C3906 59 3900 72 3900 99C3900 163 3928 280 3963 360C3987 415 4010 433 4058 433C4081 433 4099 429 4143 414ZM4291 388L4298 368L4330 389C4367 412 4370 414 4377 414C4388 414 4395 404 4395 389C4395 338 4354 145 4313 2L4320 -9C4345 -2 4368 4 4390 8C4409 134 4430 199 4476 268C4530 352 4605 414 4650 414C4661 414 4667 405 4667 390C4667 372 4664 351 4656 319L4604 107C4595 70 4591 47 4591 31C4591 6 4602 -9 4621 -9C4647 -9 4683 12 4781 85L4771 103L4745 86C4716 67 4694 56 4684 56C4677 56 4671 65 4671 76C4671 81 4672 92 4673 96L4739 372C4746 401 4750 429 4750 446C4750 469 4739 482 4719 482C4677 482 4608 444 4549 389C4511 354 4483 320 4431 247L4469 408C4473 426 4475 438 4475 449C4475 470 4467 482 4452 482C4431 482 4392 460 4319 408ZM5614 227C5614 337 5530 353 5448 365C5505 385 5530 397 5561 425C5607 464 5630 511 5630 562C5630 644 5572 692 5472 692C5470 692 5460 692 5445 691L5382 690C5370 689 5334 689 5322 689C5303 689 5272 690 5223 691L5171 692L5168 664L5221 662C5245 661 5256 653 5256 635C5256 621 5252 589 5247 559L5160 55C5156 37 5144 30 5102 23L5097 -3L5134 -2C5161 0 5176 0 5188 0C5199 0 5225 -1 5251 -2L5288 -3L5308 -4C5327 -5 5340 -6 5348 -6C5463 -6 5614 87 5614 227ZM5237 41L5288 340L5373 340C5476 340 5526 298 5526 211C5526 108 5453 34 5353 34C5299 34 5278 38 5237 41ZM5423 655C5504 655 5544 619 5544 544C5544 439 5470 376 5346 376L5294 376L5343 650C5359 650 5400 655 5423 655ZM5698 152C5698 46 5743 -11 5826 -11C5881 -11 5941 15 5986 57C6048 116 6092 230 6092 331C6092 425 6042 482 5959 482C5855 482 5698 382 5698 152ZM5922 444C5983 444 6016 399 6016 315C6016 219 5985 113 5941 60C5923 39 5897 27 5866 27C5808 27 5774 72 5774 151C5774 264 5813 387 5862 427C5875 438 5898 444 5922 444ZM6607 722L6595 733C6543 707 6507 698 6435 691L6431 670L6479 670C6503 670 6513 663 6513 646C6513 638 6512 629 6511 622L6483 468C6453 477 6426 482 6401 482C6332 482 6238 410 6192 323C6161 265 6141 170 6141 86C6141 21 6156 -11 6185 -11C6212 -11 6249 6 6283 33C6337 77 6370 116 6437 217L6414 126C6403 82 6398 50 6398 24C6398 3 6407 -9 6424 -9C6441 -9 6465 3 6499 28L6580 88L6570 107L6526 76C6512 66 6496 59 6487 59C6479 59 6473 68 6473 82C6473 90 6474 99 6481 128ZM6238 59C6222 59 6213 73 6213 98C6213 224 6259 380 6308 418C6321 428 6340 433 6367 433C6411 433 6440 427 6473 410L6461 351C6424 171 6283 59 6238 59ZM6616 -180C6615 -187 6615 -193 6615 -198C6615 -241 6652 -276 6697 -276C6803 -276 6913 -152 6972 33L7113 473L7102 482C7073 471 7050 465 7028 463L6993 331C6981 284 6946 211 6913 162C6878 111 6829 67 6807 67C6795 67 6786 90 6787 115L6803 322C6805 353 6807 391 6807 419C6807 464 6800 482 6783 482C6770 482 6756 475 6708 442L6626 386L6637 368L6687 398C6692 401 6703 410 6712 410C6726 410 6734 391 6734 358C6734 357 6734 351 6733 343L6716 100L6715 60C6715 18 6733 -11 6758 -11C6795 -11 6879 74 6954 187L6905 16C6854 -161 6804 -234 6734 -234C6699 -234 6672 -207 6672 -172C6672 -167 6673 -159 6674 -150L6664 -146ZM8308 664L8321 695C8293 699 8146 701 8144 692L8059 536L7813 114L7663 692C7640 686 7517 690 7496 692L7493 664L7519 662C7571 658 7589 648 7589 622C7589 616 7443 100 7441 93C7425 41 7410 28 7355 23L7352 -3L7391 -2C7425 -1 7450 0 7464 0C7478 0 7504 -1 7539 -2L7574 -3L7577 25L7539 28C7507 30 7490 40 7490 55C7490 65 7492 78 7497 96L7621 560L7770 -18L7793 -18L7850 86L8089 500L8141 587L8104 67C8100 39 8088 32 8037 28L8006 25L8003 -3L8050 -2C8092 -1 8122 0 8137 0C8153 0 8183 -1 8224 -2L8270 -3L8273 25L8236 28C8200 31 8182 42 8182 63L8183 100L8224 631C8226 650 8241 660 8270 662ZM8595 204L8566 77C8562 60 8560 42 8560 26C8560 4 8569 -9 8584 -9C8607 -9 8648 17 8730 85L8723 106C8699 86 8670 59 8648 59C8639 59 8633 68 8633 82C8633 87 8633 90 8634 93L8726 472L8716 481L8683 463C8642 478 8625 482 8598 482C8570 482 8550 477 8523 464C8461 433 8428 403 8403 354C8359 265 8328 145 8328 67C8328 23 8343 -11 8362 -11C8399 -11 8479 41 8595 204ZM8643 414C8621 305 8602 253 8568 201C8511 117 8450 59 8418 59C8406 59 8400 72 8400 99C8400 163 8428 280 8463 360C8487 415 8510 433 8558 433C8581 433 8599 429 8643 414ZM8798 148C8793 97 8787 62 8776 16C8814 -2 8848 -11 8883 -11C8932 -11 8978 7 9029 47C9080 87 9101 124 9101 174C9101 228 9069 257 8995 271L8952 279C8892 290 8873 307 8873 348C8873 401 8918 442 8975 442C9016 442 9054 424 9070 397L9070 342L9093 342C9097 377 9101 404 9112 455C9073 474 9045 482 9012 482C8960 482 8899 452 8851 404C8825 377 8814 352 8814 316C8814 260 8845 228 8911 215L8974 203C9018 195 9034 177 9034 138C9034 73 8988 29 8917 29C8882 29 8851 40 8823 64L8823 148ZM9186 148C9181 97 9175 62 9164 16C9202 -2 9236 -11 9271 -11C9320 -11 9366 7 9417 47C9468 87 9489 124 9489 174C9489 228 9457 257 9383 271L9340 279C9280 290 9261 307 9261 348C9261 401 9306 442 9363 442C9404 442 9442 424 9458 397L9458 342L9481 342C9485 377 9489 404 9500 455C9461 474 9433 482 9400 482C9348 482 9287 452 9239 404C9213 377 9202 352 9202 316C9202 260 9233 228 9299 215L9362 203C9406 195 9422 177 9422 138C9422 73 9376 29 9305 29C9270 29 9239 40 9211 64L9211 148ZM9826 388L9833 368L9865 389C9902 412 9905 414 9912 414C9922 414 9930 404 9930 391C9930 384 9926 361 9922 347L9856 107C9848 76 9843 49 9843 30C9843 6 9854 -9 9873 -9C9899 -9 9935 12 10033 85L10023 103L9997 86C9968 67 9945 56 9936 56C9929 56 9923 66 9923 76C9923 86 9925 95 9930 116L10007 420C10011 437 10013 448 10013 456C10013 473 10004 482 9988 482C9966 482 9929 461 9854 408ZM10020 712C9991 712 9962 679 9962 645C9962 620 9977 604 10001 604C10032 604 10056 633 10056 671C10056 695 10041 712 10020 712ZM10093 388L10100 368L10132 389C10169 412 10172 414 10179 414C10190 414 10197 404 10197 389C10197 338 10156 145 10115 2L10122 -9C10147 -2 10170 4 10192 8C10211 134 10232 199 10278 268C10332 352 10407 414 10452 414C10463 414 10469 405 10469 390C10469 372 10466 351 10458 319L10406 107C10397 70 10393 47 10393 31C10393 6 10404 -9 10423 -9C10449 -9 10485 12 10583 85L10573 103L10547 86C10518 67 10496 56 10486 56C10479 56 10473 65 10473 76C10473 81 10474 92 10475 96L10541 372C10548 401 10552 429 10552 446C10552 469 10541 482 10521 482C10479 482 10410 444 10351 389C10313 354 10285 320 10233 247L10271 408C10275 426 10277 438 10277 449C10277 470 10269 482 10254 482C10233 482 10194 460 10121 408ZM11113 722L11101 733C11049 707 11013 698 10941 691L10937 670L10985 670C11009 670 11019 663 11019 646C11019 638 11018 629 11017 622L10969 354C10955 279 10939 210 10887 1L10896 -9L10963 8L10986 132C10995 180 11019 225 11053 259C11122 59 11154 -9 11179 -9C11192 -9 11216 4 11260 35L11306 67L11298 86L11255 62C11241 54 11234 52 11226 52C11216 52 11209 58 11200 75C11165 139 11143 193 11104 316L11118 330C11179 391 11225 416 11275 416C11283 416 11294 414 11311 410L11328 473C11310 479 11292 482 11280 482C11214 482 11131 405 11006 230ZM11616 482C11549 482 11396 419 11396 259C11396 182 11441 136 11518 136C11526 136 11537 136 11548 137L11507 99C11491 84 11480 66 11480 52C11480 42 11487 31 11501 19C11432 -4 11304 -48 11304 -159C11304 -230 11374 -276 11483 -276C11612 -276 11725 -204 11725 -121C11725 -85 11704 -49 11661 -14L11601 35C11567 62 11554 81 11554 100C11554 114 11569 128 11581 146C11679 170 11750 253 11750 342C11750 357 11747 376 11746 380C11763 378 11771 378 11780 378C11797 378 11807 379 11830 382L11839 427L11836 433C11808 426 11788 424 11734 424C11734 425 11710 482 11616 482ZM11517 1L11594 -58C11640 -94 11659 -121 11659 -154C11659 -206 11590 -248 11507 -248C11425 -248 11368 -206 11368 -145C11368 -43 11478 -11 11517 1ZM11591 448C11649 448 11678 412 11678 341C11678 238 11630 168 11560 168C11499 168 11467 209 11467 288C11467 383 11518 448 11591 448Z" stroke="rgb(0,0,0)" stroke-opacity="1" stroke-width="8" fill="rgb(0,0,0)" fill-opacity="1"></path></g></g><g><g transform="matrix(1,0,0,1,404.0244140625,70.05978393554688)"><path transform="matrix(0.017,0,0,-0.017,0,0)" d="M51 726L32 700C87 636 187 526 187 266C187 -10 83 -131 32 -194L51 -215C104 -165 273 -23 273 265C273 542 108 675 51 726Z" stroke="rgb(0,0,0)" stroke-opacity="1" stroke-width="8" fill="rgb(0,0,0)" fill-opacity="1"></path></g></g></g></g></svg>