<svg xmlns="http://www.w3.org/2000/svg" xmlns:xlink="http://www.w3.org/1999/xlink" width="308.8913269042969" height="226.81251525878906" style="width:308.8913269042969px;height:226.81251525878906px;font-family:Asana-Math, Asana;background:#FFF;"><g><g><g><g transform="matrix(1,0,0,1,19.459228515625,19.86956787109375)"><path transform="matrix(0.017,0,0,-0.017,0,0)" d="" stroke="rgb(0,0,0)" stroke-opacity="1" stroke-width="8" fill="rgb(0,0,0)" fill-opacity="1"></path></g></g></g></g><g><g><g><g transform="matrix(1,0,0,1,28.79345703125,19.86956787109375)"><path transform="matrix(0.017,0,0,-0.017,0,0)" d="M937 664L950 695C922 699 775 701 773 692L688 536L442 114L292 692C269 686 146 690 125 692L122 664L148 662C200 658 218 648 218 622C218 616 72 100 70 93C54 41 39 28 -16 23L-19 -3L20 -2C54 -1 79 0 93 0C107 0 133 -1 168 -2L203 -3L206 25L168 28C136 30 119 40 119 55C119 65 121 78 126 96L250 560L399 -18L422 -18L479 86L718 500L770 587L733 67C729 39 717 32 666 28L635 25L632 -3L679 -2C721 -1 751 0 766 0C782 0 812 -1 853 -2L899 -3L902 25L865 28C829 31 811 42 811 63L812 100L853 631C855 650 870 660 899 662ZM1281 111L1257 94C1204 56 1156 36 1120 36C1073 36 1044 73 1044 133C1044 158 1047 185 1052 214C1069 218 1178 248 1203 259C1288 296 1327 342 1327 404C1327 451 1293 482 1243 482C1175 496 1065 423 1028 349C998 299 968 180 968 113C968 35 1012 -11 1084 -11C1141 -11 1197 17 1289 92ZM1066 274C1083 343 1103 386 1132 412C1150 428 1181 440 1205 440C1234 440 1253 420 1253 388C1253 344 1218 297 1166 272C1138 258 1102 247 1057 237ZM1365 388L1372 368L1404 389C1441 412 1444 414 1451 414C1462 414 1469 404 1469 389C1469 338 1428 145 1387 2L1394 -9C1419 -2 1442 4 1464 8C1483 134 1504 199 1550 268C1604 352 1679 414 1724 414C1735 414 1741 405 1741 390C1741 372 1738 351 1730 319L1678 107C1669 70 1665 47 1665 31C1665 6 1676 -9 1695 -9C1721 -9 1757 12 1855 85L1845 103L1819 86C1790 67 1768 56 1758 56C1751 56 1745 65 1745 76C1745 81 1746 92 1747 96L1813 372C1820 401 1824 429 1824 446C1824 469 1813 482 1793 482C1751 482 1682 444 1623 389C1585 354 1557 320 1505 247L1543 408C1547 426 1549 438 1549 449C1549 470 1541 482 1526 482C1505 482 1466 460 1393 408Z" stroke="rgb(0,0,0)" stroke-opacity="1" stroke-width="8" fill="rgb(0,0,0)" fill-opacity="1"></path></g></g></g></g><g><g></g></g><g><g><g><g transform="matrix(1,0,0,1,28.79345703125,44.5299072265625)"><path transform="matrix(0.017,0,0,-0.017,0,0)" d="M271 204L242 77C238 60 236 42 236 26C236 4 245 -9 260 -9C283 -9 324 17 406 85L399 106C375 86 346 59 324 59C315 59 309 68 309 82C309 87 309 90 310 93L402 472L392 481L359 463C318 478 301 482 274 482C246 482 226 477 199 464C137 433 104 403 79 354C35 265 4 145 4 67C4 23 19 -11 38 -11C75 -11 155 41 271 204ZM319 414C297 305 278 253 244 201C187 117 126 59 94 59C82 59 76 72 76 99C76 163 104 280 139 360C163 415 186 433 234 433C257 433 275 429 319 414ZM718 482C651 482 498 419 498 259C498 182 543 136 620 136C628 136 639 136 650 137L609 99C593 84 582 66 582 52C582 42 589 31 603 19C534 -4 406 -48 406 -159C406 -230 476 -276 585 -276C714 -276 827 -204 827 -121C827 -85 806 -49 763 -14L703 35C669 62 656 81 656 100C656 114 671 128 683 146C781 170 852 253 852 342C852 357 849 376 848 380C865 378 873 378 882 378C899 378 909 379 932 382L941 427L938 433C910 426 890 424 836 424C836 425 812 482 718 482ZM619 1L696 -58C742 -94 761 -121 761 -154C761 -206 692 -248 609 -248C527 -248 470 -206 470 -145C470 -43 580 -11 619 1ZM693 448C751 448 780 412 780 341C780 238 732 168 662 168C601 168 569 209 569 288C569 383 620 448 693 448ZM1270 111L1246 94C1193 56 1145 36 1109 36C1062 36 1033 73 1033 133C1033 158 1036 185 1041 214C1058 218 1167 248 1192 259C1277 296 1316 342 1316 404C1316 451 1282 482 1232 482C1164 496 1054 423 1017 349C987 299 957 180 957 113C957 35 1001 -11 1073 -11C1130 -11 1186 17 1278 92ZM1055 274C1072 343 1092 386 1121 412C1139 428 1170 440 1194 440C1223 440 1242 420 1242 388C1242 344 1207 297 1155 272C1127 258 1091 247 1046 237ZM1613 388L1620 368L1652 389C1689 412 1692 414 1699 414C1709 414 1717 404 1717 391C1717 384 1713 361 1709 347L1643 107C1635 76 1630 49 1630 30C1630 6 1641 -9 1660 -9C1686 -9 1722 12 1820 85L1810 103L1784 86C1755 67 1732 56 1723 56C1716 56 1710 66 1710 76C1710 86 1712 95 1717 116L1794 420C1798 437 1800 448 1800 456C1800 473 1791 482 1775 482C1753 482 1716 461 1641 408ZM1807 712C1778 712 1749 679 1749 645C1749 620 1764 604 1788 604C1819 604 1843 633 1843 671C1843 695 1828 712 1807 712ZM1880 388L1887 368L1919 389C1956 412 1959 414 1966 414C1977 414 1984 404 1984 389C1984 338 1943 145 1902 2L1909 -9C1934 -2 1957 4 1979 8C1998 134 2019 199 2065 268C2119 352 2194 414 2239 414C2250 414 2256 405 2256 390C2256 372 2253 351 2245 319L2193 107C2184 70 2180 47 2180 31C2180 6 2191 -9 2210 -9C2236 -9 2272 12 2370 85L2360 103L2334 86C2305 67 2283 56 2273 56C2266 56 2260 65 2260 76C2260 81 2261 92 2262 96L2328 372C2335 401 2339 429 2339 446C2339 469 2328 482 2308 482C2266 482 2197 444 2138 389C2100 354 2072 320 2020 247L2058 408C2062 426 2064 438 2064 449C2064 470 2056 482 2041 482C2020 482 1981 460 1908 408ZM2676 23L2676 -3C2863 -3 2863 0 2899 0C2935 0 2935 -3 3128 -3L3128 82C3013 77 2967 81 2782 77L2964 270C3061 373 3091 428 3091 503C3091 618 3013 689 2886 689C2814 689 2765 669 2716 619L2699 483L2728 483L2741 529C2757 587 2793 612 2860 612C2946 612 3001 558 3001 473C3001 398 2959 324 2846 204ZM3422 689C3267 689 3188 566 3188 324C3188 207 3209 106 3244 57C3279 8 3335 -20 3397 -20C3548 -20 3624 110 3624 366C3624 585 3559 689 3422 689ZM3404 654C3501 654 3540 556 3540 316C3540 103 3502 15 3410 15C3313 15 3272 116 3272 360C3272 571 3309 654 3404 654ZM4097 329C4046 329 4007 296 3958 209L3992 182C4032 250 4058 272 4098 272C4156 272 4258 201 4324 201C4375 201 4419 236 4462 314L4428 341C4397 286 4360 257 4323 257C4272 257 4170 329 4097 329ZM4777 23L4777 -3C4964 -3 4964 0 5000 0C5036 0 5036 -3 5229 -3L5229 82C5114 77 5068 81 4883 77L5065 270C5162 373 5192 428 5192 503C5192 618 5114 689 4987 689C4915 689 4866 669 4817 619L4800 483L4829 483L4842 529C4858 587 4894 612 4961 612C5047 612 5102 558 5102 473C5102 398 5060 324 4947 204ZM5356 -20C5467 16 5515 39 5569 85C5666 168 5717 283 5717 417C5717 586 5636 689 5504 689C5376 689 5280 589 5280 455C5280 340 5355 256 5459 256C5493 256 5532 267 5550 282L5620 340C5612 172 5503 49 5322 5L5322 -3ZM5500 656C5545 656 5578 637 5600 597C5618 565 5630 516 5630 471C5630 379 5577 317 5500 317C5420 317 5366 388 5366 492C5366 593 5418 656 5500 656Z" stroke="rgb(0,0,0)" stroke-opacity="1" stroke-width="8" fill="rgb(0,0,0)" fill-opacity="1"></path></g></g><g><g transform="matrix(1,0,0,1,135.98095703125,44.5299072265625)"><path transform="matrix(0.017,0,0,-0.017,0,0)" d="M604 347L604 406L65 406L65 347ZM604 134L604 193L65 193L65 134Z" stroke="rgb(0,0,0)" stroke-opacity="1" stroke-width="8" fill="rgb(0,0,0)" fill-opacity="1"></path></g></g><g><g transform="matrix(1,0,0,1,152.43475341796875,44.5299072265625)"><path transform="matrix(0.017,0,0,-0.017,0,0)" d="M667 -3L667 27L615 30C560 33 550 44 550 96L550 700L309 598L316 548L466 614L466 96C466 44 455 33 401 30L345 27L345 -3C499 0 499 0 510 0C541 0 651 -3 667 -3ZM1157 603L795 -1L905 -1L1245 659L1245 689L792 689L792 477L822 477L829 533C837 595 844 603 890 603ZM1263 23L1263 -3C1450 -3 1450 0 1486 0C1522 0 1522 -3 1715 -3L1715 82C1600 77 1554 81 1369 77L1551 270C1648 373 1678 428 1678 503C1678 618 1600 689 1473 689C1401 689 1352 669 1303 619L1286 483L1315 483L1328 529C1344 587 1380 612 1447 612C1533 612 1588 558 1588 473C1588 398 1546 324 1433 204ZM1914 345C1873 326 1856 315 1834 294C1796 256 1776 211 1776 159C1776 56 1859 -20 1972 -20C2102 -20 2210 82 2210 206C2210 286 2173 329 2059 381C2150 443 2182 485 2182 545C2182 631 2111 689 2005 689C1886 689 1799 613 1799 508C1799 440 1826 402 1914 345ZM2030 295C2093 267 2131 218 2131 164C2131 80 2068 14 1987 14C1902 14 1847 74 1847 167C1847 240 1876 286 1950 331ZM1969 423C1906 454 1874 494 1874 544C1874 610 1922 655 1993 655C2066 655 2114 607 2114 534C2114 477 2089 438 2024 396Z" stroke="rgb(0,0,0)" stroke-opacity="1" stroke-width="8" fill="rgb(0,0,0)" fill-opacity="1"></path></g></g><g><g transform="matrix(1,0,0,1,198.209228515625,44.5299072265625)"><path transform="matrix(0.017,0,0,-0.017,0,0)" d="M604 279L604 338L364 338L364 541L305 541L305 338L65 338L65 279L305 279L305 87L364 87L364 279ZM604 0L604 55L65 55L65 0Z" stroke="rgb(0,0,0)" stroke-opacity="1" stroke-width="8" fill="rgb(0,0,0)" fill-opacity="1"></path></g></g><g><g transform="matrix(1,0,0,1,212.96466064453125,44.5299072265625)"><path transform="matrix(0.017,0,0,-0.017,0,0)" d="M711 224C711 345 604 366 557 374C637 436 667 482 667 541C667 630 593 689 482 689C414 689 369 670 321 622L292 498L323 498L341 554C352 588 415 622 467 622C532 622 585 569 585 506C585 431 526 368 455 368C447 368 436 369 423 370L408 371L396 318L403 312C441 329 460 334 487 334C570 334 618 281 618 190C618 88 557 21 464 21C418 21 377 36 347 64C323 86 310 109 291 163L264 153C285 92 293 56 299 6C352 -12 396 -20 433 -20C556 -20 711 87 711 224ZM879 331C900 512 989 611 1169 665L1127 689C1031 657 990 637 939 593C836 506 780 384 780 247C780 82 860 -20 989 -20C1119 -20 1216 83 1216 219C1216 334 1147 409 1041 409C964 409 932 370 879 331ZM1003 349C1079 349 1130 283 1130 184C1130 80 1079 13 1002 13C917 13 871 86 871 220C871 255 875 274 886 291C908 325 955 349 1003 349ZM1415 345C1374 326 1357 315 1335 294C1297 256 1277 211 1277 159C1277 56 1360 -20 1473 -20C1603 -20 1711 82 1711 206C1711 286 1674 329 1560 381C1651 443 1683 485 1683 545C1683 631 1612 689 1506 689C1387 689 1300 613 1300 508C1300 440 1327 402 1415 345ZM1531 295C1594 267 1632 218 1632 164C1632 80 1569 14 1488 14C1403 14 1348 74 1348 167C1348 240 1377 286 1451 331ZM1470 423C1407 454 1375 494 1375 544C1375 610 1423 655 1494 655C1567 655 1615 607 1615 534C1615 477 1590 438 1525 396ZM1870 111C1840 111 1813 83 1813 53C1813 23 1840 -5 1869 -5C1901 -5 1929 22 1929 53C1929 83 1901 111 1870 111ZM2011 23L2011 -3C2198 -3 2198 0 2234 0C2270 0 2270 -3 2463 -3L2463 82C2348 77 2302 81 2117 77L2299 270C2396 373 2426 428 2426 503C2426 618 2348 689 2221 689C2149 689 2100 669 2051 619L2034 483L2063 483L2076 529C2092 587 2128 612 2195 612C2281 612 2336 558 2336 473C2336 398 2294 324 2181 204Z" stroke="rgb(0,0,0)" stroke-opacity="1" stroke-width="8" fill="rgb(0,0,0)" fill-opacity="1"></path></g></g><g><g transform="matrix(1,0,0,1,255.3424072265625,45.39947509765625)"><path transform="matrix(0.017,0,0,-0.017,0,0)" d="M146 266C146 526 243 632 301 700L282 726C225 675 60 542 60 266C60 159 85 58 133 -32C168 -99 200 -138 282 -215L301 -194C255 -137 146 -15 146 266Z" stroke="rgb(0,0,0)" stroke-opacity="1" stroke-width="8" fill="rgb(0,0,0)" fill-opacity="1"></path></g></g><g><g transform="matrix(1,0,0,1,260.9945068359375,44.5299072265625)"><path transform="matrix(0.017,0,0,-0.017,0,0)" d="M240 722L228 733C176 707 140 698 68 691L64 670L112 670C136 670 146 663 146 646C146 638 145 629 144 622L96 354C82 279 66 210 14 1L23 -9L90 8L113 132C122 180 146 225 180 259C249 59 281 -9 306 -9C319 -9 343 4 387 35L433 67L425 86L382 62C368 54 361 52 353 52C343 52 336 58 327 75C292 139 270 193 231 316L245 330C306 391 352 416 402 416C410 416 421 414 438 410L455 473C437 479 419 482 407 482C341 482 258 405 133 230ZM810 330L833 330C841 395 848 432 857 458C833 473 798 482 761 482C716 483 643 463 586 400C532 352 493 241 493 136C493 40 535 -11 615 -11C669 -11 717 9 772 54L822 95L814 115L799 105C727 57 689 40 654 40C598 40 569 80 569 159C569 267 604 371 653 409C674 425 698 433 729 433C774 433 810 414 810 390ZM1145 204L1116 77C1112 60 1110 42 1110 26C1110 4 1119 -9 1134 -9C1157 -9 1198 17 1280 85L1273 106C1249 86 1220 59 1198 59C1189 59 1183 68 1183 82C1183 87 1183 90 1184 93L1276 472L1266 481L1233 463C1192 478 1175 482 1148 482C1120 482 1100 477 1073 464C1011 433 978 403 953 354C909 265 878 145 878 67C878 23 893 -11 912 -11C949 -11 1029 41 1145 204ZM1193 414C1171 305 1152 253 1118 201C1061 117 1000 59 968 59C956 59 950 72 950 99C950 163 978 280 1013 360C1037 415 1060 433 1108 433C1131 433 1149 429 1193 414ZM1568 722L1556 733C1504 707 1468 698 1396 691L1392 670L1440 670C1464 670 1474 663 1474 648C1474 645 1474 640 1471 622C1460 567 1387 182 1372 132C1359 82 1353 52 1353 31C1353 6 1364 -9 1383 -9C1409 -9 1445 12 1543 85L1533 103L1507 86C1478 67 1456 56 1446 56C1439 56 1433 66 1433 76C1433 82 1434 89 1437 104Z" stroke="rgb(0,0,0)" stroke-opacity="1" stroke-width="8" fill="rgb(0,0,0)" fill-opacity="1"></path></g></g><g><g transform="matrix(1,0,0,1,288.0869140625,45.39947509765625)"><path transform="matrix(0.017,0,0,-0.017,0,0)" d="M51 726L32 700C87 636 187 526 187 266C187 -10 83 -131 32 -194L51 -215C104 -165 273 -23 273 265C273 542 108 675 51 726Z" stroke="rgb(0,0,0)" stroke-opacity="1" stroke-width="8" fill="rgb(0,0,0)" fill-opacity="1"></path></g></g></g></g><g><g></g></g><g><g><g><g transform="matrix(1,0,0,1,28.79345703125,69.19021606445312)"><path transform="matrix(0.017,0,0,-0.017,0,0)" d="M271 204L242 77C238 60 236 42 236 26C236 4 245 -9 260 -9C283 -9 324 17 406 85L399 106C375 86 346 59 324 59C315 59 309 68 309 82C309 87 309 90 310 93L402 472L392 481L359 463C318 478 301 482 274 482C246 482 226 477 199 464C137 433 104 403 79 354C35 265 4 145 4 67C4 23 19 -11 38 -11C75 -11 155 41 271 204ZM319 414C297 305 278 253 244 201C187 117 126 59 94 59C82 59 76 72 76 99C76 163 104 280 139 360C163 415 186 433 234 433C257 433 275 429 319 414ZM718 482C651 482 498 419 498 259C498 182 543 136 620 136C628 136 639 136 650 137L609 99C593 84 582 66 582 52C582 42 589 31 603 19C534 -4 406 -48 406 -159C406 -230 476 -276 585 -276C714 -276 827 -204 827 -121C827 -85 806 -49 763 -14L703 35C669 62 656 81 656 100C656 114 671 128 683 146C781 170 852 253 852 342C852 357 849 376 848 380C865 378 873 378 882 378C899 378 909 379 932 382L941 427L938 433C910 426 890 424 836 424C836 425 812 482 718 482ZM619 1L696 -58C742 -94 761 -121 761 -154C761 -206 692 -248 609 -248C527 -248 470 -206 470 -145C470 -43 580 -11 619 1ZM693 448C751 448 780 412 780 341C780 238 732 168 662 168C601 168 569 209 569 288C569 383 620 448 693 448ZM1270 111L1246 94C1193 56 1145 36 1109 36C1062 36 1033 73 1033 133C1033 158 1036 185 1041 214C1058 218 1167 248 1192 259C1277 296 1316 342 1316 404C1316 451 1282 482 1232 482C1164 496 1054 423 1017 349C987 299 957 180 957 113C957 35 1001 -11 1073 -11C1130 -11 1186 17 1278 92ZM1055 274C1072 343 1092 386 1121 412C1139 428 1170 440 1194 440C1223 440 1242 420 1242 388C1242 344 1207 297 1155 272C1127 258 1091 247 1046 237ZM1613 388L1620 368L1652 389C1689 412 1692 414 1699 414C1709 414 1717 404 1717 391C1717 384 1713 361 1709 347L1643 107C1635 76 1630 49 1630 30C1630 6 1641 -9 1660 -9C1686 -9 1722 12 1820 85L1810 103L1784 86C1755 67 1732 56 1723 56C1716 56 1710 66 1710 76C1710 86 1712 95 1717 116L1794 420C1798 437 1800 448 1800 456C1800 473 1791 482 1775 482C1753 482 1716 461 1641 408ZM1807 712C1778 712 1749 679 1749 645C1749 620 1764 604 1788 604C1819 604 1843 633 1843 671C1843 695 1828 712 1807 712ZM1880 388L1887 368L1919 389C1956 412 1959 414 1966 414C1977 414 1984 404 1984 389C1984 338 1943 145 1902 2L1909 -9C1934 -2 1957 4 1979 8C1998 134 2019 199 2065 268C2119 352 2194 414 2239 414C2250 414 2256 405 2256 390C2256 372 2253 351 2245 319L2193 107C2184 70 2180 47 2180 31C2180 6 2191 -9 2210 -9C2236 -9 2272 12 2370 85L2360 103L2334 86C2305 67 2283 56 2273 56C2266 56 2260 65 2260 76C2260 81 2261 92 2262 96L2328 372C2335 401 2339 429 2339 446C2339 469 2328 482 2308 482C2266 482 2197 444 2138 389C2100 354 2072 320 2020 247L2058 408C2062 426 2064 438 2064 449C2064 470 2056 482 2041 482C2020 482 1981 460 1908 408ZM3122 224C3122 345 3015 366 2968 374C3048 436 3078 482 3078 541C3078 630 3004 689 2893 689C2825 689 2780 670 2732 622L2703 498L2734 498L2752 554C2763 588 2826 622 2878 622C2943 622 2996 569 2996 506C2996 431 2937 368 2866 368C2858 368 2847 369 2834 370L2819 371L2807 318L2814 312C2852 329 2871 334 2898 334C2981 334 3029 281 3029 190C3029 88 2968 21 2875 21C2829 21 2788 36 2758 64C2734 86 2721 109 2702 163L2675 153C2696 92 2704 56 2710 6C2763 -12 2807 -20 2844 -20C2967 -20 3122 87 3122 224ZM3422 689C3267 689 3188 566 3188 324C3188 207 3209 106 3244 57C3279 8 3335 -20 3397 -20C3548 -20 3624 110 3624 366C3624 585 3559 689 3422 689ZM3404 654C3501 654 3540 556 3540 316C3540 103 3502 15 3410 15C3313 15 3272 116 3272 360C3272 571 3309 654 3404 654ZM4097 329C4046 329 4007 296 3958 209L3992 182C4032 250 4058 272 4098 272C4156 272 4258 201 4324 201C4375 201 4419 236 4462 314L4428 341C4397 286 4360 257 4323 257C4272 257 4170 329 4097 329ZM5041 181L5041 106C5041 46 5030 32 4981 30L4919 27L4919 -3C5052 0 5052 0 5076 0C5100 0 5100 0 5233 -3L5233 27L5185 30C5136 33 5125 46 5125 106L5125 181C5184 181 5205 180 5233 177L5233 248L5125 245L5126 697L5046 667L4763 204L4763 181ZM5041 245L4826 245L5041 597ZM5356 -20C5467 16 5515 39 5569 85C5666 168 5717 283 5717 417C5717 586 5636 689 5504 689C5376 689 5280 589 5280 455C5280 340 5355 256 5459 256C5493 256 5532 267 5550 282L5620 340C5612 172 5503 49 5322 5L5322 -3ZM5500 656C5545 656 5578 637 5600 597C5618 565 5630 516 5630 471C5630 379 5577 317 5500 317C5420 317 5366 388 5366 492C5366 593 5418 656 5500 656Z" stroke="rgb(0,0,0)" stroke-opacity="1" stroke-width="8" fill="rgb(0,0,0)" fill-opacity="1"></path></g></g><g><g transform="matrix(1,0,0,1,135.98095703125,69.19021606445312)"><path transform="matrix(0.017,0,0,-0.017,0,0)" d="M604 347L604 406L65 406L65 347ZM604 134L604 193L65 193L65 134Z" stroke="rgb(0,0,0)" stroke-opacity="1" stroke-width="8" fill="rgb(0,0,0)" fill-opacity="1"></path></g></g><g><g transform="matrix(1,0,0,1,152.43475341796875,69.19021606445312)"><path transform="matrix(0.017,0,0,-0.017,0,0)" d="M667 -3L667 27L615 30C560 33 550 44 550 96L550 700L309 598L316 548L466 614L466 96C466 44 455 33 401 30L345 27L345 -3C499 0 499 0 510 0C541 0 651 -3 667 -3ZM879 331C900 512 989 611 1169 665L1127 689C1031 657 990 637 939 593C836 506 780 384 780 247C780 82 860 -20 989 -20C1119 -20 1216 83 1216 219C1216 334 1147 409 1041 409C964 409 932 370 879 331ZM1003 349C1079 349 1130 283 1130 184C1130 80 1079 13 1002 13C917 13 871 86 871 220C871 255 875 274 886 291C908 325 955 349 1003 349ZM1378 331C1399 512 1488 611 1668 665L1626 689C1530 657 1489 637 1438 593C1335 506 1279 384 1279 247C1279 82 1359 -20 1488 -20C1618 -20 1715 83 1715 219C1715 334 1646 409 1540 409C1463 409 1431 370 1378 331ZM1502 349C1578 349 1629 283 1629 184C1629 80 1578 13 1501 13C1416 13 1370 86 1370 220C1370 255 1374 274 1385 291C1407 325 1454 349 1502 349ZM1842 -20C1953 16 2001 39 2055 85C2152 168 2203 283 2203 417C2203 586 2122 689 1990 689C1862 689 1766 589 1766 455C1766 340 1841 256 1945 256C1979 256 2018 267 2036 282L2106 340C2098 172 1989 49 1808 5L1808 -3ZM1986 656C2031 656 2064 637 2086 597C2104 565 2116 516 2116 471C2116 379 2063 317 1986 317C1906 317 1852 388 1852 492C1852 593 1904 656 1986 656ZM2369 111C2339 111 2312 83 2312 53C2312 23 2339 -5 2368 -5C2400 -5 2428 22 2428 53C2428 83 2400 111 2369 111ZM2953 253C2953 366 2872 446 2758 446C2710 446 2674 443 2621 396L2621 605L2926 604L2926 689L2569 690L2569 322L2589 316C2636 363 2663 377 2712 377C2808 377 2868 309 2868 201C2868 90 2804 25 2695 25C2641 25 2591 43 2577 69L2531 151L2507 137C2530 80 2542 48 2556 4C2584 -11 2624 -20 2667 -20C2795 -20 2953 89 2953 253Z" stroke="rgb(0,0,0)" stroke-opacity="1" stroke-width="8" fill="rgb(0,0,0)" fill-opacity="1"></path></g></g><g><g transform="matrix(1,0,0,1,210.9266357421875,69.19021606445312)"><path transform="matrix(0.017,0,0,-0.017,0,0)" d="M604 279L604 338L364 338L364 541L305 541L305 338L65 338L65 279L305 279L305 87L364 87L364 279ZM604 0L604 55L65 55L65 0Z" stroke="rgb(0,0,0)" stroke-opacity="1" stroke-width="8" fill="rgb(0,0,0)" fill-opacity="1"></path></g></g><g><g transform="matrix(1,0,0,1,225.68206787109375,69.19021606445312)"><path transform="matrix(0.017,0,0,-0.017,0,0)" d="M711 224C711 345 604 366 557 374C637 436 667 482 667 541C667 630 593 689 482 689C414 689 369 670 321 622L292 498L323 498L341 554C352 588 415 622 467 622C532 622 585 569 585 506C585 431 526 368 455 368C447 368 436 369 423 370L408 371L396 318L403 312C441 329 460 334 487 334C570 334 618 281 618 190C618 88 557 21 464 21C418 21 377 36 347 64C323 86 310 109 291 163L264 153C285 92 293 56 299 6C352 -12 396 -20 433 -20C556 -20 711 87 711 224ZM1011 689C856 689 777 566 777 324C777 207 798 106 833 57C868 8 924 -20 986 -20C1137 -20 1213 110 1213 366C1213 585 1148 689 1011 689ZM993 654C1090 654 1129 556 1129 316C1129 103 1091 15 999 15C902 15 861 116 861 360C861 571 898 654 993 654ZM1263 23L1263 -3C1450 -3 1450 0 1486 0C1522 0 1522 -3 1715 -3L1715 82C1600 77 1554 81 1369 77L1551 270C1648 373 1678 428 1678 503C1678 618 1600 689 1473 689C1401 689 1352 669 1303 619L1286 483L1315 483L1328 529C1344 587 1380 612 1447 612C1533 612 1588 558 1588 473C1588 398 1546 324 1433 204ZM1870 111C1840 111 1813 83 1813 53C1813 23 1840 -5 1869 -5C1901 -5 1929 22 1929 53C1929 83 1901 111 1870 111ZM2413 -3L2413 27L2361 30C2306 33 2296 44 2296 96L2296 700L2055 598L2062 548L2212 614L2212 96C2212 44 2201 33 2147 30L2091 27L2091 -3C2245 0 2245 0 2256 0C2287 0 2397 -3 2413 -3Z" stroke="rgb(0,0,0)" stroke-opacity="1" stroke-width="8" fill="rgb(0,0,0)" fill-opacity="1"></path></g></g><g><g transform="matrix(1,0,0,1,268.059814453125,70.05978393554688)"><path transform="matrix(0.017,0,0,-0.017,0,0)" d="M146 266C146 526 243 632 301 700L282 726C225 675 60 542 60 266C60 159 85 58 133 -32C168 -99 200 -138 282 -215L301 -194C255 -137 146 -15 146 266Z" stroke="rgb(0,0,0)" stroke-opacity="1" stroke-width="8" fill="rgb(0,0,0)" fill-opacity="1"></path></g></g><g><g transform="matrix(1,0,0,1,273.7119140625,69.19021606445312)"><path transform="matrix(0.017,0,0,-0.017,0,0)" d="M240 722L228 733C176 707 140 698 68 691L64 670L112 670C136 670 146 663 146 646C146 638 145 629 144 622L96 354C82 279 66 210 14 1L23 -9L90 8L113 132C122 180 146 225 180 259C249 59 281 -9 306 -9C319 -9 343 4 387 35L433 67L425 86L382 62C368 54 361 52 353 52C343 52 336 58 327 75C292 139 270 193 231 316L245 330C306 391 352 416 402 416C410 416 421 414 438 410L455 473C437 479 419 482 407 482C341 482 258 405 133 230ZM810 330L833 330C841 395 848 432 857 458C833 473 798 482 761 482C716 483 643 463 586 400C532 352 493 241 493 136C493 40 535 -11 615 -11C669 -11 717 9 772 54L822 95L814 115L799 105C727 57 689 40 654 40C598 40 569 80 569 159C569 267 604 371 653 409C674 425 698 433 729 433C774 433 810 414 810 390ZM1145 204L1116 77C1112 60 1110 42 1110 26C1110 4 1119 -9 1134 -9C1157 -9 1198 17 1280 85L1273 106C1249 86 1220 59 1198 59C1189 59 1183 68 1183 82C1183 87 1183 90 1184 93L1276 472L1266 481L1233 463C1192 478 1175 482 1148 482C1120 482 1100 477 1073 464C1011 433 978 403 953 354C909 265 878 145 878 67C878 23 893 -11 912 -11C949 -11 1029 41 1145 204ZM1193 414C1171 305 1152 253 1118 201C1061 117 1000 59 968 59C956 59 950 72 950 99C950 163 978 280 1013 360C1037 415 1060 433 1108 433C1131 433 1149 429 1193 414ZM1568 722L1556 733C1504 707 1468 698 1396 691L1392 670L1440 670C1464 670 1474 663 1474 648C1474 645 1474 640 1471 622C1460 567 1387 182 1372 132C1359 82 1353 52 1353 31C1353 6 1364 -9 1383 -9C1409 -9 1445 12 1543 85L1533 103L1507 86C1478 67 1456 56 1446 56C1439 56 1433 66 1433 76C1433 82 1434 89 1437 104Z" stroke="rgb(0,0,0)" stroke-opacity="1" stroke-width="8" fill="rgb(0,0,0)" fill-opacity="1"></path></g></g><g><g transform="matrix(1,0,0,1,300.8043212890625,70.05978393554688)"><path transform="matrix(0.017,0,0,-0.017,0,0)" d="M51 726L32 700C87 636 187 526 187 266C187 -10 83 -131 32 -194L51 -215C104 -165 273 -23 273 265C273 542 108 675 51 726Z" stroke="rgb(0,0,0)" stroke-opacity="1" stroke-width="8" fill="rgb(0,0,0)" fill-opacity="1"></path></g></g></g></g><g><g></g></g><g><g><g><g transform="matrix(1,0,0,1,28.79345703125,93.85055541992188)"><path transform="matrix(0.017,0,0,-0.017,0,0)" d="M271 204L242 77C238 60 236 42 236 26C236 4 245 -9 260 -9C283 -9 324 17 406 85L399 106C375 86 346 59 324 59C315 59 309 68 309 82C309 87 309 90 310 93L402 472L392 481L359 463C318 478 301 482 274 482C246 482 226 477 199 464C137 433 104 403 79 354C35 265 4 145 4 67C4 23 19 -11 38 -11C75 -11 155 41 271 204ZM319 414C297 305 278 253 244 201C187 117 126 59 94 59C82 59 76 72 76 99C76 163 104 280 139 360C163 415 186 433 234 433C257 433 275 429 319 414ZM718 482C651 482 498 419 498 259C498 182 543 136 620 136C628 136 639 136 650 137L609 99C593 84 582 66 582 52C582 42 589 31 603 19C534 -4 406 -48 406 -159C406 -230 476 -276 585 -276C714 -276 827 -204 827 -121C827 -85 806 -49 763 -14L703 35C669 62 656 81 656 100C656 114 671 128 683 146C781 170 852 253 852 342C852 357 849 376 848 380C865 378 873 378 882 378C899 378 909 379 932 382L941 427L938 433C910 426 890 424 836 424C836 425 812 482 718 482ZM619 1L696 -58C742 -94 761 -121 761 -154C761 -206 692 -248 609 -248C527 -248 470 -206 470 -145C470 -43 580 -11 619 1ZM693 448C751 448 780 412 780 341C780 238 732 168 662 168C601 168 569 209 569 288C569 383 620 448 693 448ZM1270 111L1246 94C1193 56 1145 36 1109 36C1062 36 1033 73 1033 133C1033 158 1036 185 1041 214C1058 218 1167 248 1192 259C1277 296 1316 342 1316 404C1316 451 1282 482 1232 482C1164 496 1054 423 1017 349C987 299 957 180 957 113C957 35 1001 -11 1073 -11C1130 -11 1186 17 1278 92ZM1055 274C1072 343 1092 386 1121 412C1139 428 1170 440 1194 440C1223 440 1242 420 1242 388C1242 344 1207 297 1155 272C1127 258 1091 247 1046 237ZM1613 388L1620 368L1652 389C1689 412 1692 414 1699 414C1709 414 1717 404 1717 391C1717 384 1713 361 1709 347L1643 107C1635 76 1630 49 1630 30C1630 6 1641 -9 1660 -9C1686 -9 1722 12 1820 85L1810 103L1784 86C1755 67 1732 56 1723 56C1716 56 1710 66 1710 76C1710 86 1712 95 1717 116L1794 420C1798 437 1800 448 1800 456C1800 473 1791 482 1775 482C1753 482 1716 461 1641 408ZM1807 712C1778 712 1749 679 1749 645C1749 620 1764 604 1788 604C1819 604 1843 633 1843 671C1843 695 1828 712 1807 712ZM1880 388L1887 368L1919 389C1956 412 1959 414 1966 414C1977 414 1984 404 1984 389C1984 338 1943 145 1902 2L1909 -9C1934 -2 1957 4 1979 8C1998 134 2019 199 2065 268C2119 352 2194 414 2239 414C2250 414 2256 405 2256 390C2256 372 2253 351 2245 319L2193 107C2184 70 2180 47 2180 31C2180 6 2191 -9 2210 -9C2236 -9 2272 12 2370 85L2360 103L2334 86C2305 67 2283 56 2273 56C2266 56 2260 65 2260 76C2260 81 2261 92 2262 96L2328 372C2335 401 2339 429 2339 446C2339 469 2328 482 2308 482C2266 482 2197 444 2138 389C2100 354 2072 320 2020 247L2058 408C2062 426 2064 438 2064 449C2064 470 2056 482 2041 482C2020 482 1981 460 1908 408ZM3119 253C3119 366 3038 446 2924 446C2876 446 2840 443 2787 396L2787 605L3092 604L3092 689L2735 690L2735 322L2755 316C2802 363 2829 377 2878 377C2974 377 3034 309 3034 201C3034 90 2970 25 2861 25C2807 25 2757 43 2743 69L2697 151L2673 137C2696 80 2708 48 2722 4C2750 -11 2790 -20 2833 -20C2961 -20 3119 89 3119 253ZM3422 689C3267 689 3188 566 3188 324C3188 207 3209 106 3244 57C3279 8 3335 -20 3397 -20C3548 -20 3624 110 3624 366C3624 585 3559 689 3422 689ZM3404 654C3501 654 3540 556 3540 316C3540 103 3502 15 3410 15C3313 15 3272 116 3272 360C3272 571 3309 654 3404 654ZM4097 329C4046 329 4007 296 3958 209L3992 182C4032 250 4058 272 4098 272C4156 272 4258 201 4324 201C4375 201 4419 236 4462 314L4428 341C4397 286 4360 257 4323 257C4272 257 4170 329 4097 329Z" stroke="rgb(0,0,0)" stroke-opacity="1" stroke-width="8" fill="rgb(0,0,0)" fill-opacity="1"></path></g></g><g><g transform="matrix(1,0,0,1,114.78533935546875,93.85055541992188)"><path transform="matrix(0.017,0,0,-0.017,0,0)" d="M604 347L604 406L65 406L65 347ZM604 134L604 193L65 193L65 134Z" stroke="rgb(0,0,0)" stroke-opacity="1" stroke-width="8" fill="rgb(0,0,0)" fill-opacity="1"></path></g></g><g><g transform="matrix(1,0,0,1,131.2391357421875,93.85055541992188)"><path transform="matrix(0.017,0,0,-0.017,0,0)" d="M667 -3L667 27L615 30C560 33 550 44 550 96L550 700L309 598L316 548L466 614L466 96C466 44 455 33 401 30L345 27L345 -3C499 0 499 0 510 0C541 0 651 -3 667 -3ZM1028 181L1028 106C1028 46 1017 32 968 30L906 27L906 -3C1039 0 1039 0 1063 0C1087 0 1087 0 1220 -3L1220 27L1172 30C1123 33 1112 46 1112 106L1112 181C1171 181 1192 180 1220 177L1220 248L1112 245L1113 697L1033 667L750 204L750 181ZM1028 245L813 245L1028 597ZM1343 -20C1454 16 1502 39 1556 85C1653 168 1704 283 1704 417C1704 586 1623 689 1491 689C1363 689 1267 589 1267 455C1267 340 1342 256 1446 256C1480 256 1519 267 1537 282L1607 340C1599 172 1490 49 1309 5L1309 -3ZM1487 656C1532 656 1565 637 1587 597C1605 565 1617 516 1617 471C1617 379 1564 317 1487 317C1407 317 1353 388 1353 492C1353 593 1405 656 1487 656ZM2208 224C2208 345 2101 366 2054 374C2134 436 2164 482 2164 541C2164 630 2090 689 1979 689C1911 689 1866 670 1818 622L1789 498L1820 498L1838 554C1849 588 1912 622 1964 622C2029 622 2082 569 2082 506C2082 431 2023 368 1952 368C1944 368 1933 369 1920 370L1905 371L1893 318L1900 312C1938 329 1957 334 1984 334C2067 334 2115 281 2115 190C2115 88 2054 21 1961 21C1915 21 1874 36 1844 64C1820 86 1807 109 1788 163L1761 153C1782 92 1790 56 1796 6C1849 -12 1893 -20 1930 -20C2053 -20 2208 87 2208 224ZM2369 111C2339 111 2312 83 2312 53C2312 23 2339 -5 2368 -5C2400 -5 2428 22 2428 53C2428 83 2400 111 2369 111ZM2662 345C2621 326 2604 315 2582 294C2544 256 2524 211 2524 159C2524 56 2607 -20 2720 -20C2850 -20 2958 82 2958 206C2958 286 2921 329 2807 381C2898 443 2930 485 2930 545C2930 631 2859 689 2753 689C2634 689 2547 613 2547 508C2547 440 2574 402 2662 345ZM2778 295C2841 267 2879 218 2879 164C2879 80 2816 14 2735 14C2650 14 2595 74 2595 167C2595 240 2624 286 2698 331ZM2717 423C2654 454 2622 494 2622 544C2622 610 2670 655 2741 655C2814 655 2862 607 2862 534C2862 477 2837 438 2772 396Z" stroke="rgb(0,0,0)" stroke-opacity="1" stroke-width="8" fill="rgb(0,0,0)" fill-opacity="1"></path></g></g><g><g transform="matrix(1,0,0,1,189.73095703125,93.85055541992188)"><path transform="matrix(0.017,0,0,-0.017,0,0)" d="M604 279L604 338L364 338L364 541L305 541L305 338L65 338L65 279L305 279L305 87L364 87L364 279ZM604 0L604 55L65 55L65 0Z" stroke="rgb(0,0,0)" stroke-opacity="1" stroke-width="8" fill="rgb(0,0,0)" fill-opacity="1"></path></g></g><g><g transform="matrix(1,0,0,1,204.48638916015625,93.85055541992188)"><path transform="matrix(0.017,0,0,-0.017,0,0)" d="M711 224C711 345 604 366 557 374C637 436 667 482 667 541C667 630 593 689 482 689C414 689 369 670 321 622L292 498L323 498L341 554C352 588 415 622 467 622C532 622 585 569 585 506C585 431 526 368 455 368C447 368 436 369 423 370L408 371L396 318L403 312C441 329 460 334 487 334C570 334 618 281 618 190C618 88 557 21 464 21C418 21 377 36 347 64C323 86 310 109 291 163L264 153C285 92 293 56 299 6C352 -12 396 -20 433 -20C556 -20 711 87 711 224ZM1166 -3L1166 27L1114 30C1059 33 1049 44 1049 96L1049 700L808 598L815 548L965 614L965 96C965 44 954 33 900 30L844 27L844 -3C998 0 998 0 1009 0C1040 0 1150 -3 1166 -3ZM1706 253C1706 366 1625 446 1511 446C1463 446 1427 443 1374 396L1374 605L1679 604L1679 689L1322 690L1322 322L1342 316C1389 363 1416 377 1465 377C1561 377 1621 309 1621 201C1621 90 1557 25 1448 25C1394 25 1344 43 1330 69L1284 151L1260 137C1283 80 1295 48 1309 4C1337 -11 1377 -20 1420 -20C1548 -20 1706 89 1706 253ZM1870 111C1840 111 1813 83 1813 53C1813 23 1840 -5 1869 -5C1901 -5 1929 22 1929 53C1929 83 1901 111 1870 111ZM2457 224C2457 345 2350 366 2303 374C2383 436 2413 482 2413 541C2413 630 2339 689 2228 689C2160 689 2115 670 2067 622L2038 498L2069 498L2087 554C2098 588 2161 622 2213 622C2278 622 2331 569 2331 506C2331 431 2272 368 2201 368C2193 368 2182 369 2169 370L2154 371L2142 318L2149 312C2187 329 2206 334 2233 334C2316 334 2364 281 2364 190C2364 88 2303 21 2210 21C2164 21 2123 36 2093 64C2069 86 2056 109 2037 163L2010 153C2031 92 2039 56 2045 6C2098 -12 2142 -20 2179 -20C2302 -20 2457 87 2457 224Z" stroke="rgb(0,0,0)" stroke-opacity="1" stroke-width="8" fill="rgb(0,0,0)" fill-opacity="1"></path></g></g><g><g transform="matrix(1,0,0,1,246.8641357421875,94.72012329101562)"><path transform="matrix(0.017,0,0,-0.017,0,0)" d="M146 266C146 526 243 632 301 700L282 726C225 675 60 542 60 266C60 159 85 58 133 -32C168 -99 200 -138 282 -215L301 -194C255 -137 146 -15 146 266Z" stroke="rgb(0,0,0)" stroke-opacity="1" stroke-width="8" fill="rgb(0,0,0)" fill-opacity="1"></path></g></g><g><g transform="matrix(1,0,0,1,252.516357421875,93.85055541992188)"><path transform="matrix(0.017,0,0,-0.017,0,0)" d="M240 722L228 733C176 707 140 698 68 691L64 670L112 670C136 670 146 663 146 646C146 638 145 629 144 622L96 354C82 279 66 210 14 1L23 -9L90 8L113 132C122 180 146 225 180 259C249 59 281 -9 306 -9C319 -9 343 4 387 35L433 67L425 86L382 62C368 54 361 52 353 52C343 52 336 58 327 75C292 139 270 193 231 316L245 330C306 391 352 416 402 416C410 416 421 414 438 410L455 473C437 479 419 482 407 482C341 482 258 405 133 230ZM810 330L833 330C841 395 848 432 857 458C833 473 798 482 761 482C716 483 643 463 586 400C532 352 493 241 493 136C493 40 535 -11 615 -11C669 -11 717 9 772 54L822 95L814 115L799 105C727 57 689 40 654 40C598 40 569 80 569 159C569 267 604 371 653 409C674 425 698 433 729 433C774 433 810 414 810 390ZM1145 204L1116 77C1112 60 1110 42 1110 26C1110 4 1119 -9 1134 -9C1157 -9 1198 17 1280 85L1273 106C1249 86 1220 59 1198 59C1189 59 1183 68 1183 82C1183 87 1183 90 1184 93L1276 472L1266 481L1233 463C1192 478 1175 482 1148 482C1120 482 1100 477 1073 464C1011 433 978 403 953 354C909 265 878 145 878 67C878 23 893 -11 912 -11C949 -11 1029 41 1145 204ZM1193 414C1171 305 1152 253 1118 201C1061 117 1000 59 968 59C956 59 950 72 950 99C950 163 978 280 1013 360C1037 415 1060 433 1108 433C1131 433 1149 429 1193 414ZM1568 722L1556 733C1504 707 1468 698 1396 691L1392 670L1440 670C1464 670 1474 663 1474 648C1474 645 1474 640 1471 622C1460 567 1387 182 1372 132C1359 82 1353 52 1353 31C1353 6 1364 -9 1383 -9C1409 -9 1445 12 1543 85L1533 103L1507 86C1478 67 1456 56 1446 56C1439 56 1433 66 1433 76C1433 82 1434 89 1437 104Z" stroke="rgb(0,0,0)" stroke-opacity="1" stroke-width="8" fill="rgb(0,0,0)" fill-opacity="1"></path></g></g><g><g transform="matrix(1,0,0,1,279.608642578125,94.72012329101562)"><path transform="matrix(0.017,0,0,-0.017,0,0)" d="M51 726L32 700C87 636 187 526 187 266C187 -10 83 -131 32 -194L51 -215C104 -165 273 -23 273 265C273 542 108 675 51 726Z" stroke="rgb(0,0,0)" stroke-opacity="1" stroke-width="8" fill="rgb(0,0,0)" fill-opacity="1"></path></g></g></g></g><g><g></g></g><g><g></g></g><g><g></g></g><g><g><g><g transform="matrix(1,0,0,1,28.79345703125,143.17120361328125)"><path transform="matrix(0.017,0,0,-0.017,0,0)" d="M303 692L264 691C226 689 202 689 182 689C170 689 148 690 110 691L71 692L71 664L89 662C130 656 138 645 142 588L174 158C179 92 181 44 182 -8L232 -8C246 27 264 66 282 102L506 546L618 154C633 102 644 53 657 -8L708 -8L715 18C725 58 733 85 746 124L917 631C923 648 938 660 960 662L980 664L980 692L948 691C919 690 897 689 883 689C870 689 848 690 818 691L785 692L780 664L819 662C848 661 860 653 860 639C860 626 857 608 851 590L704 128L546 700L528 700C516 673 494 624 476 588L252 132L221 616C221 646 234 660 266 662L303 664ZM960 152C960 46 1005 -11 1088 -11C1143 -11 1203 15 1248 57C1310 116 1354 230 1354 331C1354 425 1304 482 1221 482C1117 482 960 382 960 152ZM1184 444C1245 444 1278 399 1278 315C1278 219 1247 113 1203 60C1185 39 1159 27 1128 27C1070 27 1036 72 1036 151C1036 264 1075 387 1124 427C1137 438 1160 444 1184 444ZM2116 103L2090 86C2061 67 2039 56 2029 56C2022 56 2016 65 2016 76C2016 86 2018 95 2023 116L2098 413C2102 430 2105 446 2105 454C2105 471 2095 482 2079 482C2050 482 2012 464 1951 421C1888 376 1853 341 1804 272L1834 409C1838 429 1841 444 1841 451C1841 470 1831 482 1815 482C1785 482 1739 460 1684 418C1640 384 1620 363 1555 275L1588 408C1592 424 1594 439 1594 451C1594 470 1585 482 1571 482C1550 482 1512 461 1438 408L1410 388L1417 368C1454 391 1489 414 1496 414C1507 414 1514 404 1514 389C1514 338 1473 145 1432 2L1435 -9L1503 6L1525 108C1549 219 1576 278 1631 338C1673 384 1718 414 1746 414C1753 414 1757 406 1757 393C1757 358 1735 244 1694 69L1678 2L1683 -9L1752 6L1773 113C1789 194 1823 269 1867 318C1922 379 1972 414 2004 414C2012 414 2017 405 2017 389C2017 365 2014 351 1992 264C1952 105 1936 84 1936 31C1936 6 1947 -9 1966 -9C1992 -9 2028 12 2126 85ZM2491 111L2467 94C2414 56 2366 36 2330 36C2283 36 2254 73 2254 133C2254 158 2257 185 2262 214C2279 218 2388 248 2413 259C2498 296 2537 342 2537 404C2537 451 2503 482 2453 482C2385 496 2275 423 2238 349C2208 299 2178 180 2178 113C2178 35 2222 -11 2294 -11C2351 -11 2407 17 2499 92ZM2276 274C2293 343 2313 386 2342 412C2360 428 2391 440 2415 440C2444 440 2463 420 2463 388C2463 344 2428 297 2376 272C2348 258 2312 247 2267 237ZM2575 388L2582 368L2614 389C2651 412 2654 414 2661 414C2672 414 2679 404 2679 389C2679 338 2638 145 2597 2L2604 -9C2629 -2 2652 4 2674 8C2693 134 2714 199 2760 268C2814 352 2889 414 2934 414C2945 414 2951 405 2951 390C2951 372 2948 351 2940 319L2888 107C2879 70 2875 47 2875 31C2875 6 2886 -9 2905 -9C2931 -9 2967 12 3065 85L3055 103L3029 86C3000 67 2978 56 2968 56C2961 56 2955 65 2955 76C2955 81 2956 92 2957 96L3023 372C3030 401 3034 429 3034 446C3034 469 3023 482 3003 482C2961 482 2892 444 2833 389C2795 354 2767 320 2715 247L2753 408C2757 426 2759 438 2759 449C2759 470 2751 482 2736 482C2715 482 2676 460 2603 408Z" stroke="rgb(0,0,0)" stroke-opacity="1" stroke-width="8" fill="rgb(0,0,0)" fill-opacity="1"></path></g></g></g></g><g><g></g></g><g><g><g><g transform="matrix(1,0,0,1,28.79345703125,167.83154296875)"><path transform="matrix(0.017,0,0,-0.017,0,0)" d="M271 204L242 77C238 60 236 42 236 26C236 4 245 -9 260 -9C283 -9 324 17 406 85L399 106C375 86 346 59 324 59C315 59 309 68 309 82C309 87 309 90 310 93L402 472L392 481L359 463C318 478 301 482 274 482C246 482 226 477 199 464C137 433 104 403 79 354C35 265 4 145 4 67C4 23 19 -11 38 -11C75 -11 155 41 271 204ZM319 414C297 305 278 253 244 201C187 117 126 59 94 59C82 59 76 72 76 99C76 163 104 280 139 360C163 415 186 433 234 433C257 433 275 429 319 414ZM718 482C651 482 498 419 498 259C498 182 543 136 620 136C628 136 639 136 650 137L609 99C593 84 582 66 582 52C582 42 589 31 603 19C534 -4 406 -48 406 -159C406 -230 476 -276 585 -276C714 -276 827 -204 827 -121C827 -85 806 -49 763 -14L703 35C669 62 656 81 656 100C656 114 671 128 683 146C781 170 852 253 852 342C852 357 849 376 848 380C865 378 873 378 882 378C899 378 909 379 932 382L941 427L938 433C910 426 890 424 836 424C836 425 812 482 718 482ZM619 1L696 -58C742 -94 761 -121 761 -154C761 -206 692 -248 609 -248C527 -248 470 -206 470 -145C470 -43 580 -11 619 1ZM693 448C751 448 780 412 780 341C780 238 732 168 662 168C601 168 569 209 569 288C569 383 620 448 693 448ZM1270 111L1246 94C1193 56 1145 36 1109 36C1062 36 1033 73 1033 133C1033 158 1036 185 1041 214C1058 218 1167 248 1192 259C1277 296 1316 342 1316 404C1316 451 1282 482 1232 482C1164 496 1054 423 1017 349C987 299 957 180 957 113C957 35 1001 -11 1073 -11C1130 -11 1186 17 1278 92ZM1055 274C1072 343 1092 386 1121 412C1139 428 1170 440 1194 440C1223 440 1242 420 1242 388C1242 344 1207 297 1155 272C1127 258 1091 247 1046 237ZM1613 388L1620 368L1652 389C1689 412 1692 414 1699 414C1709 414 1717 404 1717 391C1717 384 1713 361 1709 347L1643 107C1635 76 1630 49 1630 30C1630 6 1641 -9 1660 -9C1686 -9 1722 12 1820 85L1810 103L1784 86C1755 67 1732 56 1723 56C1716 56 1710 66 1710 76C1710 86 1712 95 1717 116L1794 420C1798 437 1800 448 1800 456C1800 473 1791 482 1775 482C1753 482 1716 461 1641 408ZM1807 712C1778 712 1749 679 1749 645C1749 620 1764 604 1788 604C1819 604 1843 633 1843 671C1843 695 1828 712 1807 712ZM1880 388L1887 368L1919 389C1956 412 1959 414 1966 414C1977 414 1984 404 1984 389C1984 338 1943 145 1902 2L1909 -9C1934 -2 1957 4 1979 8C1998 134 2019 199 2065 268C2119 352 2194 414 2239 414C2250 414 2256 405 2256 390C2256 372 2253 351 2245 319L2193 107C2184 70 2180 47 2180 31C2180 6 2191 -9 2210 -9C2236 -9 2272 12 2370 85L2360 103L2334 86C2305 67 2283 56 2273 56C2266 56 2260 65 2260 76C2260 81 2261 92 2262 96L2328 372C2335 401 2339 429 2339 446C2339 469 2328 482 2308 482C2266 482 2197 444 2138 389C2100 354 2072 320 2020 247L2058 408C2062 426 2064 438 2064 449C2064 470 2056 482 2041 482C2020 482 1981 460 1908 408ZM2676 23L2676 -3C2863 -3 2863 0 2899 0C2935 0 2935 -3 3128 -3L3128 82C3013 77 2967 81 2782 77L2964 270C3061 373 3091 428 3091 503C3091 618 3013 689 2886 689C2814 689 2765 669 2716 619L2699 483L2728 483L2741 529C2757 587 2793 612 2860 612C2946 612 3001 558 3001 473C3001 398 2959 324 2846 204ZM3422 689C3267 689 3188 566 3188 324C3188 207 3209 106 3244 57C3279 8 3335 -20 3397 -20C3548 -20 3624 110 3624 366C3624 585 3559 689 3422 689ZM3404 654C3501 654 3540 556 3540 316C3540 103 3502 15 3410 15C3313 15 3272 116 3272 360C3272 571 3309 654 3404 654ZM4097 329C4046 329 4007 296 3958 209L3992 182C4032 250 4058 272 4098 272C4156 272 4258 201 4324 201C4375 201 4419 236 4462 314L4428 341C4397 286 4360 257 4323 257C4272 257 4170 329 4097 329ZM4777 23L4777 -3C4964 -3 4964 0 5000 0C5036 0 5036 -3 5229 -3L5229 82C5114 77 5068 81 4883 77L5065 270C5162 373 5192 428 5192 503C5192 618 5114 689 4987 689C4915 689 4866 669 4817 619L4800 483L4829 483L4842 529C4858 587 4894 612 4961 612C5047 612 5102 558 5102 473C5102 398 5060 324 4947 204ZM5356 -20C5467 16 5515 39 5569 85C5666 168 5717 283 5717 417C5717 586 5636 689 5504 689C5376 689 5280 589 5280 455C5280 340 5355 256 5459 256C5493 256 5532 267 5550 282L5620 340C5612 172 5503 49 5322 5L5322 -3ZM5500 656C5545 656 5578 637 5600 597C5618 565 5630 516 5630 471C5630 379 5577 317 5500 317C5420 317 5366 388 5366 492C5366 593 5418 656 5500 656Z" stroke="rgb(0,0,0)" stroke-opacity="1" stroke-width="8" fill="rgb(0,0,0)" fill-opacity="1"></path></g></g><g><g transform="matrix(1,0,0,1,135.98095703125,167.83154296875)"><path transform="matrix(0.017,0,0,-0.017,0,0)" d="M604 347L604 406L65 406L65 347ZM604 134L604 193L65 193L65 134Z" stroke="rgb(0,0,0)" stroke-opacity="1" stroke-width="8" fill="rgb(0,0,0)" fill-opacity="1"></path></g></g><g><g transform="matrix(1,0,0,1,152.43475341796875,167.83154296875)"><path transform="matrix(0.017,0,0,-0.017,0,0)" d="M667 -3L667 27L615 30C560 33 550 44 550 96L550 700L309 598L316 548L466 614L466 96C466 44 455 33 401 30L345 27L345 -3C499 0 499 0 510 0C541 0 651 -3 667 -3ZM1210 224C1210 345 1103 366 1056 374C1136 436 1166 482 1166 541C1166 630 1092 689 981 689C913 689 868 670 820 622L791 498L822 498L840 554C851 588 914 622 966 622C1031 622 1084 569 1084 506C1084 431 1025 368 954 368C946 368 935 369 922 370L907 371L895 318L902 312C940 329 959 334 986 334C1069 334 1117 281 1117 190C1117 88 1056 21 963 21C917 21 876 36 846 64C822 86 809 109 790 163L763 153C784 92 792 56 798 6C851 -12 895 -20 932 -20C1055 -20 1210 87 1210 224ZM1665 -3L1665 27L1613 30C1558 33 1548 44 1548 96L1548 700L1307 598L1314 548L1464 614L1464 96C1464 44 1453 33 1399 30L1343 27L1343 -3C1497 0 1497 0 1508 0C1539 0 1649 -3 1665 -3ZM2164 -3L2164 27L2112 30C2057 33 2047 44 2047 96L2047 700L1806 598L1813 548L1963 614L1963 96C1963 44 1952 33 1898 30L1842 27L1842 -3C1996 0 1996 0 2007 0C2038 0 2148 -3 2164 -3ZM2369 111C2339 111 2312 83 2312 53C2312 23 2339 -5 2368 -5C2400 -5 2428 22 2428 53C2428 83 2400 111 2369 111ZM2953 253C2953 366 2872 446 2758 446C2710 446 2674 443 2621 396L2621 605L2926 604L2926 689L2569 690L2569 322L2589 316C2636 363 2663 377 2712 377C2808 377 2868 309 2868 201C2868 90 2804 25 2695 25C2641 25 2591 43 2577 69L2531 151L2507 137C2530 80 2542 48 2556 4C2584 -11 2624 -20 2667 -20C2795 -20 2953 89 2953 253Z" stroke="rgb(0,0,0)" stroke-opacity="1" stroke-width="8" fill="rgb(0,0,0)" fill-opacity="1"></path></g></g><g><g transform="matrix(1,0,0,1,210.9266357421875,167.83154296875)"><path transform="matrix(0.017,0,0,-0.017,0,0)" d="M604 279L604 338L364 338L364 541L305 541L305 338L65 338L65 279L305 279L305 87L364 87L364 279ZM604 0L604 55L65 55L65 0Z" stroke="rgb(0,0,0)" stroke-opacity="1" stroke-width="8" fill="rgb(0,0,0)" fill-opacity="1"></path></g></g><g><g transform="matrix(1,0,0,1,225.68206787109375,167.83154296875)"><path transform="matrix(0.017,0,0,-0.017,0,0)" d="M265 23L265 -3C452 -3 452 0 488 0C524 0 524 -3 717 -3L717 82C602 77 556 81 371 77L553 270C650 373 680 428 680 503C680 618 602 689 475 689C403 689 354 669 305 619L288 483L317 483L330 529C346 587 382 612 449 612C535 612 590 558 590 473C590 398 548 324 435 204ZM1210 224C1210 345 1103 366 1056 374C1136 436 1166 482 1166 541C1166 630 1092 689 981 689C913 689 868 670 820 622L791 498L822 498L840 554C851 588 914 622 966 622C1031 622 1084 569 1084 506C1084 431 1025 368 954 368C946 368 935 369 922 370L907 371L895 318L902 312C940 329 959 334 986 334C1069 334 1117 281 1117 190C1117 88 1056 21 963 21C917 21 876 36 846 64C822 86 809 109 790 163L763 153C784 92 792 56 798 6C851 -12 895 -20 932 -20C1055 -20 1210 87 1210 224ZM1709 224C1709 345 1602 366 1555 374C1635 436 1665 482 1665 541C1665 630 1591 689 1480 689C1412 689 1367 670 1319 622L1290 498L1321 498L1339 554C1350 588 1413 622 1465 622C1530 622 1583 569 1583 506C1583 431 1524 368 1453 368C1445 368 1434 369 1421 370L1406 371L1394 318L1401 312C1439 329 1458 334 1485 334C1568 334 1616 281 1616 190C1616 88 1555 21 1462 21C1416 21 1375 36 1345 64C1321 86 1308 109 1289 163L1262 153C1283 92 1291 56 1297 6C1350 -12 1394 -20 1431 -20C1554 -20 1709 87 1709 224ZM1870 111C1840 111 1813 83 1813 53C1813 23 1840 -5 1869 -5C1901 -5 1929 22 1929 53C1929 83 1901 111 1870 111ZM2258 689C2103 689 2024 566 2024 324C2024 207 2045 106 2080 57C2115 8 2171 -20 2233 -20C2384 -20 2460 110 2460 366C2460 585 2395 689 2258 689ZM2240 654C2337 654 2376 556 2376 316C2376 103 2338 15 2246 15C2149 15 2108 116 2108 360C2108 571 2145 654 2240 654Z" stroke="rgb(0,0,0)" stroke-opacity="1" stroke-width="8" fill="rgb(0,0,0)" fill-opacity="1"></path></g></g><g><g transform="matrix(1,0,0,1,268.059814453125,168.70111083984375)"><path transform="matrix(0.017,0,0,-0.017,0,0)" d="M146 266C146 526 243 632 301 700L282 726C225 675 60 542 60 266C60 159 85 58 133 -32C168 -99 200 -138 282 -215L301 -194C255 -137 146 -15 146 266Z" stroke="rgb(0,0,0)" stroke-opacity="1" stroke-width="8" fill="rgb(0,0,0)" fill-opacity="1"></path></g></g><g><g transform="matrix(1,0,0,1,273.7119140625,167.83154296875)"><path transform="matrix(0.017,0,0,-0.017,0,0)" d="M240 722L228 733C176 707 140 698 68 691L64 670L112 670C136 670 146 663 146 646C146 638 145 629 144 622L96 354C82 279 66 210 14 1L23 -9L90 8L113 132C122 180 146 225 180 259C249 59 281 -9 306 -9C319 -9 343 4 387 35L433 67L425 86L382 62C368 54 361 52 353 52C343 52 336 58 327 75C292 139 270 193 231 316L245 330C306 391 352 416 402 416C410 416 421 414 438 410L455 473C437 479 419 482 407 482C341 482 258 405 133 230ZM810 330L833 330C841 395 848 432 857 458C833 473 798 482 761 482C716 483 643 463 586 400C532 352 493 241 493 136C493 40 535 -11 615 -11C669 -11 717 9 772 54L822 95L814 115L799 105C727 57 689 40 654 40C598 40 569 80 569 159C569 267 604 371 653 409C674 425 698 433 729 433C774 433 810 414 810 390ZM1145 204L1116 77C1112 60 1110 42 1110 26C1110 4 1119 -9 1134 -9C1157 -9 1198 17 1280 85L1273 106C1249 86 1220 59 1198 59C1189 59 1183 68 1183 82C1183 87 1183 90 1184 93L1276 472L1266 481L1233 463C1192 478 1175 482 1148 482C1120 482 1100 477 1073 464C1011 433 978 403 953 354C909 265 878 145 878 67C878 23 893 -11 912 -11C949 -11 1029 41 1145 204ZM1193 414C1171 305 1152 253 1118 201C1061 117 1000 59 968 59C956 59 950 72 950 99C950 163 978 280 1013 360C1037 415 1060 433 1108 433C1131 433 1149 429 1193 414ZM1568 722L1556 733C1504 707 1468 698 1396 691L1392 670L1440 670C1464 670 1474 663 1474 648C1474 645 1474 640 1471 622C1460 567 1387 182 1372 132C1359 82 1353 52 1353 31C1353 6 1364 -9 1383 -9C1409 -9 1445 12 1543 85L1533 103L1507 86C1478 67 1456 56 1446 56C1439 56 1433 66 1433 76C1433 82 1434 89 1437 104Z" stroke="rgb(0,0,0)" stroke-opacity="1" stroke-width="8" fill="rgb(0,0,0)" fill-opacity="1"></path></g></g><g><g transform="matrix(1,0,0,1,300.8043212890625,168.70111083984375)"><path transform="matrix(0.017,0,0,-0.017,0,0)" d="M51 726L32 700C87 636 187 526 187 266C187 -10 83 -131 32 -194L51 -215C104 -165 273 -23 273 265C273 542 108 675 51 726Z" stroke="rgb(0,0,0)" stroke-opacity="1" stroke-width="8" fill="rgb(0,0,0)" fill-opacity="1"></path></g></g></g></g><g><g></g></g><g><g><g><g transform="matrix(1,0,0,1,28.79345703125,192.49188232421875)"><path transform="matrix(0.017,0,0,-0.017,0,0)" d="M271 204L242 77C238 60 236 42 236 26C236 4 245 -9 260 -9C283 -9 324 17 406 85L399 106C375 86 346 59 324 59C315 59 309 68 309 82C309 87 309 90 310 93L402 472L392 481L359 463C318 478 301 482 274 482C246 482 226 477 199 464C137 433 104 403 79 354C35 265 4 145 4 67C4 23 19 -11 38 -11C75 -11 155 41 271 204ZM319 414C297 305 278 253 244 201C187 117 126 59 94 59C82 59 76 72 76 99C76 163 104 280 139 360C163 415 186 433 234 433C257 433 275 429 319 414ZM718 482C651 482 498 419 498 259C498 182 543 136 620 136C628 136 639 136 650 137L609 99C593 84 582 66 582 52C582 42 589 31 603 19C534 -4 406 -48 406 -159C406 -230 476 -276 585 -276C714 -276 827 -204 827 -121C827 -85 806 -49 763 -14L703 35C669 62 656 81 656 100C656 114 671 128 683 146C781 170 852 253 852 342C852 357 849 376 848 380C865 378 873 378 882 378C899 378 909 379 932 382L941 427L938 433C910 426 890 424 836 424C836 425 812 482 718 482ZM619 1L696 -58C742 -94 761 -121 761 -154C761 -206 692 -248 609 -248C527 -248 470 -206 470 -145C470 -43 580 -11 619 1ZM693 448C751 448 780 412 780 341C780 238 732 168 662 168C601 168 569 209 569 288C569 383 620 448 693 448ZM1270 111L1246 94C1193 56 1145 36 1109 36C1062 36 1033 73 1033 133C1033 158 1036 185 1041 214C1058 218 1167 248 1192 259C1277 296 1316 342 1316 404C1316 451 1282 482 1232 482C1164 496 1054 423 1017 349C987 299 957 180 957 113C957 35 1001 -11 1073 -11C1130 -11 1186 17 1278 92ZM1055 274C1072 343 1092 386 1121 412C1139 428 1170 440 1194 440C1223 440 1242 420 1242 388C1242 344 1207 297 1155 272C1127 258 1091 247 1046 237ZM1613 388L1620 368L1652 389C1689 412 1692 414 1699 414C1709 414 1717 404 1717 391C1717 384 1713 361 1709 347L1643 107C1635 76 1630 49 1630 30C1630 6 1641 -9 1660 -9C1686 -9 1722 12 1820 85L1810 103L1784 86C1755 67 1732 56 1723 56C1716 56 1710 66 1710 76C1710 86 1712 95 1717 116L1794 420C1798 437 1800 448 1800 456C1800 473 1791 482 1775 482C1753 482 1716 461 1641 408ZM1807 712C1778 712 1749 679 1749 645C1749 620 1764 604 1788 604C1819 604 1843 633 1843 671C1843 695 1828 712 1807 712ZM1880 388L1887 368L1919 389C1956 412 1959 414 1966 414C1977 414 1984 404 1984 389C1984 338 1943 145 1902 2L1909 -9C1934 -2 1957 4 1979 8C1998 134 2019 199 2065 268C2119 352 2194 414 2239 414C2250 414 2256 405 2256 390C2256 372 2253 351 2245 319L2193 107C2184 70 2180 47 2180 31C2180 6 2191 -9 2210 -9C2236 -9 2272 12 2370 85L2360 103L2334 86C2305 67 2283 56 2273 56C2266 56 2260 65 2260 76C2260 81 2261 92 2262 96L2328 372C2335 401 2339 429 2339 446C2339 469 2328 482 2308 482C2266 482 2197 444 2138 389C2100 354 2072 320 2020 247L2058 408C2062 426 2064 438 2064 449C2064 470 2056 482 2041 482C2020 482 1981 460 1908 408ZM3122 224C3122 345 3015 366 2968 374C3048 436 3078 482 3078 541C3078 630 3004 689 2893 689C2825 689 2780 670 2732 622L2703 498L2734 498L2752 554C2763 588 2826 622 2878 622C2943 622 2996 569 2996 506C2996 431 2937 368 2866 368C2858 368 2847 369 2834 370L2819 371L2807 318L2814 312C2852 329 2871 334 2898 334C2981 334 3029 281 3029 190C3029 88 2968 21 2875 21C2829 21 2788 36 2758 64C2734 86 2721 109 2702 163L2675 153C2696 92 2704 56 2710 6C2763 -12 2807 -20 2844 -20C2967 -20 3122 87 3122 224ZM3422 689C3267 689 3188 566 3188 324C3188 207 3209 106 3244 57C3279 8 3335 -20 3397 -20C3548 -20 3624 110 3624 366C3624 585 3559 689 3422 689ZM3404 654C3501 654 3540 556 3540 316C3540 103 3502 15 3410 15C3313 15 3272 116 3272 360C3272 571 3309 654 3404 654ZM4097 329C4046 329 4007 296 3958 209L3992 182C4032 250 4058 272 4098 272C4156 272 4258 201 4324 201C4375 201 4419 236 4462 314L4428 341C4397 286 4360 257 4323 257C4272 257 4170 329 4097 329ZM5041 181L5041 106C5041 46 5030 32 4981 30L4919 27L4919 -3C5052 0 5052 0 5076 0C5100 0 5100 0 5233 -3L5233 27L5185 30C5136 33 5125 46 5125 106L5125 181C5184 181 5205 180 5233 177L5233 248L5125 245L5126 697L5046 667L4763 204L4763 181ZM5041 245L4826 245L5041 597ZM5356 -20C5467 16 5515 39 5569 85C5666 168 5717 283 5717 417C5717 586 5636 689 5504 689C5376 689 5280 589 5280 455C5280 340 5355 256 5459 256C5493 256 5532 267 5550 282L5620 340C5612 172 5503 49 5322 5L5322 -3ZM5500 656C5545 656 5578 637 5600 597C5618 565 5630 516 5630 471C5630 379 5577 317 5500 317C5420 317 5366 388 5366 492C5366 593 5418 656 5500 656Z" stroke="rgb(0,0,0)" stroke-opacity="1" stroke-width="8" fill="rgb(0,0,0)" fill-opacity="1"></path></g></g><g><g transform="matrix(1,0,0,1,135.98095703125,192.49188232421875)"><path transform="matrix(0.017,0,0,-0.017,0,0)" d="M604 347L604 406L65 406L65 347ZM604 134L604 193L65 193L65 134Z" stroke="rgb(0,0,0)" stroke-opacity="1" stroke-width="8" fill="rgb(0,0,0)" fill-opacity="1"></path></g></g><g><g transform="matrix(1,0,0,1,152.43475341796875,192.49188232421875)"><path transform="matrix(0.017,0,0,-0.017,0,0)" d="M667 -3L667 27L615 30C560 33 550 44 550 96L550 700L309 598L316 548L466 614L466 96C466 44 455 33 401 30L345 27L345 -3C499 0 499 0 510 0C541 0 651 -3 667 -3ZM1210 224C1210 345 1103 366 1056 374C1136 436 1166 482 1166 541C1166 630 1092 689 981 689C913 689 868 670 820 622L791 498L822 498L840 554C851 588 914 622 966 622C1031 622 1084 569 1084 506C1084 431 1025 368 954 368C946 368 935 369 922 370L907 371L895 318L902 312C940 329 959 334 986 334C1069 334 1117 281 1117 190C1117 88 1056 21 963 21C917 21 876 36 846 64C822 86 809 109 790 163L763 153C784 92 792 56 798 6C851 -12 895 -20 932 -20C1055 -20 1210 87 1210 224ZM1665 -3L1665 27L1613 30C1558 33 1548 44 1548 96L1548 700L1307 598L1314 548L1464 614L1464 96C1464 44 1453 33 1399 30L1343 27L1343 -3C1497 0 1497 0 1508 0C1539 0 1649 -3 1665 -3ZM1877 331C1898 512 1987 611 2167 665L2125 689C2029 657 1988 637 1937 593C1834 506 1778 384 1778 247C1778 82 1858 -20 1987 -20C2117 -20 2214 83 2214 219C2214 334 2145 409 2039 409C1962 409 1930 370 1877 331ZM2001 349C2077 349 2128 283 2128 184C2128 80 2077 13 2000 13C1915 13 1869 86 1869 220C1869 255 1873 274 1884 291C1906 325 1953 349 2001 349ZM2369 111C2339 111 2312 83 2312 53C2312 23 2339 -5 2368 -5C2400 -5 2428 22 2428 53C2428 83 2400 111 2369 111ZM2662 345C2621 326 2604 315 2582 294C2544 256 2524 211 2524 159C2524 56 2607 -20 2720 -20C2850 -20 2958 82 2958 206C2958 286 2921 329 2807 381C2898 443 2930 485 2930 545C2930 631 2859 689 2753 689C2634 689 2547 613 2547 508C2547 440 2574 402 2662 345ZM2778 295C2841 267 2879 218 2879 164C2879 80 2816 14 2735 14C2650 14 2595 74 2595 167C2595 240 2624 286 2698 331ZM2717 423C2654 454 2622 494 2622 544C2622 610 2670 655 2741 655C2814 655 2862 607 2862 534C2862 477 2837 438 2772 396Z" stroke="rgb(0,0,0)" stroke-opacity="1" stroke-width="8" fill="rgb(0,0,0)" fill-opacity="1"></path></g></g><g><g transform="matrix(1,0,0,1,210.9266357421875,192.49188232421875)"><path transform="matrix(0.017,0,0,-0.017,0,0)" d="M604 279L604 338L364 338L364 541L305 541L305 338L65 338L65 279L305 279L305 87L364 87L364 279ZM604 0L604 55L65 55L65 0Z" stroke="rgb(0,0,0)" stroke-opacity="1" stroke-width="8" fill="rgb(0,0,0)" fill-opacity="1"></path></g></g><g><g transform="matrix(1,0,0,1,225.68206787109375,192.49188232421875)"><path transform="matrix(0.017,0,0,-0.017,0,0)" d="M265 23L265 -3C452 -3 452 0 488 0C524 0 524 -3 717 -3L717 82C602 77 556 81 371 77L553 270C650 373 680 428 680 503C680 618 602 689 475 689C403 689 354 669 305 619L288 483L317 483L330 529C346 587 382 612 449 612C535 612 590 558 590 473C590 398 548 324 435 204ZM764 23L764 -3C951 -3 951 0 987 0C1023 0 1023 -3 1216 -3L1216 82C1101 77 1055 81 870 77L1052 270C1149 373 1179 428 1179 503C1179 618 1101 689 974 689C902 689 853 669 804 619L787 483L816 483L829 529C845 587 881 612 948 612C1034 612 1089 558 1089 473C1089 398 1047 324 934 204ZM1706 253C1706 366 1625 446 1511 446C1463 446 1427 443 1374 396L1374 605L1679 604L1679 689L1322 690L1322 322L1342 316C1389 363 1416 377 1465 377C1561 377 1621 309 1621 201C1621 90 1557 25 1448 25C1394 25 1344 43 1330 69L1284 151L1260 137C1283 80 1295 48 1309 4C1337 -11 1377 -20 1420 -20C1548 -20 1706 89 1706 253ZM1870 111C1840 111 1813 83 1813 53C1813 23 1840 -5 1869 -5C1901 -5 1929 22 1929 53C1929 83 1901 111 1870 111ZM2091 -20C2202 16 2250 39 2304 85C2401 168 2452 283 2452 417C2452 586 2371 689 2239 689C2111 689 2015 589 2015 455C2015 340 2090 256 2194 256C2228 256 2267 267 2285 282L2355 340C2347 172 2238 49 2057 5L2057 -3ZM2235 656C2280 656 2313 637 2335 597C2353 565 2365 516 2365 471C2365 379 2312 317 2235 317C2155 317 2101 388 2101 492C2101 593 2153 656 2235 656Z" stroke="rgb(0,0,0)" stroke-opacity="1" stroke-width="8" fill="rgb(0,0,0)" fill-opacity="1"></path></g></g><g><g transform="matrix(1,0,0,1,268.059814453125,193.3614501953125)"><path transform="matrix(0.017,0,0,-0.017,0,0)" d="M146 266C146 526 243 632 301 700L282 726C225 675 60 542 60 266C60 159 85 58 133 -32C168 -99 200 -138 282 -215L301 -194C255 -137 146 -15 146 266Z" stroke="rgb(0,0,0)" stroke-opacity="1" stroke-width="8" fill="rgb(0,0,0)" fill-opacity="1"></path></g></g><g><g transform="matrix(1,0,0,1,273.7119140625,192.49188232421875)"><path transform="matrix(0.017,0,0,-0.017,0,0)" d="M240 722L228 733C176 707 140 698 68 691L64 670L112 670C136 670 146 663 146 646C146 638 145 629 144 622L96 354C82 279 66 210 14 1L23 -9L90 8L113 132C122 180 146 225 180 259C249 59 281 -9 306 -9C319 -9 343 4 387 35L433 67L425 86L382 62C368 54 361 52 353 52C343 52 336 58 327 75C292 139 270 193 231 316L245 330C306 391 352 416 402 416C410 416 421 414 438 410L455 473C437 479 419 482 407 482C341 482 258 405 133 230ZM810 330L833 330C841 395 848 432 857 458C833 473 798 482 761 482C716 483 643 463 586 400C532 352 493 241 493 136C493 40 535 -11 615 -11C669 -11 717 9 772 54L822 95L814 115L799 105C727 57 689 40 654 40C598 40 569 80 569 159C569 267 604 371 653 409C674 425 698 433 729 433C774 433 810 414 810 390ZM1145 204L1116 77C1112 60 1110 42 1110 26C1110 4 1119 -9 1134 -9C1157 -9 1198 17 1280 85L1273 106C1249 86 1220 59 1198 59C1189 59 1183 68 1183 82C1183 87 1183 90 1184 93L1276 472L1266 481L1233 463C1192 478 1175 482 1148 482C1120 482 1100 477 1073 464C1011 433 978 403 953 354C909 265 878 145 878 67C878 23 893 -11 912 -11C949 -11 1029 41 1145 204ZM1193 414C1171 305 1152 253 1118 201C1061 117 1000 59 968 59C956 59 950 72 950 99C950 163 978 280 1013 360C1037 415 1060 433 1108 433C1131 433 1149 429 1193 414ZM1568 722L1556 733C1504 707 1468 698 1396 691L1392 670L1440 670C1464 670 1474 663 1474 648C1474 645 1474 640 1471 622C1460 567 1387 182 1372 132C1359 82 1353 52 1353 31C1353 6 1364 -9 1383 -9C1409 -9 1445 12 1543 85L1533 103L1507 86C1478 67 1456 56 1446 56C1439 56 1433 66 1433 76C1433 82 1434 89 1437 104Z" stroke="rgb(0,0,0)" stroke-opacity="1" stroke-width="8" fill="rgb(0,0,0)" fill-opacity="1"></path></g></g><g><g transform="matrix(1,0,0,1,300.8043212890625,193.3614501953125)"><path transform="matrix(0.017,0,0,-0.017,0,0)" d="M51 726L32 700C87 636 187 526 187 266C187 -10 83 -131 32 -194L51 -215C104 -165 273 -23 273 265C273 542 108 675 51 726Z" stroke="rgb(0,0,0)" stroke-opacity="1" stroke-width="8" fill="rgb(0,0,0)" fill-opacity="1"></path></g></g></g></g><g><g></g></g><g><g><g><g transform="matrix(1,0,0,1,28.79345703125,217.15216064453125)"><path transform="matrix(0.017,0,0,-0.017,0,0)" d="M271 204L242 77C238 60 236 42 236 26C236 4 245 -9 260 -9C283 -9 324 17 406 85L399 106C375 86 346 59 324 59C315 59 309 68 309 82C309 87 309 90 310 93L402 472L392 481L359 463C318 478 301 482 274 482C246 482 226 477 199 464C137 433 104 403 79 354C35 265 4 145 4 67C4 23 19 -11 38 -11C75 -11 155 41 271 204ZM319 414C297 305 278 253 244 201C187 117 126 59 94 59C82 59 76 72 76 99C76 163 104 280 139 360C163 415 186 433 234 433C257 433 275 429 319 414ZM718 482C651 482 498 419 498 259C498 182 543 136 620 136C628 136 639 136 650 137L609 99C593 84 582 66 582 52C582 42 589 31 603 19C534 -4 406 -48 406 -159C406 -230 476 -276 585 -276C714 -276 827 -204 827 -121C827 -85 806 -49 763 -14L703 35C669 62 656 81 656 100C656 114 671 128 683 146C781 170 852 253 852 342C852 357 849 376 848 380C865 378 873 378 882 378C899 378 909 379 932 382L941 427L938 433C910 426 890 424 836 424C836 425 812 482 718 482ZM619 1L696 -58C742 -94 761 -121 761 -154C761 -206 692 -248 609 -248C527 -248 470 -206 470 -145C470 -43 580 -11 619 1ZM693 448C751 448 780 412 780 341C780 238 732 168 662 168C601 168 569 209 569 288C569 383 620 448 693 448ZM1270 111L1246 94C1193 56 1145 36 1109 36C1062 36 1033 73 1033 133C1033 158 1036 185 1041 214C1058 218 1167 248 1192 259C1277 296 1316 342 1316 404C1316 451 1282 482 1232 482C1164 496 1054 423 1017 349C987 299 957 180 957 113C957 35 1001 -11 1073 -11C1130 -11 1186 17 1278 92ZM1055 274C1072 343 1092 386 1121 412C1139 428 1170 440 1194 440C1223 440 1242 420 1242 388C1242 344 1207 297 1155 272C1127 258 1091 247 1046 237ZM1613 388L1620 368L1652 389C1689 412 1692 414 1699 414C1709 414 1717 404 1717 391C1717 384 1713 361 1709 347L1643 107C1635 76 1630 49 1630 30C1630 6 1641 -9 1660 -9C1686 -9 1722 12 1820 85L1810 103L1784 86C1755 67 1732 56 1723 56C1716 56 1710 66 1710 76C1710 86 1712 95 1717 116L1794 420C1798 437 1800 448 1800 456C1800 473 1791 482 1775 482C1753 482 1716 461 1641 408ZM1807 712C1778 712 1749 679 1749 645C1749 620 1764 604 1788 604C1819 604 1843 633 1843 671C1843 695 1828 712 1807 712ZM1880 388L1887 368L1919 389C1956 412 1959 414 1966 414C1977 414 1984 404 1984 389C1984 338 1943 145 1902 2L1909 -9C1934 -2 1957 4 1979 8C1998 134 2019 199 2065 268C2119 352 2194 414 2239 414C2250 414 2256 405 2256 390C2256 372 2253 351 2245 319L2193 107C2184 70 2180 47 2180 31C2180 6 2191 -9 2210 -9C2236 -9 2272 12 2370 85L2360 103L2334 86C2305 67 2283 56 2273 56C2266 56 2260 65 2260 76C2260 81 2261 92 2262 96L2328 372C2335 401 2339 429 2339 446C2339 469 2328 482 2308 482C2266 482 2197 444 2138 389C2100 354 2072 320 2020 247L2058 408C2062 426 2064 438 2064 449C2064 470 2056 482 2041 482C2020 482 1981 460 1908 408ZM3119 253C3119 366 3038 446 2924 446C2876 446 2840 443 2787 396L2787 605L3092 604L3092 689L2735 690L2735 322L2755 316C2802 363 2829 377 2878 377C2974 377 3034 309 3034 201C3034 90 2970 25 2861 25C2807 25 2757 43 2743 69L2697 151L2673 137C2696 80 2708 48 2722 4C2750 -11 2790 -20 2833 -20C2961 -20 3119 89 3119 253ZM3422 689C3267 689 3188 566 3188 324C3188 207 3209 106 3244 57C3279 8 3335 -20 3397 -20C3548 -20 3624 110 3624 366C3624 585 3559 689 3422 689ZM3404 654C3501 654 3540 556 3540 316C3540 103 3502 15 3410 15C3313 15 3272 116 3272 360C3272 571 3309 654 3404 654ZM4097 329C4046 329 4007 296 3958 209L3992 182C4032 250 4058 272 4098 272C4156 272 4258 201 4324 201C4375 201 4419 236 4462 314L4428 341C4397 286 4360 257 4323 257C4272 257 4170 329 4097 329Z" stroke="rgb(0,0,0)" stroke-opacity="1" stroke-width="8" fill="rgb(0,0,0)" fill-opacity="1"></path></g></g><g><g transform="matrix(1,0,0,1,114.78533935546875,217.15216064453125)"><path transform="matrix(0.017,0,0,-0.017,0,0)" d="M604 347L604 406L65 406L65 347ZM604 134L604 193L65 193L65 134Z" stroke="rgb(0,0,0)" stroke-opacity="1" stroke-width="8" fill="rgb(0,0,0)" fill-opacity="1"></path></g></g><g><g transform="matrix(1,0,0,1,131.2391357421875,217.15216064453125)"><path transform="matrix(0.017,0,0,-0.017,0,0)" d="M667 -3L667 27L615 30C560 33 550 44 550 96L550 700L309 598L316 548L466 614L466 96C466 44 455 33 401 30L345 27L345 -3C499 0 499 0 510 0C541 0 651 -3 667 -3ZM764 23L764 -3C951 -3 951 0 987 0C1023 0 1023 -3 1216 -3L1216 82C1101 77 1055 81 870 77L1052 270C1149 373 1179 428 1179 503C1179 618 1101 689 974 689C902 689 853 669 804 619L787 483L816 483L829 529C845 587 881 612 948 612C1034 612 1089 558 1089 473C1089 398 1047 324 934 204ZM1706 253C1706 366 1625 446 1511 446C1463 446 1427 443 1374 396L1374 605L1679 604L1679 689L1322 690L1322 322L1342 316C1389 363 1416 377 1465 377C1561 377 1621 309 1621 201C1621 90 1557 25 1448 25C1394 25 1344 43 1330 69L1284 151L1260 137C1283 80 1295 48 1309 4C1337 -11 1377 -20 1420 -20C1548 -20 1706 89 1706 253ZM1762 23L1762 -3C1949 -3 1949 0 1985 0C2021 0 2021 -3 2214 -3L2214 82C2099 77 2053 81 1868 77L2050 270C2147 373 2177 428 2177 503C2177 618 2099 689 1972 689C1900 689 1851 669 1802 619L1785 483L1814 483L1827 529C1843 587 1879 612 1946 612C2032 612 2087 558 2087 473C2087 398 2045 324 1932 204ZM2369 111C2339 111 2312 83 2312 53C2312 23 2339 -5 2368 -5C2400 -5 2428 22 2428 53C2428 83 2400 111 2369 111ZM2953 253C2953 366 2872 446 2758 446C2710 446 2674 443 2621 396L2621 605L2926 604L2926 689L2569 690L2569 322L2589 316C2636 363 2663 377 2712 377C2808 377 2868 309 2868 201C2868 90 2804 25 2695 25C2641 25 2591 43 2577 69L2531 151L2507 137C2530 80 2542 48 2556 4C2584 -11 2624 -20 2667 -20C2795 -20 2953 89 2953 253Z" stroke="rgb(0,0,0)" stroke-opacity="1" stroke-width="8" fill="rgb(0,0,0)" fill-opacity="1"></path></g></g><g><g transform="matrix(1,0,0,1,189.73095703125,217.15216064453125)"><path transform="matrix(0.017,0,0,-0.017,0,0)" d="M604 279L604 338L364 338L364 541L305 541L305 338L65 338L65 279L305 279L305 87L364 87L364 279ZM604 0L604 55L65 55L65 0Z" stroke="rgb(0,0,0)" stroke-opacity="1" stroke-width="8" fill="rgb(0,0,0)" fill-opacity="1"></path></g></g><g><g transform="matrix(1,0,0,1,204.48638916015625,217.15216064453125)"><path transform="matrix(0.017,0,0,-0.017,0,0)" d="M265 23L265 -3C452 -3 452 0 488 0C524 0 524 -3 717 -3L717 82C602 77 556 81 371 77L553 270C650 373 680 428 680 503C680 618 602 689 475 689C403 689 354 669 305 619L288 483L317 483L330 529C346 587 382 612 449 612C535 612 590 558 590 473C590 398 548 324 435 204ZM764 23L764 -3C951 -3 951 0 987 0C1023 0 1023 -3 1216 -3L1216 82C1101 77 1055 81 870 77L1052 270C1149 373 1179 428 1179 503C1179 618 1101 689 974 689C902 689 853 669 804 619L787 483L816 483L829 529C845 587 881 612 948 612C1034 612 1089 558 1089 473C1089 398 1047 324 934 204ZM1415 345C1374 326 1357 315 1335 294C1297 256 1277 211 1277 159C1277 56 1360 -20 1473 -20C1603 -20 1711 82 1711 206C1711 286 1674 329 1560 381C1651 443 1683 485 1683 545C1683 631 1612 689 1506 689C1387 689 1300 613 1300 508C1300 440 1327 402 1415 345ZM1531 295C1594 267 1632 218 1632 164C1632 80 1569 14 1488 14C1403 14 1348 74 1348 167C1348 240 1377 286 1451 331ZM1470 423C1407 454 1375 494 1375 544C1375 610 1423 655 1494 655C1567 655 1615 607 1615 534C1615 477 1590 438 1525 396ZM1870 111C1840 111 1813 83 1813 53C1813 23 1840 -5 1869 -5C1901 -5 1929 22 1929 53C1929 83 1901 111 1870 111ZM2126 331C2147 512 2236 611 2416 665L2374 689C2278 657 2237 637 2186 593C2083 506 2027 384 2027 247C2027 82 2107 -20 2236 -20C2366 -20 2463 83 2463 219C2463 334 2394 409 2288 409C2211 409 2179 370 2126 331ZM2250 349C2326 349 2377 283 2377 184C2377 80 2326 13 2249 13C2164 13 2118 86 2118 220C2118 255 2122 274 2133 291C2155 325 2202 349 2250 349Z" stroke="rgb(0,0,0)" stroke-opacity="1" stroke-width="8" fill="rgb(0,0,0)" fill-opacity="1"></path></g></g><g><g transform="matrix(1,0,0,1,246.8641357421875,218.021728515625)"><path transform="matrix(0.017,0,0,-0.017,0,0)" d="M146 266C146 526 243 632 301 700L282 726C225 675 60 542 60 266C60 159 85 58 133 -32C168 -99 200 -138 282 -215L301 -194C255 -137 146 -15 146 266Z" stroke="rgb(0,0,0)" stroke-opacity="1" stroke-width="8" fill="rgb(0,0,0)" fill-opacity="1"></path></g></g><g><g transform="matrix(1,0,0,1,252.516357421875,217.15216064453125)"><path transform="matrix(0.017,0,0,-0.017,0,0)" d="M240 722L228 733C176 707 140 698 68 691L64 670L112 670C136 670 146 663 146 646C146 638 145 629 144 622L96 354C82 279 66 210 14 1L23 -9L90 8L113 132C122 180 146 225 180 259C249 59 281 -9 306 -9C319 -9 343 4 387 35L433 67L425 86L382 62C368 54 361 52 353 52C343 52 336 58 327 75C292 139 270 193 231 316L245 330C306 391 352 416 402 416C410 416 421 414 438 410L455 473C437 479 419 482 407 482C341 482 258 405 133 230ZM810 330L833 330C841 395 848 432 857 458C833 473 798 482 761 482C716 483 643 463 586 400C532 352 493 241 493 136C493 40 535 -11 615 -11C669 -11 717 9 772 54L822 95L814 115L799 105C727 57 689 40 654 40C598 40 569 80 569 159C569 267 604 371 653 409C674 425 698 433 729 433C774 433 810 414 810 390ZM1145 204L1116 77C1112 60 1110 42 1110 26C1110 4 1119 -9 1134 -9C1157 -9 1198 17 1280 85L1273 106C1249 86 1220 59 1198 59C1189 59 1183 68 1183 82C1183 87 1183 90 1184 93L1276 472L1266 481L1233 463C1192 478 1175 482 1148 482C1120 482 1100 477 1073 464C1011 433 978 403 953 354C909 265 878 145 878 67C878 23 893 -11 912 -11C949 -11 1029 41 1145 204ZM1193 414C1171 305 1152 253 1118 201C1061 117 1000 59 968 59C956 59 950 72 950 99C950 163 978 280 1013 360C1037 415 1060 433 1108 433C1131 433 1149 429 1193 414ZM1568 722L1556 733C1504 707 1468 698 1396 691L1392 670L1440 670C1464 670 1474 663 1474 648C1474 645 1474 640 1471 622C1460 567 1387 182 1372 132C1359 82 1353 52 1353 31C1353 6 1364 -9 1383 -9C1409 -9 1445 12 1543 85L1533 103L1507 86C1478 67 1456 56 1446 56C1439 56 1433 66 1433 76C1433 82 1434 89 1437 104Z" stroke="rgb(0,0,0)" stroke-opacity="1" stroke-width="8" fill="rgb(0,0,0)" fill-opacity="1"></path></g></g><g><g transform="matrix(1,0,0,1,279.608642578125,218.021728515625)"><path transform="matrix(0.017,0,0,-0.017,0,0)" d="M51 726L32 700C87 636 187 526 187 266C187 -10 83 -131 32 -194L51 -215C104 -165 273 -23 273 265C273 542 108 675 51 726Z" stroke="rgb(0,0,0)" stroke-opacity="1" stroke-width="8" fill="rgb(0,0,0)" fill-opacity="1"></path></g></g></g></g></svg>