<svg xmlns="http://www.w3.org/2000/svg" xmlns:xlink="http://www.w3.org/1999/xlink" width="640.0869750976562" height="54.19021987915039" style="width:640.0869750976562px;height:54.19021987915039px;font-family:Asana-Math, Asana;background:#FFF;"><g><g><g><g transform="matrix(1,0,0,1,6.0625,19.86956787109375)"><path transform="matrix(0.017,0,0,-0.017,0,0)" d="M937 664L950 695C922 699 775 701 773 692L688 536L442 114L292 692C269 686 146 690 125 692L122 664L148 662C200 658 218 648 218 622C218 616 72 100 70 93C54 41 39 28 -16 23L-19 -3L20 -2C54 -1 79 0 93 0C107 0 133 -1 168 -2L203 -3L206 25L168 28C136 30 119 40 119 55C119 65 121 78 126 96L250 560L399 -18L422 -18L479 86L718 500L770 587L733 67C729 39 717 32 666 28L635 25L632 -3L679 -2C721 -1 751 0 766 0C782 0 812 -1 853 -2L899 -3L902 25L865 28C829 31 811 42 811 63L812 100L853 631C855 650 870 660 899 662ZM1281 111L1257 94C1204 56 1156 36 1120 36C1073 36 1044 73 1044 133C1044 158 1047 185 1052 214C1069 218 1178 248 1203 259C1288 296 1327 342 1327 404C1327 451 1293 482 1243 482C1175 496 1065 423 1028 349C998 299 968 180 968 113C968 35 1012 -11 1084 -11C1141 -11 1197 17 1289 92ZM1066 274C1083 343 1103 386 1132 412C1150 428 1181 440 1205 440C1234 440 1253 420 1253 388C1253 344 1218 297 1166 272C1138 258 1102 247 1057 237ZM1365 388L1372 368L1404 389C1441 412 1444 414 1451 414C1462 414 1469 404 1469 389C1469 338 1428 145 1387 2L1394 -9C1419 -2 1442 4 1464 8C1483 134 1504 199 1550 268C1604 352 1679 414 1724 414C1735 414 1741 405 1741 390C1741 372 1738 351 1730 319L1678 107C1669 70 1665 47 1665 31C1665 6 1676 -9 1695 -9C1721 -9 1757 12 1855 85L1845 103L1819 86C1790 67 1768 56 1758 56C1751 56 1745 65 1745 76C1745 81 1746 92 1747 96L1813 372C1820 401 1824 429 1824 446C1824 469 1813 482 1793 482C1751 482 1682 444 1623 389C1585 354 1557 320 1505 247L1543 408C1547 426 1549 438 1549 449C1549 470 1541 482 1526 482C1505 482 1466 460 1393 408Z" stroke="rgb(0,0,0)" stroke-opacity="1" stroke-width="8" fill="rgb(0,0,0)" fill-opacity="1"></path></g></g></g></g><g><g><g><g transform="matrix(1,0,0,1,73.00543212890625,19.86956787109375)"><path transform="matrix(0.017,0,0,-0.017,0,0)" d="M543 227C543 337 459 353 377 365C434 385 459 397 490 425C536 464 559 511 559 562C559 644 501 692 401 692C399 692 389 692 374 691L311 690C299 689 263 689 251 689C232 689 201 690 152 691L100 692L97 664L150 662C174 661 185 653 185 635C185 621 181 589 176 559L89 55C85 37 73 30 31 23L26 -3L63 -2C90 0 105 0 117 0C128 0 154 -1 180 -2L217 -3L237 -4C256 -5 269 -6 277 -6C392 -6 543 87 543 227ZM166 41L217 340L302 340C405 340 455 298 455 211C455 108 382 34 282 34C228 34 207 38 166 41ZM352 655C433 655 473 619 473 544C473 439 399 376 275 376L223 376L272 650C288 650 329 655 352 655ZM1547 664L1560 695C1532 699 1385 701 1383 692L1298 536L1052 114L902 692C879 686 756 690 735 692L732 664L758 662C810 658 828 648 828 622C828 616 682 100 680 93C664 41 649 28 594 23L591 -3L630 -2C664 -1 689 0 703 0C717 0 743 -1 778 -2L813 -3L816 25L778 28C746 30 729 40 729 55C729 65 731 78 736 96L860 560L1009 -18L1032 -18L1089 86L1328 500L1380 587L1343 67C1339 39 1327 32 1276 28L1245 25L1242 -3L1289 -2C1331 -1 1361 0 1376 0C1392 0 1422 -1 1463 -2L1509 -3L1512 25L1475 28C1439 31 1421 42 1421 63L1422 100L1463 631C1465 650 1480 660 1509 662ZM1668 664L1724 662C1748 661 1759 653 1759 635C1759 621 1755 589 1750 559L1675 125C1659 34 1657 32 1617 28L1576 25L1572 -3L1614 -2C1661 0 1680 0 1704 0L1801 -3L1827 -3L1830 25L1781 28C1754 30 1745 38 1745 58C1745 67 1746 76 1749 93L1850 648C1879 654 1899 656 1926 656C2013 656 2059 617 2059 543C2059 448 1981 378 1877 378L1833 378L1830 367C1964 172 1995 124 2070 -3C2070 -3 2155 0 2155 0C2156 0 2170 -1 2189 -3L2202 -3L2202 24C2162 29 2151 37 2122 79L1938 354C1993 364 2022 376 2058 402C2116 444 2147 499 2147 560C2147 646 2083 693 1972 691L1671 691Z" stroke="rgb(0,0,0)" stroke-opacity="1" stroke-width="8" fill="rgb(0,0,0)" fill-opacity="1"></path></g></g><g><g transform="matrix(1,0,0,1,120.20654296875,19.86956787109375)"><path transform="matrix(0.017,0,0,-0.017,0,0)" d="M604 347L604 406L65 406L65 347ZM604 134L604 193L65 193L65 134Z" stroke="rgb(0,0,0)" stroke-opacity="1" stroke-width="8" fill="rgb(0,0,0)" fill-opacity="1"></path></g></g><g><g transform="matrix(1,0,0,1,136.66033935546875,19.86956787109375)"><path transform="matrix(0.017,0,0,-0.017,0,0)" d="" stroke="rgb(0,0,0)" stroke-opacity="1" stroke-width="8" fill="rgb(0,0,0)" fill-opacity="1"></path></g></g><g><g transform="matrix(1,0,0,1,140.89947509765625,20.7391357421875)"><path transform="matrix(0.017,0,0,-0.017,0,0)" d="M146 266C146 526 243 632 301 700L282 726C225 675 60 542 60 266C60 159 85 58 133 -32C168 -99 200 -138 282 -215L301 -194C255 -137 146 -15 146 266Z" stroke="rgb(0,0,0)" stroke-opacity="1" stroke-width="8" fill="rgb(0,0,0)" fill-opacity="1"></path></g></g><g><g transform="matrix(1,0,0,1,146.5516357421875,19.86956787109375)"><path transform="matrix(0.017,0,0,-0.017,0,0)" d="M667 -3L667 27L615 30C560 33 550 44 550 96L550 700L309 598L316 548L466 614L466 96C466 44 455 33 401 30L345 27L345 -3C499 0 499 0 510 0C541 0 651 -3 667 -3ZM1011 689C856 689 777 566 777 324C777 207 798 106 833 57C868 8 924 -20 986 -20C1137 -20 1213 110 1213 366C1213 585 1148 689 1011 689ZM993 654C1090 654 1129 556 1129 316C1129 103 1091 15 999 15C902 15 861 116 861 360C861 571 898 654 993 654ZM1664 267L1533 213L1528 204L1564 153L1574 153L1680 241L1698 99L1708 95L1776 121L1776 131L1708 253L1846 233L1855 241L1855 303L1849 307L1710 283L1779 408L1776 423L1714 442L1705 438L1679 295L1584 393L1574 393L1530 341L1533 331ZM2300 420C2321 420 2334 421 2359 424C2304 350 2205 266 2205 126C2205 44 2240 -11 2293 -11C2357 -11 2409 44 2483 187C2474 143 2471 118 2471 95C2471 32 2500 -11 2545 -11C2679 -11 2832 238 2832 384C2832 441 2806 482 2770 482C2757 482 2745 478 2737 470L2687 423L2698 404C2707 410 2716 413 2725 413C2752 413 2768 390 2768 350C2768 205 2671 39 2586 39C2557 39 2536 79 2536 134C2536 181 2545 247 2557 290L2609 474L2602 482L2528 460L2499 311C2487 249 2473 209 2444 155C2404 80 2366 39 2336 39C2301 39 2278 78 2278 136C2278 255 2319 352 2418 464L2408 482C2388 473 2375 470 2347 470C2319 470 2277 472 2248 475L2236 476C2230 477 2225 477 2224 477C2212 477 2203 475 2192 470C2178 443 2167 407 2154 352L2176 352L2193 394C2200 411 2220 422 2244 422C2278 422 2261 420 2300 420ZM3182 111L3158 94C3105 56 3057 36 3021 36C2974 36 2945 73 2945 133C2945 158 2948 185 2953 214C2970 218 3079 248 3104 259C3189 296 3228 342 3228 404C3228 451 3194 482 3144 482C3076 496 2966 423 2929 349C2899 299 2869 180 2869 113C2869 35 2913 -11 2985 -11C3042 -11 3098 17 3190 92ZM2967 274C2984 343 3004 386 3033 412C3051 428 3082 440 3106 440C3135 440 3154 420 3154 388C3154 344 3119 297 3067 272C3039 258 3003 247 2958 237ZM3276 388L3283 368L3315 389C3352 412 3355 414 3362 414C3372 414 3380 404 3380 391C3380 384 3376 361 3372 347L3306 107C3298 76 3293 49 3293 30C3293 6 3304 -9 3323 -9C3349 -9 3385 12 3483 85L3473 103L3447 86C3418 67 3395 56 3386 56C3379 56 3373 66 3373 76C3373 86 3375 95 3380 116L3457 420C3461 437 3463 448 3463 456C3463 473 3454 482 3438 482C3416 482 3379 461 3304 408ZM3470 712C3441 712 3412 679 3412 645C3412 620 3427 604 3451 604C3482 604 3506 633 3506 671C3506 695 3491 712 3470 712ZM3794 482C3727 482 3574 419 3574 259C3574 182 3619 136 3696 136C3704 136 3715 136 3726 137L3685 99C3669 84 3658 66 3658 52C3658 42 3665 31 3679 19C3610 -4 3482 -48 3482 -159C3482 -230 3552 -276 3661 -276C3790 -276 3903 -204 3903 -121C3903 -85 3882 -49 3839 -14L3779 35C3745 62 3732 81 3732 100C3732 114 3747 128 3759 146C3857 170 3928 253 3928 342C3928 357 3925 376 3924 380C3941 378 3949 378 3958 378C3975 378 3985 379 4008 382L4017 427L4014 433C3986 426 3966 424 3912 424C3912 425 3888 482 3794 482ZM3695 1L3772 -58C3818 -94 3837 -121 3837 -154C3837 -206 3768 -248 3685 -248C3603 -248 3546 -206 3546 -145C3546 -43 3656 -11 3695 1ZM3769 448C3827 448 3856 412 3856 341C3856 238 3808 168 3738 168C3677 168 3645 209 3645 288C3645 383 3696 448 3769 448ZM4254 722L4242 733C4197 711 4156 697 4082 691L4078 670L4126 670C4144 670 4160 667 4160 647C4160 641 4160 632 4158 622L4116 388C4096 272 4054 80 4028 2L4035 -9L4104 7C4112 64 4126 164 4166 236C4211 317 4314 414 4356 414C4367 414 4378 407 4378 393C4378 375 4373 342 4363 303L4312 107C4306 85 4299 55 4299 31C4299 6 4309 -9 4330 -9C4362 -9 4430 41 4489 85L4479 103L4453 86C4430 71 4404 56 4392 56C4385 56 4379 65 4379 76C4379 88 4382 101 4386 116L4450 372C4456 398 4461 423 4461 447C4461 464 4455 482 4429 482C4394 482 4317 437 4249 374C4216 343 4190 308 4162 273L4158 275ZM4642 390L4586 107C4585 99 4573 61 4573 31C4573 6 4584 -9 4603 -9C4638 -9 4673 11 4751 74L4782 99L4772 117L4727 86C4698 66 4678 56 4667 56C4658 56 4653 64 4653 76C4653 102 4667 183 4696 328L4709 390L4816 390L4827 440C4789 436 4755 434 4717 434C4733 528 4744 577 4762 631L4751 646C4731 634 4704 622 4673 610L4648 440C4604 419 4578 408 4560 403L4558 390ZM5132 388L5139 368L5171 389C5208 412 5211 414 5218 414C5228 414 5236 404 5236 391C5236 384 5232 361 5228 347L5162 107C5154 76 5149 49 5149 30C5149 6 5160 -9 5179 -9C5205 -9 5241 12 5339 85L5329 103L5303 86C5274 67 5251 56 5242 56C5235 56 5229 66 5229 76C5229 86 5231 95 5236 116L5313 420C5317 437 5319 448 5319 456C5319 473 5310 482 5294 482C5272 482 5235 461 5160 408ZM5326 712C5297 712 5268 679 5268 645C5268 620 5283 604 5307 604C5338 604 5362 633 5362 671C5362 695 5347 712 5326 712ZM5399 388L5406 368L5438 389C5475 412 5478 414 5485 414C5496 414 5503 404 5503 389C5503 338 5462 145 5421 2L5428 -9C5453 -2 5476 4 5498 8C5517 134 5538 199 5584 268C5638 352 5713 414 5758 414C5769 414 5775 405 5775 390C5775 372 5772 351 5764 319L5712 107C5703 70 5699 47 5699 31C5699 6 5710 -9 5729 -9C5755 -9 5791 12 5889 85L5879 103L5853 86C5824 67 5802 56 5792 56C5785 56 5779 65 5779 76C5779 81 5780 92 5781 96L5847 372C5854 401 5858 429 5858 446C5858 469 5847 482 5827 482C5785 482 5716 444 5657 389C5619 354 5591 320 5539 247L5577 408C5581 426 5583 438 5583 449C5583 470 5575 482 5560 482C5539 482 5500 460 5427 408ZM6419 722L6407 733C6355 707 6319 698 6247 691L6243 670L6291 670C6315 670 6325 663 6325 646C6325 638 6324 629 6323 622L6275 354C6261 279 6245 210 6193 1L6202 -9L6269 8L6292 132C6301 180 6325 225 6359 259C6428 59 6460 -9 6485 -9C6498 -9 6522 4 6566 35L6612 67L6604 86L6561 62C6547 54 6540 52 6532 52C6522 52 6515 58 6506 75C6471 139 6449 193 6410 316L6424 330C6485 391 6531 416 6581 416C6589 416 6600 414 6617 410L6634 473C6616 479 6598 482 6586 482C6520 482 6437 405 6312 230ZM6922 482C6855 482 6702 419 6702 259C6702 182 6747 136 6824 136C6832 136 6843 136 6854 137L6813 99C6797 84 6786 66 6786 52C6786 42 6793 31 6807 19C6738 -4 6610 -48 6610 -159C6610 -230 6680 -276 6789 -276C6918 -276 7031 -204 7031 -121C7031 -85 7010 -49 6967 -14L6907 35C6873 62 6860 81 6860 100C6860 114 6875 128 6887 146C6985 170 7056 253 7056 342C7056 357 7053 376 7052 380C7069 378 7077 378 7086 378C7103 378 7113 379 7136 382L7145 427L7142 433C7114 426 7094 424 7040 424C7040 425 7016 482 6922 482ZM6823 1L6900 -58C6946 -94 6965 -121 6965 -154C6965 -206 6896 -248 6813 -248C6731 -248 6674 -206 6674 -145C6674 -43 6784 -11 6823 1ZM6897 448C6955 448 6984 412 6984 341C6984 238 6936 168 6866 168C6805 168 6773 209 6773 288C6773 383 6824 448 6897 448Z" stroke="rgb(0,0,0)" stroke-opacity="1" stroke-width="8" fill="rgb(0,0,0)" fill-opacity="1"></path></g></g><g><g transform="matrix(1,0,0,1,272.20379638671875,20.7391357421875)"><path transform="matrix(0.017,0,0,-0.017,0,0)" d="M51 726L32 700C87 636 187 526 187 266C187 -10 83 -131 32 -194L51 -215C104 -165 273 -23 273 265C273 542 108 675 51 726Z" stroke="rgb(0,0,0)" stroke-opacity="1" stroke-width="8" fill="rgb(0,0,0)" fill-opacity="1"></path></g></g><g><g transform="matrix(1,0,0,1,277.85595703125,19.86956787109375)"><path transform="matrix(0.017,0,0,-0.017,0,0)" d="" stroke="rgb(0,0,0)" stroke-opacity="1" stroke-width="8" fill="rgb(0,0,0)" fill-opacity="1"></path></g></g><g><g transform="matrix(1,0,0,1,285.49188232421875,19.86956787109375)"><path transform="matrix(0.017,0,0,-0.017,0,0)" d="M604 241L604 300L364 300L364 538L305 538L305 300L65 300L65 241L305 241L305 0L364 0L364 241Z" stroke="rgb(0,0,0)" stroke-opacity="1" stroke-width="8" fill="rgb(0,0,0)" fill-opacity="1"></path></g></g><g><g transform="matrix(1,0,0,1,300.247314453125,19.86956787109375)"><path transform="matrix(0.017,0,0,-0.017,0,0)" d="" stroke="rgb(0,0,0)" stroke-opacity="1" stroke-width="8" fill="rgb(0,0,0)" fill-opacity="1"></path></g></g><g><g transform="matrix(1,0,0,1,304.4864501953125,20.7391357421875)"><path transform="matrix(0.017,0,0,-0.017,0,0)" d="M146 266C146 526 243 632 301 700L282 726C225 675 60 542 60 266C60 159 85 58 133 -32C168 -99 200 -138 282 -215L301 -194C255 -137 146 -15 146 266Z" stroke="rgb(0,0,0)" stroke-opacity="1" stroke-width="8" fill="rgb(0,0,0)" fill-opacity="1"></path></g></g><g><g transform="matrix(1,0,0,1,310.13861083984375,19.86956787109375)"><path transform="matrix(0.017,0,0,-0.017,0,0)" d="M380 331C401 512 490 611 670 665L628 689C532 657 491 637 440 593C337 506 281 384 281 247C281 82 361 -20 490 -20C620 -20 717 83 717 219C717 334 648 409 542 409C465 409 433 370 380 331ZM504 349C580 349 631 283 631 184C631 80 580 13 503 13C418 13 372 86 372 220C372 255 376 274 387 291C409 325 456 349 504 349ZM872 111C842 111 815 83 815 53C815 23 842 -5 871 -5C903 -5 931 22 931 53C931 83 903 111 872 111ZM1013 23L1013 -3C1200 -3 1200 0 1236 0C1272 0 1272 -3 1465 -3L1465 82C1350 77 1304 81 1119 77L1301 270C1398 373 1428 428 1428 503C1428 618 1350 689 1223 689C1151 689 1102 669 1053 619L1036 483L1065 483L1078 529C1094 587 1130 612 1197 612C1283 612 1338 558 1338 473C1338 398 1296 324 1183 204ZM1955 253C1955 366 1874 446 1760 446C1712 446 1676 443 1623 396L1623 605L1928 604L1928 689L1571 690L1571 322L1591 316C1638 363 1665 377 1714 377C1810 377 1870 309 1870 201C1870 90 1806 25 1697 25C1643 25 1593 43 1579 69L1533 151L1509 137C1532 80 1544 48 1558 4C1586 -11 1626 -20 1669 -20C1797 -20 1955 89 1955 253ZM2412 267L2281 213L2276 204L2312 153L2322 153L2428 241L2446 99L2456 95L2524 121L2524 131L2456 253L2594 233L2603 241L2603 303L2597 307L2458 283L2527 408L2524 423L2462 442L2453 438L2427 295L2332 393L2322 393L2278 341L2281 331ZM3117 722L3105 733C3060 711 3019 697 2945 691L2941 670L2989 670C3007 670 3023 667 3023 647C3023 641 3023 632 3021 622L2979 388C2959 272 2917 80 2891 2L2898 -9L2967 7C2975 64 2989 164 3029 236C3074 317 3177 414 3219 414C3230 414 3241 407 3241 393C3241 375 3236 342 3226 303L3175 107C3169 85 3162 55 3162 31C3162 6 3172 -9 3193 -9C3225 -9 3293 41 3352 85L3342 103L3316 86C3293 71 3267 56 3255 56C3248 56 3242 65 3242 76C3242 88 3245 101 3249 116L3313 372C3319 398 3324 423 3324 447C3324 464 3318 482 3292 482C3257 482 3180 437 3112 374C3079 343 3053 308 3025 273L3021 275ZM3708 111L3684 94C3631 56 3583 36 3547 36C3500 36 3471 73 3471 133C3471 158 3474 185 3479 214C3496 218 3605 248 3630 259C3715 296 3754 342 3754 404C3754 451 3720 482 3670 482C3602 496 3492 423 3455 349C3425 299 3395 180 3395 113C3395 35 3439 -11 3511 -11C3568 -11 3624 17 3716 92ZM3493 274C3510 343 3530 386 3559 412C3577 428 3608 440 3632 440C3661 440 3680 420 3680 388C3680 344 3645 297 3593 272C3565 258 3529 247 3484 237ZM3802 388L3809 368L3841 389C3878 412 3881 414 3888 414C3898 414 3906 404 3906 391C3906 384 3902 361 3898 347L3832 107C3824 76 3819 49 3819 30C3819 6 3830 -9 3849 -9C3875 -9 3911 12 4009 85L3999 103L3973 86C3944 67 3921 56 3912 56C3905 56 3899 66 3899 76C3899 86 3901 95 3906 116L3983 420C3987 437 3989 448 3989 456C3989 473 3980 482 3964 482C3942 482 3905 461 3830 408ZM3996 712C3967 712 3938 679 3938 645C3938 620 3953 604 3977 604C4008 604 4032 633 4032 671C4032 695 4017 712 3996 712ZM4320 482C4253 482 4100 419 4100 259C4100 182 4145 136 4222 136C4230 136 4241 136 4252 137L4211 99C4195 84 4184 66 4184 52C4184 42 4191 31 4205 19C4136 -4 4008 -48 4008 -159C4008 -230 4078 -276 4187 -276C4316 -276 4429 -204 4429 -121C4429 -85 4408 -49 4365 -14L4305 35C4271 62 4258 81 4258 100C4258 114 4273 128 4285 146C4383 170 4454 253 4454 342C4454 357 4451 376 4450 380C4467 378 4475 378 4484 378C4501 378 4511 379 4534 382L4543 427L4540 433C4512 426 4492 424 4438 424C4438 425 4414 482 4320 482ZM4221 1L4298 -58C4344 -94 4363 -121 4363 -154C4363 -206 4294 -248 4211 -248C4129 -248 4072 -206 4072 -145C4072 -43 4182 -11 4221 1ZM4295 448C4353 448 4382 412 4382 341C4382 238 4334 168 4264 168C4203 168 4171 209 4171 288C4171 383 4222 448 4295 448ZM4780 722L4768 733C4723 711 4682 697 4608 691L4604 670L4652 670C4670 670 4686 667 4686 647C4686 641 4686 632 4684 622L4642 388C4622 272 4580 80 4554 2L4561 -9L4630 7C4638 64 4652 164 4692 236C4737 317 4840 414 4882 414C4893 414 4904 407 4904 393C4904 375 4899 342 4889 303L4838 107C4832 85 4825 55 4825 31C4825 6 4835 -9 4856 -9C4888 -9 4956 41 5015 85L5005 103L4979 86C4956 71 4930 56 4918 56C4911 56 4905 65 4905 76C4905 88 4908 101 4912 116L4976 372C4982 398 4987 423 4987 447C4987 464 4981 482 4955 482C4920 482 4843 437 4775 374C4742 343 4716 308 4688 273L4684 275ZM5168 390L5112 107C5111 99 5099 61 5099 31C5099 6 5110 -9 5129 -9C5164 -9 5199 11 5277 74L5308 99L5298 117L5253 86C5224 66 5204 56 5193 56C5184 56 5179 64 5179 76C5179 102 5193 183 5222 328L5235 390L5342 390L5353 440C5315 436 5281 434 5243 434C5259 528 5270 577 5288 631L5277 646C5257 634 5230 622 5199 610L5174 440C5130 419 5104 408 5086 403L5084 390ZM5658 388L5665 368L5697 389C5734 412 5737 414 5744 414C5754 414 5762 404 5762 391C5762 384 5758 361 5754 347L5688 107C5680 76 5675 49 5675 30C5675 6 5686 -9 5705 -9C5731 -9 5767 12 5865 85L5855 103L5829 86C5800 67 5777 56 5768 56C5761 56 5755 66 5755 76C5755 86 5757 95 5762 116L5839 420C5843 437 5845 448 5845 456C5845 473 5836 482 5820 482C5798 482 5761 461 5686 408ZM5852 712C5823 712 5794 679 5794 645C5794 620 5809 604 5833 604C5864 604 5888 633 5888 671C5888 695 5873 712 5852 712ZM5925 388L5932 368L5964 389C6001 412 6004 414 6011 414C6022 414 6029 404 6029 389C6029 338 5988 145 5947 2L5954 -9C5979 -2 6002 4 6024 8C6043 134 6064 199 6110 268C6164 352 6239 414 6284 414C6295 414 6301 405 6301 390C6301 372 6298 351 6290 319L6238 107C6229 70 6225 47 6225 31C6225 6 6236 -9 6255 -9C6281 -9 6317 12 6415 85L6405 103L6379 86C6350 67 6328 56 6318 56C6311 56 6305 65 6305 76C6305 81 6306 92 6307 96L6373 372C6380 401 6384 429 6384 446C6384 469 6373 482 6353 482C6311 482 6242 444 6183 389C6145 354 6117 320 6065 247L6103 408C6107 426 6109 438 6109 449C6109 470 6101 482 6086 482C6065 482 6026 460 5953 408ZM7047 330L7070 330C7078 395 7085 432 7094 458C7070 473 7035 482 6998 482C6953 483 6880 463 6823 400C6769 352 6730 241 6730 136C6730 40 6772 -11 6852 -11C6906 -11 6954 9 7009 54L7059 95L7051 115L7036 105C6964 57 6926 40 6891 40C6835 40 6806 80 6806 159C6806 267 6841 371 6890 409C6911 425 6935 433 6966 433C7011 433 7047 414 7047 390ZM7841 103L7815 86C7786 67 7764 56 7754 56C7747 56 7741 65 7741 76C7741 86 7743 95 7748 116L7823 413C7827 430 7830 446 7830 454C7830 471 7820 482 7804 482C7775 482 7737 464 7676 421C7613 376 7578 341 7529 272L7559 409C7563 429 7566 444 7566 451C7566 470 7556 482 7540 482C7510 482 7464 460 7409 418C7365 384 7345 363 7280 275L7313 408C7317 424 7319 439 7319 451C7319 470 7310 482 7296 482C7275 482 7237 461 7163 408L7135 388L7142 368C7179 391 7214 414 7221 414C7232 414 7239 404 7239 389C7239 338 7198 145 7157 2L7160 -9L7228 6L7250 108C7274 219 7301 278 7356 338C7398 384 7443 414 7471 414C7478 414 7482 406 7482 393C7482 358 7460 244 7419 69L7403 2L7408 -9L7477 6L7498 113C7514 194 7548 269 7592 318C7647 379 7697 414 7729 414C7737 414 7742 405 7742 389C7742 365 7739 351 7717 264C7677 105 7661 84 7661 31C7661 6 7672 -9 7691 -9C7717 -9 7753 12 7851 85Z" stroke="rgb(0,0,0)" stroke-opacity="1" stroke-width="8" fill="rgb(0,0,0)" fill-opacity="1"></path></g></g><g><g transform="matrix(1,0,0,1,448.39947509765625,20.7391357421875)"><path transform="matrix(0.017,0,0,-0.017,0,0)" d="M51 726L32 700C87 636 187 526 187 266C187 -10 83 -131 32 -194L51 -215C104 -165 273 -23 273 265C273 542 108 675 51 726Z" stroke="rgb(0,0,0)" stroke-opacity="1" stroke-width="8" fill="rgb(0,0,0)" fill-opacity="1"></path></g></g><g><g transform="matrix(1,0,0,1,454.05169677734375,19.86956787109375)"><path transform="matrix(0.017,0,0,-0.017,0,0)" d="M749 219L749 277L249 277L249 219Z" stroke="rgb(0,0,0)" stroke-opacity="1" stroke-width="8" fill="rgb(0,0,0)" fill-opacity="1"></path></g></g><g><g transform="matrix(1,0,0,1,470.99456787109375,20.7391357421875)"><path transform="matrix(0.017,0,0,-0.017,0,0)" d="M146 266C146 526 243 632 301 700L282 726C225 675 60 542 60 266C60 159 85 58 133 -32C168 -99 200 -138 282 -215L301 -194C255 -137 146 -15 146 266Z" stroke="rgb(0,0,0)" stroke-opacity="1" stroke-width="8" fill="rgb(0,0,0)" fill-opacity="1"></path></g></g><g><g transform="matrix(1,0,0,1,476.64678955078125,19.86956787109375)"><path transform="matrix(0.017,0,0,-0.017,0,0)" d="M708 253C708 366 627 446 513 446C465 446 429 443 376 396L376 605L681 604L681 689L324 690L324 322L344 316C391 363 418 377 467 377C563 377 623 309 623 201C623 90 559 25 450 25C396 25 346 43 332 69L286 151L262 137C285 80 297 48 311 4C339 -11 379 -20 422 -20C550 -20 708 89 708 253ZM1165 267L1034 213L1029 204L1065 153L1075 153L1181 241L1199 99L1209 95L1277 121L1277 131L1209 253L1347 233L1356 241L1356 303L1350 307L1211 283L1280 408L1277 423L1215 442L1206 438L1180 295L1085 393L1075 393L1031 341L1034 331ZM1905 204L1876 77C1872 60 1870 42 1870 26C1870 4 1879 -9 1894 -9C1917 -9 1958 17 2040 85L2033 106C2009 86 1980 59 1958 59C1949 59 1943 68 1943 82C1943 87 1943 90 1944 93L2036 472L2026 481L1993 463C1952 478 1935 482 1908 482C1880 482 1860 477 1833 464C1771 433 1738 403 1713 354C1669 265 1638 145 1638 67C1638 23 1653 -11 1672 -11C1709 -11 1789 41 1905 204ZM1953 414C1931 305 1912 253 1878 201C1821 117 1760 59 1728 59C1716 59 1710 72 1710 99C1710 163 1738 280 1773 360C1797 415 1820 433 1868 433C1891 433 1909 429 1953 414ZM2352 482C2285 482 2132 419 2132 259C2132 182 2177 136 2254 136C2262 136 2273 136 2284 137L2243 99C2227 84 2216 66 2216 52C2216 42 2223 31 2237 19C2168 -4 2040 -48 2040 -159C2040 -230 2110 -276 2219 -276C2348 -276 2461 -204 2461 -121C2461 -85 2440 -49 2397 -14L2337 35C2303 62 2290 81 2290 100C2290 114 2305 128 2317 146C2415 170 2486 253 2486 342C2486 357 2483 376 2482 380C2499 378 2507 378 2516 378C2533 378 2543 379 2566 382L2575 427L2572 433C2544 426 2524 424 2470 424C2470 425 2446 482 2352 482ZM2253 1L2330 -58C2376 -94 2395 -121 2395 -154C2395 -206 2326 -248 2243 -248C2161 -248 2104 -206 2104 -145C2104 -43 2214 -11 2253 1ZM2327 448C2385 448 2414 412 2414 341C2414 238 2366 168 2296 168C2235 168 2203 209 2203 288C2203 383 2254 448 2327 448ZM2904 111L2880 94C2827 56 2779 36 2743 36C2696 36 2667 73 2667 133C2667 158 2670 185 2675 214C2692 218 2801 248 2826 259C2911 296 2950 342 2950 404C2950 451 2916 482 2866 482C2798 496 2688 423 2651 349C2621 299 2591 180 2591 113C2591 35 2635 -11 2707 -11C2764 -11 2820 17 2912 92ZM2689 274C2706 343 2726 386 2755 412C2773 428 2804 440 2828 440C2857 440 2876 420 2876 388C2876 344 2841 297 2789 272C2761 258 2725 247 2680 237ZM3247 388L3254 368L3286 389C3323 412 3326 414 3333 414C3343 414 3351 404 3351 391C3351 384 3347 361 3343 347L3277 107C3269 76 3264 49 3264 30C3264 6 3275 -9 3294 -9C3320 -9 3356 12 3454 85L3444 103L3418 86C3389 67 3366 56 3357 56C3350 56 3344 66 3344 76C3344 86 3346 95 3351 116L3428 420C3432 437 3434 448 3434 456C3434 473 3425 482 3409 482C3387 482 3350 461 3275 408ZM3441 712C3412 712 3383 679 3383 645C3383 620 3398 604 3422 604C3453 604 3477 633 3477 671C3477 695 3462 712 3441 712ZM3514 388L3521 368L3553 389C3590 412 3593 414 3600 414C3611 414 3618 404 3618 389C3618 338 3577 145 3536 2L3543 -9C3568 -2 3591 4 3613 8C3632 134 3653 199 3699 268C3753 352 3828 414 3873 414C3884 414 3890 405 3890 390C3890 372 3887 351 3879 319L3827 107C3818 70 3814 47 3814 31C3814 6 3825 -9 3844 -9C3870 -9 3906 12 4004 85L3994 103L3968 86C3939 67 3917 56 3907 56C3900 56 3894 65 3894 76C3894 81 3895 92 3896 96L3962 372C3969 401 3973 429 3973 446C3973 469 3962 482 3942 482C3900 482 3831 444 3772 389C3734 354 3706 320 3654 247L3692 408C3696 426 3698 438 3698 449C3698 470 3690 482 3675 482C3654 482 3615 460 3542 408ZM4287 -180C4286 -187 4286 -193 4286 -198C4286 -241 4323 -276 4368 -276C4474 -276 4584 -152 4643 33L4784 473L4773 482C4744 471 4721 465 4699 463L4664 331C4652 284 4617 211 4584 162C4549 111 4500 67 4478 67C4466 67 4457 90 4458 115L4474 322C4476 353 4478 391 4478 419C4478 464 4471 482 4454 482C4441 482 4427 475 4379 442L4297 386L4308 368L4358 398C4363 401 4374 410 4383 410C4397 410 4405 391 4405 358C4405 357 4405 351 4404 343L4387 100L4386 60C4386 18 4404 -11 4429 -11C4466 -11 4550 74 4625 187L4576 16C4525 -161 4475 -234 4405 -234C4370 -234 4343 -207 4343 -172C4343 -167 4344 -159 4345 -150L4335 -146ZM5121 111L5097 94C5044 56 4996 36 4960 36C4913 36 4884 73 4884 133C4884 158 4887 185 4892 214C4909 218 5018 248 5043 259C5128 296 5167 342 5167 404C5167 451 5133 482 5083 482C5015 496 4905 423 4868 349C4838 299 4808 180 4808 113C4808 35 4852 -11 4924 -11C4981 -11 5037 17 5129 92ZM4906 274C4923 343 4943 386 4972 412C4990 428 5021 440 5045 440C5074 440 5093 420 5093 388C5093 344 5058 297 5006 272C4978 258 4942 247 4897 237ZM5452 204L5423 77C5419 60 5417 42 5417 26C5417 4 5426 -9 5441 -9C5464 -9 5505 17 5587 85L5580 106C5556 86 5527 59 5505 59C5496 59 5490 68 5490 82C5490 87 5490 90 5491 93L5583 472L5573 481L5540 463C5499 478 5482 482 5455 482C5427 482 5407 477 5380 464C5318 433 5285 403 5260 354C5216 265 5185 145 5185 67C5185 23 5200 -11 5219 -11C5256 -11 5336 41 5452 204ZM5500 414C5478 305 5459 253 5425 201C5368 117 5307 59 5275 59C5263 59 5257 72 5257 99C5257 163 5285 280 5320 360C5344 415 5367 433 5415 433C5438 433 5456 429 5500 414ZM5992 365C5995 403 6000 435 6008 476C5997 481 5993 482 5988 482C5957 482 5926 458 5890 407C5851 351 5812 291 5796 256L5828 408C5832 425 5834 438 5834 450C5834 470 5826 482 5811 482C5790 482 5752 461 5678 408L5650 388L5657 368L5689 389C5717 407 5728 412 5737 412C5747 412 5754 403 5754 390C5754 332 5711 126 5671 -2L5681 -9C5696 -4 5712 -1 5735 4L5748 6L5774 126C5792 209 5815 262 5859 319C5893 363 5920 384 5942 384C5957 384 5967 379 5978 365ZM6043 148C6038 97 6032 62 6021 16C6059 -2 6093 -11 6128 -11C6177 -11 6223 7 6274 47C6325 87 6346 124 6346 174C6346 228 6314 257 6240 271L6197 279C6137 290 6118 307 6118 348C6118 401 6163 442 6220 442C6261 442 6299 424 6315 397L6315 342L6338 342C6342 377 6346 404 6357 455C6318 474 6290 482 6257 482C6205 482 6144 452 6096 404C6070 377 6059 352 6059 316C6059 260 6090 228 6156 215L6219 203C6263 195 6279 177 6279 138C6279 73 6233 29 6162 29C6127 29 6096 40 6068 64L6068 148Z" stroke="rgb(0,0,0)" stroke-opacity="1" stroke-width="8" fill="rgb(0,0,0)" fill-opacity="1"></path></g></g><g><g transform="matrix(1,0,0,1,589.6222534179688,20.7391357421875)"><path transform="matrix(0.017,0,0,-0.017,0,0)" d="M51 726L32 700C87 636 187 526 187 266C187 -10 83 -131 32 -194L51 -215C104 -165 273 -23 273 265C273 542 108 675 51 726Z" stroke="rgb(0,0,0)" stroke-opacity="1" stroke-width="8" fill="rgb(0,0,0)" fill-opacity="1"></path></g></g><g><g transform="matrix(1,0,0,1,595.2744750976562,19.86956787109375)"><path transform="matrix(0.017,0,0,-0.017,0,0)" d="" stroke="rgb(0,0,0)" stroke-opacity="1" stroke-width="8" fill="rgb(0,0,0)" fill-opacity="1"></path></g></g><g><g transform="matrix(1,0,0,1,602.9103393554688,19.86956787109375)"><path transform="matrix(0.017,0,0,-0.017,0,0)" d="M604 241L604 300L364 300L364 538L305 538L305 300L65 300L65 241L305 241L305 0L364 0L364 241Z" stroke="rgb(0,0,0)" stroke-opacity="1" stroke-width="8" fill="rgb(0,0,0)" fill-opacity="1"></path></g></g><g><g transform="matrix(1,0,0,1,617.6658325195312,19.86956787109375)"><path transform="matrix(0.017,0,0,-0.017,0,0)" d="M708 253C708 366 627 446 513 446C465 446 429 443 376 396L376 605L681 604L681 689L324 690L324 322L344 316C391 363 418 377 467 377C563 377 623 309 623 201C623 90 559 25 450 25C396 25 346 43 332 69L286 151L262 137C285 80 297 48 311 4C339 -11 379 -20 422 -20C550 -20 708 89 708 253Z" stroke="rgb(0,0,0)" stroke-opacity="1" stroke-width="8" fill="rgb(0,0,0)" fill-opacity="1"></path></g></g></g></g><g><g><g><g transform="matrix(1,0,0,1,2.43475341796875,44.529876708984375)"><path transform="matrix(0.017,0,0,-0.017,0,0)" d="M303 692L264 691C226 689 202 689 182 689C170 689 148 690 110 691L71 692L71 664L89 662C130 656 138 645 142 588L174 158C179 92 181 44 182 -8L232 -8C246 27 264 66 282 102L506 546L618 154C633 102 644 53 657 -8L708 -8L715 18C725 58 733 85 746 124L917 631C923 648 938 660 960 662L980 664L980 692L948 691C919 690 897 689 883 689C870 689 848 690 818 691L785 692L780 664L819 662C848 661 860 653 860 639C860 626 857 608 851 590L704 128L546 700L528 700C516 673 494 624 476 588L252 132L221 616C221 646 234 660 266 662L303 664ZM960 152C960 46 1005 -11 1088 -11C1143 -11 1203 15 1248 57C1310 116 1354 230 1354 331C1354 425 1304 482 1221 482C1117 482 960 382 960 152ZM1184 444C1245 444 1278 399 1278 315C1278 219 1247 113 1203 60C1185 39 1159 27 1128 27C1070 27 1036 72 1036 151C1036 264 1075 387 1124 427C1137 438 1160 444 1184 444ZM2116 103L2090 86C2061 67 2039 56 2029 56C2022 56 2016 65 2016 76C2016 86 2018 95 2023 116L2098 413C2102 430 2105 446 2105 454C2105 471 2095 482 2079 482C2050 482 2012 464 1951 421C1888 376 1853 341 1804 272L1834 409C1838 429 1841 444 1841 451C1841 470 1831 482 1815 482C1785 482 1739 460 1684 418C1640 384 1620 363 1555 275L1588 408C1592 424 1594 439 1594 451C1594 470 1585 482 1571 482C1550 482 1512 461 1438 408L1410 388L1417 368C1454 391 1489 414 1496 414C1507 414 1514 404 1514 389C1514 338 1473 145 1432 2L1435 -9L1503 6L1525 108C1549 219 1576 278 1631 338C1673 384 1718 414 1746 414C1753 414 1757 406 1757 393C1757 358 1735 244 1694 69L1678 2L1683 -9L1752 6L1773 113C1789 194 1823 269 1867 318C1922 379 1972 414 2004 414C2012 414 2017 405 2017 389C2017 365 2014 351 1992 264C1952 105 1936 84 1936 31C1936 6 1947 -9 1966 -9C1992 -9 2028 12 2126 85ZM2491 111L2467 94C2414 56 2366 36 2330 36C2283 36 2254 73 2254 133C2254 158 2257 185 2262 214C2279 218 2388 248 2413 259C2498 296 2537 342 2537 404C2537 451 2503 482 2453 482C2385 496 2275 423 2238 349C2208 299 2178 180 2178 113C2178 35 2222 -11 2294 -11C2351 -11 2407 17 2499 92ZM2276 274C2293 343 2313 386 2342 412C2360 428 2391 440 2415 440C2444 440 2463 420 2463 388C2463 344 2428 297 2376 272C2348 258 2312 247 2267 237ZM2575 388L2582 368L2614 389C2651 412 2654 414 2661 414C2672 414 2679 404 2679 389C2679 338 2638 145 2597 2L2604 -9C2629 -2 2652 4 2674 8C2693 134 2714 199 2760 268C2814 352 2889 414 2934 414C2945 414 2951 405 2951 390C2951 372 2948 351 2940 319L2888 107C2879 70 2875 47 2875 31C2875 6 2886 -9 2905 -9C2931 -9 2967 12 3065 85L3055 103L3029 86C3000 67 2978 56 2968 56C2961 56 2955 65 2955 76C2955 81 2956 92 2957 96L3023 372C3030 401 3034 429 3034 446C3034 469 3023 482 3003 482C2961 482 2892 444 2833 389C2795 354 2767 320 2715 247L2753 408C2757 426 2759 438 2759 449C2759 470 2751 482 2736 482C2715 482 2676 460 2603 408Z" stroke="rgb(0,0,0)" stroke-opacity="1" stroke-width="8" fill="rgb(0,0,0)" fill-opacity="1"></path></g></g></g></g><g><g><g><g transform="matrix(1,0,0,1,73.00543212890625,44.529876708984375)"><path transform="matrix(0.017,0,0,-0.017,0,0)" d="M543 227C543 337 459 353 377 365C434 385 459 397 490 425C536 464 559 511 559 562C559 644 501 692 401 692C399 692 389 692 374 691L311 690C299 689 263 689 251 689C232 689 201 690 152 691L100 692L97 664L150 662C174 661 185 653 185 635C185 621 181 589 176 559L89 55C85 37 73 30 31 23L26 -3L63 -2C90 0 105 0 117 0C128 0 154 -1 180 -2L217 -3L237 -4C256 -5 269 -6 277 -6C392 -6 543 87 543 227ZM166 41L217 340L302 340C405 340 455 298 455 211C455 108 382 34 282 34C228 34 207 38 166 41ZM352 655C433 655 473 619 473 544C473 439 399 376 275 376L223 376L272 650C288 650 329 655 352 655ZM1547 664L1560 695C1532 699 1385 701 1383 692L1298 536L1052 114L902 692C879 686 756 690 735 692L732 664L758 662C810 658 828 648 828 622C828 616 682 100 680 93C664 41 649 28 594 23L591 -3L630 -2C664 -1 689 0 703 0C717 0 743 -1 778 -2L813 -3L816 25L778 28C746 30 729 40 729 55C729 65 731 78 736 96L860 560L1009 -18L1032 -18L1089 86L1328 500L1380 587L1343 67C1339 39 1327 32 1276 28L1245 25L1242 -3L1289 -2C1331 -1 1361 0 1376 0C1392 0 1422 -1 1463 -2L1509 -3L1512 25L1475 28C1439 31 1421 42 1421 63L1422 100L1463 631C1465 650 1480 660 1509 662ZM1668 664L1724 662C1748 661 1759 653 1759 635C1759 621 1755 589 1750 559L1675 125C1659 34 1657 32 1617 28L1576 25L1572 -3L1614 -2C1661 0 1680 0 1704 0L1801 -3L1827 -3L1830 25L1781 28C1754 30 1745 38 1745 58C1745 67 1746 76 1749 93L1850 648C1879 654 1899 656 1926 656C2013 656 2059 617 2059 543C2059 448 1981 378 1877 378L1833 378L1830 367C1964 172 1995 124 2070 -3C2070 -3 2155 0 2155 0C2156 0 2170 -1 2189 -3L2202 -3L2202 24C2162 29 2151 37 2122 79L1938 354C1993 364 2022 376 2058 402C2116 444 2147 499 2147 560C2147 646 2083 693 1972 691L1671 691Z" stroke="rgb(0,0,0)" stroke-opacity="1" stroke-width="8" fill="rgb(0,0,0)" fill-opacity="1"></path></g></g><g><g transform="matrix(1,0,0,1,120.20654296875,44.529876708984375)"><path transform="matrix(0.017,0,0,-0.017,0,0)" d="M604 347L604 406L65 406L65 347ZM604 134L604 193L65 193L65 134Z" stroke="rgb(0,0,0)" stroke-opacity="1" stroke-width="8" fill="rgb(0,0,0)" fill-opacity="1"></path></g></g><g><g transform="matrix(1,0,0,1,136.66033935546875,44.529876708984375)"><path transform="matrix(0.017,0,0,-0.017,0,0)" d="" stroke="rgb(0,0,0)" stroke-opacity="1" stroke-width="8" fill="rgb(0,0,0)" fill-opacity="1"></path></g></g><g><g transform="matrix(1,0,0,1,140.89947509765625,45.399444580078125)"><path transform="matrix(0.017,0,0,-0.017,0,0)" d="M146 266C146 526 243 632 301 700L282 726C225 675 60 542 60 266C60 159 85 58 133 -32C168 -99 200 -138 282 -215L301 -194C255 -137 146 -15 146 266Z" stroke="rgb(0,0,0)" stroke-opacity="1" stroke-width="8" fill="rgb(0,0,0)" fill-opacity="1"></path></g></g><g><g transform="matrix(1,0,0,1,146.5516357421875,44.529876708984375)"><path transform="matrix(0.017,0,0,-0.017,0,0)" d="M667 -3L667 27L615 30C560 33 550 44 550 96L550 700L309 598L316 548L466 614L466 96C466 44 455 33 401 30L345 27L345 -3C499 0 499 0 510 0C541 0 651 -3 667 -3ZM1011 689C856 689 777 566 777 324C777 207 798 106 833 57C868 8 924 -20 986 -20C1137 -20 1213 110 1213 366C1213 585 1148 689 1011 689ZM993 654C1090 654 1129 556 1129 316C1129 103 1091 15 999 15C902 15 861 116 861 360C861 571 898 654 993 654ZM1664 267L1533 213L1528 204L1564 153L1574 153L1680 241L1698 99L1708 95L1776 121L1776 131L1708 253L1846 233L1855 241L1855 303L1849 307L1710 283L1779 408L1776 423L1714 442L1705 438L1679 295L1584 393L1574 393L1530 341L1533 331ZM2300 420C2321 420 2334 421 2359 424C2304 350 2205 266 2205 126C2205 44 2240 -11 2293 -11C2357 -11 2409 44 2483 187C2474 143 2471 118 2471 95C2471 32 2500 -11 2545 -11C2679 -11 2832 238 2832 384C2832 441 2806 482 2770 482C2757 482 2745 478 2737 470L2687 423L2698 404C2707 410 2716 413 2725 413C2752 413 2768 390 2768 350C2768 205 2671 39 2586 39C2557 39 2536 79 2536 134C2536 181 2545 247 2557 290L2609 474L2602 482L2528 460L2499 311C2487 249 2473 209 2444 155C2404 80 2366 39 2336 39C2301 39 2278 78 2278 136C2278 255 2319 352 2418 464L2408 482C2388 473 2375 470 2347 470C2319 470 2277 472 2248 475L2236 476C2230 477 2225 477 2224 477C2212 477 2203 475 2192 470C2178 443 2167 407 2154 352L2176 352L2193 394C2200 411 2220 422 2244 422C2278 422 2261 420 2300 420ZM3182 111L3158 94C3105 56 3057 36 3021 36C2974 36 2945 73 2945 133C2945 158 2948 185 2953 214C2970 218 3079 248 3104 259C3189 296 3228 342 3228 404C3228 451 3194 482 3144 482C3076 496 2966 423 2929 349C2899 299 2869 180 2869 113C2869 35 2913 -11 2985 -11C3042 -11 3098 17 3190 92ZM2967 274C2984 343 3004 386 3033 412C3051 428 3082 440 3106 440C3135 440 3154 420 3154 388C3154 344 3119 297 3067 272C3039 258 3003 247 2958 237ZM3276 388L3283 368L3315 389C3352 412 3355 414 3362 414C3372 414 3380 404 3380 391C3380 384 3376 361 3372 347L3306 107C3298 76 3293 49 3293 30C3293 6 3304 -9 3323 -9C3349 -9 3385 12 3483 85L3473 103L3447 86C3418 67 3395 56 3386 56C3379 56 3373 66 3373 76C3373 86 3375 95 3380 116L3457 420C3461 437 3463 448 3463 456C3463 473 3454 482 3438 482C3416 482 3379 461 3304 408ZM3470 712C3441 712 3412 679 3412 645C3412 620 3427 604 3451 604C3482 604 3506 633 3506 671C3506 695 3491 712 3470 712ZM3794 482C3727 482 3574 419 3574 259C3574 182 3619 136 3696 136C3704 136 3715 136 3726 137L3685 99C3669 84 3658 66 3658 52C3658 42 3665 31 3679 19C3610 -4 3482 -48 3482 -159C3482 -230 3552 -276 3661 -276C3790 -276 3903 -204 3903 -121C3903 -85 3882 -49 3839 -14L3779 35C3745 62 3732 81 3732 100C3732 114 3747 128 3759 146C3857 170 3928 253 3928 342C3928 357 3925 376 3924 380C3941 378 3949 378 3958 378C3975 378 3985 379 4008 382L4017 427L4014 433C3986 426 3966 424 3912 424C3912 425 3888 482 3794 482ZM3695 1L3772 -58C3818 -94 3837 -121 3837 -154C3837 -206 3768 -248 3685 -248C3603 -248 3546 -206 3546 -145C3546 -43 3656 -11 3695 1ZM3769 448C3827 448 3856 412 3856 341C3856 238 3808 168 3738 168C3677 168 3645 209 3645 288C3645 383 3696 448 3769 448ZM4254 722L4242 733C4197 711 4156 697 4082 691L4078 670L4126 670C4144 670 4160 667 4160 647C4160 641 4160 632 4158 622L4116 388C4096 272 4054 80 4028 2L4035 -9L4104 7C4112 64 4126 164 4166 236C4211 317 4314 414 4356 414C4367 414 4378 407 4378 393C4378 375 4373 342 4363 303L4312 107C4306 85 4299 55 4299 31C4299 6 4309 -9 4330 -9C4362 -9 4430 41 4489 85L4479 103L4453 86C4430 71 4404 56 4392 56C4385 56 4379 65 4379 76C4379 88 4382 101 4386 116L4450 372C4456 398 4461 423 4461 447C4461 464 4455 482 4429 482C4394 482 4317 437 4249 374C4216 343 4190 308 4162 273L4158 275ZM4642 390L4586 107C4585 99 4573 61 4573 31C4573 6 4584 -9 4603 -9C4638 -9 4673 11 4751 74L4782 99L4772 117L4727 86C4698 66 4678 56 4667 56C4658 56 4653 64 4653 76C4653 102 4667 183 4696 328L4709 390L4816 390L4827 440C4789 436 4755 434 4717 434C4733 528 4744 577 4762 631L4751 646C4731 634 4704 622 4673 610L4648 440C4604 419 4578 408 4560 403L4558 390ZM5132 388L5139 368L5171 389C5208 412 5211 414 5218 414C5228 414 5236 404 5236 391C5236 384 5232 361 5228 347L5162 107C5154 76 5149 49 5149 30C5149 6 5160 -9 5179 -9C5205 -9 5241 12 5339 85L5329 103L5303 86C5274 67 5251 56 5242 56C5235 56 5229 66 5229 76C5229 86 5231 95 5236 116L5313 420C5317 437 5319 448 5319 456C5319 473 5310 482 5294 482C5272 482 5235 461 5160 408ZM5326 712C5297 712 5268 679 5268 645C5268 620 5283 604 5307 604C5338 604 5362 633 5362 671C5362 695 5347 712 5326 712ZM5399 388L5406 368L5438 389C5475 412 5478 414 5485 414C5496 414 5503 404 5503 389C5503 338 5462 145 5421 2L5428 -9C5453 -2 5476 4 5498 8C5517 134 5538 199 5584 268C5638 352 5713 414 5758 414C5769 414 5775 405 5775 390C5775 372 5772 351 5764 319L5712 107C5703 70 5699 47 5699 31C5699 6 5710 -9 5729 -9C5755 -9 5791 12 5889 85L5879 103L5853 86C5824 67 5802 56 5792 56C5785 56 5779 65 5779 76C5779 81 5780 92 5781 96L5847 372C5854 401 5858 429 5858 446C5858 469 5847 482 5827 482C5785 482 5716 444 5657 389C5619 354 5591 320 5539 247L5577 408C5581 426 5583 438 5583 449C5583 470 5575 482 5560 482C5539 482 5500 460 5427 408ZM6419 722L6407 733C6355 707 6319 698 6247 691L6243 670L6291 670C6315 670 6325 663 6325 646C6325 638 6324 629 6323 622L6275 354C6261 279 6245 210 6193 1L6202 -9L6269 8L6292 132C6301 180 6325 225 6359 259C6428 59 6460 -9 6485 -9C6498 -9 6522 4 6566 35L6612 67L6604 86L6561 62C6547 54 6540 52 6532 52C6522 52 6515 58 6506 75C6471 139 6449 193 6410 316L6424 330C6485 391 6531 416 6581 416C6589 416 6600 414 6617 410L6634 473C6616 479 6598 482 6586 482C6520 482 6437 405 6312 230ZM6922 482C6855 482 6702 419 6702 259C6702 182 6747 136 6824 136C6832 136 6843 136 6854 137L6813 99C6797 84 6786 66 6786 52C6786 42 6793 31 6807 19C6738 -4 6610 -48 6610 -159C6610 -230 6680 -276 6789 -276C6918 -276 7031 -204 7031 -121C7031 -85 7010 -49 6967 -14L6907 35C6873 62 6860 81 6860 100C6860 114 6875 128 6887 146C6985 170 7056 253 7056 342C7056 357 7053 376 7052 380C7069 378 7077 378 7086 378C7103 378 7113 379 7136 382L7145 427L7142 433C7114 426 7094 424 7040 424C7040 425 7016 482 6922 482ZM6823 1L6900 -58C6946 -94 6965 -121 6965 -154C6965 -206 6896 -248 6813 -248C6731 -248 6674 -206 6674 -145C6674 -43 6784 -11 6823 1ZM6897 448C6955 448 6984 412 6984 341C6984 238 6936 168 6866 168C6805 168 6773 209 6773 288C6773 383 6824 448 6897 448Z" stroke="rgb(0,0,0)" stroke-opacity="1" stroke-width="8" fill="rgb(0,0,0)" fill-opacity="1"></path></g></g><g><g transform="matrix(1,0,0,1,272.20379638671875,45.399444580078125)"><path transform="matrix(0.017,0,0,-0.017,0,0)" d="M51 726L32 700C87 636 187 526 187 266C187 -10 83 -131 32 -194L51 -215C104 -165 273 -23 273 265C273 542 108 675 51 726Z" stroke="rgb(0,0,0)" stroke-opacity="1" stroke-width="8" fill="rgb(0,0,0)" fill-opacity="1"></path></g></g><g><g transform="matrix(1,0,0,1,277.85595703125,44.529876708984375)"><path transform="matrix(0.017,0,0,-0.017,0,0)" d="" stroke="rgb(0,0,0)" stroke-opacity="1" stroke-width="8" fill="rgb(0,0,0)" fill-opacity="1"></path></g></g><g><g transform="matrix(1,0,0,1,285.49188232421875,44.529876708984375)"><path transform="matrix(0.017,0,0,-0.017,0,0)" d="M604 241L604 300L364 300L364 538L305 538L305 300L65 300L65 241L305 241L305 0L364 0L364 241Z" stroke="rgb(0,0,0)" stroke-opacity="1" stroke-width="8" fill="rgb(0,0,0)" fill-opacity="1"></path></g></g><g><g transform="matrix(1,0,0,1,300.247314453125,44.529876708984375)"><path transform="matrix(0.017,0,0,-0.017,0,0)" d="" stroke="rgb(0,0,0)" stroke-opacity="1" stroke-width="8" fill="rgb(0,0,0)" fill-opacity="1"></path></g></g><g><g transform="matrix(1,0,0,1,304.4864501953125,45.399444580078125)"><path transform="matrix(0.017,0,0,-0.017,0,0)" d="M146 266C146 526 243 632 301 700L282 726C225 675 60 542 60 266C60 159 85 58 133 -32C168 -99 200 -138 282 -215L301 -194C255 -137 146 -15 146 266Z" stroke="rgb(0,0,0)" stroke-opacity="1" stroke-width="8" fill="rgb(0,0,0)" fill-opacity="1"></path></g></g><g><g transform="matrix(1,0,0,1,310.13861083984375,44.529876708984375)"><path transform="matrix(0.017,0,0,-0.017,0,0)" d="M380 331C401 512 490 611 670 665L628 689C532 657 491 637 440 593C337 506 281 384 281 247C281 82 361 -20 490 -20C620 -20 717 83 717 219C717 334 648 409 542 409C465 409 433 370 380 331ZM504 349C580 349 631 283 631 184C631 80 580 13 503 13C418 13 372 86 372 220C372 255 376 274 387 291C409 325 456 349 504 349ZM872 111C842 111 815 83 815 53C815 23 842 -5 871 -5C903 -5 931 22 931 53C931 83 903 111 872 111ZM1013 23L1013 -3C1200 -3 1200 0 1236 0C1272 0 1272 -3 1465 -3L1465 82C1350 77 1304 81 1119 77L1301 270C1398 373 1428 428 1428 503C1428 618 1350 689 1223 689C1151 689 1102 669 1053 619L1036 483L1065 483L1078 529C1094 587 1130 612 1197 612C1283 612 1338 558 1338 473C1338 398 1296 324 1183 204ZM1955 253C1955 366 1874 446 1760 446C1712 446 1676 443 1623 396L1623 605L1928 604L1928 689L1571 690L1571 322L1591 316C1638 363 1665 377 1714 377C1810 377 1870 309 1870 201C1870 90 1806 25 1697 25C1643 25 1593 43 1579 69L1533 151L1509 137C1532 80 1544 48 1558 4C1586 -11 1626 -20 1669 -20C1797 -20 1955 89 1955 253ZM2412 267L2281 213L2276 204L2312 153L2322 153L2428 241L2446 99L2456 95L2524 121L2524 131L2456 253L2594 233L2603 241L2603 303L2597 307L2458 283L2527 408L2524 423L2462 442L2453 438L2427 295L2332 393L2322 393L2278 341L2281 331ZM3117 722L3105 733C3060 711 3019 697 2945 691L2941 670L2989 670C3007 670 3023 667 3023 647C3023 641 3023 632 3021 622L2979 388C2959 272 2917 80 2891 2L2898 -9L2967 7C2975 64 2989 164 3029 236C3074 317 3177 414 3219 414C3230 414 3241 407 3241 393C3241 375 3236 342 3226 303L3175 107C3169 85 3162 55 3162 31C3162 6 3172 -9 3193 -9C3225 -9 3293 41 3352 85L3342 103L3316 86C3293 71 3267 56 3255 56C3248 56 3242 65 3242 76C3242 88 3245 101 3249 116L3313 372C3319 398 3324 423 3324 447C3324 464 3318 482 3292 482C3257 482 3180 437 3112 374C3079 343 3053 308 3025 273L3021 275ZM3708 111L3684 94C3631 56 3583 36 3547 36C3500 36 3471 73 3471 133C3471 158 3474 185 3479 214C3496 218 3605 248 3630 259C3715 296 3754 342 3754 404C3754 451 3720 482 3670 482C3602 496 3492 423 3455 349C3425 299 3395 180 3395 113C3395 35 3439 -11 3511 -11C3568 -11 3624 17 3716 92ZM3493 274C3510 343 3530 386 3559 412C3577 428 3608 440 3632 440C3661 440 3680 420 3680 388C3680 344 3645 297 3593 272C3565 258 3529 247 3484 237ZM3802 388L3809 368L3841 389C3878 412 3881 414 3888 414C3898 414 3906 404 3906 391C3906 384 3902 361 3898 347L3832 107C3824 76 3819 49 3819 30C3819 6 3830 -9 3849 -9C3875 -9 3911 12 4009 85L3999 103L3973 86C3944 67 3921 56 3912 56C3905 56 3899 66 3899 76C3899 86 3901 95 3906 116L3983 420C3987 437 3989 448 3989 456C3989 473 3980 482 3964 482C3942 482 3905 461 3830 408ZM3996 712C3967 712 3938 679 3938 645C3938 620 3953 604 3977 604C4008 604 4032 633 4032 671C4032 695 4017 712 3996 712ZM4320 482C4253 482 4100 419 4100 259C4100 182 4145 136 4222 136C4230 136 4241 136 4252 137L4211 99C4195 84 4184 66 4184 52C4184 42 4191 31 4205 19C4136 -4 4008 -48 4008 -159C4008 -230 4078 -276 4187 -276C4316 -276 4429 -204 4429 -121C4429 -85 4408 -49 4365 -14L4305 35C4271 62 4258 81 4258 100C4258 114 4273 128 4285 146C4383 170 4454 253 4454 342C4454 357 4451 376 4450 380C4467 378 4475 378 4484 378C4501 378 4511 379 4534 382L4543 427L4540 433C4512 426 4492 424 4438 424C4438 425 4414 482 4320 482ZM4221 1L4298 -58C4344 -94 4363 -121 4363 -154C4363 -206 4294 -248 4211 -248C4129 -248 4072 -206 4072 -145C4072 -43 4182 -11 4221 1ZM4295 448C4353 448 4382 412 4382 341C4382 238 4334 168 4264 168C4203 168 4171 209 4171 288C4171 383 4222 448 4295 448ZM4780 722L4768 733C4723 711 4682 697 4608 691L4604 670L4652 670C4670 670 4686 667 4686 647C4686 641 4686 632 4684 622L4642 388C4622 272 4580 80 4554 2L4561 -9L4630 7C4638 64 4652 164 4692 236C4737 317 4840 414 4882 414C4893 414 4904 407 4904 393C4904 375 4899 342 4889 303L4838 107C4832 85 4825 55 4825 31C4825 6 4835 -9 4856 -9C4888 -9 4956 41 5015 85L5005 103L4979 86C4956 71 4930 56 4918 56C4911 56 4905 65 4905 76C4905 88 4908 101 4912 116L4976 372C4982 398 4987 423 4987 447C4987 464 4981 482 4955 482C4920 482 4843 437 4775 374C4742 343 4716 308 4688 273L4684 275ZM5168 390L5112 107C5111 99 5099 61 5099 31C5099 6 5110 -9 5129 -9C5164 -9 5199 11 5277 74L5308 99L5298 117L5253 86C5224 66 5204 56 5193 56C5184 56 5179 64 5179 76C5179 102 5193 183 5222 328L5235 390L5342 390L5353 440C5315 436 5281 434 5243 434C5259 528 5270 577 5288 631L5277 646C5257 634 5230 622 5199 610L5174 440C5130 419 5104 408 5086 403L5084 390ZM5658 388L5665 368L5697 389C5734 412 5737 414 5744 414C5754 414 5762 404 5762 391C5762 384 5758 361 5754 347L5688 107C5680 76 5675 49 5675 30C5675 6 5686 -9 5705 -9C5731 -9 5767 12 5865 85L5855 103L5829 86C5800 67 5777 56 5768 56C5761 56 5755 66 5755 76C5755 86 5757 95 5762 116L5839 420C5843 437 5845 448 5845 456C5845 473 5836 482 5820 482C5798 482 5761 461 5686 408ZM5852 712C5823 712 5794 679 5794 645C5794 620 5809 604 5833 604C5864 604 5888 633 5888 671C5888 695 5873 712 5852 712ZM5925 388L5932 368L5964 389C6001 412 6004 414 6011 414C6022 414 6029 404 6029 389C6029 338 5988 145 5947 2L5954 -9C5979 -2 6002 4 6024 8C6043 134 6064 199 6110 268C6164 352 6239 414 6284 414C6295 414 6301 405 6301 390C6301 372 6298 351 6290 319L6238 107C6229 70 6225 47 6225 31C6225 6 6236 -9 6255 -9C6281 -9 6317 12 6415 85L6405 103L6379 86C6350 67 6328 56 6318 56C6311 56 6305 65 6305 76C6305 81 6306 92 6307 96L6373 372C6380 401 6384 429 6384 446C6384 469 6373 482 6353 482C6311 482 6242 444 6183 389C6145 354 6117 320 6065 247L6103 408C6107 426 6109 438 6109 449C6109 470 6101 482 6086 482C6065 482 6026 460 5953 408ZM7047 330L7070 330C7078 395 7085 432 7094 458C7070 473 7035 482 6998 482C6953 483 6880 463 6823 400C6769 352 6730 241 6730 136C6730 40 6772 -11 6852 -11C6906 -11 6954 9 7009 54L7059 95L7051 115L7036 105C6964 57 6926 40 6891 40C6835 40 6806 80 6806 159C6806 267 6841 371 6890 409C6911 425 6935 433 6966 433C7011 433 7047 414 7047 390ZM7841 103L7815 86C7786 67 7764 56 7754 56C7747 56 7741 65 7741 76C7741 86 7743 95 7748 116L7823 413C7827 430 7830 446 7830 454C7830 471 7820 482 7804 482C7775 482 7737 464 7676 421C7613 376 7578 341 7529 272L7559 409C7563 429 7566 444 7566 451C7566 470 7556 482 7540 482C7510 482 7464 460 7409 418C7365 384 7345 363 7280 275L7313 408C7317 424 7319 439 7319 451C7319 470 7310 482 7296 482C7275 482 7237 461 7163 408L7135 388L7142 368C7179 391 7214 414 7221 414C7232 414 7239 404 7239 389C7239 338 7198 145 7157 2L7160 -9L7228 6L7250 108C7274 219 7301 278 7356 338C7398 384 7443 414 7471 414C7478 414 7482 406 7482 393C7482 358 7460 244 7419 69L7403 2L7408 -9L7477 6L7498 113C7514 194 7548 269 7592 318C7647 379 7697 414 7729 414C7737 414 7742 405 7742 389C7742 365 7739 351 7717 264C7677 105 7661 84 7661 31C7661 6 7672 -9 7691 -9C7717 -9 7753 12 7851 85Z" stroke="rgb(0,0,0)" stroke-opacity="1" stroke-width="8" fill="rgb(0,0,0)" fill-opacity="1"></path></g></g><g><g transform="matrix(1,0,0,1,448.39947509765625,45.399444580078125)"><path transform="matrix(0.017,0,0,-0.017,0,0)" d="M51 726L32 700C87 636 187 526 187 266C187 -10 83 -131 32 -194L51 -215C104 -165 273 -23 273 265C273 542 108 675 51 726Z" stroke="rgb(0,0,0)" stroke-opacity="1" stroke-width="8" fill="rgb(0,0,0)" fill-opacity="1"></path></g></g><g><g transform="matrix(1,0,0,1,454.05169677734375,44.529876708984375)"><path transform="matrix(0.017,0,0,-0.017,0,0)" d="M749 219L749 277L249 277L249 219Z" stroke="rgb(0,0,0)" stroke-opacity="1" stroke-width="8" fill="rgb(0,0,0)" fill-opacity="1"></path></g></g><g><g transform="matrix(1,0,0,1,470.99456787109375,45.399444580078125)"><path transform="matrix(0.017,0,0,-0.017,0,0)" d="M146 266C146 526 243 632 301 700L282 726C225 675 60 542 60 266C60 159 85 58 133 -32C168 -99 200 -138 282 -215L301 -194C255 -137 146 -15 146 266Z" stroke="rgb(0,0,0)" stroke-opacity="1" stroke-width="8" fill="rgb(0,0,0)" fill-opacity="1"></path></g></g><g><g transform="matrix(1,0,0,1,476.64678955078125,44.529876708984375)"><path transform="matrix(0.017,0,0,-0.017,0,0)" d="M708 253C708 366 627 446 513 446C465 446 429 443 376 396L376 605L681 604L681 689L324 690L324 322L344 316C391 363 418 377 467 377C563 377 623 309 623 201C623 90 559 25 450 25C396 25 346 43 332 69L286 151L262 137C285 80 297 48 311 4C339 -11 379 -20 422 -20C550 -20 708 89 708 253ZM1165 267L1034 213L1029 204L1065 153L1075 153L1181 241L1199 99L1209 95L1277 121L1277 131L1209 253L1347 233L1356 241L1356 303L1350 307L1211 283L1280 408L1277 423L1215 442L1206 438L1180 295L1085 393L1075 393L1031 341L1034 331ZM1905 204L1876 77C1872 60 1870 42 1870 26C1870 4 1879 -9 1894 -9C1917 -9 1958 17 2040 85L2033 106C2009 86 1980 59 1958 59C1949 59 1943 68 1943 82C1943 87 1943 90 1944 93L2036 472L2026 481L1993 463C1952 478 1935 482 1908 482C1880 482 1860 477 1833 464C1771 433 1738 403 1713 354C1669 265 1638 145 1638 67C1638 23 1653 -11 1672 -11C1709 -11 1789 41 1905 204ZM1953 414C1931 305 1912 253 1878 201C1821 117 1760 59 1728 59C1716 59 1710 72 1710 99C1710 163 1738 280 1773 360C1797 415 1820 433 1868 433C1891 433 1909 429 1953 414ZM2352 482C2285 482 2132 419 2132 259C2132 182 2177 136 2254 136C2262 136 2273 136 2284 137L2243 99C2227 84 2216 66 2216 52C2216 42 2223 31 2237 19C2168 -4 2040 -48 2040 -159C2040 -230 2110 -276 2219 -276C2348 -276 2461 -204 2461 -121C2461 -85 2440 -49 2397 -14L2337 35C2303 62 2290 81 2290 100C2290 114 2305 128 2317 146C2415 170 2486 253 2486 342C2486 357 2483 376 2482 380C2499 378 2507 378 2516 378C2533 378 2543 379 2566 382L2575 427L2572 433C2544 426 2524 424 2470 424C2470 425 2446 482 2352 482ZM2253 1L2330 -58C2376 -94 2395 -121 2395 -154C2395 -206 2326 -248 2243 -248C2161 -248 2104 -206 2104 -145C2104 -43 2214 -11 2253 1ZM2327 448C2385 448 2414 412 2414 341C2414 238 2366 168 2296 168C2235 168 2203 209 2203 288C2203 383 2254 448 2327 448ZM2904 111L2880 94C2827 56 2779 36 2743 36C2696 36 2667 73 2667 133C2667 158 2670 185 2675 214C2692 218 2801 248 2826 259C2911 296 2950 342 2950 404C2950 451 2916 482 2866 482C2798 496 2688 423 2651 349C2621 299 2591 180 2591 113C2591 35 2635 -11 2707 -11C2764 -11 2820 17 2912 92ZM2689 274C2706 343 2726 386 2755 412C2773 428 2804 440 2828 440C2857 440 2876 420 2876 388C2876 344 2841 297 2789 272C2761 258 2725 247 2680 237ZM3247 388L3254 368L3286 389C3323 412 3326 414 3333 414C3343 414 3351 404 3351 391C3351 384 3347 361 3343 347L3277 107C3269 76 3264 49 3264 30C3264 6 3275 -9 3294 -9C3320 -9 3356 12 3454 85L3444 103L3418 86C3389 67 3366 56 3357 56C3350 56 3344 66 3344 76C3344 86 3346 95 3351 116L3428 420C3432 437 3434 448 3434 456C3434 473 3425 482 3409 482C3387 482 3350 461 3275 408ZM3441 712C3412 712 3383 679 3383 645C3383 620 3398 604 3422 604C3453 604 3477 633 3477 671C3477 695 3462 712 3441 712ZM3514 388L3521 368L3553 389C3590 412 3593 414 3600 414C3611 414 3618 404 3618 389C3618 338 3577 145 3536 2L3543 -9C3568 -2 3591 4 3613 8C3632 134 3653 199 3699 268C3753 352 3828 414 3873 414C3884 414 3890 405 3890 390C3890 372 3887 351 3879 319L3827 107C3818 70 3814 47 3814 31C3814 6 3825 -9 3844 -9C3870 -9 3906 12 4004 85L3994 103L3968 86C3939 67 3917 56 3907 56C3900 56 3894 65 3894 76C3894 81 3895 92 3896 96L3962 372C3969 401 3973 429 3973 446C3973 469 3962 482 3942 482C3900 482 3831 444 3772 389C3734 354 3706 320 3654 247L3692 408C3696 426 3698 438 3698 449C3698 470 3690 482 3675 482C3654 482 3615 460 3542 408ZM4287 -180C4286 -187 4286 -193 4286 -198C4286 -241 4323 -276 4368 -276C4474 -276 4584 -152 4643 33L4784 473L4773 482C4744 471 4721 465 4699 463L4664 331C4652 284 4617 211 4584 162C4549 111 4500 67 4478 67C4466 67 4457 90 4458 115L4474 322C4476 353 4478 391 4478 419C4478 464 4471 482 4454 482C4441 482 4427 475 4379 442L4297 386L4308 368L4358 398C4363 401 4374 410 4383 410C4397 410 4405 391 4405 358C4405 357 4405 351 4404 343L4387 100L4386 60C4386 18 4404 -11 4429 -11C4466 -11 4550 74 4625 187L4576 16C4525 -161 4475 -234 4405 -234C4370 -234 4343 -207 4343 -172C4343 -167 4344 -159 4345 -150L4335 -146ZM5121 111L5097 94C5044 56 4996 36 4960 36C4913 36 4884 73 4884 133C4884 158 4887 185 4892 214C4909 218 5018 248 5043 259C5128 296 5167 342 5167 404C5167 451 5133 482 5083 482C5015 496 4905 423 4868 349C4838 299 4808 180 4808 113C4808 35 4852 -11 4924 -11C4981 -11 5037 17 5129 92ZM4906 274C4923 343 4943 386 4972 412C4990 428 5021 440 5045 440C5074 440 5093 420 5093 388C5093 344 5058 297 5006 272C4978 258 4942 247 4897 237ZM5452 204L5423 77C5419 60 5417 42 5417 26C5417 4 5426 -9 5441 -9C5464 -9 5505 17 5587 85L5580 106C5556 86 5527 59 5505 59C5496 59 5490 68 5490 82C5490 87 5490 90 5491 93L5583 472L5573 481L5540 463C5499 478 5482 482 5455 482C5427 482 5407 477 5380 464C5318 433 5285 403 5260 354C5216 265 5185 145 5185 67C5185 23 5200 -11 5219 -11C5256 -11 5336 41 5452 204ZM5500 414C5478 305 5459 253 5425 201C5368 117 5307 59 5275 59C5263 59 5257 72 5257 99C5257 163 5285 280 5320 360C5344 415 5367 433 5415 433C5438 433 5456 429 5500 414ZM5992 365C5995 403 6000 435 6008 476C5997 481 5993 482 5988 482C5957 482 5926 458 5890 407C5851 351 5812 291 5796 256L5828 408C5832 425 5834 438 5834 450C5834 470 5826 482 5811 482C5790 482 5752 461 5678 408L5650 388L5657 368L5689 389C5717 407 5728 412 5737 412C5747 412 5754 403 5754 390C5754 332 5711 126 5671 -2L5681 -9C5696 -4 5712 -1 5735 4L5748 6L5774 126C5792 209 5815 262 5859 319C5893 363 5920 384 5942 384C5957 384 5967 379 5978 365ZM6043 148C6038 97 6032 62 6021 16C6059 -2 6093 -11 6128 -11C6177 -11 6223 7 6274 47C6325 87 6346 124 6346 174C6346 228 6314 257 6240 271L6197 279C6137 290 6118 307 6118 348C6118 401 6163 442 6220 442C6261 442 6299 424 6315 397L6315 342L6338 342C6342 377 6346 404 6357 455C6318 474 6290 482 6257 482C6205 482 6144 452 6096 404C6070 377 6059 352 6059 316C6059 260 6090 228 6156 215L6219 203C6263 195 6279 177 6279 138C6279 73 6233 29 6162 29C6127 29 6096 40 6068 64L6068 148Z" stroke="rgb(0,0,0)" stroke-opacity="1" stroke-width="8" fill="rgb(0,0,0)" fill-opacity="1"></path></g></g><g><g transform="matrix(1,0,0,1,589.6222534179688,45.399444580078125)"><path transform="matrix(0.017,0,0,-0.017,0,0)" d="M51 726L32 700C87 636 187 526 187 266C187 -10 83 -131 32 -194L51 -215C104 -165 273 -23 273 265C273 542 108 675 51 726Z" stroke="rgb(0,0,0)" stroke-opacity="1" stroke-width="8" fill="rgb(0,0,0)" fill-opacity="1"></path></g></g><g><g transform="matrix(1,0,0,1,595.2744750976562,44.529876708984375)"><path transform="matrix(0.017,0,0,-0.017,0,0)" d="M749 219L749 277L249 277L249 219ZM1415 -3L1415 27L1363 30C1308 33 1298 44 1298 96L1298 700L1057 598L1064 548L1214 614L1214 96C1214 44 1203 33 1149 30L1093 27L1093 -3C1247 0 1247 0 1258 0C1289 0 1399 -3 1415 -3ZM1627 331C1648 512 1737 611 1917 665L1875 689C1779 657 1738 637 1687 593C1584 506 1528 384 1528 247C1528 82 1608 -20 1737 -20C1867 -20 1964 83 1964 219C1964 334 1895 409 1789 409C1712 409 1680 370 1627 331ZM1751 349C1827 349 1878 283 1878 184C1878 80 1827 13 1750 13C1665 13 1619 86 1619 220C1619 255 1623 274 1634 291C1656 325 1703 349 1751 349ZM2413 -3L2413 27L2361 30C2306 33 2296 44 2296 96L2296 700L2055 598L2062 548L2212 614L2212 96C2212 44 2201 33 2147 30L2091 27L2091 -3C2245 0 2245 0 2256 0C2287 0 2397 -3 2413 -3Z" stroke="rgb(0,0,0)" stroke-opacity="1" stroke-width="8" fill="rgb(0,0,0)" fill-opacity="1"></path></g></g></g></g></svg>