<svg xmlns="http://www.w3.org/2000/svg" xmlns:xlink="http://www.w3.org/1999/xlink" width="183.45655393600464" height="26.377717971801758" style="width:183.45655393600464px;height:26.377717971801758px;font-family:Asana-Math, Asana;background:#FFF;"><g><g><g><g transform="matrix(1,0,0,1,2,18.13043212890625)"><path transform="matrix(0.017,0,0,-0.017,0,0)" d="M167 420C188 420 201 421 226 424C171 350 72 266 72 126C72 44 107 -11 160 -11C224 -11 276 44 350 187C341 143 338 118 338 95C338 32 367 -11 412 -11C546 -11 699 238 699 384C699 441 673 482 637 482C624 482 612 478 604 470L554 423L565 404C574 410 583 413 592 413C619 413 635 390 635 350C635 205 538 39 453 39C424 39 403 79 403 134C403 181 412 247 424 290L476 474L469 482L395 460L366 311C354 249 340 209 311 155C271 80 233 39 203 39C168 39 145 78 145 136C145 255 186 352 285 464L275 482C255 473 242 470 214 470C186 470 144 472 115 475L103 476C97 477 92 477 91 477C79 477 70 475 59 470C45 443 34 407 21 352L43 352L60 394C67 411 87 422 111 422C145 422 128 420 167 420ZM1049 111L1025 94C972 56 924 36 888 36C841 36 812 73 812 133C812 158 815 185 820 214C837 218 946 248 971 259C1056 296 1095 342 1095 404C1095 451 1061 482 1011 482C943 496 833 423 796 349C766 299 736 180 736 113C736 35 780 -11 852 -11C909 -11 965 17 1057 92ZM834 274C851 343 871 386 900 412C918 428 949 440 973 440C1002 440 1021 420 1021 388C1021 344 986 297 934 272C906 258 870 247 825 237ZM1143 388L1150 368L1182 389C1219 412 1222 414 1229 414C1239 414 1247 404 1247 391C1247 384 1243 361 1239 347L1173 107C1165 76 1160 49 1160 30C1160 6 1171 -9 1190 -9C1216 -9 1252 12 1350 85L1340 103L1314 86C1285 67 1262 56 1253 56C1246 56 1240 66 1240 76C1240 86 1242 95 1247 116L1324 420C1328 437 1330 448 1330 456C1330 473 1321 482 1305 482C1283 482 1246 461 1171 408ZM1337 712C1308 712 1279 679 1279 645C1279 620 1294 604 1318 604C1349 604 1373 633 1373 671C1373 695 1358 712 1337 712ZM1661 482C1594 482 1441 419 1441 259C1441 182 1486 136 1563 136C1571 136 1582 136 1593 137L1552 99C1536 84 1525 66 1525 52C1525 42 1532 31 1546 19C1477 -4 1349 -48 1349 -159C1349 -230 1419 -276 1528 -276C1657 -276 1770 -204 1770 -121C1770 -85 1749 -49 1706 -14L1646 35C1612 62 1599 81 1599 100C1599 114 1614 128 1626 146C1724 170 1795 253 1795 342C1795 357 1792 376 1791 380C1808 378 1816 378 1825 378C1842 378 1852 379 1875 382L1884 427L1881 433C1853 426 1833 424 1779 424C1779 425 1755 482 1661 482ZM1562 1L1639 -58C1685 -94 1704 -121 1704 -154C1704 -206 1635 -248 1552 -248C1470 -248 1413 -206 1413 -145C1413 -43 1523 -11 1562 1ZM1636 448C1694 448 1723 412 1723 341C1723 238 1675 168 1605 168C1544 168 1512 209 1512 288C1512 383 1563 448 1636 448ZM2121 722L2109 733C2064 711 2023 697 1949 691L1945 670L1993 670C2011 670 2027 667 2027 647C2027 641 2027 632 2025 622L1983 388C1963 272 1921 80 1895 2L1902 -9L1971 7C1979 64 1993 164 2033 236C2078 317 2181 414 2223 414C2234 414 2245 407 2245 393C2245 375 2240 342 2230 303L2179 107C2173 85 2166 55 2166 31C2166 6 2176 -9 2197 -9C2229 -9 2297 41 2356 85L2346 103L2320 86C2297 71 2271 56 2259 56C2252 56 2246 65 2246 76C2246 88 2249 101 2253 116L2317 372C2323 398 2328 423 2328 447C2328 464 2322 482 2296 482C2261 482 2184 437 2116 374C2083 343 2057 308 2029 273L2025 275ZM2509 390L2453 107C2452 99 2440 61 2440 31C2440 6 2451 -9 2470 -9C2505 -9 2540 11 2618 74L2649 99L2639 117L2594 86C2565 66 2545 56 2534 56C2525 56 2520 64 2520 76C2520 102 2534 183 2563 328L2576 390L2683 390L2694 440C2656 436 2622 434 2584 434C2600 528 2611 577 2629 631L2618 646C2598 634 2571 622 2540 610L2515 440C2471 419 2445 408 2427 403L2425 390ZM3448 722L3436 733C3384 707 3348 698 3276 691L3272 670L3320 670C3344 670 3354 663 3354 646C3354 638 3353 629 3352 622L3324 468C3294 477 3267 482 3242 482C3173 482 3079 410 3033 323C3002 265 2982 170 2982 86C2982 21 2997 -11 3026 -11C3053 -11 3090 6 3124 33C3178 77 3211 116 3278 217L3255 126C3244 82 3239 50 3239 24C3239 3 3248 -9 3265 -9C3282 -9 3306 3 3340 28L3421 88L3411 107L3367 76C3353 66 3337 59 3328 59C3320 59 3314 68 3314 82C3314 90 3315 99 3322 128ZM3079 59C3063 59 3054 73 3054 98C3054 224 3100 380 3149 418C3162 428 3181 433 3208 433C3252 433 3281 427 3314 410L3302 351C3265 171 3124 59 3079 59ZM3481 152C3481 46 3526 -11 3609 -11C3664 -11 3724 15 3769 57C3831 116 3875 230 3875 331C3875 425 3825 482 3742 482C3638 482 3481 382 3481 152ZM3705 444C3766 444 3799 399 3799 315C3799 219 3768 113 3724 60C3706 39 3680 27 3649 27C3591 27 3557 72 3557 151C3557 264 3596 387 3645 427C3658 438 3681 444 3705 444ZM4074 420C4095 420 4108 421 4133 424C4078 350 3979 266 3979 126C3979 44 4014 -11 4067 -11C4131 -11 4183 44 4257 187C4248 143 4245 118 4245 95C4245 32 4274 -11 4319 -11C4453 -11 4606 238 4606 384C4606 441 4580 482 4544 482C4531 482 4519 478 4511 470L4461 423L4472 404C4481 410 4490 413 4499 413C4526 413 4542 390 4542 350C4542 205 4445 39 4360 39C4331 39 4310 79 4310 134C4310 181 4319 247 4331 290L4383 474L4376 482L4302 460L4273 311C4261 249 4247 209 4218 155C4178 80 4140 39 4110 39C4075 39 4052 78 4052 136C4052 255 4093 352 4192 464L4182 482C4162 473 4149 470 4121 470C4093 470 4051 472 4022 475L4010 476C4004 477 3999 477 3998 477C3986 477 3977 475 3966 470C3952 443 3941 407 3928 352L3950 352L3967 394C3974 411 3994 422 4018 422C4052 422 4035 420 4074 420ZM4652 388L4659 368L4691 389C4728 412 4731 414 4738 414C4749 414 4756 404 4756 389C4756 338 4715 145 4674 2L4681 -9C4706 -2 4729 4 4751 8C4770 134 4791 199 4837 268C4891 352 4966 414 5011 414C5022 414 5028 405 5028 390C5028 372 5025 351 5017 319L4965 107C4956 70 4952 47 4952 31C4952 6 4963 -9 4982 -9C5008 -9 5044 12 5142 85L5132 103L5106 86C5077 67 5055 56 5045 56C5038 56 5032 65 5032 76C5032 81 5033 92 5034 96L5100 372C5107 401 5111 429 5111 446C5111 469 5100 482 5080 482C5038 482 4969 444 4910 389C4872 354 4844 320 4792 247L4830 408C4834 426 4836 438 4836 449C4836 470 4828 482 4813 482C4792 482 4753 460 4680 408Z" stroke="rgb(0,0,0)" stroke-opacity="1" stroke-width="8" fill="rgb(0,0,0)" fill-opacity="1"></path></g></g><g><g transform="matrix(1,0,0,1,99.4049072265625,18.13043212890625)"><path transform="matrix(0.017,0,0,-0.017,0,0)" d="M604 347L604 406L65 406L65 347ZM604 134L604 193L65 193L65 134Z" stroke="rgb(0,0,0)" stroke-opacity="1" stroke-width="8" fill="rgb(0,0,0)" fill-opacity="1"></path></g></g><g><g transform="matrix(1,0,0,1,115.85870361328125,18.13043212890625)"><path transform="matrix(0.017,0,0,-0.017,0,0)" d="M470 334L587 334L719 330L738 375L734 382C653 378 593 376 515 376L478 376L525 646C557 647 640 650 662 650C724 650 765 641 766 626L774 537L798 537C801 601 808 651 819 689C798 691 768 692 750 692C747 692 736 692 712 691L592 690C583 689 409 691 399 691L354 692L351 664L405 662C429 661 440 653 440 635C440 621 436 589 431 559L344 55C340 37 328 30 284 23L279 -3L320 -2C351 -1 413 0 433 0L658 -3C672 -3 697 -2 730 -1L763 0L767 36C769 56 774 86 783 135L788 161L761 161L745 101C735 65 726 53 704 48C684 44 611 39 557 39C516 39 489 40 420 46Z" stroke="rgb(0,0,0)" stroke-opacity="1" stroke-width="8" fill="rgb(0,0,0)" fill-opacity="1"></path></g></g><g><g><g><g><g transform="matrix(1,0,0,1,130.9674072265625,21.997824096679686)"><path transform="matrix(0.0119,0,0,-0.0119,0,0)" d="M34 388L41 368L73 389C110 412 113 414 120 414C130 414 138 404 138 391C138 384 134 361 130 347L64 107C56 76 51 49 51 30C51 6 62 -9 81 -9C107 -9 143 12 241 85L231 103L205 86C176 67 153 56 144 56C137 56 131 66 131 76C131 86 133 95 138 116L215 420C219 437 221 448 221 456C221 473 212 482 196 482C174 482 137 461 62 408ZM228 712C199 712 170 679 170 645C170 620 185 604 209 604C240 604 264 633 264 671C264 695 249 712 228 712Z" stroke="rgb(0,0,0)" stroke-opacity="1" stroke-width="8" fill="rgb(0,0,0)" fill-opacity="1"></path></g></g></g></g></g><g><g transform="matrix(1,0,0,1,135.2880859375,18.13043212890625)"><path transform="matrix(0.017,0,0,-0.017,0,0)" d="" stroke="rgb(0,0,0)" stroke-opacity="1" stroke-width="8" fill="rgb(0,0,0)" fill-opacity="1"></path></g></g><g><g transform="matrix(1,0,0,1,144.622314453125,18.13043212890625)"><path transform="matrix(0.017,0,0,-0.017,0,0)" d="M604 0L604 59L166 264L604 469L604 528L65 273L65 252Z" stroke="rgb(0,0,0)" stroke-opacity="1" stroke-width="8" fill="rgb(0,0,0)" fill-opacity="1"></path></g></g><g><g transform="matrix(1,0,0,1,161.07611083984375,18.13043212890625)"><path transform="matrix(0.017,0,0,-0.017,0,0)" d="M470 334L587 334L719 330L738 375L734 382C653 378 593 376 515 376L478 376L525 646C557 647 640 650 662 650C724 650 765 641 766 626L774 537L798 537C801 601 808 651 819 689C798 691 768 692 750 692C747 692 736 692 712 691L592 690C583 689 409 691 399 691L354 692L351 664L405 662C429 661 440 653 440 635C440 621 436 589 431 559L344 55C340 37 328 30 284 23L279 -3L320 -2C351 -1 413 0 433 0L658 -3C672 -3 697 -2 730 -1L763 0L767 36C769 56 774 86 783 135L788 161L761 161L745 101C735 65 726 53 704 48C684 44 611 39 557 39C516 39 489 40 420 46Z" stroke="rgb(0,0,0)" stroke-opacity="1" stroke-width="8" fill="rgb(0,0,0)" fill-opacity="1"></path></g></g><g><g><g><g><g transform="matrix(1,0,0,1,176.184814453125,21.997824096679686)"><path transform="matrix(0.0119,0,0,-0.0119,0,0)" d="M17 152C17 46 62 -11 145 -11C200 -11 260 15 305 57C367 116 411 230 411 331C411 425 361 482 278 482C174 482 17 382 17 152ZM241 444C302 444 335 399 335 315C335 219 304 113 260 60C242 39 216 27 185 27C127 27 93 72 93 151C93 264 132 387 181 427C194 438 217 444 241 444Z" stroke="rgb(0,0,0)" stroke-opacity="1" stroke-width="8" fill="rgb(0,0,0)" fill-opacity="1"></path></g></g></g></g></g></g></g></svg>