<svg xmlns="http://www.w3.org/2000/svg" xmlns:xlink="http://www.w3.org/1999/xlink" width="163.6739001274109" height="26.377717971801758" style="width:163.6739001274109px;height:26.377717971801758px;font-family:Asana-Math, Asana;background:#FFF;"><g><g><g><g transform="matrix(1,0,0,1,2,18.13043212890625)"><path transform="matrix(0.017,0,0,-0.017,0,0)" d="M167 420C188 420 201 421 226 424C171 350 72 266 72 126C72 44 107 -11 160 -11C224 -11 276 44 350 187C341 143 338 118 338 95C338 32 367 -11 412 -11C546 -11 699 238 699 384C699 441 673 482 637 482C624 482 612 478 604 470L554 423L565 404C574 410 583 413 592 413C619 413 635 390 635 350C635 205 538 39 453 39C424 39 403 79 403 134C403 181 412 247 424 290L476 474L469 482L395 460L366 311C354 249 340 209 311 155C271 80 233 39 203 39C168 39 145 78 145 136C145 255 186 352 285 464L275 482C255 473 242 470 214 470C186 470 144 472 115 475L103 476C97 477 92 477 91 477C79 477 70 475 59 470C45 443 34 407 21 352L43 352L60 394C67 411 87 422 111 422C145 422 128 420 167 420ZM1049 111L1025 94C972 56 924 36 888 36C841 36 812 73 812 133C812 158 815 185 820 214C837 218 946 248 971 259C1056 296 1095 342 1095 404C1095 451 1061 482 1011 482C943 496 833 423 796 349C766 299 736 180 736 113C736 35 780 -11 852 -11C909 -11 965 17 1057 92ZM834 274C851 343 871 386 900 412C918 428 949 440 973 440C1002 440 1021 420 1021 388C1021 344 986 297 934 272C906 258 870 247 825 237ZM1143 388L1150 368L1182 389C1219 412 1222 414 1229 414C1239 414 1247 404 1247 391C1247 384 1243 361 1239 347L1173 107C1165 76 1160 49 1160 30C1160 6 1171 -9 1190 -9C1216 -9 1252 12 1350 85L1340 103L1314 86C1285 67 1262 56 1253 56C1246 56 1240 66 1240 76C1240 86 1242 95 1247 116L1324 420C1328 437 1330 448 1330 456C1330 473 1321 482 1305 482C1283 482 1246 461 1171 408ZM1337 712C1308 712 1279 679 1279 645C1279 620 1294 604 1318 604C1349 604 1373 633 1373 671C1373 695 1358 712 1337 712ZM1661 482C1594 482 1441 419 1441 259C1441 182 1486 136 1563 136C1571 136 1582 136 1593 137L1552 99C1536 84 1525 66 1525 52C1525 42 1532 31 1546 19C1477 -4 1349 -48 1349 -159C1349 -230 1419 -276 1528 -276C1657 -276 1770 -204 1770 -121C1770 -85 1749 -49 1706 -14L1646 35C1612 62 1599 81 1599 100C1599 114 1614 128 1626 146C1724 170 1795 253 1795 342C1795 357 1792 376 1791 380C1808 378 1816 378 1825 378C1842 378 1852 379 1875 382L1884 427L1881 433C1853 426 1833 424 1779 424C1779 425 1755 482 1661 482ZM1562 1L1639 -58C1685 -94 1704 -121 1704 -154C1704 -206 1635 -248 1552 -248C1470 -248 1413 -206 1413 -145C1413 -43 1523 -11 1562 1ZM1636 448C1694 448 1723 412 1723 341C1723 238 1675 168 1605 168C1544 168 1512 209 1512 288C1512 383 1563 448 1636 448ZM2121 722L2109 733C2064 711 2023 697 1949 691L1945 670L1993 670C2011 670 2027 667 2027 647C2027 641 2027 632 2025 622L1983 388C1963 272 1921 80 1895 2L1902 -9L1971 7C1979 64 1993 164 2033 236C2078 317 2181 414 2223 414C2234 414 2245 407 2245 393C2245 375 2240 342 2230 303L2179 107C2173 85 2166 55 2166 31C2166 6 2176 -9 2197 -9C2229 -9 2297 41 2356 85L2346 103L2320 86C2297 71 2271 56 2259 56C2252 56 2246 65 2246 76C2246 88 2249 101 2253 116L2317 372C2323 398 2328 423 2328 447C2328 464 2322 482 2296 482C2261 482 2184 437 2116 374C2083 343 2057 308 2029 273L2025 275ZM2509 390L2453 107C2452 99 2440 61 2440 31C2440 6 2451 -9 2470 -9C2505 -9 2540 11 2618 74L2649 99L2639 117L2594 86C2565 66 2545 56 2534 56C2525 56 2520 64 2520 76C2520 102 2534 183 2563 328L2576 390L2683 390L2694 440C2656 436 2622 434 2584 434C2600 528 2611 577 2629 631L2618 646C2598 634 2571 622 2540 610L2515 440C2471 419 2445 408 2427 403L2425 390ZM3457 473L3450 482L3382 465L3372 414C3357 336 3332 268 3301 221C3242 130 3164 59 3124 59C3116 59 3111 68 3111 85C3111 99 3113 112 3118 137L3175 408C3178 424 3180 438 3180 451C3180 470 3171 482 3157 482C3137 482 3099 461 3025 408L2997 388L3004 368L3036 389C3064 407 3075 412 3084 412C3093 412 3101 403 3101 392C3101 388 3100 378 3099 374L3036 77C3034 68 3032 44 3032 30C3032 7 3047 -11 3067 -11C3130 -11 3251 101 3335 239L3298 97C3291 73 3287 46 3287 31C3287 6 3298 -9 3317 -9C3343 -9 3379 12 3477 85L3467 103L3441 86C3417 70 3391 59 3380 59C3372 59 3367 66 3367 76C3367 112 3442 416 3457 473ZM3696 -11C3752 -11 3867 62 3910 125C3951 186 3985 296 3985 371C3985 438 3962 482 3926 482C3884 482 3831 456 3779 409C3738 374 3718 348 3682 289L3706 408C3709 425 3711 440 3711 452C3711 471 3703 482 3689 482C3668 482 3630 461 3556 408L3528 388L3535 368L3567 389C3595 407 3606 412 3615 412C3625 412 3632 403 3632 389C3632 381 3630 361 3628 351L3570 8C3560 -52 3541 -143 3521 -233L3513 -270L3520 -276C3541 -269 3561 -264 3593 -259L3635 3C3656 -4 3678 -11 3696 -11ZM3663 165C3685 293 3792 424 3875 424C3901 424 3913 402 3913 356C3913 275 3873 156 3820 80C3800 51 3768 36 3727 36C3696 36 3671 43 3645 59Z" stroke="rgb(0,0,0)" stroke-opacity="1" stroke-width="8" fill="rgb(0,0,0)" fill-opacity="1"></path></g></g><g><g transform="matrix(1,0,0,1,79.62225341796875,18.13043212890625)"><path transform="matrix(0.017,0,0,-0.017,0,0)" d="M604 347L604 406L65 406L65 347ZM604 134L604 193L65 193L65 134Z" stroke="rgb(0,0,0)" stroke-opacity="1" stroke-width="8" fill="rgb(0,0,0)" fill-opacity="1"></path></g></g><g><g transform="matrix(1,0,0,1,96.0760498046875,18.13043212890625)"><path transform="matrix(0.017,0,0,-0.017,0,0)" d="M470 334L587 334L719 330L738 375L734 382C653 378 593 376 515 376L478 376L525 646C557 647 640 650 662 650C724 650 765 641 766 626L774 537L798 537C801 601 808 651 819 689C798 691 768 692 750 692C747 692 736 692 712 691L592 690C583 689 409 691 399 691L354 692L351 664L405 662C429 661 440 653 440 635C440 621 436 589 431 559L344 55C340 37 328 30 284 23L279 -3L320 -2C351 -1 413 0 433 0L658 -3C672 -3 697 -2 730 -1L763 0L767 36C769 56 774 86 783 135L788 161L761 161L745 101C735 65 726 53 704 48C684 44 611 39 557 39C516 39 489 40 420 46Z" stroke="rgb(0,0,0)" stroke-opacity="1" stroke-width="8" fill="rgb(0,0,0)" fill-opacity="1"></path></g></g><g><g><g><g><g transform="matrix(1,0,0,1,111.18475341796875,21.997824096679686)"><path transform="matrix(0.0119,0,0,-0.0119,0,0)" d="M34 388L41 368L73 389C110 412 113 414 120 414C130 414 138 404 138 391C138 384 134 361 130 347L64 107C56 76 51 49 51 30C51 6 62 -9 81 -9C107 -9 143 12 241 85L231 103L205 86C176 67 153 56 144 56C137 56 131 66 131 76C131 86 133 95 138 116L215 420C219 437 221 448 221 456C221 473 212 482 196 482C174 482 137 461 62 408ZM228 712C199 712 170 679 170 645C170 620 185 604 209 604C240 604 264 633 264 671C264 695 249 712 228 712Z" stroke="rgb(0,0,0)" stroke-opacity="1" stroke-width="8" fill="rgb(0,0,0)" fill-opacity="1"></path></g></g></g></g></g><g><g transform="matrix(1,0,0,1,115.50543212890625,18.13043212890625)"><path transform="matrix(0.017,0,0,-0.017,0,0)" d="" stroke="rgb(0,0,0)" stroke-opacity="1" stroke-width="8" fill="rgb(0,0,0)" fill-opacity="1"></path></g></g><g><g transform="matrix(1,0,0,1,124.83966064453125,18.13043212890625)"><path transform="matrix(0.017,0,0,-0.017,0,0)" d="M65 0L604 252L604 273L65 528L65 469L503 264L65 59Z" stroke="rgb(0,0,0)" stroke-opacity="1" stroke-width="8" fill="rgb(0,0,0)" fill-opacity="1"></path></g></g><g><g transform="matrix(1,0,0,1,141.29345703125,18.13043212890625)"><path transform="matrix(0.017,0,0,-0.017,0,0)" d="M470 334L587 334L719 330L738 375L734 382C653 378 593 376 515 376L478 376L525 646C557 647 640 650 662 650C724 650 765 641 766 626L774 537L798 537C801 601 808 651 819 689C798 691 768 692 750 692C747 692 736 692 712 691L592 690C583 689 409 691 399 691L354 692L351 664L405 662C429 661 440 653 440 635C440 621 436 589 431 559L344 55C340 37 328 30 284 23L279 -3L320 -2C351 -1 413 0 433 0L658 -3C672 -3 697 -2 730 -1L763 0L767 36C769 56 774 86 783 135L788 161L761 161L745 101C735 65 726 53 704 48C684 44 611 39 557 39C516 39 489 40 420 46Z" stroke="rgb(0,0,0)" stroke-opacity="1" stroke-width="8" fill="rgb(0,0,0)" fill-opacity="1"></path></g></g><g><g><g><g><g transform="matrix(1,0,0,1,156.40216064453125,21.997824096679686)"><path transform="matrix(0.0119,0,0,-0.0119,0,0)" d="M17 152C17 46 62 -11 145 -11C200 -11 260 15 305 57C367 116 411 230 411 331C411 425 361 482 278 482C174 482 17 382 17 152ZM241 444C302 444 335 399 335 315C335 219 304 113 260 60C242 39 216 27 185 27C127 27 93 72 93 151C93 264 132 387 181 427C194 438 217 444 241 444Z" stroke="rgb(0,0,0)" stroke-opacity="1" stroke-width="8" fill="rgb(0,0,0)" fill-opacity="1"></path></g></g></g></g></g></g></g></svg>